---
---
<?xml version="1.0" encoding="UTF-8"?>

<!--
Note: don't include a DOCTYPE in SVG documents:
http://jwatt.org/svg/authoring/
-->

<svg viewBox="-128.8 -128.8 257.7 257.7"
	preserveAspectRatio="xMidYMid meet"
	version="1.1"
	xmlns="http://www.w3.org/2000/svg"
	xmlns:svg="http://www.w3.org/2000/svg"
	xmlns:xlink="http://www.w3.org/1999/xlink"
>

<style type="text/css"><![CDATA[
@import url(http://fonts.googleapis.com/css?family=Roboto);

.item circle,
.item text,
.item .icon {
	transition-property: fill, fill-opacity, opacity;
	transition-duration: 250ms;
}
.item text,
.item text tspan {
	fill: #2e3436;
	font-family: "Roboto", "Arial", sans-serif;
	font-size: 9.5px;
	text-anchor: middle;
	/* middle can be obtained from the font definition. */
	/* central is defined as the half of EM box. */
	dominant-baseline: central;
}
.item circle {
	fill: #d3d7cf;
}

.item.without-icon       circle { fill-opacity: 0.125; }
.item.without-icon:hover circle { fill-opacity: 0.125; }
.item.without-icon       text { opacity: 1.0; }
.item.without-icon:hover text { opacity: 1.0; }

.item.with-icon       circle { fill-opacity: 0.125; }
.item.with-icon:hover circle { fill-opacity: 0.125; }
.item.with-icon       .icon { opacity: 1.0; }
.item.with-icon:hover .icon { opacity: 0.125; }
.item.with-icon       text { opacity: 0.0; }
.item.with-icon:hover text { opacity: 1.0; }


/* Workarounds for Firefox: https://bugzilla.mozilla.org/show_bug.cgi?id=265894#c5 */
.item.with-icon use.icon circle {
	fill-opacity: 1.0;  /* Fixes reddit alien eyes in Firefox. */
}
.item.with-icon use.icon #curriculumvitae text {
	opacity: 1.0;
	fill: #2e3436;
	font-size: 25px;
}

]]></style>

<!-- ============================================================ -->

<defs>

{% include aboutme-defs.svg %}

</defs>

<!-- ============================================================ -->

<g class="centralpicture">
	<image x="-88.8" y="-88.8" width="177.7" height="177.7"
		clip-path="url(#circleclip)"
		xlink:href="MyPhoto2014-512x512.jpg" />
</g>

<g transform="translate(-0.0 -108.8)" class="item without-icon">
	<a target="_top" xlink:href="{{ site.url }}/blog/">
		<circle cx="0" cy="0" r="20" />
		<text x="0" y="0">Blog</text>
	</a>
</g>

<g transform="translate(39.3 -101.5)" class="item with-icon">
	<a target="_top" xlink:href="{{ site.url }}/denilsonsa-resume.pdf">
		<circle cx="0" cy="0" r="20" />
		<use class="icon" xlink:href="#curriculumvitae" x="-14" y="-14" width="28" height="28" />
		<text x="0" y="0">Resumé</text>
	</a>
</g>

<g transform="translate(73.3 -80.4)" class="item with-icon">
	<a target="_top" xlink:href="https://www.linkedin.com/in/denilsonsa">
		<circle cx="0" cy="0" r="20" />
		<use class="icon" xlink:href="#linkedin" x="-14" y="-14" width="28" height="28" />
		<text x="0" y="0">LinkedIn</text>
	</a>
</g>

<g transform="translate(97.4 -48.5)" class="item with-icon">
	<a target="_top" xlink:href="https://careers.stackoverflow.com/denilsonsa">
		<circle cx="0" cy="0" r="20" />
		<use class="icon" xlink:href="#stackoverflowcareers" x="-14" y="-14" width="28" height="28" />
		<text x="0" y="0">
			<tspan x="0" y="-0.5em">Careers</tspan>
			<tspan x="0" y="0.5em">2.0</tspan>
		</text>
	</a>
</g>

<g transform="translate(108.4 -10.0)" class="item with-icon">
	<a target="_top" xlink:href="https://stackoverflow.com/users/124946/">
		<circle cx="0" cy="0" r="20" />
		<use class="icon" xlink:href="#stackoverflow" x="-14" y="-14" width="28" height="28" />
		<text x="0" y="0">
			<tspan x="0" y="-0.5em">Stack</tspan>
			<tspan x="0" y="0.5em">Overflow</tspan>
		</text>
	</a>
</g>

<g transform="translate(104.7 29.8)" class="item with-icon">
	<a target="_top" xlink:href="https://bitbucket.org/denilsonsa">
		<circle cx="0" cy="0" r="20" />
		<use class="icon" xlink:href="#bitbucket" x="-14" y="-14" width="28" height="28" />
		<text x="0" y="0">Bitbucket</text>
	</a>
</g>

<g transform="translate(86.9 65.6)" class="item with-icon">
	<a target="_top" xlink:href="https://github.com/denilsonsa">
		<circle cx="0" cy="0" r="20" />
		<use class="icon" xlink:href="#github" x="-14" y="-14" width="28" height="28" />
		<text x="0" y="0">GitHub</text>
	</a>
</g>

<g transform="translate(57.3 92.5)" class="item with-icon">
	<a target="_top" xlink:href="http://codepen.io/denilsonsa/">
		<circle cx="0" cy="0" r="20" />
		<use class="icon" xlink:href="#codepen" x="-14" y="-14" width="28" height="28" />
		<text x="0" y="0">CodePen</text>
	</a>
</g>

<g transform="translate(20.0 107.0)" class="item with-icon">
	<!-- http://userscripts.org/users/120597/scripts -->
	<!-- http://userscripts.org:8080/users/120597/scripts -->
	<a target="_top" xlink:href="http://web.archive.org/web/20131108061608/http://userscripts.org/users/120597/scripts">
		<circle cx="0" cy="0" r="20" />
		<use class="icon" xlink:href="#userscripts" x="-14" y="-14" width="28" height="28" />
		<text x="0" y="0">
			<tspan x="0" y="-0.5em">User</tspan>
			<tspan x="0" y="0.5em">scripts</tspan>
		</text> <!-- AKA Greasemonkey -->
	</a>
</g>

<g transform="translate(-20.0 107.0)" class="item with-icon">
	<a target="_top" xlink:href="https://userstyles.org/users/194017">
		<circle cx="0" cy="0" r="20" />
		<use class="icon" xlink:href="#stylish" x="-14" y="-14" width="28" height="28" />
		<text x="0" y="0">
			<tspan x="0" y="-0.5em">User</tspan>
			<tspan x="0" y="0.5em">styles</tspan>
		</text> <!-- AKA Stylish -->
	</a>
</g>

<g transform="translate(-57.3 92.5)" class="item with-icon">
	<a target="_top" xlink:href="http://www.reddit.com/user/denilsonsa/">
		<circle cx="0" cy="0" r="20" />
		<use class="icon" xlink:href="#reddit" x="-14" y="-14" width="28" height="28" />
		<text x="0" y="0">reddit</text>
	</a>
</g>

<g transform="translate(-86.9 65.6)" class="item with-icon">
	<a target="_top" xlink:href="https://www.youtube.com/user/denilsonsa">
		<circle cx="0" cy="0" r="20" />
		<use class="icon" xlink:href="#youtube" x="-14" y="-14" width="28" height="28" />
		<text x="0" y="0">YouTube</text>
	</a>
</g>

<g transform="translate(-104.7 29.8)" class="item with-icon">
	<a target="_top" xlink:href="https://facebook.com/denilsonsa">
		<circle cx="0" cy="0" r="20" />
		<use class="icon" xlink:href="#facebook" x="-14" y="-14" width="28" height="28" />
		<text x="0" y="0">Facebook</text>
	</a>
</g>

<g transform="translate(-108.4 -10.0)" class="item with-icon">
	<a target="_top" xlink:href="https://twitter.com/denilsonsa">
		<circle cx="0" cy="0" r="20" />
		<use class="icon" xlink:href="#twitter" x="-14" y="-14" width="28" height="28" />
		<text x="0" y="0">Twitter</text>
	</a>
</g>

<g transform="translate(-97.4 -48.5)" class="item with-icon">
	<a target="_top" xlink:href="https://plus.google.com/+DenilsonSa/about">
		<circle cx="0" cy="0" r="20" />
		<use class="icon" xlink:href="#googleplus" x="-14" y="-14" width="28" height="28" />
		<text x="0" y="0">Google+</text>
	</a>
</g>

<g transform="translate(-73.3 -80.4)" class="item with-icon">
	<a target="_top" xlink:href="skype:crazyterabyte?chat">
		<circle cx="0" cy="0" r="20" />
		<use class="icon" xlink:href="#skype" x="-14" y="-14" width="28" height="28" />
		<text x="0" y="0">Skype</text>
	</a>
</g>

<g transform="translate(-39.3 -101.5)" class="item without-icon">
	<a target="_top" xlink:href="mailto:denilsonsa@gmail.com">
		<circle cx="0" cy="0" r="20" />
		<text x="0" y="0">E-mail</text>
	</a>
</g>

</svg>
