---
---
<?xml version="1.0" encoding="UTF-8"?>

<svg viewBox="0 0 80 40"
	version="1.1"
	xmlns="http://www.w3.org/2000/svg"
	xmlns:xlink="http://www.w3.org/1999/xlink"
>
<style type="text/css"><![CDATA[
]]></style>

<defs>

<radialGradient id="dpad_gradient" cx="0.5" cy="0.5" r="0.5" fx="0.5" fy="0.5">
	<stop offset="0" stop-color="#fff"/>
	<stop offset="1" stop-color="#ccc"/>
</radialGradient>

<path id="dpad_shape" d="M1,12 h10 q1,0 1,-1 v-10 q0,-1 1,-1 h10 q1,0 1,1 v10 q0,1 1,1 h10 q1,0 1,1 v10 q0,1 -1,1 h-10 q-1,0 -1,1 v10 q0,1 -1,1 h-10 q-1,0 -1,-1 v-10 q0,-1 -1,-1 h-10 q-1,0 -1,-1 v-10 q0,-1 1,-1 z"/>

<clipPath id="dpad_clip" clipPathUnits="userSpaceOnUse">
	<use xlink:href="#dpad_shape" x="0" y="0" stroke="#ffffff" fill="none" />
</clipPath>

<symbol id="dpad" viewBox="-0.5 -0.5 37 37">
	<rect x="-5" y="-5" width="50" height="50" fill="silver"/>

	<use xlink:href="#dpad_shape" x="0" y="0" stroke-width="1" stroke="none" fill="url(#dpad_gradient)" />

	<!-- Trick for creating highlights and shadows. -->
	<g clip-path="url(#dpad_clip)">
		<use xlink:href="#dpad_shape" x="-0.5" y="-0.5" stroke-width="2" stroke="#000000" stroke-opacity="0.5" fill="none" />
	</g>
	<g clip-path="url(#dpad_clip)">
		<use xlink:href="#dpad_shape" x="0.5" y="0.5" stroke-width="2" stroke="#ffffff" stroke-opacity="0.5" fill="none" />
	</g>

	<!-- The dark outline. -->
	<use xlink:href="#dpad_shape" x="0" y="0" stroke-width="1" stroke="black" fill="none" />

	<!-- Directional ticks. -->
	<path d="M4,18 h7 M32,18 h-7 M18,4 v7 M18,32 v-7" stroke-width="1" stroke="#909090" fill="none"/>
</symbol>

<linearGradient id="dpad_press_gradient" x1="0" y1="0" x2="0" y2="1">
	<stop offset="0.5" stop-color="#0094ff" stop-opacity="0.75"/>
	<stop offset="1.0" stop-color="#0094ff" stop-opacity="0"/>
</linearGradient>

<g id="dpad_press">
	<rect x="-4.5" y="-16.5" width="9" height="12" fill="url(#dpad_press_gradient)"/>
</g>

<symbol id="dpad_up" viewBox="0 0 37 37">
	<use xlink:href="#dpad" x="0" y="0" width="37" height="37" />
	<use xlink:href="#dpad_press" x="0" y="0" transform="translate(18.5 18.5) rotate(0)"/>
</symbol>
<symbol id="dpad_right" viewBox="0 0 37 37">
	<use xlink:href="#dpad" x="0" y="0" width="37" height="37" />
	<use xlink:href="#dpad_press" x="0" y="0" transform="translate(18.5 18.5) rotate(90)"/>
</symbol>
<symbol id="dpad_down" viewBox="0 0 37 37">
	<use xlink:href="#dpad" x="0" y="0" width="37" height="37" />
	<use xlink:href="#dpad_press" x="0" y="0" transform="translate(18.5 18.5) rotate(180)"/>
</symbol>
<symbol id="dpad_left" viewBox="0 0 37 37">
	<use xlink:href="#dpad" x="0" y="0" width="37" height="37" />
	<use xlink:href="#dpad_press" x="0" y="0" transform="translate(18.5 18.5) rotate(270)"/>
</symbol>


<radialGradient id="button_diffuse_gradient" cx="0.4" cy="0.4" r="0.5" fx="0.66" fy="0.66">
	<stop offset="0" stop-color="#ffffff" stop-opacity="1"/>
	<stop offset="1" stop-color="#ffffff" stop-opacity="0.39634147"/>
</radialGradient>
<linearGradient id="button_shiny_specular_gradient" x1="0.333" y1="0.4" x2="0.666" y2="0.5">
	<stop offset="0" stop-color="#ffffff" stop-opacity="1"/>
	<stop offset="1" stop-color="#ffffff" stop-opacity="0"/>
</linearGradient>

<!-- Inspired by http://ftpmerou.free.fr/ubuntu/wiimote/wiimote.svg -->
<symbol id="button_shiny" viewBox="-2 -2 34 34">
	<rect x="-5" y="-5" width="50" height="50" fill="yellow"/>
	<!-- Shadow. -->
	<circle cx="15.75" cy="15.75" r="15" opacity="0.333" fill="#000000" stroke-width="1" stroke="#000000"  />
	<circle cx="15" cy="15" r="15" fill="#d0d4d6" stroke-width="0.4" stroke="#cbcacf" />
	<!-- Base. -->
	<circle cx="15" cy="15" r="15" fill="#d0d4d6" stroke-width="0.4" stroke="#cbcacf" />
	<!-- Diffuse lighting. -->
	<circle cx="16" cy="16.5" r="14" fill="url(#button_diffuse_gradient)" stroke="none"  />
	<!-- Specular lighting. -->
	<path d="M 2,20 a 14.25,14.25 0,0,1 22 -16 z" fill="url(#button_shiny_specular_gradient)" stroke="none"  />
</symbol>

<linearGradient id="button_matte_specular_gradient" x1="0.333" y1="0.333" x2="0.56" y2="0.56">
	<stop offset="0" stop-color="#ffffff" stop-opacity="1"/>
	<stop offset="1" stop-color="#ffffff" stop-opacity="0"/>
</linearGradient>

<symbol id="button_matte" viewBox="-2 -2 34 34">
	<rect x="-5" y="-5" width="50" height="50" fill="yellow"/>
	<!-- Shadow. -->
	<circle cx="15.75" cy="15.75" r="15" opacity="0.887" fill="#000000" stroke-width="1" stroke="#000000"  />
	<!-- Base. -->
	<circle cx="15" cy="15" r="15" fill="#d0d4d6" stroke-width="1" stroke="#8a8993" />
	<!-- Specular lighting. -->
	<path d="M 2,20 a 14.25,14.25 0,0,1 22 -16 z" fill="url(#button_matte_specular_gradient)" stroke="none"  />
</symbol>

<linearGradient id="button_inset_shadow" x1="0" y1="0" x2="1" y2="1">
	<stop offset="0" stop-color="#000000" stop-opacity="1"/>
	<stop offset="1" stop-color="#ffffff" stop-opacity="1"/>
</linearGradient>

<symbol id="button_inset" viewBox="-2 -2 34 34">
	<rect x="-5" y="-5" width="50" height="50" fill="yellow"/>
	<!-- Shadow. -->
	<circle cx="15" cy="15" r="16.9" fill="url(#button_inset_shadow)" stroke="none" />
	<!-- Base. -->
	<circle cx="15" cy="15" r="15" fill="#d0d4d6" stroke-width="1" stroke="#8a8993" />
	<!-- Specular lighting. -->
	<path d="M 2,20 a 14.25,14.25 0,0,1 22 -16 z" fill="url(#button_matte_specular_gradient)" stroke="none"  />
</symbol>

<symbol id="home_outline" viewBox="0 0 16 16">
	<path fill="#34beed" d="M 8,0 l 8,8 h-2 v8 h-12 v-8 h-2 z M 6,8 v4 h4 v-4 z" />
</symbol>
<symbol id="power_outline" viewBox="0 0 16 16">
	<path fill="none" stroke="#cc3333" stroke-width="1.5" stroke-linecap="round" d="M 8,1 v7 M 5.5,3 a 5.5,5.5 0,1,0 5,0" />
</symbol>

<symbol id="button_A" viewBox="0 0 34 34">
	<use xlink:href="#button_shiny" x="0" y="0" width="34" height="34" />
	<text x="17" y="17" font-size="15px" font-family="Arial, sans-serif" fill="#909090" text-anchor="middle" dominant-baseline="central">A</text>
</symbol>

<symbol id="button_minus" viewBox="0 0 34 34">
	<use xlink:href="#button_matte" x="0" y="0" width="34" height="34" />
	<line x1="10" y1="17" x2="24" y2="17" stroke-width="2" stroke="#909090" />
</symbol>
<symbol id="button_plus" viewBox="0 0 34 34">
	<use xlink:href="#button_matte" x="0" y="0" width="34" height="34" />
	<line x1="10" y1="17" x2="24" y2="17" stroke-width="2" stroke="#909090" />
	<line x1="17" y1="10" x2="17" y2="24" stroke-width="2" stroke="#909090" />
</symbol>
<symbol id="button_1" viewBox="0 0 34 34">
	<use xlink:href="#button_matte" x="0" y="0" width="34" height="34" />
	<text x="17" y="17" font-size="15px" font-family="Arial, sans-serif" fill="#909090" text-anchor="middle" dominant-baseline="central">1</text>
</symbol>
<symbol id="button_2" viewBox="0 0 34 34">
	<use xlink:href="#button_matte" x="0" y="0" width="34" height="34" />
	<text x="17" y="17" font-size="15px" font-family="Arial, sans-serif" fill="#909090" text-anchor="middle" dominant-baseline="central">2</text>
</symbol>
<symbol id="button_home" viewBox="0 0 34 34">
	<use xlink:href="#button_inset" x="0" y="0" width="34" height="34" />
	<use xlink:href="#home_outline" x="8" y="8" width="18" height="18" />
</symbol>
<symbol id="button_power" viewBox="0 0 34 34">
	<use xlink:href="#button_inset" x="0" y="0" width="34" height="34" />
	<use xlink:href="#power_outline" x="8" y="8" width="18" height="18" />
</symbol>

<radialGradient id="button_B_gradient1" cx="0.5" cy="0.25" r="0.5" fx="0.5" fy="-0.25">
	<stop offset="0" stop-color="#000000" stop-opacity="0.5"/>
	<stop offset="1" stop-color="#000000" stop-opacity="0"/>
</radialGradient>

<symbol id="button_B" viewBox="-2 -2 34 34">
	<rect x="-5" y="-5" width="50" height="50" fill="yellow"/>
	<!-- Shadow. -->
	<rect x="4.75" y="0.75" width="22" height="30" rx="2" opacity="0.887" fill="#000000" stroke-width="1" stroke="#000000" />
	<!-- Base. -->
	<rect x="4" y="0" width="22" height="30" rx="2" fill="#d0d4d6" stroke-width="1" stroke="#8a8993" />
	<!-- Specular lighting. -->
	<path d="M 3.5,0.5 a 12,18 0,0,0 23,0 z" fill="url(#button_B_gradient1)" stroke="none"  />
	<path d="M 4.5,28.5 a 12,8 0,0,1 21,0 z" fill="url(#button_matte_specular_gradient)" stroke="none"  />
	<text x="15" y="15" font-size="15px" font-family="Arial, sans-serif" fill="#909090" text-anchor="middle" dominant-baseline="central">B</text>
</symbol>

</defs>

<use xlink:href="#dpad" x="10" y="10" width="10" height="10" />
<use xlink:href="#button_B" x="20" y="10" width="20" height="20" />
<use xlink:href="#button_matte" x="40" y="10" width="20" height="20" />
<use xlink:href="#button_inset" x="60" y="10" width="20" height="20" />

<use xlink:href="#dpad_up"    x="10" y="20" width="5" height="5" />
<use xlink:href="#dpad_right" x="15" y="20" width="5" height="5" />
<use xlink:href="#dpad_down"  x="10" y="25" width="5" height="5" />
<use xlink:href="#dpad_left"  x="15" y="25" width="5" height="5" />
<use xlink:href="#button_shiny" x="10" y="30" width="5" height="5" />
<use xlink:href="#button_matte" x="15" y="30" width="5" height="5" />
<use xlink:href="#button_inset" x="20" y="30" width="5" height="5" />
<use xlink:href="#button_A"     x="25" y="30" width="5" height="5" />
<use xlink:href="#button_minus" x="30" y="30" width="5" height="5" />
<use xlink:href="#button_plus"  x="35" y="30" width="5" height="5" />
<use xlink:href="#button_1"     x="40" y="30" width="5" height="5" />
<use xlink:href="#button_2"     x="45" y="30" width="5" height="5" />
<use xlink:href="#button_home"  x="50" y="30" width="5" height="5" />
<use xlink:href="#button_power" x="55" y="30" width="5" height="5" />
<use xlink:href="#button_B"     x="60" y="30" width="5" height="5" />

</svg>
