<?xml version="1.0" encoding="UTF-8"?>
<svg version="1.1" viewBox="0 0 64 64" xmlns="http://www.w3.org/2000/svg" xmlns:xlink="http://www.w3.org/1999/xlink">
<!-- Based on aboutme_badges.pdf from http://about.me/assets -->
<defs>
	<linearGradient id="AboutMeBaseGradient" x1="0" y1="0" x2="0" y2="1">
		<stop stop-color="#004f75" offset="0"/>
		<stop stop-color="#003049" offset="0.6065"/>
	</linearGradient>
	<linearGradient id="AboutMeInnerOutline" x1="0" y1="0" x2="0" y2="1">
		<stop stop-color="#004f75" stop-opacity="0" offset="0.45"/>
		<stop stop-color="#19445b" stop-opacity="1" offset="1"/>
	</linearGradient>
	<linearGradient id="AboutMeHighlight" x1="0" y1="0" x2="0" y2="1">
		<stop stop-color="#4c829d" offset="0"/>
		<stop stop-color="#0c5476" offset="1"/>
	</linearGradient>
	<linearGradient id="AboutMeTextOutline" x1="0" y1="0" x2="0" y2="1">
		<stop stop-color="#003c5b" offset="0"/>
		<stop stop-color="#00223e" offset="1"/>
	</linearGradient>
</defs>
<!-- Square filled background -->
<path fill="url(#AboutMeBaseGradient)" d="m 5.1834,6e-4 c -2.858,0 -5.183,2.324 -5.183,5.182 l 0,0 0,53.636 c 0,2.857 2.325,5.182 5.183,5.182 l 0,0 53.633,0 c 2.859,0 5.184,-2.325 5.184,-5.182 l 0,0 0,-53.636 c 0,-2.858 -2.325,-5.182 -5.184,-5.182 l 0,0 -53.633,0 z"/>
<!-- Square outer outline -->
<path fill="#00385b" opacity="0.61" d="m 62.9982,58.694 c 0,2.378 -1.947,4.312 -4.342,4.312 l -53.312,0 c -2.395,0 -4.342,-1.934 -4.342,-4.312 l 0,-53.387 c 0,-2.379 1.947,-4.312 4.342,-4.312 l 53.312,0 c 2.395,0 4.342,1.933 4.342,4.312 l 0,53.387 z M 58.6562,0 5.3442,0 C 2.4042,0 2e-4,2.388 2e-4,5.307 l 0,53.387 c 0,2.92 2.404,5.306 5.344,5.306 l 53.312,0 c 2.94,0 5.344,-2.386 5.344,-5.306 l 0,-53.387 C 64.0002,2.388 61.5962,0 58.6562,0"/>
<!-- Square inner outline -->
<path fill="url(#AboutMeInnerOutline)" d="m 61.9264,58.6256 c 0,1.837 -1.495,3.334 -3.333,3.334 l -53.291,0 c -1.837,0 -3.334,-1.497 -3.334,-3.334 l 0,-53.305 c 0,-1.838 1.497,-3.334 3.334,-3.334 l 53.291,0 c 1.838,0 3.333,1.496 3.333,3.334 l 0,53.305 z m -3.333,-57.639 -53.291,0 c -2.39,0 -4.334,1.943 -4.334,4.334 l 0,53.305 c 0,2.39 1.944,4.334 4.334,4.334 l 53.291,0 c 2.389,0 4.333,-1.944 4.333,-4.334 l 0,-53.305 c 0,-2.391 -1.944,-4.334 -4.333,-4.334"/>
<!-- Upper highlight -->
<path fill="url(#AboutMeHighlight)" d="m 58.5934,0.9866 -53.291,0 c -2.39,0 -4.334,1.943 -4.334,4.334 l 0,1 c 0,-2.39 1.944,-4.334 4.334,-4.334 l 53.291,0 c 2.389,0 4.333,1.944 4.333,4.334 l 0,-1 c 0,-2.391 -1.944,-4.334 -4.333,-4.334"/>
<!-- "me" outline -->
<path fill="url(#AboutMeTextOutline)" d="m 28.5394,41.0236 0,-11.589 c 0,-1.708 -0.75,-1.944 -1.561,-1.944 -0.956,0 -1.683,0.622 -2.291,1.287 l 0,12.246 -6.576,0 0,-11.589 c 0,-1.793 -0.787,-1.944 -1.525,-1.944 -0.967,0 -1.721,0.634 -2.293,1.276 l 0,12.257 -6.575,0 0,-18.886 6.575,0 0,0.746 c 1.029,-0.66 2.434,-1.234 4.211,-1.234 2.234,0 3.927,0.777 4.984,2.268 1.094,-1.078 2.875,-2.268 5.41,-2.268 3.892,0 6.216,2.52 6.216,6.74 l 0,12.634 -6.575,0 z m 21.054,-11.911 c -0.466,-1.113 -1.457,-2.04 -3.152,-2.04 -1.623,0 -2.601,0.925 -3.088,2.04 l 6.24,0 z m -6.042,4.935 c 0.669,1.11 1.888,1.761 3.413,1.761 1.194,0 2.915,-0.449 3.871,-1.434 l 0.315,-0.327 -7.599,0 z m 3.064,7.429 c -5.751,0 -10.088,-4.262 -10.088,-9.914 0,-5.651 4.231,-9.913 9.844,-9.913 5.532,0 9.705,4.262 9.705,9.913 l 0,2.485 -4.057,0 3.192,3.685 -0.639,0.672 c -2.638,2.773 -6.443,3.072 -7.957,3.072"/>
<!-- "me" yellow filled text -->
<path fill="#fbbf15" d="m 46.4415,26.0519 c -2.652,0 -4.116,1.954 -4.43,4.081 l 8.893,0 c -0.244,-2.023 -1.673,-4.081 -4.463,-4.081 m -4.36,6.976 c 0.454,2.231 2.301,3.801 4.882,3.801 1.396,0 3.417,-0.522 4.605,-1.744 l 2.265,2.616 c -2.058,2.162 -5.125,2.755 -7.218,2.755 -5.092,0 -9.069,-3.662 -9.069,-8.894 0,-4.882 3.662,-8.892 8.825,-8.892 4.987,0 8.683,3.836 8.683,8.892 l 0,1.466 -12.973,0 z m -12.522,6.974 0,-10.568 c 0,-1.882 -0.837,-2.964 -2.581,-2.964 -1.568,0 -2.615,1.117 -3.312,1.92 l 0,11.612 -4.534,0 0,-10.568 c 0,-1.882 -0.802,-2.964 -2.546,-2.964 -1.569,0 -2.65,1.117 -3.313,1.92 l 0,11.612 -4.535,0 0,-16.844 4.535,0 0,1.953 c 0.768,-0.907 2.512,-2.441 5.23,-2.441 2.407,0 4.046,1.012 4.78,3.069 1.01,-1.464 2.893,-3.069 5.615,-3.069 3.277,0 5.195,1.952 5.195,5.72 l 0,11.612 -4.534,0 z"/>
</svg>
