<?xml version="1.0" encoding="UTF-8"?>
<svg version="1.1" viewBox="0 0 256 256" xmlns="http://www.w3.org/2000/svg">
<!-- Based on logo-me_044A75_AllSizes.ai from http://about.me/assets -->
<rect fill="#299f85" x="0" y="0" width="256" height="256" rx="16"/>
<path fill="#fff" d="m178.4 106.95c-9.022 0-14.004 6.647-15.064 13.883h30.245c-0.83-6.885-5.692-13.883-15.181-13.883m-14.834 23.727c1.548 7.591 7.832 12.932 16.612 12.932 4.748 0 11.625-1.774 15.664-5.932l7.7 8.903c-6.99 7.355-17.434 9.366-24.55 9.366-17.317 0-30.845-12.452-30.845-30.249 0-16.61 12.448-30.252 30.015-30.252 16.959 0 29.54 13.049 29.54 30.252v4.98h-44.136m-42.597 25.129v-37.353c0-6.401-2.842-10.078-8.776-10.078-5.337 0-8.896 3.794-11.27 6.528v40.903h-15.42v-37.353c0-6.401-2.729-10.078-8.659-10.078-5.337 0-9.021 3.794-11.274 6.528v40.903h-15.428v-59.616h15.428v7.559c2.612-3.088 8.545-8.304 17.797-8.304 8.187 0 13.758 3.441 16.253 10.439 3.435-4.981 9.84-10.439 19.104-10.439 11.15 0 17.672 6.642 17.672 19.458v40.903h-15.427"/>
</svg>
