<?xml version="1.0" encoding="UTF-8"?>
<svg version="1.1" viewBox="0 0 6229.04 5760.9399" xmlns="http://www.w3.org/2000/svg">
<!-- Based on alvanista-symbol-91bd29fc3081328b6c735a24a3808c54.eps from http://alvanista.com/about/logo -->
<path fill="#cdccca" d="m 5316.54,627.38 -4404.099,0 C 410.613,627.38 0,1038 0,1539.87 l 0,2554.58 c 0,501.88 410.613,912.478 912.441,912.478 l 1454.099,0 754.05,754.012 754,-754.012 1441.95,0 c 501.92,0 912.5,-410.598 912.5,-912.478 l 0,-2554.59 c 0,-501.86 -410.58,-912.48 -912.5,-912.48" />
<path fill="#f7f7f7" d="M 5316.54,0 912.441,0 C 410.613,0 0,410.62 0,912.49 l 0,2554.58 c 0,501.88 410.613,912.49 912.441,912.49 l 1454.099,0 754.05,753.989 754,-753.989 1441.95,0 c 501.92,0 912.5,-410.61 912.5,-912.49 l 0,-2554.58 C 6229.04,410.62 5818.46,0 5316.54,0" />
<path fill="#565759" d="m 2534.26,2011.33 c 0,-42.67 -34.85,-77.52 -77.51,-77.52 l -477.05,0 c -42.63,0 -77.53,-34.9 -77.53,-77.52 l 0,-477.09 c 0,-42.68 -34.85,-77.58 -77.46,-77.58 l -459.52,0 c -42.62,0 -77.53,34.9 -77.53,77.58 l 0,477.09 c 0,42.62 -34.89,77.52 -77.5,77.52 l -477.062,0 c -42.618,0 -77.524,34.85 -77.524,77.52 l 0,459.47 c 0,42.62 34.906,77.5 77.524,77.5 l 477.062,0 c 42.61,0 77.5,34.9 77.5,77.54 l 0,477.08 c 0,42.67 34.91,77.57 77.53,77.57 l 459.52,0 c 42.61,0 77.46,-34.9 77.46,-77.57 l 0,-477.08 c 0,-42.64 34.9,-77.54 77.53,-77.54 l 477.05,0 c 42.66,0 77.51,-34.88 77.51,-77.5 l 0,-459.47" />
<path fill="#e72f6f" d="m 4078.64,2340.63 c -231.89,0 -419.87,187.98 -419.87,419.97 0,231.9 187.98,419.89 419.87,419.89 231.93,0 419.9,-187.99 419.9,-419.89 0,-231.99 -187.97,-419.97 -419.9,-419.97" />
<path fill="#e72f6f" d="m 5117.61,1301.68 c -231.86,0 -419.89,188.04 -419.89,419.94 0,231.85 188.03,419.88 419.89,419.88 231.89,0 419.93,-188.03 419.93,-419.88 0,-231.9 -188.04,-419.94 -419.93,-419.94" />
</svg>
