<?xml version="1.0" encoding="UTF-8"?>
<svg xmlns="http://www.w3.org/2000/svg" version="1.1" viewBox="0 0 593.86414 852.74951">
<!-- Based on https://angel.co/images/shared/peace_large.jpg, traced using Inkscape -->
<path fill="#000" d="m259.98 852.29c-59.12-3.71-117.97-26.18-161.91-61.81-13.153-10.67-35.902-33.55-46.382-46.66-38.901-48.66-56.403-102.37-50.601-155.29 3.7677-34.364 15.061-56.847 36.874-73.412 10.81-8.2094 28.827-16.212 46.811-20.793 2.4168-0.61561 4.25-1.6762 4.25-2.4588 0-0.75693-1.9944-6.4771-4.432-12.711-5.3647-13.721-9.2343-26.802-10.675-36.086-1.9722-12.711 2.0705-26.941 11.837-41.663 11.011-16.598 34.117-36.475 48.925-42.086 17.347-6.5738 33.903-4.6722 56.777 6.5216 4.9128 2.4041 9.2681 4.1637 9.6784 3.9101 0.41031-0.25358-1.7544-7.5419-4.8104-16.196-22.54-63.81-50.72-149.69-61.77-188.22-13.91-48.49-18.09-70.926-17.24-92.503 0.65056-16.588 2.2766-23.626 8.4324-36.5 3.7772-7.8992 5.91-10.868 12.657-17.617 12.607-12.611 26.458-18.331 45.192-18.666 8.4419-0.15057 9.5624 0.07442 16 3.2127 8.4492 4.1189 24.02 19.212 32.771 31.766 23.272 33.385 49.313 88.974 76.968 164.3 7.0623 19.237 29.111 82.469 35.131 100.75 1.4942 4.5375 3.0816 8.25 3.5276 8.25 1.0401 0 0.27959 2.0086 14.01-37 16.761-47.618 22.876-64.133 34.253-92.5 37.901-94.508 72.598-148.86 102.54-160.62 6.7548-2.6543 20.273-3.0852 29.225-0.93164 22.967 5.5252 40.037 23.297 46.64 48.556 2.985 11.419 2.5081 37.087-1.0127 54.5-8.9902 44.463-32.475 121.94-62.895 207.5-6.0622 17.05-11.069 32.076-11.127 33.392-0.0973 2.2128 0.68152 2.5998 10.395 5.1646 54.287 14.334 77.274 47.375 83.068 119.4 1.5266 18.977 0.68411 63.14-1.5555 81.545-10.045 82.547-40.726 147.12-95.447 200.88-48.321 47.472-109.48 75.71-178.74 82.531-19.588 1.9289-41.902 2.5382-57.374 1.5667z"/>
<path fill="#fff" d="m238.91 337.73c6.2438-7.181 18.669-8.6377 50.971-5.9758 11.197 0.92275 20.6 1.4372 20.894 1.1432 0.52215-0.52216-48.829-144.23-65.339-190.27-20.779-57.938-34.061-85.774-45.879-96.15-10.548-9.2612-23.34-10.435-33.501-3.0746-19.885 14.404-15.419 52.506 18.154 154.91 15.407 46.993 50 142 51.704 142 0.41084 0 1.759-1.164 2.996-2.5866zm220.09 7.3366c5.428-14.205 26.387-72.964 36.89-103.42 19.603-56.847 36.683-112.82 41.143-134.83 5.9734-29.478-3.9429-49.726-24.447-49.915-4.4344-0.041-7.3642 0.58054-10.906 2.3136-16.786 8.2144-34.306 38.293-53.979 92.674-15.474 42.773-64.751 186.8-64.307 187.95 0.26823 0.69899 3.782 1.8236 7.8083 2.4991 4.0264 0.67552 19.246 3.3698 33.821 5.9872s27.473 4.8107 28.662 4.874c1.8181 0.0968 2.6645-1.1987 5.3149-8.1349zm-128.54 206.81c9.3507-10.385 23.464-23.142 35.76-32.325 4.839-3.6136 8.7983-6.9135 8.7983-7.3332 0-0.41968-2.3625-1.0111-5.25-1.3144-2.8875-0.3032-10.2-1.052-16.25-1.664-19.61-1.9838-49.612-8.4295-62.811-13.494-2.5254-0.96909-2.1356 1.7379 1.2026 8.3507 5.2796 10.459 13.3 30.523 18.275 45.715 2.7014 8.25 5.1503 15.675 5.442 16.5 0.40078 1.1336 1.3074 0.63084 3.7111-2.0577 1.7494-1.9567 6.7544-7.5267 11.122-12.378zm-66.942 62.564c4.3105-1.9689 11.368-9.0384 13.888-13.913 3.2541-6.2928 3.8412-12.087 2.0446-20.182-4.1872-18.865-19.021-56.436-33.924-85.92-32.443-64.186-60.127-95.467-85.803-96.952-6.0769-0.35153-7.4923-0.0495-13.402 2.8596-9.5138 4.6837-21.835 17.227-26.81 27.293-3.6264 7.3376-3.7338 7.8607-3.2587 15.886 0.63626 10.748 3.3715 18.76 12.734 37.299 9.6324 19.073 19.904 35.188 36.575 57.385 17.024 22.666 24.12 31.139 37.257 44.486 28.006 28.455 46.615 38.192 60.699 31.758zm61.5 196.4c55.754-8.4118 104.96-34.249 145-76.131 42.969-44.951 69.318-99.362 78.96-163.05 3.2971-21.78 4.3622-40.96 3.7395-67.344-1.476-62.544-11.226-82.679-48.2-99.539-26.206-11.95-77.523-25.082-122.5-31.348-27.981-3.8982-49.584-5.4052-79-5.5112-25.24-0.091-29.146 0.10951-34.15 1.7528-11.949 3.9241-16.856 11.176-17.597 26.011-1.2441 24.886 10.945 43.851 36.28 56.445 28.255 14.046 67.028 19.911 139.04 21.033l42.074 0.65545 4.0771 2.699c4.7075 3.1163 8.9024 10.724 9.8818 17.922 0.62257 4.5754 0.58592 4.65-3.7395 7.6198-6.659 4.5719-20.709 11.353-37.868 18.276-25.222 10.176-37.724 16.862-51.601 27.594-40.644 31.433-69.239 78.173-72.012 117.71-1.0977 15.651 2.0573 32.11 12.207 63.683 5.3527 16.651 6.8881 28.525 3.9983 30.923-1.3903 1.1538-2.6281 1.093-8.1447-0.40029-14.068-3.8079-24.389-13.514-32.991-31.023-8.4813-17.264-12.457-35.492-14.014-64.25-0.36479-6.7375-1.0397-12.25-1.4998-12.25-0.46012 0-2.9524 1.125-5.5384 2.5-3.8539 2.0491-6.104 2.5-12.477 2.5-4.2761 0-10.057-0.52686-12.847-1.1708-2.7897-0.64393-5.2985-0.94449-5.5751-0.66789-0.27659 0.27659 0.1935 5.1604 1.0446 10.853 1.2212 8.1672 1.3235 11.841 0.48539 17.418-2.8464 18.941-18.234 36.125-38.208 42.668-9.9427 3.257-27.409 3.2703-39.328 0.0299-19.076-5.1865-37.19-16.865-57.59-37.13-14.862-14.76-23.44-26.53-28.907-39.66-6.9933-16.799-7.7919-36.22-1.8026-43.834 1.9602-2.492 2.115-2.5244 3.9834-0.83347 1.0692 0.96761 9.0009 11.004 17.626 22.302 31.741 41.579 52.025 57.284 74.203 57.452 10.319 0.0781 16.525-2.3121 22.918-8.8256 8.5134-8.6746 8.3665-14.547-0.82773-33.084-12.876-25.96-41.238-63.763-67.541-90.026-19.95-19.918-27.272-23.914-39.279-21.432-15.72 3.25-30.459 16.336-40.127 35.629-10.026 20.007-10.758 46.479-2.0652 74.665 12.799 41.498 45.243 89.019 80.246 117.54 33.979 27.685 80.081 47.086 123.68 52.045 5.225 0.5944 10.85 1.2646 12.5 1.4894 7.9613 1.0844 52.61-0.23838 63.5-1.8813z"/>
</svg>
