<?xml version="1.0" encoding="UTF-8"?>
<svg xmlns="http://www.w3.org/2000/svg" version="1.1" viewBox="0 0 593.86414 852.74951">
<!-- Based on https://angel.co/images/shared/peace_large.jpg, traced using Inkscape -->
<path fill="#000" d="M 259.97621,852.29382 C 200.86393,848.58201 142.01058,826.11224 98.072454,790.48018 84.916704,779.81139 62.168394,756.92644 51.687524,743.81663 12.787314,695.15898 -4.7149463,641.44567 1.0871037,588.52722 c 3.76767,-34.36358 15.0608103,-56.84683 36.8742503,-73.41211 10.81032,-8.20944 28.82653,-16.21206 46.81107,-20.79302 2.41684,-0.61561 4.25,-1.67616 4.25,-2.45878 0,-0.75693 -1.99442,-6.47709 -4.43204,-12.71146 -5.36468,-13.72052 -9.23434,-26.80191 -10.6749,-36.0865 -1.97224,-12.71141 2.07049,-26.9411 11.83659,-41.66273 11.01115,-16.59843 34.117306,-36.47464 48.925296,-42.08616 17.34742,-6.57384 33.90302,-4.67221 56.7774,6.52165 4.9128,2.40413 9.26806,4.16367 9.67837,3.91009 0.41031,-0.25358 -1.75438,-7.54193 -4.81042,-16.19632 C 173.78612,289.73054 145.60713,203.85372 134.55658,165.31663 120.65304,116.83016 116.47177,94.393998 117.318,72.816628 c 0.65056,-16.588 2.27659,-23.62632 8.43243,-36.5 3.77719,-7.89922 5.90998,-10.867706 12.65731,-17.616794 12.60737,-12.6106585 26.45831,-18.33147054 45.19225,-18.66562054 8.44186,-0.150574 9.56236,0.07442 16,3.21269104 8.4492,4.118888 24.01985,19.2120895 32.77122,31.7663435 23.27223,33.38514 49.31284,88.973832 76.96815,164.303382 7.06233,19.23689 29.11064,82.46853 35.13063,100.75 1.49417,4.5375 3.08157,8.25 3.52756,8.25 1.04012,0 0.27959,2.00855 14.00997,-37 16.76061,-47.61753 22.87616,-64.13276 34.25253,-92.5 37.9013,-94.507732 72.59806,-148.860062 102.5376,-160.624716 6.75476,-2.654259 20.27295,-3.085196 29.22477,-0.931635 22.96704,5.525234 40.03705,23.296589 46.64005,48.556349 2.98504,11.41927 2.5081,37.087252 -1.01268,54.500002 -8.99023,44.46309 -32.47508,121.94318 -62.89495,207.5 -6.06215,17.05 -11.06942,32.07642 -11.12726,33.39204 -0.0973,2.21282 0.68152,2.59976 10.39484,5.16457 54.28685,14.33449 77.2739,47.37514 83.06771,119.39813 1.52656,18.97671 0.68411,63.13996 -1.55554,81.54526 -10.04481,82.54748 -40.72556,147.11873 -95.4471,200.8796 -48.32063,47.47234 -109.47569,75.71036 -178.73712,82.53091 -19.58765,1.9289 -41.90192,2.53823 -57.37416,1.56668 z" />
<path fill="#fff" d="m 238.91079,337.73001 c 6.24375,-7.18095 18.66899,-8.63768 50.97063,-5.97578 11.19745,0.92275 20.59955,1.43719 20.89355,1.14319 0.52215,-0.52216 -48.82854,-144.23066 -65.33905,-190.26633 -20.77937,-57.938422 -34.06136,-85.774002 -45.87866,-96.149722 -10.54798,-9.26125 -23.33952,-10.43523 -33.50056,-3.07462 -19.8846,14.40434 -15.41927,52.5064 18.15449,154.909882 15.40701,46.99299 49.99999,142 51.70358,142 0.41084,0 1.75905,-1.16398 2.99602,-2.58662 z m 220.08895,7.33662 c 5.428,-14.20539 26.38688,-72.96437 36.88978,-103.42182 19.60291,-56.84668 36.683,-112.81949 41.14279,-134.82818 5.97342,-29.478372 -3.9429,-49.725602 -24.44661,-49.915282 -4.43435,-0.041 -7.36425,0.58054 -10.90581,2.31359 -16.78635,8.21438 -34.30592,38.29264 -53.97938,92.673822 -15.47415,42.77349 -64.75078,186.79607 -64.30703,187.95246 0.26823,0.69899 3.78197,1.82358 7.80831,2.49911 4.02635,0.67552 19.24563,3.36975 33.82063,5.98717 14.575,2.61742 27.47311,4.81074 28.66246,4.87404 1.8181,0.0968 2.66448,-1.1987 5.31486,-8.13491 z M 330.46399,551.88131 c 9.35072,-10.38492 23.46403,-23.14229 35.76017,-32.32451 4.83905,-3.61358 8.79826,-6.91352 8.79826,-7.3332 0,-0.41968 -2.3625,-1.01114 -5.25,-1.31435 -2.8875,-0.3032 -10.2,-1.05203 -16.25,-1.66405 -19.60984,-1.98375 -49.61196,-8.42947 -62.81121,-13.4945 -2.5254,-0.96909 -2.13559,1.73786 1.20255,8.35067 5.27965,10.45893 13.30025,30.52273 18.2749,45.71526 2.70138,8.25 5.15026,15.675 5.44195,16.5 0.40078,1.13355 1.30741,0.63084 3.71108,-2.0577 1.7494,-1.95674 6.75444,-7.52667 11.1223,-12.37762 z m -66.94157,62.56431 c 4.31049,-1.96891 11.36757,-9.03842 13.88807,-13.91253 3.25413,-6.29281 3.84115,-12.08722 2.04456,-20.18175 -4.18719,-18.86535 -19.02145,-56.43599 -33.92442,-85.92017 -32.44334,-64.18626 -60.12675,-95.46695 -85.80273,-96.95222 -6.07688,-0.35153 -7.49234,-0.0495 -13.40156,2.85959 -9.51385,4.68366 -21.83485,17.22669 -26.80992,27.29305 -3.62644,7.33761 -3.73375,7.86074 -3.25866,15.88625 0.63626,10.74817 3.37154,18.7599 12.73415,37.29879 9.63236,19.07304 19.90371,35.18842 36.5748,57.38457 17.02382,22.66578 24.11987,31.13879 37.25657,44.48608 28.00641,28.45538 46.61503,38.19157 60.69914,31.75834 z m 61.5,196.3992 c 55.75431,-8.41179 104.96489,-34.24931 145,-76.13079 42.9694,-44.95109 69.31832,-99.36162 78.96019,-163.05287 3.2971,-21.77962 4.36215,-40.95979 3.73952,-67.34372 -1.47598,-62.54444 -11.22581,-82.67919 -48.19971,-99.53909 -26.20611,-11.94984 -77.52289,-25.08182 -122.5,-31.34776 -27.98125,-3.89819 -49.58352,-5.40522 -79,-5.51124 -25.24022,-0.091 -29.14625,0.10951 -34.15011,1.75275 -11.94932,3.9241 -16.85575,11.17631 -17.59735,26.01065 -1.24411,24.88637 10.94547,43.8514 36.27973,56.44544 28.25477,14.04585 67.02811,19.91112 139.04212,21.03299 l 42.07439,0.65545 4.07711,2.69901 c 4.70749,3.11631 8.90239,10.7242 9.88176,17.92163 0.62257,4.57535 0.58592,4.65003 -3.73946,7.61975 -6.65896,4.57191 -20.7093,11.35293 -37.86819,18.27607 -25.22186,10.17634 -37.72398,16.86201 -51.60126,27.59444 -40.6437,31.4331 -69.23912,78.17349 -72.01189,117.70641 -1.09773,15.6509 2.05732,32.1104 12.20705,63.68269 5.35274,16.65054 6.88811,28.52516 3.99833,30.92346 -1.39026,1.15381 -2.62813,1.09298 -8.1447,-0.40029 -14.06768,-3.80794 -24.38907,-13.51371 -32.99092,-31.02317 -8.48131,-17.26408 -12.45732,-35.49242 -14.01436,-64.25 -0.36479,-6.7375 -1.03972,-12.25 -1.49984,-12.25 -0.46012,0 -2.95242,1.125 -5.53843,2.5 -3.85388,2.04913 -6.10403,2.5 -12.47663,2.5 -4.27612,0 -10.05724,-0.52686 -12.84693,-1.1708 -2.78969,-0.64393 -5.29847,-0.94449 -5.57506,-0.66789 -0.27659,0.27659 0.1935,5.16036 1.04465,10.85281 1.22118,8.16721 1.32354,11.84051 0.48539,17.4179 -2.84644,18.94131 -18.23361,36.12455 -38.20782,42.66764 -9.94274,3.25701 -27.409,3.27027 -39.32758,0.0299 -19.07639,-5.1865 -37.18972,-16.86451 -57.59025,-37.12956 C 92.058064,674.5413 83.480384,662.7726 78.012764,649.6388 c -6.9933,-16.79866 -7.79194,-36.21951 -1.80256,-43.83376 1.96022,-2.49202 2.11497,-2.5244 3.98343,-0.83347 1.06919,0.96761 9.00088,11.00358 17.62597,22.30217 31.740526,41.57904 52.024856,57.28435 74.202816,57.45213 10.31874,0.0781 16.52539,-2.31209 22.91794,-8.82562 8.51344,-8.67457 8.36651,-14.54721 -0.82773,-33.08362 -12.87644,-25.96004 -41.23825,-63.76339 -67.54128,-90.02552 -19.9495,-19.91846 -27.272166,-23.91393 -39.278896,-21.43173 -15.72049,3.24997 -30.45903,16.33633 -40.12683,35.62862 -10.026,20.00711 -10.75819,46.47885 -2.06517,74.6646 12.79874,41.49785 45.24264,89.01932 80.246416,117.5391 33.97948,27.68522 80.08138,47.08579 123.67555,52.04508 5.225,0.5944 10.85,1.26461 12.5,1.48936 7.96132,1.08444 52.61043,-0.23838 63.5,-1.88132 z" />
</svg>
