<?xml version="1.0" encoding="UTF-8"?>
<svg version="1.1" viewBox="0 0 1000 1000" xmlns="http://www.w3.org/2000/svg">
<!-- Traced from their raster images. -->
<rect fill="#17181c" width="1000" height="1000" rx="179.3" ry="179.3"/>
<path fill="#ffffff" d="m553 725.68c35.131-4.6171 58.35-10.937 81.5-22.184 44.364-21.553 69.004-55.336 77.676-106.5 2.8332-16.715 3.0788-46.039 0.50203-59.961-8.1826-44.211-35.993-76.333-78.44-90.601l-8.2618-2.7771 7.2745-3.2081c35.14-15.497 58.119-44.325 66.494-83.419 3.2622-15.228 3.6793-44.812 0.85354-60.534-5.304-29.511-15.896-50.148-35.957-70.056-27.213-27.005-63.871-42.899-116.14-50.354-26.478-3.7768-38.165-4.0898-152.7-4.0898h-111.8v556.11l128.25-0.39275c111.67-0.34199 129.87-0.60508 140.75-2.0356zm-134.76-167.43 0.25709-66.75 52.5 7e-3c59.68 7e-3 62.604 0.29618 78 7.703 18.433 8.868 28.216 25 31.034 51.179 4.5573 42.328-17.122 68.679-60.534 73.579-4.95 0.55869-29.816 1.0195-55.257 1.024l-46.257 8e-3zm-0.24291-219.25v-64h40.776c22.514 0 44.571 0.4715 49.25 1.0528 34.104 4.2371 51.793 17.371 58.516 43.447 2.5028 9.707 2.5362 31.441 0.0622 40.5-5.6336 20.628-18.287 32.539-40.894 38.495-14.018 3.6932-26.421 4.5051-68.817 4.5051h-38.894z"/>
<rect fill="#bbdefc" x="284.41" y="778.41" width="431.16" height="51.139" rx="5.1575" ry="5.1575"/>
</svg>
