<?xml version="1.0" encoding="UTF-8"?>
<svg version="1.1" viewBox="0 0 6303.0699 2063.8201" xmlns="http://www.w3.org/2000/svg">
<!-- Based on bc-logotype-color.eps -->
<path fill="#201d1c" d="m 4134.17,773.89 c -262.99,0 -397.37,207 -397.37,518.821 0,294.769 145.31,516.019 397.37,516.019 285.05,0 391.93,-260.851 391.93,-516.019 C 4525.9,1026.29 4391.59,773.89 4134.09,773.89 M 3435.37,0 l 312.39,0 0,748.37 5.53,0 c 84.96,-141.71 263.06,-229.62 422.03,-229.62 446.64,0 663.2,351.64 663.2,779.75 0,393.922 -191.8,765.32 -611.17,765.32 -191.82,0 -397.36,-48.1016 -490.59,-240.93 l -5.41,0 0,201.3792 -296.01,0 0,-2024.2292 0.03,-0.04"/>
<path fill="#201d1c" d="M 5990.69,1048.98 C 5966,870.37 5839.97,773.92 5667.31,773.92 c -161.76,0 -389.18,87.93 -389.18,533.029 0,243.832 104.1,501.871 375.47,501.871 180.84,0 306.85,-124.898 337.09,-334.699 l 312.38,0 c -57.58,379.89 -284.98,589.699 -649.47,589.699 -443.99,0 -687.87,-325.961 -687.87,-756.871 0,-442.229 232.95,-788.109 698.83,-788.109 328.84,0 608.45,170.08 638.51,530.14 l -312.38,0"/>
<path fill="#639aa9" d="M 2343.16,2019.8512 0,2019.8512 1094.21,0 3437.4,0z"/>
</svg>
