<?xml version="1.0" encoding="UTF-8"?>
<svg version="1.1" viewBox="0 0 6303.0699 2063.8201" xmlns="http://www.w3.org/2000/svg">
<!-- Based on bc-logotype-color.eps -->
<path fill="#201d1c" d="m4134.2 773.89c-262.99 0-397.37 207-397.37 518.82 0 294.77 145.31 516.02 397.37 516.02 285.05 0 391.93-260.85 391.93-516.02-0.2-266.4-134.5-518.81-392-518.81m-698.7-773.89h312.39v748.37h5.53c84.96-141.71 263.06-229.62 422.03-229.62 446.64 0 663.2 351.64 663.2 779.75 0 393.92-191.8 765.32-611.17 765.32-191.82 0-397.36-48.102-490.59-240.93h-5.41v201.38h-296.01v-2024.2l0.03-0.04"/>
<path fill="#201d1c" d="m5990.7 1049c-24.7-178.63-150.7-275.08-323.4-275.08-161.76 0-389.18 87.93-389.18 533.03 0 243.83 104.1 501.87 375.47 501.87 180.84 0 306.85-124.9 337.09-334.7h312.38c-57.58 379.89-284.98 589.7-649.47 589.7-443.99 0-687.87-325.96-687.87-756.87 0-442.23 232.95-788.11 698.83-788.11 328.84 0 608.45 170.08 638.51 530.14h-312.38"/>
<path fill="#639aa9" d="m2343.2 2019.9h-2343.2l1094.2-2019.9h2343.2z"/>
</svg>
