<?xml version="1.0" encoding="UTF-8"?>
<svg version="1.1" viewBox="0 0 64 64" xmlns="http://www.w3.org/2000/svg">
<!-- Based on embedded SVG paths from https://www.behance.net/ and gradient colors from Facebook profile picture -->
<defs>
	<linearGradient id="BehanceGradient" x1="0%" y1="0%" x2="0%" y2="100%">
		<stop stop-color="#0b80ff" offset="0"/>
		<stop stop-color="#0b62ff" offset="1"/>
	</linearGradient>
</defs>
<rect y="0" x="0" height="64" width="64" fill="url(#BehanceGradient)"/>
<g fill="white" transform="matrix(0.84814948,0,0,0.84814948,12.9,19.99737)">
	<path d="m 13.1,0 c 1.3,0 2.5,0.1 3.6,0.4 1.1,0.2 2,0.6 2.8,1.1 0.8,0.5 1.4,1.2 1.8,2.1 0.4,0.9 0.6,2 0.6,3.2 0,1.4 -0.3,2.6 -1,3.5 -0.6,0.9 -1.6,1.7 -2.8,2.3 1.7,0.5 3,1.4 3.8,2.6 0.8,1.2 1.3,2.7 1.3,4.4 0,1.4 -0.3,2.6 -0.8,3.6 -0.5,1 -1.3,1.9 -2.2,2.5 -0.9,0.6 -2,1.1 -3.2,1.4 -1.2,0.3 -2.4,0.5 -3.6,0.5 L 0,27.6 0,0 13.1,0 Z m -0.8,11.2 c 1.1,0 2,-0.3 2.7,-0.8 C 15.7,9.9 16,9 16,7.9 16,7.3 15.9,6.7 15.7,6.3 15.5,5.9 15.2,5.6 14.8,5.3 14.4,5.1 14,4.9 13.5,4.8 13,4.7 12.5,4.7 11.9,4.7 l -5.8,0 0,6.5 6.2,0 z M 12.6,23 c 0.6,0 1.2,-0.1 1.7,-0.2 0.5,-0.1 1,-0.3 1.4,-0.6 0.4,-0.3 0.7,-0.6 1,-1.1 0.2,-0.5 0.4,-1.1 0.4,-1.8 0,-1.4 -0.4,-2.4 -1.2,-3.1 -0.8,-0.6 -1.9,-0.9 -3.2,-0.9 l -6.6,0 0,7.7 6.5,0 z"/>
	<path d="m 31.9,22.9 c 0.8,0.8 2,1.2 3.6,1.2 1.1,0 2.1,-0.3 2.9,-0.8 0.8,-0.6 1.3,-1.2 1.5,-1.8 l 4.9,0 c -0.8,2.4 -2,4.1 -3.6,5.2 -1.6,1 -3.5,1.6 -5.8,1.6 -1.6,0 -3,-0.3 -4.3,-0.8 -1.3,-0.5 -2.3,-1.2 -3.2,-2.2 -0.9,-0.9 -1.6,-2 -2,-3.3 -0.5,-1.3 -0.7,-2.7 -0.7,-4.3 0,-1.5 0.2,-2.9 0.7,-4.2 0.5,-1.3 1.2,-2.4 2.1,-3.4 0.9,-0.9 2,-1.7 3.2,-2.2 1.3,-0.5 2.6,-0.8 4.2,-0.8 1.7,0 3.2,0.3 4.5,1 1.3,0.7 2.3,1.5 3.1,2.7 0.8,1.1 1.4,2.4 1.8,3.8 0.2,1.4 0.3,2.8 0.2,4.4 l -14.5,0 c 0,1.6 0.6,3.1 1.4,3.9 z m 6.3,-10.5 c -0.7,-0.7 -1.8,-1.1 -3.1,-1.1 -0.9,0 -1.6,0.2 -2.2,0.5 -0.6,0.3 -1,0.7 -1.4,1.1 -0.4,0.4 -0.6,0.9 -0.7,1.4 -0.1,0.5 -0.2,0.9 -0.2,1.3 l 9,0 c -0.2,-1.5 -0.7,-2.5 -1.4,-3.2 z"/>
	<rect x="29.4" y="1.9" width="11.2" height="2.7"/>
</g>
</svg>
