<?xml version="1.0" encoding="UTF-8"?>
<svg
   xmlns:svg="http://www.w3.org/2000/svg"
   xmlns="http://www.w3.org/2000/svg"
   version="1.1"
   width="122.3429"
   height="141.22501"
>
	<path fill="#213462" d="M 61.1609,26.567 C 39.525,26.532 21.9914,22.773 21.9988,18.169 22.0063,13.564 39.5524,9.862 61.1883,9.897 c 21.6356,0.034 39.1686,3.793 39.1616,8.398 -0.007,4.605 -17.553,8.307 -39.189,8.272 z m 0.0106,60.96 c -10.7391,0 -19.4453,-8.707 -19.4453,-19.445 0,-10.74 8.7062,-19.445 19.4453,-19.445 10.7394,0 19.4454,8.705 19.4454,19.445 0,10.738 -8.706,19.445 -19.4454,19.445 z M 61.1723,0 l 0,0.002 L 61.1711,0 C 27.4969,0 0,9.054 0,20.294 c 0,2.961 7.3434,45.415 10.2567,62.251 1.3058,7.551 20.8183,18.621 50.8992,18.621 l 0.0312,-0.09 0,0.09 c 30.0808,0 49.5938,-11.07 50.8998,-18.621 2.913,-16.836 10.256,-59.29 10.256,-62.251 C 122.3429,9.054 94.8459,0 61.1723,0" />
	<path fill="#213462" d="m 105.1379,99.419 c -0.93,0 -1.676,0.658 -1.676,0.658 0,0 -15.064,11.9289 -42.2904,11.9301 -27.2266,-10e-4 -42.2902,-11.9301 -42.2902,-11.9301 0,0 -0.7457,-0.658 -1.6754,-0.658 -1.111,0 -2.1641,0.746 -2.1641,2.392 0,0.174 0.0172,0.348 0.0488,0.518 2.3379,12.514 4.0461,21.3929 4.3461,22.7441 2.041,9.2051 20.0481,16.1508 41.7332,16.1519 l 0.0032,0 0,0 c 21.6858,-0.001 39.6928,-6.9468 41.7338,-16.1519 0.299,-1.3512 2.008,-10.2301 4.346,-22.7441 0.031,-0.17 0.049,-0.344 0.049,-0.518 0,-1.646 -1.054,-2.392 -2.164,-2.392" />
	<path fill="#213462" d="m 70.8979,68.076 c 0,5.383 -4.3631,9.745 -9.7455,9.745 -5.3821,0 -9.745,-4.362 -9.745,-9.745 0,-5.383 4.3629,-9.745 9.745,-9.745 5.3824,0 9.7455,4.362 9.7455,9.745" />
</svg>
