<?xml version="1.0" encoding="utf-8"?>
<!-- Based on 1024x1024-Icon.png found on the web, traced using Inkscape -->
<svg version="1.1" viewBox="0 0 729.40637 748.00598" xmlns="http://www.w3.org/2000/svg">
<path fill="#005197" d="m328.03 0.21506c-99.06 3.9926-84.22 26.007-102.69 98.592-18.33 87.173-57.39 270.4-57.53 270.6-0.13 0.19-5.66-0.71-11.06-1.6-29.59-4.87-76.548-7.06-101.47-4.72-35.001 3.29-55.28 14.95-55.28 31.78 0 7.4652 3.8606 12.729 12.594 17.188 6.3342 3.2335 7.2722 3.4206 25.312 4.7188 51.569 3.7107 93.582 14.931 131.53 35.125 47.809 25.441 90.971 60.247 142.38 114.81 13.478 14.307 31.743 34.673 72.625 81.031 35.009 39.698 52.698 56.503 75.375 71.562 20.653 13.716 43.701 23.447 64.625 27.281 13.397 2.455 38.602 1.6132 51.312-1.7188 21.114-5.5348 37.678-14.919 53.25-30.156 15.722-15.384 26.141-33.103 31.531-53.656 3.0819-11.751 3.7712-33.395 1.4375-44.938-4.8725-24.098-15.982-43.717-35-61.719-12.118-11.471-26.428-20.611-52.812-33.812-14.309-7.1597-22.706-11.937-22.406-12.688 0.26363-0.66087 37.193-58.267 82.094-128.03 44.9-69.764 83.163-129.61 85-133 1.8374-3.3856 4.2618-7.7312 5.4062-9.6562 2.5987-4.3712 5.1792-14.135 5.1562-19.469-0.14-31.83-37.32-76.4-97.03-116.29-70.01-46.746-160.56-82.96-239.44-95.746-23.88-3.8705-42.91-5.4689-64.91-5.4689zm111.31 118.37c11.17-0.0109 22.327 0.81859 29.781 2.4375 59.583 12.94 103.55 56.385 117.47 116.09 2.616 11.224 3.9723 49.777 1.7188 48.844-0.75857-0.31401-8.125-3.3616-16.375-6.75-27.592-11.332-30.049-13.842-36.156-37.406-5.2566-20.281-12.699-33.147-27.062-46.688-7.2283-6.8144-16.063-13.159-17.281-12.406-0.40444 0.24995-1.7275 3.1083-2.9375 6.3438l-2.1875 5.875 5.0312 5.1875c6.7016 6.8802 13.294 20.076 13.375 26.75 0.11544 9.4987-5.537 15.337-14.875 15.344-7.4741 0.005-11.005-2.7604-15.906-12.438-3.3888-6.6911-4.6854-8.2824-8.4062-10.25-5.8627-3.1003-12.619-3.1085-17.188-0.0312-4.338 2.9219-8.1875 9.8227-8.1875 14.719 0 6.146 3.5872 11.868 16.156 25.781 6.5236 7.2212 13.31 15.377 15.094 18.156 17.653 27.51-0.0175 65.744-34.438 74.531-3.278 0.83677-8.2738 1.5312-11.125 1.5312h-5.1875l-2.5 6.25c-1.3778 3.4375-2.3416 6.551-2.125 6.9062 0.90404 1.4825 18.422 3.0854 28.344 2.5938 21.496-1.0652 41.853-8.9291 58.812-22.688 3.4403-2.7909 6.5903-5.0708 7-5.0625 1.853 0.0375 46.743 18.948 47.031 19.812 0.51661 1.5498-19.548 21.364-27.781 27.438-20.565 15.169-45.059 25.131-70.406 28.656-11.972 1.6652-33.484 1.2236-45.938-0.96875-53.953-9.4977-98.06-47.066-116.09-98.875-6.408-18.41-7.9375-28.045-7.9375-49.562 0-15.795 0.36676-20.72 2.1875-29.156 6.6925-31.007 19.552-54.786 41.625-76.938 21.894-21.971 45.65-34.877 76.562-41.562 7.5528-1.6336 18.736-2.4578 29.906-2.4688zm-0.4375 48.906c-1.4007-0.005-2.737 0.0332-3.9688 0.0937-42.563 2.0913-78.556 29.262-91.781 69.281-11.433 34.596-4.2608 70.525 19.625 98.469 6.6145 7.7383 23.519 21.427 24.812 20.094 0.38895-0.40079 1.5761-2.9611 2.6562-5.7188l1.9688-5.0312-3.9375-2.9688c-7.2756-5.4727-14.438-16.539-18.25-28.188-2.7332-8.3508 0.0338-15.535 7.4375-19.312 9.6753-4.9359 17.19-0.7039 23.969 13.5 3.5394 7.4162 8.2787 11.778 15.344 14.125 13.729 4.5599 29.656-6.0899 29.656-19.812 0-6.4019-3.9245-13.125-15.188-25.938-18.802-21.39-23.469-30.751-22.562-45.281 0.72403-11.605 5.0759-21.748 13-30.219 7.1969-7.6935 14.435-11.418 27.156-14.031l8.9062-1.8438 2.9062-6.8438c1.5958-3.7696 2.69-7.06 2.4375-7.3125-1.484-1.484-14.382-3.03-24.188-3.0625z"/>
</svg>
