<?xml version="1.0" encoding="utf-8"?>
<!-- Based on 1024x1024-Icon.png found on the web, traced using Inkscape -->
<svg version="1.1" viewBox="0 0 729.40637 748.00598" xmlns="http://www.w3.org/2000/svg">
<path fill="#005197" d="M 328.03125,0.21506226 C 228.96675,4.2076811 243.80953,26.222277 225.33855,98.807462 207.01248,185.98246 167.94883,369.21276 167.81219,369.40564 167.67556,369.59852 162.14879,368.69666 156.75,367.80881 127.16024,362.94267 80.20194,360.747 55.28125,363.09006 20.27881,366.38102 0,378.03598 0,394.87131 c 0,7.46522 3.86064,12.72945 12.59375,17.1875 6.33422,3.23346 7.27223,3.42065 25.3125,4.71875 51.5694,3.71071 93.58192,14.93064 131.53125,35.125 47.8094,25.4413 90.97096,60.24726 142.375,114.8125 13.47815,14.30702 31.7428,34.67283 72.625,81.03125 35.00882,39.69829 52.69786,56.50282 75.375,71.5625 20.65349,13.71579 43.70084,23.44682 64.625,27.28125 13.39697,2.45505 38.60188,1.61319 51.3125,-1.71875 21.1139,-5.53477 37.67804,-14.91902 53.25,-30.15625 15.72238,-15.38441 26.14099,-33.10319 31.53125,-53.65625 3.08191,-11.75133 3.77124,-33.39544 1.4375,-44.9375 -4.87248,-24.09796 -15.98217,-43.71678 -35,-61.71875 -12.11805,-11.47074 -26.42846,-20.61092 -52.8125,-33.8125 -14.30899,-7.15969 -22.70575,-11.93671 -22.40625,-12.6875 0.26363,-0.66087 37.19347,-58.26689 82.09375,-128.03125 44.90028,-69.76435 83.16262,-129.61435 85,-133 1.83738,-3.38564 4.26184,-7.73125 5.40625,-9.65625 2.59868,-4.3712 5.17917,-14.13523 5.15625,-19.46875 C 729.26933,185.88968 692.09279,141.3159 632.375,101.43381 562.37342,54.683772 471.81678,18.469802 392.9375,5.6838123 369.06054,1.8134523 350.03173,0.21506226 328.03125,0.21506226 z M 439.34375,118.59006 c 11.1703,-0.0109 22.32689,0.81859 29.78125,2.4375 59.5831,12.93985 103.55235,56.38521 117.46875,116.09375 2.61603,11.22413 3.97231,49.77663 1.71875,48.84375 -0.75857,-0.31401 -8.125,-3.36163 -16.375,-6.75 -27.59182,-11.33227 -30.0487,-13.84176 -36.15625,-37.40625 -5.25656,-20.28114 -12.69948,-33.14686 -27.0625,-46.6875 -7.22829,-6.81442 -16.06291,-13.15923 -17.28125,-12.40625 -0.40444,0.24995 -1.72752,3.1083 -2.9375,6.34375 l -2.1875,5.875 5.03125,5.1875 c 6.70155,6.88023 13.2939,20.07636 13.375,26.75 0.11544,9.49866 -5.53705,15.33691 -14.875,15.34375 -7.4741,0.005 -11.00512,-2.76041 -15.90625,-12.4375 -3.38881,-6.69109 -4.68543,-8.28238 -8.40625,-10.25 -5.86274,-3.10029 -12.61897,-3.10849 -17.1875,-0.0312 -4.33797,2.92191 -8.1875,9.82268 -8.1875,14.71875 0,6.14599 3.58721,11.86802 16.15625,25.78125 6.52359,7.22125 13.31009,15.37667 15.09375,18.15625 17.65301,27.50984 -0.0175,65.74369 -34.4375,74.53125 -3.27805,0.83677 -8.27377,1.5312 -11.125,1.5312 l -5.1875,0 -2.5,6.25 c -1.37777,3.4375 -2.34165,6.55097 -2.125,6.90625 0.90404,1.48248 18.4223,3.08542 28.34375,2.59375 21.4955,-1.06525 41.85271,-8.92913 58.8125,-22.6875 3.44027,-2.79086 6.59027,-5.07079 7,-5.0625 1.85301,0.0375 46.74311,18.94806 47.03125,19.8125 0.51661,1.54981 -19.54801,21.36424 -27.78125,27.4375 -20.56458,15.16948 -45.05944,25.13083 -70.40625,28.65625 -11.97224,1.66518 -33.48388,1.22356 -45.9375,-0.96875 -53.95292,-9.49774 -98.06006,-47.06554 -116.09375,-98.875 -6.40799,-18.40967 -7.9375,-28.04482 -7.9375,-49.5625 0,-15.79466 0.36676,-20.72044 2.1875,-29.15625 6.69246,-31.0073 19.55186,-54.78648 41.625,-76.9375 21.89371,-21.97095 45.6502,-34.87669 76.5625,-41.5625 7.55283,-1.63356 18.73595,-2.45784 29.90625,-2.46875 z m -0.4375,48.90625 c -1.40074,-0.005 -2.73699,0.0332 -3.96875,0.0937 -42.56296,2.09132 -78.55603,29.26178 -91.78125,69.28125 -11.43307,34.5964 -4.26081,70.52473 19.625,98.46875 6.61446,7.73827 23.51865,21.42697 24.8125,20.09375 0.38895,-0.40079 1.57611,-2.96107 2.65625,-5.71875 l 1.96875,-5.03125 -3.9375,-2.96875 c -7.27561,-5.47274 -14.43758,-16.53929 -18.25,-28.1875 -2.73319,-8.35081 0.0338,-15.5354 7.4375,-19.3125 9.67526,-4.93594 17.18985,-0.7039 23.96875,13.5 3.5394,7.41615 8.27872,11.77837 15.34375,14.125 13.72852,4.55993 29.65625,-6.0899 29.65625,-19.81245 0,-6.40187 -3.92452,-13.12454 -15.1875,-25.9375 -18.80206,-21.38954 -23.46899,-30.75121 -22.5625,-45.28125 0.72403,-11.60529 5.07586,-21.74782 13,-30.21875 7.19689,-7.6935 14.4349,-11.41789 27.15625,-14.03125 l 8.90625,-1.84375 2.90625,-6.84375 c 1.59578,-3.76962 2.69,-7.06 2.4375,-7.3125 -1.484,-1.484 -14.38235,-3.02998 -24.1875,-3.0625 z" />
</svg>
