<?xml version="1.0" encoding="UTF-8"?>
<svg version="1.1" xmlns="http://www.w3.org/2000/svg" viewBox="0 0 18 18">
<!-- Based on embedded SVG from http://crunchyroll.com/ -->
<path fill="#F78C25" d="m2.2 10.1c0-4.4 3.5-7.9 7.9-7.9 4.2 0 7.6 3.2 7.9 7.3v-0.5c0-5-4-9-9-9s-9 4-9 9 4 9 9 9h0.6c-4.1-0.3-7.4-3.7-7.4-7.9zm12.2 0.4c-1.6 0-2.9-1.3-2.9-2.9 0-1.2 0.8-2.3 1.9-2.7-0.9-0.5-1.9-0.7-2.9-0.7-3.5 0-6.3 2.8-6.3 6.3s2.8 6.3 6.3 6.3 6.3-2.8 6.3-6.3c0-0.4 0-0.8-0.1-1.2-0.5 0.8-1.3 1.2-2.3 1.2z"/>
</svg>
