<?xml version="1.0" encoding="UTF-8"?>
<svg version="1.1" viewBox="0 0 2152.17 2152.19" xmlns="http://www.w3.org/2000/svg">
<!-- Based on dA_Mod_Enclosure_RGB_Mixed.eps from http://help.deviantart.com/21/ -->
<rect fill="#bdde15" x="76.09" y="76.09" width="2000" height="2000"/>
<path fill="#445848" d="M 401.145,1430.561 757.387,1344.44 576.895,967.02 c -208.317,111.65 -249.957,273.58 -231.723,426.74 3.144,26.418 30.039,42.75 55.973,36.801 z M 1957.36,170 194.805,170 C 181.129,170 170,181.12 170,194.8 l 0,784.06 C 257.125,901.9 365.438,836.96 491.395,788.15 l -118.375,-267.4 326.664,0 90.769,188.12 c 11.192,-1.85 13.617,-1.84 24.934,-3.55 313.793,-47.33 619.103,-45.11 903.163,16.21 91.19,19.69 180.65,43.12 263.62,73.39 l 0,-600.12 c 0,-13.68 -11.13,-24.8 -24.81,-24.8 z M 972.914,922.92 C 1101.65,900.94 1212.8,895.19 1309.1,900.85 l 135.08,277.578 c 0,0 270.09,-64.328 359.68,-87.508 31.24,-8.09 67.91,-22.67 34.31,-57.87 C 1688.39,876.13 1388,778.67 902.938,865.24 c -11.645,2.09 -23.11,4.27 -34.364,6.48 l 297.156,615.048 -995.73,273.453 0,197.16 c 0,13.68 11.129,24.809 24.805,24.809 l 1762.555,0 c 13.68,0 24.81,-11.129 24.81,-24.809 l 0,-695.601 -746.11,203.621 z M 2052.17,1957.381 c 0,52.368 -42.45,94.809 -94.81,94.809 l -1762.555,0 C 142.434,2052.19 100,2009.749 100,1957.381 L 100,194.8 c 0,-52.36 42.434,-94.8 94.805,-94.8 l 1762.555,0 c 52.36,0 94.81,42.44 94.81,94.8 z M 1957.36,0 194.805,0 C 87.3867,0 0,87.38 0,194.8 l 0,1762.581 c 0,107.4106 87.3867,194.809 194.805,194.809 l 1762.555,0 c 107.42,0 194.81,-87.3984 194.81,-194.809 l 0,-1762.581 C 2152.17,87.38 2064.78,0 1957.36,0"/>
</svg>
