<?xml version="1.0" encoding="UTF-8"?>
<svg xmlns="http://www.w3.org/2000/svg" version="1.1" viewBox="0 0 512 512">
<!-- Based on Ello.Logo.eps from https://ello.co/wtf/post/ello-logo -->
<path fill="#000000" d="M 512,256 C 512,397.384 397.38,512 256,512 114.612,512 0,397.384 0,256 0,114.615 114.612,0 256,0 397.38,0 512,114.615 512,256" />
<path fill="#ffffff" d="m 256,409.601 c -69.985,0 -131.088,-47.37 -148.58,-115.207 -2.016,-7.817 2.692,-15.801 10.509,-17.819 7.833,-2.024 15.8,2.693 17.817,10.518 14.167,54.904 63.61,93.257 120.254,93.257 56.635,0 106.087,-38.353 120.246,-93.257 2.016,-7.825 9.975,-12.551 17.817,-10.518 7.825,2.018 12.533,10.002 10.508,17.819 C 387.079,362.231 325.986,409.601 256,409.601" />
</svg>
