<?xml version="1.0" encoding="UTF-8"?>
<svg xmlns="http://www.w3.org/2000/svg" version="1.1" viewBox="0 0 18 18">
<!-- Copied from http://www.steverichey.com/dev/vector-logos/ -->
<path fill="#000000" d="M 6,1 h 12 v 1 h -1 v 1 h -1 v 1 h -1 v 1 h -1 v 1 h 3 v 1 h -1 v 1 h -1 v 1 h -1 v 1 h -1 v 1 h -1 v 1 h -1 v 1 h -1 v 1 h -1 v 1 h -1 v 1 h -1 v 1 h -1 v 1 h -1 v -1 h 1 v -2 h 1 v -2 h 1 v -2 h -6 v -2 h 1 v -2 h 1 v -2 h 1 v -2 h 1 z" />
<path fill="#ffffff" d="M 5,0 h 12 v 1 h -1 v 1 h -1 v 1 h -1 v 1 h -1 v 1 h 3 v 1 h -1 v 1 h -1 v 1 h -1 v 1 h -1 v 1 h -1 v 1 h -1 v 1 h -1 v 1 h -1 v 1 h -1 v 1 h -1 v 1 h -1 v 1 h -1 v -1 h 1 v -2 h 1 v -2 h 1 v -2 h -6 v -2 h 1 v -2 h 1 v -2 h 1 v -2 h 1 z" />
<path fill="#2F7F6F" d="M 6,2 h 7 v 1 h -1 v 1 h -1 v 1 h -1 v 2 h 2 v 1 h -1 v 1 h -1 v 1 h -1 v -2 h -5 v -2 h 1 v -2 h 1 z" />
<path fill="#ccff00" d="
	M 4,7 h 1 v 1 h -1 z
	M 5,6 h 1 v 1 h -1 z
	M 6,7 h 1 v 1 h -1 z
	M 7,6 h 1 v 1 h -1 z
	M 8,7 h 1 v 1 h -1 z
	M 9,6 h 1 v 1 h -1 z
	M 9,8 h 1 v -1 h 1 v 2 h -1 v 1 h -1 z" />
</svg>
