<?xml version="1.0" encoding="UTF-8"?>
<svg version="1.1" viewBox="0 0 283.49 342.35" xmlns="http://www.w3.org/2000/svg">
<!-- Based on GeoGuessr-Pin.eps from https://design.geoguessr.com/the-brand/logotype -->
<path fill="#cf2b36" d="m141.74-0.00391c-77.98 0-141.45 63.395-141.73 141.42-0.27734 16.606 6.2227 82.957 111.76 188.52 8.277 8.2696 19.121 12.41 29.968 12.41 10.836 0 21.676-4.1406 29.961-12.41 105.57-105.56 112.06-171.91 111.78-188.52-0.285-78.027-63.757-141.42-141.75-141.42zm0 42.367c54.989 0 99.375 44.582 99.375 99.571 0 0 3.328 55.343-99.375 158.04-102.69-102.7-99.363-158.04-99.363-158.04 0-54.989 44.391-99.571 99.363-99.571"/>
<path fill="#ffffff" d="m141.74 42.363c54.989 0 99.375 44.582 99.375 99.571 0 0 3.328 55.343-99.375 158.04-102.69-102.7-99.363-158.04-99.363-158.04 0-54.989 44.391-99.571 99.363-99.571"/>
<path fill="#cf2b36" d="m141.75 141.91c14.406 0 26.074-11.691 26.082-26.078 0-14.469-11.668-26.117-26.082-26.117-14.398 0-26.074 11.644-26.074 26.117 0 14.387 11.676 26.078 26.074 26.078"/>
</svg>
