<?xml version="1.0" encoding="UTF-8"?>
<!DOCTYPE svg PUBLIC "-//W3C//DTD SVG 1.1//EN" "http://www.w3.org/Graphics/SVG/1.1/DTD/svg11.dtd">
<!-- Creator: CorelDRAW X6 -->
<svg xmlns="http://www.w3.org/2000/svg" xml:space="preserve" width="455.55mm" height="330.97mm" version="1.1" shape-rendering="geometricPrecision" text-rendering="geometricPrecision" image-rendering="optimizeQuality" fill-rule="evenodd" clip-rule="evenodd"
viewBox="0 0 45555 33097"
 xmlns:xlink="http://www.w3.org/1999/xlink">
 <defs>
   <linearGradient id="id0" gradientUnits="userSpaceOnUse" x1="10721.3" y1="7208.85" x2="34827.8" y2="7208.85">
    <stop offset="0" stop-color="#F8F6EF"/>
    <stop offset="1" stop-color="#E7E4D6"/>
   </linearGradient>
   <linearGradient id="id1" gradientUnits="userSpaceOnUse" x1="10721.3" y1="7208.85" x2="34827.8" y2="7208.85">
    <stop offset="0" stop-color="#F8F6EF"/>
    <stop offset="1" stop-color="#E7E4D6"/>
   </linearGradient>
   <linearGradient id="id2" gradientUnits="userSpaceOnUse" x1="10721.3" y1="7208.85" x2="34827.8" y2="7208.85">
    <stop offset="0" stop-color="#F8F6EF"/>
    <stop offset="1" stop-color="#E7E4D6"/>
   </linearGradient>
   <linearGradient id="id3" gradientUnits="userSpaceOnUse" x1="10721.3" y1="7208.85" x2="34827.8" y2="7208.85">
    <stop offset="0" stop-color="#F8F6EF"/>
    <stop offset="1" stop-color="#E7E4D6"/>
   </linearGradient>
   <linearGradient id="id4" gradientUnits="userSpaceOnUse" x1="10721.3" y1="7208.85" x2="34827.8" y2="7208.85">
    <stop offset="0" stop-color="#F8F6EF"/>
    <stop offset="1" stop-color="#E7E4D6"/>
   </linearGradient>
   <linearGradient id="id5" gradientUnits="userSpaceOnUse" x1="10721.3" y1="7208.85" x2="34827.8" y2="7208.85">
    <stop offset="0" stop-color="#F8F6EF"/>
    <stop offset="1" stop-color="#E7E4D6"/>
   </linearGradient>
   <linearGradient id="id6" gradientUnits="userSpaceOnUse" x1="10721.3" y1="7208.85" x2="34827.8" y2="7208.85">
    <stop offset="0" stop-color="#F8F6EF"/>
    <stop offset="1" stop-color="#E7E4D6"/>
   </linearGradient>
   <linearGradient id="id7" gradientUnits="userSpaceOnUse" x1="10721.3" y1="7208.85" x2="34827.8" y2="7208.85">
    <stop offset="0" stop-color="#F8F6EF"/>
    <stop offset="1" stop-color="#E7E4D6"/>
   </linearGradient>
 </defs>
 <g id="Capa_x0020_1">
  <metadata id="CorelCorpID_0Corel-Layer"/>
  <line fill="none" x1="40172" y1="32847" x2="40182" y2= "32847" />
  <line fill="none" x1="40182" y1="32847" x2="40172" y2= "32847" />
  <path fill="#E75A4D" d="M41608 250c2030,0 3691,1661 3691,3691l0 1070 -5128 3663 -17458 12026 -17458 -12148 0 23074 0 1221 -1314 0c-2030,0 -3691,-1661 -3691,-3691l0 -25214c0,-2030 1661,-3691 3691,-3691l18772 13918 18894 -13918z"/>
  <polygon fill="url(#id0)" points="3941,250 22713,14168 41608,250 "/>
  <polygon fill="#E7E4D7" points="5255,8552 5255,32847 40172,32847 40172,8674 22713,20700 "/>
  <polygon fill="#B8B7AE" points="5255,32847 22713,20700 22634,20644 5255,32580 "/>
  <polygon fill="#B7B6AD" points="40172,8674 40182,32847 22713,20700 "/>
  <path fill="#B2392F" d="M45299 5011l6 24148c-88,2684 -1251,3642 -5123,3687l-10 -24173 5128 -3663z"/>
  <polygon fill="url(#id1)" points="3941,250 22713,14168 41608,250 "/>
  <polygon fill="url(#id2)" points="3941,250 22713,14168 41608,250 "/>
  <polygon fill="url(#id3)" points="3941,250 22713,14168 41608,250 "/>
  <polygon fill="url(#id4)" points="3941,250 22713,14168 41608,250 "/>
  <polygon fill="url(#id5)" points="3941,250 22713,14168 41608,250 "/>
  <polygon fill="url(#id6)" points="3941,250 22713,14168 41608,250 "/>
  <polygon fill="url(#id7)" points="3941,250 22713,14168 41608,250 "/>
  <polygon fill="#F7F5ED" points="3941,250 22713,14168 41608,250 "/>
 </g>
</svg>
