<?xml version="1.0" encoding="UTF-8"?>
<svg version="1.1" viewBox="0 0 75.386 71.736" xmlns="http://www.w3.org/2000/svg">
<!-- Based on https://commons.wikimedia.org/wiki/File:GOG.com_logo.svg -->
<g fill="373A36">
	<path d="m22.462 46.053h-8.77a1.241 1.241 0 0 0-1.24 1.247s3e-3 0 3e-3 8e-3h-3e-3v6.257h3e-3l-3e-3 5e-3c0 0.686 0.552 1.25 1.24 1.25h8.77v4.174h-10.943v-0.01a3.235 3.235 0 0 1-3.239-3.234v-10.64a3.233 3.233 0 0 1 3.239-3.223h10.943z"/>
	<path d="m25.628 34.433a3.28 3.28 0 0 1-3.282 3.284h-14.076v-4.23h11.867c0.698 0 1.258-0.571 1.258-1.266v-13.984c0-0.697-0.56-1.262-1.258-1.262h-6.377a1.259 1.259 0 0 0-1.258 1.262v6.364a1.26 1.26 0 0 0 1.258 1.266h5.095v4.23h-7.303a3.277 3.277 0 0 1-3.281-3.281v-10.792a3.28 3.28 0 0 1 3.281-3.283h10.794a3.283 3.283 0 0 1 3.282 3.283z"/>
	<path d="m67.102 58.985h-4.172v-12.93h-2.93a1.241 1.241 0 0 0-1.242 1.246v11.684h-4.17v-12.93h-2.933a1.243 1.243 0 0 0-1.242 1.246v11.695h-4.17v-13.884a3.23 3.23 0 0 1 3.235-3.224h17.623z"/>
	<path d="m67.112 34.433a3.28 3.28 0 0 1-3.281 3.284h-14.076v-4.23h11.867c0.7 0 1.264-0.571 1.264-1.266v-13.984a1.261 1.261 0 0 0-1.264-1.262h-6.376a1.26 1.26 0 0 0-1.255 1.262v6.364c0 0.699 0.564 1.266 1.255 1.266h5.092v4.23h-7.3a3.28 3.28 0 0 1-3.283-3.281v-10.792a3.281 3.281 0 0 1 3.284-3.283h10.791a3.284 3.284 0 0 1 3.281 3.283z"/>
	<path d="m42.13 18.248v6.353a1.25 1.25 0 0 1-1.248 1.267h-6.375a1.261 1.261 0 0 1-1.26-1.267v-6.364c0-0.697 0.56-1.261 1.26-1.261h6.375a1.248 1.248 0 0 1 1.248 1.261zm0.96-5.505h-10.795a3.28 3.28 0 0 0-3.279 3.282v10.792a3.277 3.277 0 0 0 3.279 3.282h10.795a3.283 3.283 0 0 0 3.28-3.282v-10.792a3.284 3.284 0 0 0-3.28-3.282"/>
	<path d="m38.734 47.308v6.257a1.244 1.244 0 0 1-1.238 1.25c-6e-3 0-8e-3 -7e-3 -0.014-7e-3v7e-3h-6.256v-7e-3s-7e-3 7e-3 -0.014 7e-3a1.244 1.244 0 0 1-1.24-1.25v-6.265c0-0.688 0.552-1.247 1.24-1.247h6.284a1.24 1.24 0 0 1 1.238 1.247zm0.937-5.421h-10.635a3.23 3.23 0 0 0-3.236 3.223v10.64a3.233 3.233 0 0 0 3.236 3.233h10.635a3.233 3.233 0 0 0 3.232-3.233v-10.64a3.232 3.232 0 0 0-3.232-3.224"/>
	<path d="m73.783 66.252c0 1.075-0.433 2.04-1.137 2.745a3.864 3.864 0 0 1-2.743 1.135h-64.42a3.876 3.876 0 0 1-3.88-3.88v-60.77a3.872 3.872 0 0 1 1.137-2.744 3.868 3.868 0 0 1 2.743-1.136h64.42a3.87 3.87 0 0 1 2.743 1.136 3.861 3.861 0 0 1 1.137 2.742zm-5e-3 -64.647a5.459 5.459 0 0 0-3.875-1.605h-64.42a5.459 5.459 0 0 0-3.875 1.605 5.461 5.461 0 0 0-1.608 3.876v60.77c0 1.513 0.615 2.889 1.608 3.878a5.467 5.467 0 0 0 3.875 1.607h64.42a5.467 5.467 0 0 0 3.875-1.607 5.467 5.467 0 0 0 1.608-3.877v-60.77a5.467 5.467 0 0 0-1.608-3.877"/>
</g>
</svg>
