<?xml version="1.0" encoding="UTF-8"?>
<svg xmlns="http://www.w3.org/2000/svg" xmlns:xlink="http://www.w3.org/1999/xlink" version="1.1" viewBox="0 0 126.25 126.25">
<!--
	Based on:
	http://commons.wikimedia.org/w/index.php?title=File:Google_plus.svg
	https://ssl.gstatic.com/images/icons/gplus-128.png
-->
<defs>
	<symbol id="base">
		<rect width="126.25" height="121.30" rx="7.2531" ry="7.2531" />
	</symbol>
	<symbol id="g">
		<path d="m 66.608067,66.957045 -3.983,-3.093 c -1.213,-1.006 -2.872,-2.334 -2.872,-4.765 0,-2.441 1.659,-3.993 3.099,-5.43 4.64,-3.652 9.276,-7.539 9.276,-15.73 0,-8.423 -5.3,-12.854 -7.84,-14.956 l 6.849,0 7.189,-4.517 -21.779,0 c -5.976,0 -14.978567,1.414 -21.283567,6.619 -4.752,4.1 -6.679433,9.753 -6.679433,14.842 0,8.639 6.633,17.396 18.346,17.396 1.106,0 2.316,-0.109 3.534,-0.222 -0.547,1.331 -1.1,2.439 -1.1,4.32 0,3.431 1.763,5.535 3.317,7.528 -4.977,0.342 -14.268,0.893 -21.117,5.103 -6.523,3.879 -8.508,9.525 -8.508,13.51 0,8.201995 7.731,15.841995 23.762,15.841995 19.01,0 29.074,-10.518995 29.074,-20.931995 10e-4,-7.651 -4.419,-11.417 -9.284,-15.515 z m -14.479,-12.738 c -9.51,0 -13.818,-12.294 -13.818,-19.712 0,-2.888 0.547,-5.87 2.428,-8.199 1.773,-2.218 4.861,-3.657 7.744,-3.657 9.168,0 13.923,12.404 13.923,20.382 0,1.996 -0.22,5.533 -2.762,8.09 -1.778,1.774 -4.753,3.096 -7.515,3.096 z m 0.109,44.542995 c -11.826,0 -19.452,-5.656995 -19.452,-13.522995 0,-7.864 7.071,-10.524 9.504,-11.405 4.64,-1.561 10.611,-1.779 11.607,-1.779 1.105,0 1.658,0 2.538,0.111 8.407,5.983 12.056,8.965 12.056,14.629 0,6.859 -5.639,11.966995 -16.253,11.966995 z" />
	</symbol>
	<symbol id="plus">
		<path d="m 89.761133,56.243806 -10.85123,0 0,5.912122 10.85123,0 0,10.842397 5.943408,0 0,-10.842397 10.820609,0 0,-5.912122 -10.820609,0 0,-10.853856 -5.943408,0 z" />
	</symbol>
</defs>

<use xlink:href="#base" x="0" y="4.95" fill="#8d2d1d" />
<use xlink:href="#base" x="0" y="0" fill="#dd4b39" />
<use xlink:href="#g" x="0" y="0" fill="#c24232" />
<use xlink:href="#g" x="0" y="1" fill="#ffffff" />
<use xlink:href="#plus" x="0" y="0" fill="#c24232" />
<use xlink:href="#plus" x="0" y="1" fill="#ffffff" />

</svg>
