<?xml version="1.0" encoding="UTF-8"?>
<svg version="1.1" viewBox="0 0 269.375 269.375" xmlns="http://www.w3.org/2000/svg">
<!-- Based on Grooveshark_Logo_No-Text.eps from http://grooveshark.com/logo -->
<path fill="#100f0d" d="m 213.906,161.797 c -10.215,-4.309 -18.73,-13.067 -25.078,-21.934 -7.285,-10.183 -14.746,-20.195 -22.91,-29.687 -7.676,-8.914 -15.84,-17.461 -24.711,-25.18 -8.84,-7.711 -18.469,-15.043 -29.074,-20.137 -7.113,-3.429 -14.4338,-6.007 -22.0197,-8.179 -0.8516,-0.239 -3.168,-1.289 -3.8516,-0.235 -0.4258,0.653 -0.1015,1.875 -0.0117,2.598 0.1836,1.57 0.3711,3.141 0.5625,4.707 2.2695,18.809 3.125,38.66 -2.7109,56.926 -3.1328,9.844 -8.8438,18.836 -16.4688,25.808 -6.3125,5.774 -15.3281,11.621 -24.2851,11.203 -1.6524,-0.07 -3.3086,-0.351 -4.9454,-0.902 -9.5937,-3.23 -10.1484,-13.582 -10.2031,-22.098 -0.0703,-9.152 1.0352,-18.292 3.3008,-27.16 0.6914,-2.73 1.543,-5.41 2.457,-8.082 10.4727,-30.379 34.7188,-55.117 65.168,-65.906 11.406,-4.043 23.469,-6.082 35.566,-6.082 35.602,0 69.469,18.305 89.039,48.039 4.903,7.457 8.829,15.527 11.719,23.949 l -0.039,0 c 0.918,2.672 1.778,5.352 2.481,8.082 2.246,8.868 3.359,18.008 3.3,27.16 -0.136,17.227 -5.664,36.231 -27.285,27.11 M 256.543,99.445 C 241.27,46.543 192.52,7.84 134.691,7.84 76.8633,7.84 28.1094,46.543 12.832,99.445 c -3.23044,11.2 -4.99997,23.004 -4.99997,35.242 0,7.852 0.75,15.54 2.125,23 10.82427,59.0825 62.53127,103.84425 124.73397,103.84425 62.204,0 113.903,-44.76175 124.743,-103.84425 1.367,-7.46 2.109,-15.148 2.109,-23 0,-12.238 -1.777,-24.042 -5,-35.242" />
<path fill="#100f0d" d="m 134.688,252.5 c -65.0708,0 -117.813,-52.7422 -117.813,-117.813 0,-65.07 52.7422,-117.812 117.813,-117.812 65.07,0 117.812,52.742 117.812,117.812 0,65.0708 -52.742,117.813 -117.812,117.813 z m 0,-252.5 C 60.3008,0 0,60.301 0,134.687 c 0,74.3833 60.3008,134.688 134.688,134.688 74.382,0 134.687,-60.3047 134.687,-134.688 C 269.375,60.301 209.07,0 134.688,0" />
</svg>
