<?xml version="1.0" encoding="UTF-8"?>
<svg version="1.1" viewBox="0 0 112.201 156.047" xmlns="http://www.w3.org/2000/svg">
<!-- Based on hitbox-logos.ai from https://drive.google.com/folderview?id=0Bwsi49UsCzV7MTFiSEE1M1ZzZUU - https://twitter.com/seriousownsya/status/505328257102008320 -->
<!-- Background color: #333333 -->
<path fill="#ACE600" d="m 56.008,0 -29.319,13.322 0,36.95 29.319,-4.665 29.504,4.688 0,-36.948 L 56.008,0 z M 0,105.964 l 18.568,6.728 0,-57.283 L 0,57.754 l 0,48.21 z m 22.575,32.367 31.242,17.675 0,-24.836 -31.242,-12.568 0,19.729 z m 33.537,-87.664 -33.537,4.236 0,59.241 33.537,12.151 33.514,-12.161 0,-59.238 -33.514,-4.229 z m 37.52,62.013 18.569,-6.737 0,-48.209 -18.569,-2.334 0,57.28 z m -35.249,18.465 31.243,-12.559 0,19.763 -31.243,17.698 0,-24.902 z" />
</svg>
