<?xml version="1.0" encoding="UTF-8" standalone="no"?>
<svg xmlns="http://www.w3.org/2000/svg" version="1.1" viewBox="0 -0.194 113.193 113.193">
<!-- Based on "Instagram Glyph.pdf" from http://instagram.com/press/ -->
<path fill="#231f20" fill-rule="evenodd" d="m 100.1353,112.9987 -87.077,0 c -7.211,0 -13.058,-5.849 -13.058,-13.065 l 0,-87.069 c 0,-7.212 5.847,-13.058 13.058,-13.058 l 87.077,0 c 7.212,0 13.058,5.846 13.058,13.058 l 0,87.069 c 0,7.216 -5.846,13.065 -13.058,13.065 m -43.539,-78.365 c -12.023,0 -21.768,9.744 -21.768,21.767 0,12.021 9.745,21.77 21.768,21.77 12.023,0 21.77,-9.749 21.77,-21.77 0,-12.023 -9.747,-21.767 -21.77,-21.767 m 43.539,-17.416 c 0,-2.403 -1.95,-4.353 -4.358,-4.353 l -13.058,0 c -2.405,0 -4.353,1.95 -4.353,4.353 l 0,13.063 c 0,2.403 1.948,4.353 4.353,4.353 l 13.058,0 c 2.408,0 4.358,-1.95 4.358,-4.353 l 0,-13.063 z m 0,30.473 -9.854,0 c 0.718,2.787 1.142,5.699 1.142,8.71 0,19.238 -15.592,34.829 -34.827,34.829 -19.234,0 -34.827,-15.591 -34.827,-34.829 0,-3.011 0.426,-5.923 1.144,-8.71 l -9.855,0 0,47.893 c 0,2.401 1.95,4.35 4.358,4.35 l 78.361,0 c 2.408,0 4.358,-1.949 4.358,-4.35 l 0,-47.893 z" />
</svg>
