<?xml version="1.0" encoding="UTF-8" standalone="no"?>
<svg xmlns="http://www.w3.org/2000/svg" version="1.1" viewBox="0 -0.194 113.193 113.193">
<!-- Based on "Instagram Glyph.pdf" from http://instagram.com/press/ -->
<path fill="#231f20" d="m100.14 113h-87.077c-7.211 0-13.058-5.849-13.058-13.065v-87.069c0-7.212 5.847-13.058 13.058-13.058h87.077c7.212 0 13.058 5.846 13.058 13.058v87.069c0 7.216-5.846 13.065-13.058 13.065m-43.539-78.365c-12.023 0-21.768 9.744-21.768 21.767 0 12.021 9.745 21.77 21.768 21.77s21.77-9.749 21.77-21.77c0-12.023-9.747-21.767-21.77-21.767m43.539-17.416c0-2.403-1.95-4.353-4.358-4.353h-13.058c-2.405 0-4.353 1.95-4.353 4.353v13.063c0 2.403 1.948 4.353 4.353 4.353h13.058c2.408 0 4.358-1.95 4.358-4.353v-13.063zm0 30.473h-9.854c0.718 2.787 1.142 5.699 1.142 8.71 0 19.238-15.592 34.829-34.827 34.829-19.234 0-34.827-15.591-34.827-34.829 0-3.011 0.426-5.923 1.144-8.71h-9.855v47.893c0 2.401 1.95 4.35 4.358 4.35h78.361c2.408 0 4.358-1.949 4.358-4.35v-47.893z" />
</svg>
