<?xml version="1.0" encoding="UTF-8" standalone="no"?>
<svg xmlns="http://www.w3.org/2000/svg" version="1.1" viewBox="0 0 629.8 629.8">
<g fill="#100f0d">
	<path d="m 314.90125,-0.00125 c -85.5225,0 -96.24625,0.3625 -129.83375,1.895 C 151.55,3.4225 128.65875,8.74625 108.62837,16.53 87.920875,24.5775 70.359875,35.345 52.853,52.85125 35.346625,70.3575 24.579125,87.92 16.53175,108.6275 8.7475625,128.6575 3.4243125,151.54875 1.8945375,185.06625 0.362305,218.65375 0,229.3775 0,314.9 c 0,85.52125 0.362305,96.245 1.8945375,129.8325 1.529775,33.5175 6.853025,56.40875 14.6372125,76.43862 8.047375,20.7075 18.814875,38.269 36.32125,55.77638 17.506875,17.50625 35.067875,28.27387 55.77537,36.32125 20.03038,7.78369 42.92163,13.10742 76.43913,14.63622 33.5875,1.53224 44.31125,1.89503 129.83375,1.89503 85.52125,0 96.245,-0.36279 129.8325,-1.89503 33.5175,-1.5288 56.40875,-6.85253 76.43875,-14.63622 20.7075,-8.04738 38.26875,-18.815 55.77625,-36.32125 17.50625,-17.50738 28.27375,-35.06888 36.32125,-55.77638 7.78375,-20.02987 13.1075,-42.92112 14.63625,-76.43862 1.5325,-33.5875 1.895,-44.31125 1.895,-129.8325 0,-85.5225 -0.3625,-96.24625 -1.895,-129.83375 C 626.3775,151.54875 621.05375,128.6575 613.27,108.6275 605.2225,87.92 594.455,70.3575 576.94875,52.85125 559.44125,35.345 541.88,24.5775 521.1725,16.53 501.1425,8.74625 478.25125,3.4225 444.73375,1.89375 c -33.5875,-1.5325 -44.31125,-1.895 -129.8325,-1.895 l 0,0 z m 0,56.73875 c 84.08125,0 94.04125,0.32125 127.24625,1.83625 30.7025,1.4 47.37625,6.53 58.4725,10.8425 14.69875,5.7125 25.18875,12.53625 36.2075,23.555 11.02,11.02 17.84375,21.51 23.55625,36.20875 4.3125,11.09625 9.4425,27.77 10.8425,58.4725 1.515,33.205 1.83625,43.165 1.83625,127.2475 0,84.08125 -0.32125,94.04125 -1.83625,127.24625 -1.4,30.7025 -6.53,47.37625 -10.8425,58.4725 -5.7125,14.69887 -12.53625,25.18862 -23.55625,36.20762 -11.01875,11.02 -21.50875,17.84375 -36.2075,23.55613 -11.09625,4.3125 -27.77,9.44237 -58.4725,10.84225 -33.2,1.51525 -43.15875,1.8365 -127.24625,1.8365 -84.08875,0 -94.04625,-0.32125 -127.2475,-1.8365 -30.7025,-1.39988 -47.37625,-6.52975 -58.4725,-10.84225 -14.69888,-5.71238 -25.18863,-12.53613 -36.207625,-23.55613 -11.019,-11.019 -17.84375,-21.50875 -23.556125,-36.20762 -4.3125,-11.09625 -9.441875,-27.77 -10.84275,-58.4725 -1.515125,-33.205 -1.836,-43.165 -1.836,-127.24625 0,-84.0825 0.320875,-94.0425 1.836,-127.2475 C 59.975625,156.95 65.105,140.27625 69.4175,129.18 75.129875,114.48125 81.954125,103.99125 92.973125,92.9725 103.99262,81.9525 114.48237,75.12875 129.18125,69.41625 c 11.09625,-4.3125 27.77,-9.4425 58.4725,-10.8425 33.205,-1.515 43.165,-1.83625 127.2475,-1.83625"/>
	<path d="m 314.90125,419.86625 c -57.9725,0 -104.9675,-46.995 -104.9675,-104.96625 0,-57.9725 46.995,-104.9675 104.9675,-104.9675 57.97125,0 104.96625,46.995 104.96625,104.9675 0,57.97125 -46.995,104.96625 -104.96625,104.96625 z m 0,-266.6725 c -89.30875,0 -161.70625,72.3975 -161.70625,161.70625 0,89.3075 72.3975,161.705 161.70625,161.705 89.3075,0 161.705,-72.3975 161.705,-161.705 0,-89.30875 -72.3975,-161.70625 -161.705,-161.70625"/>
	<path d="m 520.78375,146.805 c 0,20.87 -16.91875,37.7875 -37.78875,37.7875 -20.86875,0 -37.7875,-16.9175 -37.7875,-37.7875 0,-20.87 16.91875,-37.78875 37.7875,-37.78875 20.87,0 37.78875,16.91875 37.78875,37.78875"/>
</g>
</svg>
