<?xml version="1.0" encoding="UTF-8" standalone="no"?>
<svg xmlns="http://www.w3.org/2000/svg" version="1.1" viewBox="0 0 629.8 629.8">
<!-- Based on "glyph-logo_May2016.eps" from https://www.instagram-brand.com/ -->
<g fill="#000">
	<path d="m314.9-0.00125c-85.522 0-96.246 0.3625-129.83 1.895-33.52 1.5287-56.41 6.8524-76.44 14.636-20.709 8.048-38.27 18.815-55.777 36.321-17.506 17.507-28.274 35.069-36.321 55.779-7.7844 20.03-13.108 42.92-14.638 76.44-1.5317 33.58-1.894 44.31-1.894 129.83 0 85.521 0.3623 96.245 1.8945 129.83 1.5298 33.518 6.853 56.409 14.637 76.439 8.0474 20.708 18.815 38.269 36.321 55.776 17.507 17.506 35.068 28.274 55.775 36.321 20.03 7.7837 42.922 13.107 76.439 14.636 33.588 1.5322 44.311 1.895 129.83 1.895 85.521 0 96.245-0.36279 129.83-1.895 33.518-1.5288 56.409-6.8525 76.439-14.636 20.708-8.0474 38.269-18.815 55.776-36.321 17.506-17.507 28.274-35.069 36.321-55.776 7.7838-20.03 13.108-42.921 14.636-76.439 1.5325-33.588 1.895-44.311 1.895-129.83 0-85.522-0.3625-96.246-1.895-129.83-1.52-33.51-6.85-56.4-14.63-76.43-8.05-20.71-18.81-38.272-36.32-55.779-17.51-17.506-35.07-28.273-55.78-36.321-20.03-7.7838-42.92-13.108-76.44-14.636-33.588-1.5325-44.311-1.895-129.83-1.895zm0 56.739c84.081 0 94.041 0.32125 127.25 1.8362 30.702 1.4 47.376 6.53 58.472 10.842 14.699 5.7125 25.189 12.536 36.208 23.555 11.02 11.02 17.844 21.51 23.556 36.209 4.3125 11.096 9.4425 27.77 10.842 58.472 1.515 33.205 1.8362 43.165 1.8362 127.25 0 84.081-0.32125 94.041-1.8362 127.25-1.4 30.702-6.53 47.376-10.842 58.472-5.7125 14.699-12.536 25.189-23.556 36.208-11.019 11.02-21.509 17.844-36.208 23.556-11.096 4.3125-27.77 9.4424-58.472 10.842-33.2 1.5152-43.159 1.8365-127.25 1.8365-84.089 0-94.046-0.32125-127.25-1.8365-30.702-1.3999-47.376-6.5298-58.472-10.842-14.699-5.7124-25.189-12.536-36.208-23.556-11.019-11.019-17.844-21.509-23.556-36.208-4.3125-11.096-9.4419-27.77-10.843-58.472-1.5151-33.205-1.836-43.165-1.836-127.25 0-84.082 0.32088-94.042 1.836-127.25 1.406-30.7 6.535-47.37 10.848-58.47 5.712-14.7 12.536-25.19 23.555-36.208 11.017-11.02 21.507-17.843 36.207-23.556 11.096-4.3125 27.77-9.4425 58.472-10.842 33.205-1.515 43.165-1.8362 127.25-1.8362"/>
	<path d="m314.9 419.87c-57.972 0-104.97-46.995-104.97-104.97 0-57.972 46.995-104.97 104.97-104.97 57.971 0 104.97 46.995 104.97 104.97 0 57.971-46.995 104.97-104.97 104.97zm0-266.67c-89.309 0-161.71 72.398-161.71 161.71 0 89.308 72.398 161.7 161.71 161.7 89.308 0 161.7-72.398 161.7-161.7 0-89.309-72.398-161.71-161.7-161.71"/>
	<path d="m520.78 146.8c0 20.87-16.919 37.788-37.789 37.788-20.869 0-37.788-16.918-37.788-37.788s16.919-37.789 37.788-37.789c20.87 0 37.789 16.919 37.789 37.789"/>
</g>
</svg>
