<?xml version="1.0" encoding="UTF-8"?>
<svg xmlns="http://www.w3.org/2000/svg" version="1.1" viewBox="0 0 769.532 481.894">
<!-- Based on https://app.frontify.com/d/3eaQ6KjTb8LH/italki-style-guide -->
<path fill="#ff4338" d="m385.8 0.0003c-39.208 0-112.51 0.8399-144.82 2.4973-30.107 1.5425-57.582 3.8354-81.664 6.8142-32.069 3.9698-55.832 7.5337-75.18 13.038-25.009 7.1109-42.697 17.612-55.66 33.046-6.9268 8.2448-12.307 17.657-16.451 28.777-3.542 9.5074-6.1636 20.286-8.0116 32.951-3.3377 22.83-4.02 54.48-4.02 88.8 0 34.281 0.68226 65.902 4.0135 88.719 1.8491 12.651 4.4696 23.43 8.0105 32.94 4.1414 11.12 9.5186 20.529 16.438 28.78 12.966 15.451 30.649 25.972 55.646 33.1 19.412 5.5404 43.17 9.1099 75.208 13.071 23.844 2.9508 51.339 5.21 81.72 6.719 31.991 1.5818 105.27 2.3908 144.76 2.3908 39.441 0 110.63-0.80068 142.6-2.3908 11.862-0.58791 23.287-1.2906 34.228-2.0997l129.41 74.741v-94.45c21.532-7.0494 37.215-17.022 49.004-31.061 6.929-8.2504 12.315-17.66 16.453-28.78 3.5499-9.5102 6.1703-20.289 8.0208-32.96 3.34-22.811 4.0203-54.435 4.0203-88.719 0-34.329-0.6803-65.981-4.0203-88.803-1.8393-12.668-4.4709-23.449-8.0096-32.96-4.149-11.12-9.5326-20.532-16.459-28.777-12.973-15.437-30.667-25.938-55.684-33.049-19.362-5.504-43.139-9.0679-75.222-13.032-24.082-2.976-51.549-5.2689-81.636-6.8086-32.31-1.6501-103.54-2.49-142.72-2.49"/>
<path fill="#fff" d="m324.74 245.14c-4.261 3.3987-6.4195 7.5001-6.4195 12.189 0 3.855 1.1758 6.957 3.4967 9.2246 2.3181 2.2621 5.5516 3.4099 9.6054 3.4099 1.4502 0 3.0292-0.20437 4.6977-0.60192h0.008c5.0057-1.131 9.7454-3.1075 14.088-5.8735l0.006-0.008 0.0112-0.014 0.0112-0.028 0.003-0.006v-30.21l-0.0868 0.0308c-12.621 4.5073-21.173 8.508-25.42 11.887"/>
<path fill="#fff" d="m654.63 277.39c0 10.258-8.3456 18.598-18.6 18.598-10.258 0-18.6-8.34-18.6-18.598v-88.067c0-10.255 8.3428-18.6 18.6-18.6 10.255 0 18.6 8.3456 18.6 18.6v88.067zm-18.6-162.15c10.255 0 18.598 8.3427 18.598 18.598s-8.3428 18.598-18.598 18.598c-10.258 0-18.6-8.3428-18.6-18.598s8.3428-18.598 18.6-18.598zm-58.719 180.79c-5.6916 0-10.994-2.5504-14.544-7.0102l-45.647-55.485v43.895c0 10.26-8.3456 18.6-18.6 18.6-10.258 0-18.6-8.34-18.6-18.6v-143.54c0-10.255 8.3428-18.6 18.6-18.6 10.255 0 18.6 8.3455 18.6 18.6v99.301l45.647-55.463c3.5499-4.4262 8.8383-6.9626 14.51-6.9626 10.255 0 18.6 8.3428 18.6 18.598 0 4.2806-1.4138 8.298-4.0846 11.63l-26.691 32.436 26.61 32.229 0.003 0.003c2.7044 3.3063 4.1938 7.4861 4.1938 11.769 0 10.26-8.3428 18.6-18.598 18.6zm-124.98-18.648c0 10.258-8.3456 18.598-18.6 18.598-10.255 0-18.6-8.34-18.6-18.598v-143.54c0-10.258 8.3456-18.6 18.6-18.6 10.255 0 18.6 8.3427 18.6 18.6v143.54zm-65.093 16.246h-18.71c-3.9194 0-7.7269-1.1086-11.005-3.2195-3.1719-2.0381-5.7112-4.8993-7.3489-8.2784-8.9867 8.9279-20.91 13.85-33.584 13.85h-0.32195c-18.379 0-33.332-14.95-33.332-33.326 0-12.203 6.6574-23.419 17.374-29.273l0.006-0.003 0.006-0.003c5.7476-3.0991 18.987-7.9956 29.082-11.562 10.566-3.7263 19.981-6.8114 20.709-7.0494v-11.462c0-7.6653-6.2375-13.903-13.906-13.903-4.9945 0-9.4542 2.6204-11.915 6.7106-0.056 0.0924-0.10919 0.18477-0.15958 0.27436l-0.0196 0.0308c-0.99105 1.7889-1.2206 3.4267-1.9261 5.3864l-0.003-0.003c-1.0498 3.0963-2.9704 5.8735-5.5348 7.9536-3.088 2.5028-6.9794 3.883-10.963 3.883-9.5998 0-17.413-7.8136-17.416-17.413v-0.006c0-4.5241 1.4446-8.5528 4.289-11.979 2.5952-3.1271 6.3775-5.7784 11.24-7.878 5.9575-2.5728 16.63-5.644 33.643-5.644 16.179 0 27.386 2.948 35.264 9.275 9.835 7.8976 14.617 21.176 14.617 40.602v43.455c0 3.1439 1.8505 6.0051 4.7201 7.2929 4.1658 1.8841 6.859 6.0583 6.859 10.63 0 6.4279-5.2324 11.657-11.663 11.657zm-149.65-27.632c2.6512 0 5.182-0.82868 7.3125-2.3936h0.006c2.3629-1.6658 5.1428-2.5476 8.0432-2.5476 7.7017 0 13.97 6.2655 13.97 13.97 0 4.9441-2.654 9.5634-6.9262 12.063l-0.006 0.0112c-9.8098 5.8091-21.053 8.8803-32.514 8.8803-10.538 0-20.443-4.1014-27.895-11.551-7.4525-7.4525-11.554-17.36-11.554-27.898v-55.561h-2.2537c-7.7017 0-13.967-6.2683-13.967-13.97 0-2.9228 0.89027-5.7196 2.5812-8.0908v-0.003l25.297-36.739 0.003-0.003c2.6092-3.8382 6.929-6.1283 11.562-6.1283 7.7017 0 13.97 6.2655 13.97 13.97v23.027h27.733c7.7017 0 13.97 6.2655 13.97 13.967 0 7.7017-6.2683 13.97-13.97 13.97h-27.733v52.655c0 6.8198 5.5488 12.371 12.371 12.371zm-83.419 11.386c0 10.258-8.3428 18.598-18.598 18.598-10.258 0-18.6-8.34-18.6-18.598v-88.067c0-10.255 8.3428-18.6 18.6-18.6 10.255 0 18.598 8.3456 18.598 18.6v88.067zm-18.6-162.15c10.255 0 18.6 8.3427 18.6 18.598s-8.3456 18.598-18.6 18.598c-10.258 0-18.598-8.3428-18.598-18.598s8.34-18.598 18.598-18.598zm593.11 7.2929c-1.467-10.031-3.4491-18.318-6.0639-25.331-2.6708-7.1641-5.8707-12.83-10.073-17.831-3.8102-4.5325-8.3316-8.3204-13.822-11.579-6.3467-3.7654-14.043-6.9066-23.533-9.6054-17.061-4.8489-39.284-8.1468-69.609-11.895-23.197-2.8668-49.768-5.0785-78.974-6.5763-31.143-1.5957-101.78-2.4468-140.8-2.4468-39.897 0-111.76 0.8511-142.91 2.4496-29.217 1.4978-55.796 3.7123-78.996 6.5819-30.311 3.7514-52.523 7.0493-69.567 11.898-9.485 2.696-17.178 5.84-23.522 9.6026-5.4872 3.2587-10.006 7.0466-13.813 11.579-4.1994 5.0001-7.3965 10.664-10.067 17.828-2.612 7.013-4.5969 15.297-6.0583 25.325-3.1915 21.876-3.6227 54.446-3.6227 83.422 0 28.939 0.43114 61.471 3.6227 83.33 1.4642 10.028 3.4463 18.309 6.0583 25.331 2.6708 7.1586 5.8707 12.828 10.07 17.839 3.8102 4.5409 8.3316 8.34 13.819 11.599 6.3439 3.7822 14.034 6.9206 23.514 9.6306 17.1 4.8797 39.295 8.1804 69.567 11.921 22.94 2.8388 49.516 5.0197 78.99 6.481 30.854 1.5286 102.83 2.3489 142.92 2.3489 39.197 0 109.92-0.80909 140.76-2.3405 11.478-0.56832 22.685-1.2598 33.312-2.0493l11.445-0.85108 9.9413 5.742 73.548 42.478v-56.93l25.644-8.4016c7.8808-2.5784 14.359-5.5068 19.804-8.9671 4.7985-3.0404 8.8131-6.5202 12.276-10.652 4.205-5.0001 7.4077-10.669 10.079-17.839 2.6176-7.0186 4.5997-15.3 6.0667-25.331 3.1971-21.865 3.6283-54.399 3.6283-83.338 0-28.979-0.43113-61.549-3.6255-83.422"/>
</svg>
