<?xml version="1.0" encoding="UTF-8"?>
<svg xmlns="http://www.w3.org/2000/svg" version="1.1" viewBox="0 0 411.376 482.11">
<!-- Based on https://app.frontify.com/d/3eaQ6KjTb8LH/italki-style-guide -->
<path fill="#ff4338" d="m205.69 0.0004c-205.71 0-205.69 71.829-205.69 205.69s0 205.69 205.69 205.69c1.9597 0 3.8914-0.0112 5.8231-0.0224l32.055 18.472 90.371 52.28v-87.16c77.437-28.281 77.437-92.602 77.437-189.26 0-133.86 0-205.69-205.69-205.69"/>
<path fill="#fff" d="m262.39 277.53c0 10.252-8.3428 18.592-18.589 18.592s-18.589-8.34-18.589-18.592v-88.008c0-10.249 8.3428-18.586 18.589-18.586s18.589 8.3372 18.589 18.586v88.008zm-18.589-162.04c10.246 0 18.589 8.3372 18.589 18.584 0 10.249-8.3428 18.586-18.589 18.586s-18.589-8.3372-18.589-18.586c0-10.246 8.3428-18.584 18.589-18.584zm-57.616 162.04c0 10.252-8.3315 18.592-18.584 18.592-10.249 0-18.589-8.34-18.589-18.592v-88.008c0-10.249 8.34-18.586 18.589-18.586 10.252 0 18.584 8.3372 18.584 18.586v88.008zm-18.584-162.04c10.252 0 18.584 8.3372 18.584 18.584 0 10.249-8.3315 18.586-18.584 18.586-10.249 0-18.589-8.3372-18.589-18.586 0-10.246 8.34-18.584 18.589-18.584zm203.64 6.2683c-2.6876-21.397-7.5868-36.305-15.454-46.916-3.9754-5.336-8.8467-9.8714-14.978-13.864-7.195-4.6977-16.294-8.7459-27.044-12.033-12.346-3.7627-27.268-6.6491-44.346-8.5808-18.281-2.0661-39.698-3.1131-63.719-3.1131-24.006 0-45.446 1.047-63.705 3.1103-17.092 1.9317-32.01 4.8209-44.343 8.5808-10.767 3.2867-19.877 7.3321-27.069 12.03-6.1087 3.9922-11.011 8.5276-14.958 13.861-7.8613 10.605-12.78 25.507-15.471 46.893-2.9199 23.239-2.9199 51.37-2.9199 83.943v0.0532c0 32.582 0 60.72 2.9199 83.965 2.6904 21.392 7.6093 36.302 15.471 46.913 3.9586 5.3388 8.8495 9.8686 14.958 13.869 7.2005 4.7005 16.302 8.7403 27.069 12.03 12.332 3.7598 27.251 6.649 44.343 8.5808 18.259 2.0689 39.698 3.1103 63.705 3.1103 1.7917 0 3.6394 0 5.5712-0.0196l10.106-0.0616 8.7347 5.0393 32.055 18.472 0.028 0.0196 0.028 0.008 34.491 19.972v-48.671l24.468-8.9307c13.354-4.8713 23.321-10.93 30.488-18.519 6.4391-6.8002 11.03-15.191 14.446-26.381 3.5555-11.649 5.7671-26.031 6.915-45.267 1.1478-18.945 1.1478-40.894 1.1478-64.13 0-32.582 0-60.72-2.9396-83.965"/>
</svg>
