<?xml version="1.0" encoding="UTF-8"?>
<svg version="1.1" viewBox="10 10 141.6 126.44116" xmlns="http://www.w3.org/2000/svg">
<!-- Based on https://github.com/itchio/itch.io/blob/master/logos/itchio.svg -->
<path d="m28.4 10.041-18.4 21.6v6.15c0 7.7973 7.167 14.65 13.675 14.65 7.814 0 14.324-6.586 14.325-14.4 0 7.814 6.286 14.4 14.1 14.4s13.9-6.586 13.9-14.4c-0.0008 7.814 6.686 14.4 14.5 14.4 7.813 0 14.3-6.586 14.3-14.4 0 7.814 6.312 14.4 14.125 14.4 7.814 0 13.875-6.586 13.875-14.4 0 7.814 6.712 14.4 14.525 14.4 7.814 0 14.275-6.586 14.275-14.4v-6.4l-20-21.6c-34.917-0.0926-103.2 0-103.2 0z"/>
<path d="m38 48.837c-0.744 1.328-1.779 2.4633-2.85 3.5293-2.95 2.933-7.018 4.75-11.475 4.75-1.147 0-4.075-0.675-4.075-0.675v80h123.2v-80.45c-1.839 0.723-3.387 1.125-5.475 1.125-4.462 0-8.525-1.815-11.475-4.75-1.069-1.065-1.982-2.274-2.725-3.6-0.745 1.329-1.679 2.533-2.75 3.6-2.95 2.931-6.993 4.75-11.45 4.75-4.46 0-8.526-1.815-11.475-4.75-1.069-1.065-2.007-2.275-2.75-3.6-0.745 1.328-1.653 2.533-2.725 3.6-2.95 2.931-7.017 4.75-11.475 4.75-4.46 0-8.526-1.815-11.475-4.75-1.07-1.063-1.982-2.275-2.725-3.6-0.745 1.328-1.677 2.534-2.75 3.6-2.949 2.933-6.993 4.75-11.45 4.75-4.46 0-8.526-1.815-11.475-4.75-1.069-1.063-1.881-2.2043-2.625-3.5293zm17.725 14.779c5.374 0 9.196 3.479 10.55 8.725h29.7c1.353-5.246 5.151-8.725 10.525-8.725 8.536 0 17.921 8.765 20.85 19.475l7 25.575c2.93 10.71-1.663 19.475-10.2 19.475-7.494 0-15.64-6.754-19.5-15.65h-47.075c-3.86 8.896-12.005 15.65-19.5 15.65-8.537 0-13.13-8.765-10.2-19.475l7-25.575c2.93-10.71 12.313-19.475 20.85-19.475z"/>
<path d="m70.59 86.281-10.031 10.76h9.882v11.093h19.7v-11.093h10.539l-10.031-10.76-10.03-10.759z"/>
</svg>
