<?xml version="1.0" encoding="utf-8"?>
<svg version="1.1" viewBox="0 0 1670.01 1670" xmlns="http://www.w3.org/2000/svg">
<!-- Based on kickstarter-logo-k-color.eps from https://www.kickstarter.com/help/brand_assets -->
<path fill="#0F2105" d="m1570 1670h-1470c-55.227 0-100-44.8-100-100v-1470c0-55.23 44.773-100 100-100h1470c55.22 0 100 44.77 100 100v1470c0 55.219-44.78 100-100 100" />
<path fill="#2BDE73" d="m764.1 689.72 167.35-242.46c31.633-45.68 72.477-68.53 122.56-68.53 40.85 0 76.19 14.5 106.08 43.49 29.86 28.99 44.79 63.69 44.79 104.1 0 29.87-7.89 56.23-23.71 79.07l-150.89 219.4 184.49 233.9c18.45 23.278 27.67 50.52 27.67 81.7 0 41.3-14.48 76.75-43.48 106.4-28.99 29.66-64.15 44.473-105.42 44.473-45.25 0-79.72-14.703-103.45-44.141l-225.99-281.99v155.5c0 44.371-7.684 78.84-23.055 103.44-28.117 44.789-68.969 67.192-122.55 67.192-48.762 0-86.543-16.473-113.33-49.41-25.039-30.313-37.551-70.512-37.551-120.56v-576.52c0-47.44 12.727-86.52 38.211-117.27 26.789-32.5 63.684-48.77 110.69-48.77 44.8 0 82.136 16.27 112.01 48.77 16.68 18 27.231 36.23 31.614 54.68 2.644 11.43 3.965 32.72 3.965 63.91v143.63" />
</svg>
