<?xml version="1.0" encoding="utf-8"?>
<svg version="1.1" viewBox="0 0 1670.01 1670" xmlns="http://www.w3.org/2000/svg">
<!-- Based on kickstarter-logo-k-color.eps from https://www.kickstarter.com/help/brand_assets -->
<path fill="#0F2105" d="M 1570.01,1670 100,1670 C 44.7734,1670 0,1625.2187 0,1570 L 0,100 C 0,44.77 44.7734,0 100,0 l 1470.01,0 c 55.22,0 100,44.77 100,100 l 0,1470 c 0,55.2187 -44.78,100 -100,100" />
<path fill="#2BDE73" d="M 764.102,689.723 931.453,447.26 c 31.633,-45.68 72.477,-68.53 122.557,-68.53 40.85,0 76.19,14.5 106.08,43.49 29.86,28.99 44.79,63.69 44.79,104.1 0,29.87 -7.89,56.23 -23.71,79.07 l -150.89,219.399 184.49,233.902 c 18.45,23.278 27.67,50.52 27.67,81.7 0,41.3 -14.48,76.75 -43.48,106.398 -28.99,29.66 -64.15,44.473 -105.42,44.473 -45.25,0 -79.72,-14.703 -103.45,-44.141 l -225.988,-281.988 0,155.496 c 0,44.371 -7.684,78.84 -23.055,103.441 -28.117,44.789 -68.969,67.192 -122.551,67.192 -48.762,0 -86.543,-16.473 -113.328,-49.41 -25.039,-30.313 -37.551,-70.512 -37.551,-120.563 l 0,-576.519 c 0,-47.44 12.727,-86.52 38.211,-117.27 26.789,-32.5 63.684,-48.77 110.688,-48.77 44.8,0 82.136,16.27 112.007,48.77 16.68,18 27.231,36.23 31.614,54.68 2.644,11.43 3.965,32.72 3.965,63.91 l 0,143.633" />
</svg>
