<?xml version="1.0" encoding="UTF-8"?>
<!-- Based on Ko-fi_Icon_RGB_rounded.eps from https://more.ko-fi.com/brand-assets -->
<svg version="1.1" viewBox="0 0 600 600" xmlns="http://www.w3.org/2000/svg">
<path fill="#28abdf" d="m600 300c0-165.69-134.31-300-300-300s-300 134.31-300 300 134.31 300 300 300 300-134.31 300-300"/>
<path fill="#fff" d="m548.43 254.13c-6.319-33.374-24.284-54.164-42.697-67.019-19.041-13.295-41.848-20.126-65.072-20.126h-329.58c-11.466 0-15.857 11.194-15.901 16.801-0.0059 0.731 0.0207 3.657 0.0207 3.657s-0.5407 145.81 0.4832 223.69c3.1105 45.978 49.177 45.963 49.177 45.963s150.4-0.441 222.54-0.889c3.383-0.022 6.761-0.386 10.044-1.207 41.068-10.275 45.317-48.428 44.878-69.696 82.548 4.586 140.79-53.664 126.12-131.18m-92.731 75.675c-17.605 2.2-31.908 0.548-31.908 0.548v-107.8h21.662c14.317 0 28.127 5.961 37.469 16.81 6.576 7.638 11.837 18.388 11.837 33.237 0 36.299-18.704 50.6-39.06 57.2"/>
<path fill="#ff5e5a" d="m256.61 396.63c3.585 1.805 5.875-0.438 5.875-0.438s52.457-47.878 76.089-75.451c21.02-24.666 22.39-66.234-13.707-81.766-36.097-15.531-65.795 18.272-65.795 18.272-25.755-28.326-64.734-26.892-82.763-7.722-18.028 19.17-11.732 52.073 1.717 70.384 12.625 17.19 68.118 66.65 76.529 75.015 0 0 0.613 0.64 2.055 1.706"/>
</svg>
