<?xml version="1.0" encoding="UTF-8"?>
<!-- Based on kong_redlogo.ai from http://www.kongregate.com/logos and on the Kongregate Android app logo -->
<svg version="1.1" viewBox="0 0 225.58 225.58" xmlns="http://www.w3.org/2000/svg">
<rect fill="#990000" width="225.58" height="225.58" rx="29.15" ry="29.15" x="0" y="0"/>
<path fill="#ffffff" d="m 122.69279,183.10781 c 0,0 0,-22.64423 0,-22.64423 0,0 11.24543,0 11.24543,0 0,0 0.67817,-0.55434 0.67817,-0.55434 0,0 -27.44432,-40.48836 -27.44432,-40.48836 0,0 -21.14645,19.11789 -21.14645,19.11789 0,0 0,19.57192 0,19.57192 0,0 0.45409,0.9022 0.45409,0.9022 0,0 15.9689,5.40159 15.9689,5.40159 0,0 0,18.69333 0,18.69333 0,0 -63.19745,0 -63.19745,0 0,0 0,-22.64423 0,-22.64423 0,0 14.40034,0 14.40034,0 0,0 0.6722,-0.89636 0.6722,-0.89636 0,0 0,-91.85659 0,-91.85659 0,0 -0.44806,-0.89629 -0.44806,-0.89629 0,0 -15.96889,-5.83798 -15.96889,-5.83798 0,0 0,-18.64019 0,-18.64019 0,0 63.63977,0 63.63977,0 0,0 0,22.64423 0,22.64423 0,0 -14.8426,0 -14.8426,0 0,0 -0.67818,0.89629 -0.67818,0.89629 0,0 0,48.08361 0,48.08361 0,0 50.61342,-47.07525 50.61342,-47.07525 0,0 0,-0.9022 0,-0.9022 0,0 -7.42423,-2.47674 -7.42423,-2.47674 0,0 -7.2002,-2.47668 -7.2002,-2.47668 0,0 0,-18.69326 0,-18.69326 0,0 64.11149,0 64.11149,0 0,0 0,22.64423 0,22.64423 0,0 -9.90095,0 -9.90095,0 0,0 -2.02265,0.6722 -2.02265,0.6722 0,0 -44.98769,38.17679 -44.98769,38.17679 0,0 41.39057,54.35207 41.39057,54.35207 0,0 1.34453,1.12037 1.34453,1.12037 0,0 16.42293,5.16572 16.42293,5.16572 0,0 0,18.64026 0,18.64026 0,0 -65.68005,0 -65.68005,0 z"/>
</svg>
