<?xml version="1.0" encoding="UTF-8"?>
<svg xmlns="http://www.w3.org/2000/svg" version="1.1" viewBox="0 0 104.654 88.576">
<!-- Based on medium-m.eps from https://github.com/Medium/medium-logos/tree/master/logo -->
<path fill="#32fc8d" d="m72.667 0.35544c-1.594-0.797-2.898 0.009-2.898 1.791v70.889l29.089 14.545c3.201 1.6 5.796 0.48 5.796-2.502v-68.264c0-0.286-0.162-0.547-0.417-0.675l-31.57-15.784"/>
<path fill="#0be370" d="m34.885 55.593 33.186-53.928c0.934-1.518 3.002-2.107 4.596-1.31l31.606 15.802c0.205 0.103 0.278 0.358 0.158 0.553l-34.662 56.325-34.884-17.442"/>
<path fill="#14c767" d="m4.83 1.3214c-2.657-1.329-3.557-0.346-2 2.184l32.055 52.088 34.884 17.442-34.809-56.565c-0.049-0.08-0.12-0.144-0.204-0.186l-29.926-14.963"/>
<path fill="#00ab6c" d="m34.885 85.078c0 2.97-2.174 4.313-4.83 2.985l-27.157-13.579c-1.594-0.797-2.898-2.907-2.898-4.689v-66.569c0-2.377 1.739-3.451 3.864-2.389l30.833 15.417c0.115 0.058 0.188 0.175 0.188 0.303v68.521"/>
</svg>
