<?xml version="1.0" encoding="UTF-8"?>
<svg version="1.1" viewBox="0 0 1000 610.715" xmlns="http://www.w3.org/2000/svg">
<!-- Based on Myspace_Black_Logomark.eps from https://myspace.com/pressroom/assetslogos -->
<g fill="#040707" transform="matrix(1,0,0,-1,0,610.715)">
	<path d="m 825.137,293.672 c 87.843,0 159.082,70.961 159.082,158.519 0,87.536 -71.239,158.524 -159.082,158.524 -87.91,0 -159.16,-70.988 -159.16,-158.524 0,-87.558 71.25,-158.519 159.16,-158.519"/>
	<path d="m 466.695,264.309 c 79.067,0 143.207,63.882 143.207,142.668 0,78.816 -64.14,142.695 -143.207,142.695 -79.105,0 -143.222,-63.879 -143.222,-142.695 0,-78.786 64.117,-142.668 143.222,-142.668"/>
	<path d="m 141.645,237.891 c 71.175,0 128.898,57.453 128.898,128.359 0,70.938 -57.723,128.406 -128.898,128.406 -71.1958,0 -128.8911,-57.468 -128.8911,-128.406 0,-70.906 57.6953,-128.359 128.8911,-128.359"/>
	<path d="M 141.648,208.574 C 59.9219,208.574 0,136.836 0,62.7266 L 0,12.8438 C 0,5.79297 5.76953,0 12.8711,0 L 270.391,0 c 7.125,0 12.894,5.79297 12.894,12.8438 l 0,49.8828 c 0,74.1094 -59.906,145.8474 -141.637,145.8474"/>
	<path d="m 466.688,231.777 c -90.809,0 -157.403,-79.714 -157.403,-162.07 l 0,-55.4297 C 309.285,6.4375 315.703,0 323.594,0 l 286.152,0 c 7.93,0 14.336,6.4375 14.336,14.2773 l 0,55.4297 c 0,82.356 -66.582,162.07 -157.394,162.07"/>
	<path d="m 825.117,257.52 c -100.898,0 -174.883,-88.567 -174.883,-180.0786 l 0,-61.582 C 650.234,7.14844 657.363,0 666.133,0 l 317.93,0 C 992.871,0 1000,7.14844 1000,15.8594 l 0,61.582 C 1000,168.953 926.023,257.52 825.117,257.52"/>
</g>
</svg>
