<?xml version="1.0" encoding="UTF-8"?>
<svg version="1.1" viewBox="0 0 400 400" xmlns="http://www.w3.org/2000/svg">
<!-- Converted to SVG from FLA files from http://www.newgrounds.com/downloads/designassets/ -->
<path fill="#000000" d="M0 0 L400 0 400 400 0 400 0 0"/>
<path fill="#ffb50e" d="M323.5 12 L388 12 388 59.2 264.95 336.95 232.9 336.95 323.5 12 M388 187.2 L388 278 324.25 336.95 295.85 337 388 187.2 M249.85 12 L208.8 337 192.65 337 151.6 12 249.85 12 M12 56.1 L12 12 77.9 12 168.55 336.95 136.5 336.95 12 56.1 M12 185 L105.55 337 77.2 336.95 12 276.75 12 185"/>
<path fill="#fff17a" d="M12 185 L12 56.1 136.5 336.95 105.55 337 12 185 M323.5 12 L232.9 336.95 208.8 337 249.85 12 323.5 12 M264.95 336.95 L388 59.2 388 187.2 295.85 337 264.95 336.95 M168.55 336.95 L77.9 12 151.6 12 192.65 337 168.55 336.95"/>
<path fill="#000000" d="M361.95 260.6 L361.95 283.55 369.4 283.2 368.55 270.8 379.4 266.1 380.15 266.4 381.35 276.2 388 275.75 388 371.45 12 371.45 12 273.25 23.2 271.25 Q23.25 276.7 23.65 288.6 L30.2 288.35 28.15 278.05 38.7 276.35 42.7 298.65 46.05 298.15 313.1 296.55 313.1 260.3 340.6 260.3 340.9 268.2 347.4 270.05 351.35 256.4 351.15 257.25 361.95 260.6"/>
<path fill="#000000" d="M331.2 49.45 L331.45 49.3 Q337.9 45.6 346.05 45.95 357.25 46.45 365 54.7 L365.1 54.75 365.15 54.8 365.2 54.85 Q366.75 56.5 368 58.45 L368.2 58.7 368.35 58.85 368.3 58.85 Q372.8 65.75 372.6 74.45 372.35 82.4 368.15 88.65 L368.05 88.75 Q366.3 91.2 363.95 93.45 359.6 97.35 354.6 99.15 L354.45 99.15 322.7 112.75 322.65 112.8 322.55 112.85 Q322.25 112.9 321.95 113.1 L321.9 113.15 Q318.45 114.45 314.55 114.65 L311.3 114.55 311.1 114.5 Q302.2 119.2 293.4 124 L278.05 132.2 273.3 134.65 273.25 134.7 275.8 142.4 Q277.2 146.95 277.95 151.55 L278.5 156.1 286.85 157.15 286.8 157.15 286.85 157.15 Q288.2 157.3 289.15 158.35 L289.2 158.35 289.25 158.4 289.65 158.9 290 159.55 290.25 160.65 290.25 160.8 290.7 168.1 306.8 169.1 Q320.8 170.35 330.55 172.6 L330.85 172.65 330.95 172.7 Q336.95 174.55 342.15 178.75 L345.8 182.1 Q349.25 185.65 352.25 190.45 L353.5 192.45 355.2 195.45 356.75 198.65 356.8 198.7 357.7 200.85 358.7 203.15 358.75 203.15 Q359.5 204.75 359.9 206.5 L359.9 206.55 359.95 207.55 359.95 207.6 Q359.75 209.15 358.4 210.15 L358.4 210.2 348.2 217.45 348.35 223.25 Q348.6 238.3 345.8 253.2 344.6 259.65 342.75 265.9 339.35 277.1 333.8 287.5 324.9 304.3 309.7 315.7 306.6 318.05 303.35 319.8 L302.5 320 54.05 320 49.8 320.1 49.7 320.1 49.55 320.1 49.15 320.05 49.1 320.05 49.05 320.05 46.6 319.85 Q38.15 318.5 32 308.85 L32 308.75 Q25.4 298.45 25.4 284.15 25.4 269.75 32 259.9 L32.1 259.75 35.05 255.65 Q34.65 246.35 36.6 238.6 43.1 231.3 51.25 223.25 63.35 211.15 79 197.35 L79.15 187.5 79.65 174.4 80.55 161.1 Q81.25 152.05 82.4 143.5 82.55 141.95 83.75 141.05 L87.65 137.95 93.05 133.85 Q98.9 129.35 104.75 125.2 L109.65 121.8 Q114.2 118.6 118.8 115.65 L118.8 115.6 118.85 115.65 Q118.9 115.55 119 115.55 116.45 112.45 115.55 108.8 114.95 106.45 115 103.9 L116.5 93.9 116.95 92.15 118.45 86.95 121.7 78.65 121.8 78.6 Q123.5 77.7 125.4 77.15 L129.2 76.1 134.55 74.6 134.65 74.6 Q134.1 73.75 134.1 72.75 132.35 72.4 131.15 71.05 L131.1 71 130.8 70.4 130.5 66.75 Q130.45 64.7 130.85 61.05 L130.85 61 Q131.8 59.6 133.5 59 L133.8 58.9 133.8 58.85 Q134.2 54.25 137.9 50.95 142.1 47.1 148.1 47.1 154.2 47.1 158.4 50.95 161.1 53.4 162.05 56.1 163.55 56.75 164.55 57.45 164.5 60.3 164 63.05 L165.05 64.55 Q164.8 67.9 164.2 71.05 L163.65 73.5 160 74.9 159.2 77.3 159.35 77.4 159.35 77.35 159.85 77.5 Q161.05 77.95 162.1 78.65 L162.2 78.7 166.55 81.3 168.05 82.25 169.45 83.2 Q172.1 87.7 173.35 90.6 L175.75 96.9 175.8 96.95 175.85 97.05 249.7 108.05 Q250.5 108.15 251.25 108.6 L254.6 111 254.65 110.95 292.45 84.35 292.55 84.1 292.5 84.15 293.25 82.3 Q294 80.55 295.25 78.9 297.05 76.45 299.5 74.55 L300.8 73.55 300.8 73.5 301 73.4 Q303.3 71.45 305.75 69.6 L321.7 56.75 321.9 56.55 326.4 52.9 326.55 52.75 327.1 52.35 327.05 52.35 Q329 50.65 331.2 49.45 M192.05 116.15 Q193.3 115.6 194.8 115.5 L239.75 121.7 249.8 114.6 248.45 113.65 166.7 101.9 Q164 101.7 163.5 103.5 163.3 104 163.35 104.7 166.7 112.85 169.35 123.25 L169.85 125.2 170.95 130.65 171.45 133.85 172 137.95 172.05 138.55 172.5 144 172.75 144 192.35 146.5 192.4 146.5 192.4 146 192.3 139.2 192.05 135.75 191.4 130.7 Q190.7 125.85 188.65 118.8 190.1 116.95 192.05 116.15 M226.95 130.6 L233.9 125.8 199.8 121.2 199.75 121.2 199.15 121.4 Q203.6 127.45 204 133.35 204.4 140.5 201.4 146.55 L200.85 147.55 220.3 149.8 Q225.5 132.45 226.95 130.6 M166.45 95.7 L166.55 95.7 165.75 91.8 Q165.4 87.75 165.55 84.9 163.5 83.8 161.25 83.3 L159.75 86.25 Q156.8 88.65 152.95 88.65 149.25 88.7 145.8 87.35 143.35 86.35 141.25 84.8 L139.4 83.35 137.45 81.3 136.9 80.6 131.25 81.45 Q132.8 85.9 133.15 88.6 L133.8 93.75 Q134.1 96.2 133.85 101.5 L129.3 98.65 134.35 106.85 136.65 105.6 142.25 102.8 148.65 99.7 Q150.35 98.85 152.15 98.1 159.05 95.15 166.45 95.65 L166.45 95.7 M293.55 93.1 Q293.45 91.6 293.6 90.2 L233.1 132.15 233 132.2 Q232.1 132.75 231.35 133.6 229.9 135.25 229.55 137.35 L229.45 137.95 229.45 139.4 Q229.55 140.7 229.95 141.85 L230.15 142.3 296.2 102.1 296.2 102.05 Q294.9 99.85 294.25 97.4 293.7 95.35 293.55 93.1 M342.45 226.65 L342.4 224.25 342.35 223.25 341.9 216.7 303.2 213.15 Q303.5 218.2 303.35 223.25 L303.35 223.7 Q302.8 238.95 299.25 253.85 L298.65 256.35 Q295.6 268.65 290.15 280.05 L289.1 282.3 Q283.7 293.35 275.8 302.7 L269.95 309.05 264.15 314.25 301.9 314.25 Q308.15 310.2 313.4 305.2 L300.7 305 300 304.75 Q299.7 304.45 299.7 304.05 299.65 303.65 299.95 303.35 L301 302.15 301.05 302.15 301.1 302.05 303.55 299 303.9 298.75 304.35 298.65 318.45 298.85 319.05 299.1 Q322.6 294.75 325.6 289.85 L328.75 284.4 329.45 283 315.75 282.35 315.15 282.1 314.8 281.55 314.9 280.9 316.2 278.2 316.35 277.9 316.4 277.85 316.55 277.5 316.55 277.45 316.95 276.6 Q317.05 276.3 317.3 276.15 L317.9 276.05 332.15 276.7 332.45 276.75 Q336.2 268.2 338.55 259.1 L324.8 258.3 324.25 258.1 323.9 257.6 323.9 257.05 324.75 253.7 324.8 253.65 325 252.65 325.4 252.15 326.05 251.95 339.9 252.7 340.05 252.75 Q341.95 243 342.35 233.1 L329.55 232.25 Q329.1 232.25 328.85 231.95 328.55 231.6 328.6 231.2 L328.9 227.2 328.9 227.15 328.95 226.75 Q329 226.35 329.3 226.1 329.6 225.85 330 225.9 L342.45 226.65 M337 182.1 Q333.35 179.5 329.25 178.2 313.95 174.75 287.85 173.6 L287.15 173.55 286.95 173.55 286.85 173.55 286.3 173.55 286.85 173.75 287.65 174.1 Q294.8 177.3 299.55 182.1 306.45 189.1 308.05 199.4 L352.95 203.7 Q350.5 198.4 347.4 193.5 342.75 186.2 337 182.1 M363.65 61.8 L361.1 58.6 Q354.85 51.9 345.75 51.45 338.35 51.1 332.4 54.85 L327.55 58.45 Q316.9 66.85 307.2 75.25 L301.2 80.35 300.85 80.75 Q299.2 82.6 298.2 84.65 L297.3 87.1 297.3 87.15 297.3 87.2 297.25 87.2 297.25 87.25 297.2 87.3 296.7 89.85 Q296.55 91.3 296.65 92.9 L296.65 92.95 Q296.75 94.55 297.1 96.05 L321.25 79.5 Q320.9 75.5 323.2 71.15 L323.25 73.85 Q323.35 76.05 323.85 78.45 324.65 81.65 326.5 84.5 L329.1 87.9 332.1 90.65 332.55 90.95 333.3 91.5 333.45 91.55 Q338.25 94.75 344.5 95.05 348.7 95.25 352.45 94.05 L352.5 94 352.6 93.95 Q356.75 92.5 360.2 89.35 366.8 83.25 367.1 74.3 367.3 67.35 363.65 61.8 M358 59.7 L357.35 59.4 Q354.4 58.2 352.95 58.4 L333.05 76.8 Q333.9 79.75 336.05 82.15 L362.95 66.6 Q364.35 68.2 364.4 71.85 L364.35 72.35 338.65 84.5 Q340.15 85.55 341.9 86.2 L362.7 80.1 Q362.15 82.5 358.7 85.7 353.35 90.65 345.95 90.3 341.75 90.1 338.35 88.3 336.1 87.1 334.25 85.25 L334.2 85.25 333.5 84.55 333.5 84.5 331.55 82 331.45 81.9 331.4 81.85 Q329.9 79.5 329.2 76.85 328.6 74.45 328.7 71.8 328.9 64.45 334.3 59.5 339.65 54.55 347.05 54.9 349.65 55 351.95 55.75 L353.1 56.2 Q356.25 57.65 358 59.7 M178.2 110.2 Q178.15 111.2 177.55 111.95 L176.55 112.65 175.8 112.8 Q174.8 112.8 174.05 112.05 173.3 111.25 173.3 110.1 173.25 108.95 173.95 108.15 174.65 107.3 175.7 107.3 176.7 107.25 177.45 108.05 178.15 108.85 178.2 110 L178.2 110.2 M179.7 121.5 Q180.55 121.5 181.25 122.1 L181.25 122.05 181.45 122.3 Q182.2 123.1 182.25 124.25 182.25 125.4 181.55 126.2 L180.2 127 179.85 127.05 Q178.8 127.05 178.05 126.3 177.35 125.5 177.3 124.45 L177.3 124.3 Q177.25 123.2 178 122.4 L178.2 122.15 Q178.85 121.55 179.7 121.5 M181.65 137.15 Q182.7 137.1 183.45 137.9 184.15 138.7 184.2 139.9 184.2 141 183.55 141.8 182.8 142.6 181.8 142.65 L180.6 142.35 180.25 142.1 180.05 141.9 179.55 141.2 179.25 139.95 Q179.2 138.8 179.95 138 L180.55 137.5 Q181.05 137.15 181.65 137.15 M143.3 56.7 L143.05 56.8 142.75 56.95 142.3 57.25 Q142 59.55 142.15 61.45 142.4 64.4 143 64.65 L149.45 65.15 Q150.65 65.1 151.35 64.6 L151.75 64.05 151.9 63.95 152.65 62.95 Q153.2 62.05 154.05 62.15 L156.75 62.4 Q157.5 62.4 157.85 63.25 L158.15 64.05 158.2 64.15 158.7 65.5 158.7 65.65 161.15 65.75 161.65 64.85 161.65 64.8 Q162.65 61.6 162.3 59.25 L161.85 58.4 Q153.1 55.75 143.3 56.7 M261.55 140.55 Q262 143.35 262.05 146 L261.85 149.95 261.8 150.25 261.35 152.65 261.05 153.85 260.65 155.05 272.7 156.55 272.5 154.5 271.9 150.3 271.9 150.25 271.6 148.65 270.95 145.85 Q269.9 141.7 268.35 137.95 L268.05 137.15 261.55 140.55 M231.95 192.8 L231.95 193 231.95 193.25 231.95 193.5 231.9 193.7 231.4 194.65 222.2 203.55 222.3 207.9 294.45 214.5 Q295.75 200.35 288.85 191.65 L288.85 191.6 Q283.75 185.55 275.7 182.1 272.7 180.85 269.35 179.9 L224.75 175.55 Q227.9 180.3 229.9 185.75 L230.5 187.5 231.95 192.8 M241.3 151.25 L241.05 152.05 241.05 152.5 255.35 154.4 255.4 154.25 255.55 153.7 255.65 153.35 255.75 153.15 256.1 151.95 256.1 152 256.5 149.95 256.5 149.85 256.75 146.3 256.6 143.2 241.3 151.25 M179.45 160.7 L178.9 160.65 169.1 160 162.35 159.55 156.2 159.1 149.25 161.25 Q142.45 163.6 135.4 166.8 118.15 174.6 99.5 187.5 L92.55 192.45 101.65 187.5 Q129 172.85 145.75 167.25 149.75 165.9 153.15 165.1 155.9 166.15 158.3 167.95 165.95 173.7 169.8 186.75 L225.7 191.65 224.35 187.5 223.3 185 Q221.45 181 218.9 177.35 L218.9 177.3 216.65 174.35 213.6 171.1 209.6 167.85 206.75 165.95 203.7 164.8 Q198.65 163.05 192.05 162 L181.6 160.85 179.45 160.7 M187.5 155.6 L192.1 156.2 Q201.65 157.7 207.45 160.2 L207.7 160.25 Q210.7 161.7 213.35 163.45 L216.2 165.5 219.5 168.4 219.65 168.6 220.05 169.05 220.1 169.1 220.15 169.1 269.75 174.2 273.4 169.75 Q275.05 167.5 277.65 167.6 L284.45 167.8 284.25 163.15 170.9 149.4 170.8 154.25 175.25 154.5 179.3 154.8 179.35 154.8 179.5 154.8 187.45 155.6 187.5 155.6 M149.4 68 L148.3 68.15 148.05 68.15 Q147.1 68.25 147 68.55 L146.8 69.15 Q146.7 69.35 146.75 69.55 L146.75 69.65 146.75 69.75 146.8 69.85 146.85 70.15 147.05 71.05 147.25 71.7 147.8 73.2 149.05 74.25 150.45 75 151.95 75.4 152.45 75.45 153.35 75.45 153.8 75.45 154.3 75.4 156.15 74.95 157.4 74.3 157.85 73.75 158.15 73 158.7 71.45 158.85 71.05 159.05 70.2 159.3 69 159.05 68.6 158.7 68.45 158.45 68.3 157.85 68.15 157.2 67.95 157.1 67.85 157 67.45 156.8 66.85 156.65 66.15 156.4 65.5 156.35 65.25 154.65 65.05 154.45 65.05 154.35 65.2 154.05 65.6 153.65 66.2 153.3 66.75 153 67.2 152.95 67.25 151.15 67.75 149.4 68 M154.1 191.95 L148.25 196.1 149.65 198.25 Q154.25 205.9 155 216 L155.15 219.9 155.05 223.1 155.05 223.25 Q154.2 237.65 147 247.85 143.95 252.2 140.5 254.7 L140.4 254.85 139.15 255.6 137.5 256.55 137.45 256.55 Q128.3 260.05 121.4 255 125.9 257.15 133.35 255.55 L131.75 254.85 Q127.05 252.35 123.45 246.35 122.2 244.3 121.3 242.05 L111.75 241.8 110.65 238.3 120 238.6 Q119.05 235.5 118.55 232.15 L109.5 231.9 109.25 228.65 Q109.1 226.15 109.25 223.5 L104.75 226.65 104.8 229.05 105 232.45 Q106 244.3 111.55 253.4 L112.45 254.85 112.85 255.4 Q120.15 265.9 130.9 265.9 L131.05 265.9 Q141.95 265.8 150.5 254.85 L151.6 253.4 152.5 252 154.05 249.65 Q156 246.25 157.5 242.5 160.95 233.8 161.5 223.25 L161.6 220.1 161.5 216 Q160.8 202.95 154.8 193.15 L154.1 191.95 M84.55 280.8 L82.5 281.25 Q79.6 282.3 77.15 285.6 74.6 289 73.55 293.4 L73.05 296.1 72.9 297.3 72.8 299.6 72.85 300.9 Q73.05 305.5 75.1 309.05 L75.45 309.65 75.6 309.85 Q78.3 313.9 82.5 313.9 L82.55 313.9 Q86.8 313.85 90.25 309.65 L90.7 309.05 91.05 308.5 91.7 307.6 93.15 304.8 Q94.55 301.4 94.95 297.3 L95.05 296.1 Q95.3 290 92.75 285.6 L91.2 283.45 91.1 283.35 Q88.7 280.75 85.4 280.75 L84.55 280.8 M92.15 260.4 L92.05 260.5 91.95 260.4 84.25 265.15 84.95 269.55 95.5 264.35 94.05 263.1 93.3 262.25 92.15 260.4 M98.5 244.6 Q97 240.45 96.8 232.25 L65.25 254.45 Q68.3 256.2 71 259.65 L72.7 262 83.25 254.85 Q93.1 248.15 98.5 244.6 M85.85 285.4 Q88.1 286.05 89.65 288.75 91.4 291.85 91.25 296.15 L91.2 297.25 Q90.75 302.2 88.15 305.75 L85.85 308.1 85.8 308.15 85.35 308.4 84.8 308.7 Q81.6 309.9 79.3 308.2 L82.85 308.5 83.4 308.35 82.9 308.15 Q81.25 307.3 80.1 305.25 L79.4 303.75 76.1 303.65 75.8 302.45 79 302.55 78.6 300.35 75.45 300.25 75.45 299.15 Q75.4 298.2 75.5 297.25 L75.6 296.15 Q75.95 293.5 77 291.3 77.6 289.9 78.5 288.75 81.15 285.2 84.4 285.2 L84.95 285.25 85.85 285.4 M116.8 273.1 L114.3 273.65 Q110.75 274.95 107.65 278.95 104.4 283.1 103 288.5 102.6 290.1 102.35 291.85 L102.15 293.35 101.95 296.1 101.95 297.75 Q102.1 303.35 104.55 307.7 L104.95 308.4 105.1 308.65 Q108.3 313.65 113.45 313.7 L113.5 313.7 Q118.7 313.6 123.05 308.4 L123.6 307.7 124.1 307.05 124.9 305.95 126.75 302.5 Q128.6 298.35 129.15 293.35 L129.3 291.85 Q129.75 284.35 126.75 278.95 L124.95 276.3 124.8 276.2 Q121.9 273 117.85 273.05 L116.8 273.1 M118.35 278.7 Q121.05 279.5 122.85 282.8 124.95 286.65 124.65 291.9 L124.6 293.25 Q123.9 299.3 120.6 303.65 L117.7 306.55 117.65 306.6 117.15 306.9 116.4 307.3 Q112.45 308.75 109.7 306.65 111.35 307.45 114.05 307 L114.7 306.85 114.1 306.6 Q112.1 305.55 110.75 303 L109.9 301.2 105.9 301.1 105.55 299.65 109.45 299.75 109 297.05 105.2 296.95 105.2 295.6 Q105.2 294.45 105.35 293.25 L105.5 291.9 Q106 288.65 107.35 285.95 108.1 284.25 109.25 282.8 112.55 278.45 116.55 278.45 L117.2 278.5 118.35 278.7 M32.4 277.55 L32.35 277.65 Q31.7 280.75 31.55 284.15 31.45 286.05 31.5 287.9 L31.6 290.1 Q32.25 297.7 35.85 303.6 L36.65 304.9 Q41.4 311.65 48.35 311.65 L48.45 311.65 Q55.95 311.6 61.7 303.6 L62.3 302.7 63.25 301.2 Q64.55 299 65.5 296.6 67.7 290.95 68.1 284.15 68.7 272.75 63.75 264.7 62.5 262.65 61.1 261.15 L60.95 260.95 58.75 259.05 54.55 262 Q58 263.5 60.6 267.8 64.6 274.45 64.1 283.95 63.6 293.4 58.9 300.1 56.9 302.9 54.65 304.55 L53.75 305.1 52.7 305.75 Q46.7 308 42.2 304.7 45.1 306.15 49.95 305.1 46.25 303.6 43.55 299.1 L42.15 296.3 35.95 296.1 35.2 293.85 41.3 294.05 Q40.65 292.05 40.35 289.85 L34.45 289.7 34.3 287.55 Q34.2 285.8 34.35 283.95 34.55 279.15 35.9 275.1 L32.4 277.55 M127.15 314.25 L174.6 314.25 Q179.55 311.9 184.05 308.6 187.2 306.25 190.05 303.45 L177.3 303.25 Q176.85 303.25 176.55 302.95 L176.2 302.2 Q176.2 301.8 176.5 301.45 L180 297.1 180.4 296.8 180.85 296.7 195 296.95 195.7 297.15 Q198.9 292.9 201.55 288.25 L206.05 279.4 206.4 278.65 193 278 Q192.6 277.95 192.3 277.75 L191.95 277.15 192 276.45 193.9 272.15 194.3 271.65 194.95 271.45 208.75 272.15 209.05 272.2 Q212.2 264 214 255.4 L214.75 252.05 201.65 251.3 201.05 251.05 200.65 250.55 200.6 249.95 201.5 245.55 Q201.55 245.15 201.9 244.9 202.2 244.65 202.65 244.7 L215.8 245.5 215.95 245.5 Q217.6 235.4 218.05 225.15 L204.5 224.3 Q204.05 224.25 203.75 223.9 L203.5 223.25 203.5 223.1 203.8 218.7 Q203.8 218.2 204.15 217.95 204.45 217.6 204.95 217.65 L218.25 218.55 218.25 204.6 171.55 201.6 Q171.55 208.8 171.2 216 L170.85 222.15 170.8 223.25 Q169.6 239.4 165.35 254.85 L164.1 259 Q158.55 276.95 147.9 292.85 139.15 305.8 127.15 314.25 M288.45 210.2 Q287.65 211 286.55 211 285.4 211 284.6 210.2 283.75 209.4 283.75 208.25 283.75 207.1 284.6 206.3 285.4 205.5 286.55 205.5 287.7 205.5 288.5 206.3 L288.45 206.3 Q289.25 207.1 289.3 208.25 289.3 209.4 288.5 210.2 L288.45 210.2 M266.8 206.45 Q266.8 205.3 267.6 204.5 268.4 203.7 269.55 203.7 270.7 203.7 271.5 204.5 272.3 205.3 272.3 206.45 272.3 207.6 271.5 208.4 270.7 209.2 269.55 209.2 268.4 209.2 267.6 208.4 266.8 207.6 266.8 206.45 M252.65 202.65 Q253.45 203.45 253.45 204.55 253.45 205.7 252.65 206.5 L252.65 206.55 Q251.85 207.35 250.7 207.35 249.6 207.3 248.8 206.5 L248.8 206.55 Q247.95 205.7 247.95 204.55 247.95 203.45 248.8 202.65 249.6 201.8 250.7 201.8 251.85 201.8 252.65 202.65 M233.8 204.55 L233.8 204.6 Q233 205.4 231.85 205.4 230.7 205.35 229.95 204.55 L229.95 204.6 Q229.1 203.8 229.1 202.65 229.1 201.5 229.95 200.7 230.7 199.85 231.85 199.85 233 199.85 233.8 200.7 234.6 201.5 234.65 202.65 234.6 203.75 233.8 204.55"/>
<path fill="#ffffff" d="M233.8 204.55 Q234.6 203.75 234.65 202.65 234.6 201.5 233.8 200.7 233 199.85 231.85 199.85 230.7 199.85 229.95 200.7 229.1 201.5 229.1 202.65 229.1 203.8 229.95 204.6 L229.95 204.55 Q230.7 205.35 231.85 205.4 233 205.4 233.8 204.6 L233.8 204.55 M358 59.7 Q356.25 57.65 353.1 56.2 L351.95 55.75 Q349.65 55 347.05 54.9 339.65 54.55 334.3 59.5 328.9 64.45 328.7 71.8 328.6 74.45 329.2 76.85 329.9 79.5 331.4 81.85 L331.45 81.9 331.55 82 333.5 84.5 333.5 84.55 334.2 85.25 334.25 85.25 Q336.1 87.1 338.35 88.3 341.75 90.1 345.95 90.3 353.35 90.65 358.7 85.7 362.15 82.5 362.7 80.1 L341.9 86.2 Q340.15 85.55 338.65 84.5 L364.35 72.35 364.4 71.85 Q364.35 68.2 362.95 66.6 L336.05 82.15 Q333.9 79.75 333.05 76.8 L352.95 58.4 Q354.4 58.2 357.35 59.4 L358 59.7 M363.65 61.8 Q367.3 67.35 367.1 74.3 366.8 83.25 360.2 89.35 356.75 92.5 352.6 93.95 L352.5 94 352.45 94.05 Q348.7 95.25 344.5 95.05 338.25 94.75 333.45 91.55 L333.3 91.5 332.55 90.95 332.1 90.65 329.1 87.9 326.5 84.5 Q324.65 81.65 323.85 78.45 323.35 76.05 323.25 73.85 L323.2 71.15 Q320.9 75.5 321.25 79.5 L297.1 96.05 Q296.75 94.55 296.65 92.95 L296.65 92.9 Q296.55 91.3 296.7 89.85 L297.2 87.3 297.25 87.25 297.25 87.2 297.3 87.2 297.3 87.15 297.3 87.1 298.2 84.65 Q299.2 82.6 300.85 80.75 L301.2 80.35 307.2 75.25 Q316.9 66.85 327.55 58.45 L332.4 54.85 Q338.35 51.1 345.75 51.45 354.85 51.9 361.1 58.6 L363.65 61.8 M337 182.1 Q342.75 186.2 347.4 193.5 350.5 198.4 352.95 203.7 L308.05 199.4 Q306.45 189.1 299.55 182.1 294.8 177.3 287.65 174.1 L286.85 173.75 286.3 173.55 286.85 173.55 286.95 173.55 287.15 173.55 287.85 173.6 Q313.95 174.75 329.25 178.2 333.35 179.5 337 182.1 M342.45 226.65 L330 225.9 Q329.6 225.85 329.3 226.1 329 226.35 328.95 226.75 L328.9 227.15 328.9 227.2 328.6 231.2 Q328.55 231.6 328.85 231.95 329.1 232.25 329.55 232.25 L342.35 233.1 Q341.95 243 340.05 252.75 L339.9 252.7 326.05 251.95 325.4 252.15 325 252.65 324.8 253.65 324.75 253.7 323.9 257.05 323.9 257.6 324.25 258.1 324.8 258.3 338.55 259.1 Q336.2 268.2 332.45 276.75 L332.15 276.7 317.9 276.05 317.3 276.15 Q317.05 276.3 316.95 276.6 L316.55 277.45 316.55 277.5 316.4 277.85 316.35 277.9 316.2 278.2 314.9 280.9 314.8 281.55 315.15 282.1 315.75 282.35 329.45 283 328.75 284.4 325.6 289.85 Q322.6 294.75 319.05 299.1 L318.45 298.85 304.35 298.65 303.9 298.75 303.55 299 301.1 302.05 301.05 302.15 301 302.15 299.95 303.35 Q299.65 303.65 299.7 304.05 299.7 304.45 300 304.75 L300.7 305 313.4 305.2 Q308.15 310.2 301.9 314.25 L264.15 314.25 269.95 309.05 275.8 302.7 Q283.7 293.35 289.1 282.3 L290.15 280.05 Q295.6 268.65 298.65 256.35 L299.25 253.85 Q302.8 238.95 303.35 223.7 L303.35 223.25 Q303.5 218.2 303.2 213.15 L341.9 216.7 342.35 223.25 342.4 224.25 342.45 226.65 M293.55 93.1 Q293.7 95.35 294.25 97.4 294.9 99.85 296.2 102.05 L296.2 102.1 230.15 142.3 229.95 141.85 Q229.55 140.7 229.45 139.4 L229.45 137.95 229.55 137.35 Q229.9 135.25 231.35 133.6 232.1 132.75 233 132.2 L233.1 132.15 293.6 90.2 Q293.45 91.6 293.55 93.1 M166.45 95.7 L166.45 95.65 Q159.05 95.15 152.15 98.1 150.35 98.85 148.65 99.7 L142.25 102.8 136.65 105.6 134.35 106.85 129.3 98.65 133.85 101.5 Q134.1 96.2 133.8 93.75 L133.15 88.6 Q132.8 85.9 131.25 81.45 L136.9 80.6 137.45 81.3 139.4 83.35 141.25 84.8 Q143.35 86.35 145.8 87.35 149.25 88.7 152.95 88.65 156.8 88.65 159.75 86.25 L161.25 83.3 Q163.5 83.8 165.55 84.9 165.4 87.75 165.75 91.8 L166.55 95.7 166.45 95.7 M226.95 130.6 Q225.5 132.45 220.3 149.8 L200.85 147.55 201.4 146.55 Q204.4 140.5 204 133.35 203.6 127.45 199.15 121.4 L199.75 121.2 199.8 121.2 233.9 125.8 226.95 130.6 M192.05 116.15 Q190.1 116.95 188.65 118.8 190.7 125.85 191.4 130.7 L192.05 135.75 192.3 139.2 192.4 146 192.4 146.5 192.35 146.5 172.75 144 172.5 144 172.05 138.55 172 137.95 171.45 133.85 170.95 130.65 169.85 125.2 169.35 123.25 Q166.7 112.85 163.35 104.7 163.3 104 163.5 103.5 164 101.7 166.7 101.9 L248.45 113.65 249.8 114.6 239.75 121.7 194.8 115.5 Q193.3 115.6 192.05 116.15 M181.65 137.15 Q181.05 137.15 180.55 137.5 L179.95 138 Q179.2 138.8 179.25 139.95 L179.55 141.2 180.05 141.9 180.25 142.1 180.6 142.35 181.8 142.65 Q182.8 142.6 183.55 141.8 184.2 141 184.2 139.9 184.15 138.7 183.45 137.9 182.7 137.1 181.65 137.15 M179.7 121.5 Q178.85 121.55 178.2 122.15 L178 122.4 Q177.25 123.2 177.3 124.3 L177.3 124.45 Q177.35 125.5 178.05 126.3 178.8 127.05 179.85 127.05 L180.2 127 181.55 126.2 Q182.25 125.4 182.25 124.25 182.2 123.1 181.45 122.3 L181.25 122.05 181.25 122.1 Q180.55 121.5 179.7 121.5 M178.2 110.2 L178.2 110 Q178.15 108.85 177.45 108.05 176.7 107.25 175.7 107.3 174.65 107.3 173.95 108.15 173.25 108.95 173.3 110.1 173.3 111.25 174.05 112.05 174.8 112.8 175.8 112.8 L176.55 112.65 177.55 111.95 Q178.15 111.2 178.2 110.2 M187.5 155.6 L187.45 155.6 179.5 154.8 179.35 154.8 179.3 154.8 175.25 154.5 170.8 154.25 170.9 149.4 284.25 163.15 284.45 167.8 277.65 167.6 Q275.05 167.5 273.4 169.75 L269.75 174.2 220.15 169.1 220.1 169.1 220.05 169.05 219.65 168.6 219.5 168.4 216.2 165.5 213.35 163.45 Q210.7 161.7 207.7 160.25 L207.45 160.2 Q201.65 157.7 192.1 156.2 L187.5 155.6 M179.45 160.7 L181.6 160.85 192.05 162 Q198.65 163.05 203.7 164.8 L206.75 165.95 209.6 167.85 213.6 171.1 216.65 174.35 218.9 177.3 218.9 177.35 Q221.45 181 223.3 185 L224.35 187.5 225.7 191.65 169.8 186.75 Q165.95 173.7 158.3 167.95 155.9 166.15 153.15 165.1 149.75 165.9 145.75 167.25 129 172.85 101.65 187.5 L92.55 192.45 99.5 187.5 Q118.15 174.6 135.4 166.8 142.45 163.6 149.25 161.25 L156.2 159.1 162.35 159.55 169.1 160 178.9 160.65 179.45 160.7 M241.3 151.25 L256.6 143.2 256.75 146.3 256.5 149.85 256.5 149.95 256.1 152 256.1 151.95 255.75 153.15 255.65 153.35 255.55 153.7 255.4 154.25 255.35 154.4 241.05 152.5 241.05 152.05 241.3 151.25 M231.95 192.8 L230.5 187.5 229.9 185.75 Q227.9 180.3 224.75 175.55 L269.35 179.9 Q272.7 180.85 275.7 182.1 283.75 185.55 288.85 191.6 L288.85 191.65 Q295.75 200.35 294.45 214.5 L222.3 207.9 222.2 203.55 231.4 194.65 231.9 193.7 231.95 193.5 231.95 193.25 231.95 193 231.95 192.8 M261.55 140.55 L268.05 137.15 268.35 137.95 Q269.9 141.7 270.95 145.85 L271.6 148.65 271.9 150.25 271.9 150.3 272.5 154.5 272.7 156.55 260.65 155.05 261.05 153.85 261.35 152.65 261.8 150.25 261.85 149.95 262.05 146 Q262 143.35 261.55 140.55 M143.3 56.7 Q153.1 55.75 161.85 58.4 L162.3 59.25 Q162.65 61.6 161.65 64.8 L161.65 64.85 161.15 65.75 158.7 65.65 158.7 65.5 158.2 64.15 158.15 64.05 157.85 63.25 Q157.5 62.4 156.75 62.4 L154.05 62.15 Q153.2 62.05 152.65 62.95 L151.9 63.95 151.75 64.05 151.35 64.6 Q150.65 65.1 149.45 65.15 L143 64.65 Q142.4 64.4 142.15 61.45 142 59.55 142.3 57.25 L142.75 56.95 143.05 56.8 143.3 56.7 M154.1 191.95 L154.8 193.15 Q160.8 202.95 161.5 216 L161.6 220.1 161.5 223.25 Q160.95 233.8 157.5 242.5 156 246.25 154.05 249.65 L152.5 252 151.6 253.4 150.5 254.85 Q141.95 265.8 131.05 265.9 L130.9 265.9 Q120.15 265.9 112.85 255.4 L112.45 254.85 111.55 253.4 Q106 244.3 105 232.45 L104.8 229.05 104.75 226.65 109.25 223.5 Q109.1 226.15 109.25 228.65 L109.5 231.9 118.55 232.15 Q119.05 235.5 120 238.6 L110.65 238.3 111.75 241.8 121.3 242.05 Q122.2 244.3 123.45 246.35 127.05 252.35 131.75 254.85 L133.35 255.55 Q125.9 257.15 121.4 255 128.3 260.05 137.45 256.55 L137.5 256.55 139.15 255.6 140.4 254.85 140.5 254.7 Q143.95 252.2 147 247.85 154.2 237.65 155.05 223.25 L155.05 223.1 155.15 219.9 155 216 Q154.25 205.9 149.65 198.25 L148.25 196.1 154.1 191.95 M149.4 68 L151.15 67.75 152.95 67.25 153 67.2 153.3 66.75 153.65 66.2 154.05 65.6 154.35 65.2 154.45 65.05 154.65 65.05 156.35 65.25 156.4 65.5 156.65 66.15 156.8 66.85 157 67.45 157.1 67.85 157.2 67.95 157.85 68.15 158.45 68.3 158.7 68.45 159.05 68.6 159.3 69 159.05 70.2 158.85 71.05 158.7 71.45 158.15 73 157.85 73.75 157.4 74.3 156.15 74.95 154.3 75.4 153.8 75.45 153.35 75.45 152.45 75.45 151.95 75.4 150.45 75 149.05 74.25 147.8 73.2 147.25 71.7 147.05 71.05 146.85 70.15 146.8 69.85 146.75 69.75 146.75 69.65 146.75 69.55 Q146.7 69.35 146.8 69.15 L147 68.55 Q147.1 68.25 148.05 68.15 L148.3 68.15 149.4 68 M98.5 244.6 Q93.1 248.15 83.25 254.85 L72.7 262 71 259.65 Q68.3 256.2 65.25 254.45 L96.8 232.25 Q97 240.45 98.5 244.6 M92.15 260.4 L93.3 262.25 94.05 263.1 95.5 264.35 84.95 269.55 84.25 265.15 91.95 260.4 92.05 260.5 92.15 260.4 M84.55 280.8 L85.4 280.75 Q88.7 280.75 91.1 283.35 L91.2 283.45 92.75 285.6 Q95.3 290 95.05 296.1 L94.95 297.3 Q94.55 301.4 93.15 304.8 L91.7 307.6 91.05 308.5 90.7 309.05 90.25 309.65 Q86.8 313.85 82.55 313.9 L82.5 313.9 Q78.3 313.9 75.6 309.85 L75.45 309.65 75.1 309.05 Q73.05 305.5 72.85 300.9 L72.8 299.6 72.9 297.3 73.05 296.1 73.55 293.4 Q74.6 289 77.15 285.6 79.6 282.3 82.5 281.25 L84.55 280.8 M85.85 285.4 L84.95 285.25 84.4 285.2 Q81.15 285.2 78.5 288.75 77.6 289.9 77 291.3 75.95 293.5 75.6 296.15 L75.5 297.25 Q75.4 298.2 75.45 299.15 L75.45 300.25 78.6 300.35 79 302.55 75.8 302.45 76.1 303.65 79.4 303.75 80.1 305.25 Q81.25 307.3 82.9 308.15 L83.4 308.35 82.85 308.5 79.3 308.2 Q81.6 309.9 84.8 308.7 L85.35 308.4 85.8 308.15 85.85 308.1 88.15 305.75 Q90.75 302.2 91.2 297.25 L91.25 296.15 Q91.4 291.85 89.65 288.75 88.1 286.05 85.85 285.4 M116.8 273.1 L117.85 273.05 Q121.9 273 124.8 276.2 L124.95 276.3 126.75 278.95 Q129.75 284.35 129.3 291.85 L129.15 293.35 Q128.6 298.35 126.75 302.5 L124.9 305.95 124.1 307.05 123.6 307.7 123.05 308.4 Q118.7 313.6 113.5 313.7 L113.45 313.7 Q108.3 313.65 105.1 308.65 L104.95 308.4 104.55 307.7 Q102.1 303.35 101.95 297.75 L101.95 296.1 102.15 293.35 102.35 291.85 Q102.6 290.1 103 288.5 104.4 283.1 107.65 278.95 110.75 274.95 114.3 273.65 L116.8 273.1 M118.35 278.7 L117.2 278.5 116.55 278.45 Q112.55 278.45 109.25 282.8 108.1 284.25 107.35 285.95 106 288.65 105.5 291.9 L105.35 293.25 Q105.2 294.45 105.2 295.6 L105.2 296.95 109 297.05 109.45 299.75 105.55 299.65 105.9 301.1 109.9 301.2 110.75 303 Q112.1 305.55 114.1 306.6 L114.7 306.85 114.05 307 Q111.35 307.45 109.7 306.65 112.45 308.75 116.4 307.3 L117.15 306.9 117.65 306.6 117.7 306.55 120.6 303.65 Q123.9 299.3 124.6 293.25 L124.65 291.9 Q124.95 286.65 122.85 282.8 121.05 279.5 118.35 278.7 M32.4 277.55 L35.9 275.1 Q34.55 279.15 34.35 283.95 34.2 285.8 34.3 287.55 L34.45 289.7 40.35 289.85 Q40.65 292.05 41.3 294.05 L35.2 293.85 35.95 296.1 42.15 296.3 43.55 299.1 Q46.25 303.6 49.95 305.1 45.1 306.15 42.2 304.7 46.7 308 52.7 305.75 L53.75 305.1 54.65 304.55 Q56.9 302.9 58.9 300.1 63.6 293.4 64.1 283.95 64.6 274.45 60.6 267.8 58 263.5 54.55 262 L58.75 259.05 60.95 260.95 61.1 261.15 Q62.5 262.65 63.75 264.7 68.7 272.75 68.1 284.15 67.7 290.95 65.5 296.6 64.55 299 63.25 301.2 L62.3 302.7 61.7 303.6 Q55.95 311.6 48.45 311.65 L48.35 311.65 Q41.4 311.65 36.65 304.9 L35.85 303.6 Q32.25 297.7 31.6 290.1 L31.5 287.9 Q31.45 286.05 31.55 284.15 31.7 280.75 32.35 277.65 L32.4 277.55 M252.65 202.65 Q251.85 201.8 250.7 201.8 249.6 201.8 248.8 202.65 247.95 203.45 247.95 204.55 247.95 205.7 248.8 206.55 L248.8 206.5 Q249.6 207.3 250.7 207.35 251.85 207.35 252.65 206.55 L252.65 206.5 Q253.45 205.7 253.45 204.55 253.45 203.45 252.65 202.65 M266.8 206.45 Q266.8 207.6 267.6 208.4 268.4 209.2 269.55 209.2 270.7 209.2 271.5 208.4 272.3 207.6 272.3 206.45 272.3 205.3 271.5 204.5 270.7 203.7 269.55 203.7 268.4 203.7 267.6 204.5 266.8 205.3 266.8 206.45 M288.45 210.2 L288.5 210.2 Q289.3 209.4 289.3 208.25 289.25 207.1 288.45 206.3 L288.5 206.3 Q287.7 205.5 286.55 205.5 285.4 205.5 284.6 206.3 283.75 207.1 283.75 208.25 283.75 209.4 284.6 210.2 285.4 211 286.55 211 287.65 211 288.45 210.2 M127.15 314.25 Q139.15 305.8 147.9 292.85 158.55 276.95 164.1 259 L165.35 254.85 Q169.6 239.4 170.8 223.25 L170.85 222.15 171.2 216 Q171.55 208.8 171.55 201.6 L218.25 204.6 218.25 218.55 204.95 217.65 Q204.45 217.6 204.15 217.95 203.8 218.2 203.8 218.7 L203.5 223.1 203.5 223.25 203.75 223.9 Q204.05 224.25 204.5 224.3 L218.05 225.15 Q217.6 235.4 215.95 245.5 L215.8 245.5 202.65 244.7 Q202.2 244.65 201.9 244.9 201.55 245.15 201.5 245.55 L200.6 249.95 200.65 250.55 201.05 251.05 201.65 251.3 214.75 252.05 214 255.4 Q212.2 264 209.05 272.2 L208.75 272.15 194.95 271.45 194.3 271.65 193.9 272.15 192 276.45 191.95 277.15 192.3 277.75 Q192.6 277.95 193 278 L206.4 278.65 206.05 279.4 201.55 288.25 Q198.9 292.9 195.7 297.15 L195 296.95 180.85 296.7 180.4 296.8 180 297.1 176.5 301.45 Q176.2 301.8 176.2 302.2 L176.55 302.95 Q176.85 303.25 177.3 303.25 L190.05 303.45 Q187.2 306.25 184.05 308.6 179.55 311.9 174.6 314.25 L127.15 314.25"/>
<path fill="#ffffff" d="M381.05 331.05 Q382 331.05 382 332.05 L382 338.65 Q382 339.65 381.05 339.65 L365.6 339.65 Q363.95 339.6 363.95 341.15 L363.95 351.1 Q363.95 352.55 365.6 352.55 L371.5 352.55 Q375.9 352.55 379 355.55 382 358.5 382 362.75 L382 372.45 Q382 376.65 378.9 379.6 375.8 382.55 371.5 382.55 L356.1 382.55 Q355 382.55 355 381.55 L355 375 Q355 374 356.1 374 L371.5 374 Q373 374 373 372.45 L373 362.75 Q373 361.2 371.5 361.25 L365.6 361.25 Q361.25 361.2 358.15 358.2 355 355.25 355 351.1 L355 341.15 Q355 336.95 358.15 334 361.25 331.05 365.6 331.05 L381.05 331.05 M335.95 339.65 L329.55 339.65 Q328.55 339.65 328.55 340.7 L328.55 372.95 Q328.55 374 329.55 374 L335.95 374 Q337.55 374 337.55 372.45 L337.55 341.2 Q337.55 339.6 335.95 339.65 M343.4 334 Q346.45 336.95 346.45 341.15 L346.45 372.45 Q346.45 376.65 343.4 379.6 340.3 382.55 335.95 382.55 L320.65 382.55 Q319.6 382.55 319.6 381.55 L319.6 332.05 Q319.6 331.05 320.65 331.05 L335.95 331.05 Q340.3 331.05 343.4 334 M56.15 334 Q59.25 331.05 63.65 331.05 L79 331.05 Q79.95 331.05 79.95 332.05 L79.95 338.55 Q79.95 339.55 79 339.55 L63.65 339.55 Q62 339.55 62 341.15 L62 351.55 Q62 352.5 63.05 352.5 L79 352.5 Q79.95 352.5 79.95 353.45 L79.95 360.1 Q79.95 361.1 79 361.1 L63.05 361.1 Q62 361.1 62 362.05 L62 372.45 Q62 374 63.65 374 L79 374 Q79.95 374 79.95 375 L79.95 381.55 Q79.95 382.55 79 382.55 L63.65 382.55 Q59.25 382.55 56.15 379.6 53.05 376.7 53.05 372.45 L53.05 341.15 Q53.05 336.85 56.15 334 M44.5 341.15 L44.5 381.55 Q44.5 382.55 43.55 382.55 L36.6 382.55 Q35.55 382.55 35.55 381.55 L35.55 341.2 Q35.55 339.6 33.95 339.65 L28.2 339.65 Q26.55 339.6 26.55 341.2 L26.55 381.55 Q26.55 382.55 25.6 382.55 L18.65 382.55 Q17.6 382.55 17.65 381.55 L17.65 341.15 Q17.65 336.85 20.75 334 23.8 331.05 28.2 331.05 L33.95 331.05 Q38.35 331.05 41.45 334 44.5 336.85 44.5 341.15 M132.6 330.95 Q133.65 331 133.65 332.05 L133.65 372.45 Q133.6 376.65 130.45 379.6 127.35 382.55 123.05 382.55 L117.2 382.55 Q114.45 382.55 112.05 381.15 111.15 380.7 110.25 381.15 107.8 382.55 105.1 382.55 L99.25 382.55 Q94.95 382.55 91.85 379.6 88.7 376.65 88.7 372.45 L88.7 332.05 Q88.7 331 89.75 330.95 L96.65 330.95 Q97.75 331 97.75 332.05 L97.75 372.45 Q97.75 374 99.25 374 L105.1 374 Q106.7 374 106.7 372.5 L106.7 332.05 Q106.7 331 107.65 330.95 L114.65 330.95 Q115.7 331 115.7 332.05 L115.7 372.5 Q115.65 374 117.2 374 L123.05 374 Q124.65 374 124.65 372.45 L124.65 332.05 Q124.6 331 125.65 330.95 L132.6 330.95 M145.45 334 Q148.55 331.05 152.9 331.05 L158.65 331.05 Q162.95 331.05 166.05 334 169.15 336.95 169.15 341.15 L169.15 347.25 Q169.15 348.25 168.2 348.25 L161.25 348.25 Q160.2 348.25 160.25 347.25 L160.25 341.2 Q160.25 339.6 158.65 339.65 L152.9 339.65 Q151.25 339.6 151.25 341.2 L151.25 372.45 Q151.25 374 152.9 374 L158.65 374 Q160.25 374 160.25 372.45 L160.25 366.45 Q160.2 365.4 159.25 365.4 L156.85 365.4 Q155.8 365.4 155.85 364.45 L155.85 357.9 Q155.8 356.9 156.85 356.9 L168.2 356.9 Q169.15 356.9 169.15 357.9 L169.15 372.45 Q169.15 376.65 166.05 379.6 162.95 382.55 158.65 382.55 L152.9 382.55 Q148.55 382.55 145.45 379.6 142.3 376.65 142.3 372.45 L142.3 341.15 Q142.3 336.95 145.45 334 M229.55 331.05 Q233.9 331.05 237 334 240.1 336.95 240.1 341.15 L240.1 372.45 Q240.1 376.65 237 379.6 233.9 382.55 229.55 382.55 L223.85 382.55 Q219.5 382.55 216.4 379.6 213.2 376.65 213.25 372.45 L213.25 341.15 Q213.2 336.95 216.4 334 219.5 331.05 223.85 331.05 L229.55 331.05 M223.85 339.65 Q222.15 339.6 222.15 341.15 L222.15 372.45 Q222.15 374 223.85 374 L229.55 374 Q231.15 374 231.15 372.45 L231.15 341.15 Q231.15 339.6 229.55 339.65 L223.85 339.65 M194.2 339.55 L187.8 339.55 Q186.75 339.55 186.75 340.65 L186.75 351.55 Q186.75 352.5 187.8 352.5 L194.2 352.5 Q195.75 352.5 195.75 351.05 L195.75 341.15 Q195.75 339.55 194.2 339.55 M201.6 334 Q204.7 336.95 204.7 341.15 L204.7 351.05 Q204.7 354.25 202.8 356.9 200.75 359.5 197.7 360.5 197.25 360.75 197.3 361.15 197.2 361.55 197.55 361.75 L198.65 362.45 Q204.7 366.75 204.7 373.65 L204.7 381.55 Q204.7 382.55 203.65 382.55 L196.8 382.55 Q195.75 382.55 195.75 381.55 L195.75 373.65 Q195.75 371.05 193.5 369.45 L187.95 365.75 187.1 365.7 Q186.75 365.9 186.75 366.35 L186.75 381.45 Q186.75 382.5 185.75 382.55 L178.8 382.55 Q177.75 382.5 177.75 381.45 L177.75 332.05 Q177.75 331.05 178.8 331.05 L194.2 331.05 Q198.5 331.05 201.6 334 M294.75 331.05 L300.5 331.05 Q304.9 331.05 308 334 311 336.85 311 341.15 L311 381.55 Q311 382.55 310.05 382.55 L303.15 382.55 Q302.1 382.55 302.1 381.55 L302.1 341.2 Q302.1 339.6 300.5 339.65 L294.75 339.65 Q293.05 339.6 293.05 341.2 L293.05 381.55 Q293.05 382.55 292.15 382.55 L285.2 382.55 Q284.15 382.55 284.15 381.55 L284.15 341.15 Q284.15 336.85 287.25 334 290.35 331.05 294.75 331.05 M274.6 331.05 Q275.55 331.05 275.55 332.05 L275.55 372.45 Q275.55 376.65 272.45 379.6 269.35 382.55 265.05 382.55 L259.25 382.55 Q254.95 382.55 251.85 379.6 248.7 376.65 248.7 372.45 L248.7 332.05 Q248.7 331.05 249.75 331.05 L256.65 331.05 Q257.6 331.05 257.65 332.05 L257.65 372.45 Q257.6 374 259.25 374 L265.05 374 Q266.65 374 266.65 372.45 L266.65 332.05 Q266.6 331.05 267.65 331.05 L274.6 331.05"/>
</svg>
