<?xml version="1.0" encoding="UTF-8"?>
<svg version="1.1" viewBox="-140 -197.3 250 197.3" xmlns="http://www.w3.org/2000/svg">
<!-- Converted to SVG from FLA files from http://www.newgrounds.com/downloads/designassets/ -->
<path fill="#000000" d="M104.55 -191 L104.6 -190.95 104.65 -190.9 106.7 -188.35 106.85 -188.15 106.9 -188 106.9 -188.05 Q110.15 -183.05 110 -176.8 109.8 -171.05 106.8 -166.55 L106.75 -166.5 106.7 -166.5 Q105.5 -164.75 103.8 -163.1 100.65 -160.3 97.05 -159 L96.95 -159 74.05 -149.2 73.95 -149.15 73.55 -148.95 73.5 -148.95 Q71 -148 68.2 -147.85 L65.85 -147.9 65.7 -147.95 52.95 -141.15 41.9 -135.25 38.5 -133.45 38.45 -133.45 40.3 -127.9 41.85 -121.3 42.25 -118 48.25 -117.25 Q49.25 -117.15 49.95 -116.4 L50 -116.35 50.25 -116 50.5 -115.55 50.7 -114.75 50.7 -114.6 51.05 -109.4 62.6 -108.7 Q72.7 -107.75 79.7 -106.15 L79.95 -106.1 80 -106.1 Q84.35 -104.75 88.1 -101.7 L90.7 -99.3 Q93.15 -96.75 95.35 -93.35 L96.25 -91.85 97.45 -89.7 98.6 -87.4 99.25 -85.8 99.25 -85.85 100 -84.15 100.85 -81.75 100.85 -81.7 100.9 -81 100.9 -80.95 Q100.75 -79.85 99.75 -79.1 L92.4 -73.85 92.55 -69.7 Q92.7 -58.85 90.7 -48.15 89.85 -43.5 88.5 -39 86.05 -30.95 82.05 -23.45 75.65 -11.35 64.7 -3.15 62.45 -1.5 60.15 -0.2 L59.55 -0.05 -119.35 -0.05 -122.4 0 -122.5 0 -122.6 0 -122.85 0 -122.95 0 -124.75 -0.15 Q-130.8 -1.15 -135.2 -8.1 L-135.25 -8.15 Q-140 -15.6 -140 -25.85 -140 -36.2 -135.25 -43.3 L-135.15 -43.4 -133.05 -46.4 Q-133.35 -53.05 -131.95 -58.65 L-121.4 -69.7 Q-112.65 -78.4 -101.4 -88.35 L-101.25 -95.45 -100.9 -104.85 -100.3 -114.4 -98.95 -127.1 Q-98.8 -128.2 -97.95 -128.85 L-95.15 -131.1 -91.3 -134.05 -82.85 -140.25 -79.3 -142.7 -72.75 -147.15 -72.7 -147.15 -59.9 -154.35 -55.85 -156.4 -51.25 -158.6 -48.75 -159.8 Q-43.8 -161.9 -38.45 -161.5 L-38.4 -161.5 21.5 -152.6 22.6 -152.2 25.05 -150.5 25.1 -150.55 52.3 -169.65 52.3 -169.8 52.85 -171.15 Q53.4 -172.4 54.3 -173.6 55.6 -175.35 57.35 -176.7 57.85 -177.15 58.3 -177.45 L58.3 -177.5 58.45 -177.55 61.85 -180.3 73.35 -189.55 73.5 -189.7 76.75 -192.3 76.85 -192.4 77.25 -192.7 77.2 -192.7 Q78.6 -193.95 80.2 -194.8 L80.35 -194.9 Q85 -197.55 90.85 -197.3 98.95 -196.95 104.55 -191 M49 -105.45 L48.45 -105.45 48.25 -105.45 47.85 -105.5 48.25 -105.35 48.8 -105.1 Q54 -102.75 57.4 -99.3 62.35 -94.3 63.5 -86.85 L95.85 -83.75 Q94.1 -87.6 91.85 -91.1 88.5 -96.4 84.35 -99.3 81.75 -101.2 78.8 -102.15 67.8 -104.65 49 -105.45 M14.35 -142.8 L21.6 -147.9 20.6 -148.6 -38.25 -157.05 Q-40.8 -157.2 -40.65 -155 -38.25 -149.15 -36.35 -141.65 L-36 -140.25 -35.2 -136.35 -34.8 -134.05 -34.45 -131.1 -34.4 -130.65 -34.05 -126.75 -33.9 -126.75 -19.8 -124.95 -19.75 -124.95 -19.75 -125.3 Q-19.7 -128.15 -19.8 -130.2 L-20 -132.7 -20.45 -136.3 Q-20.95 -139.8 -22.45 -144.9 -21.45 -146.2 -20 -146.8 L-18.05 -147.25 14.35 -142.8 M40.2 -99.3 L35.65 -100.9 3.55 -104.05 Q5.8 -100.65 7.25 -96.7 L7.7 -95.45 8.7 -91.65 8.75 -91.45 8.75 -91.3 8.75 -91.15 8.7 -90.95 8.35 -90.3 1.7 -83.9 1.75 -80.75 53.75 -76 Q54.7 -86.25 49.7 -92.5 L49.7 -92.45 Q46 -96.8 40.2 -99.3 M0.15 -108.75 L0.2 -108.7 0.25 -108.7 35.95 -105 38.55 -108.2 Q39.75 -109.8 41.65 -109.75 L46.5 -109.65 46.35 -112.95 -35.2 -122.85 -35.3 -119.35 -32.1 -119.15 -29.15 -118.95 -29.05 -118.95 -23.3 -118.35 -19.95 -117.95 Q-13.1 -116.9 -8.9 -115.1 L-8.75 -115 -4.7 -112.75 -2.6 -111.25 -0.25 -109.15 -0.1 -109.05 0.15 -108.75 M5.15 -136.4 L10.15 -139.85 -14.4 -143.15 -14.45 -143.15 -14.9 -143 Q-11.7 -138.65 -11.4 -134.4 -11.1 -129.25 -13.25 -124.9 L-13.65 -124.15 0.3 -122.55 Q4.1 -135.05 5.15 -136.4 M26.6 -125.1 L26.5 -127.3 15.45 -121.5 15.3 -120.95 15.25 -120.6 25.6 -119.25 25.6 -119.35 25.75 -119.75 25.8 -120 25.85 -120.15 26.15 -121 26.1 -120.95 26.4 -122.45 26.4 -122.55 26.6 -125.1 M36.8 -125.4 Q36.05 -128.4 34.95 -131.1 L34.7 -131.65 30.05 -129.2 30.4 -125.3 30.25 -122.45 30.25 -122.25 29.9 -120.5 29.7 -119.6 29.4 -118.8 38.1 -117.7 37.95 -119.15 37.5 -122.2 37.3 -123.4 36.8 -125.4 M53.1 -163.35 L53.1 -165.5 9.55 -135.25 9.5 -135.2 Q8.8 -134.8 8.3 -134.2 7.25 -133.05 7 -131.55 L6.95 -131.1 6.95 -130.05 Q7 -129.1 7.3 -128.25 L7.45 -127.95 55 -156.9 Q54.05 -158.5 53.6 -160.3 53.15 -161.75 53.1 -163.35 M104.1 -178.7 L104.05 -178.3 85.55 -169.55 Q86.65 -168.8 87.9 -168.35 L102.85 -172.75 Q102.5 -171 100 -168.7 96.15 -165.15 90.8 -165.4 87.75 -165.55 85.3 -166.85 83.7 -167.7 82.35 -169 L81.85 -169.55 80.45 -171.35 80.4 -171.4 80.35 -171.45 Q79.25 -173.15 78.75 -175.05 L78.75 -175.1 Q78.3 -176.8 78.4 -178.7 78.55 -183.95 82.4 -187.55 86.25 -191.1 91.6 -190.85 L95.15 -190.25 95.95 -189.95 Q98.2 -188.9 99.5 -187.4 L99 -187.65 Q96.9 -188.5 95.85 -188.35 L81.5 -175.1 Q82.1 -173 83.65 -171.25 L103.05 -182.45 Q104.05 -181.3 104.1 -178.7 M103.55 -185.9 L101.7 -188.2 Q97.2 -193.05 90.65 -193.35 85.35 -193.6 81.05 -190.9 L77.55 -188.3 Q69.9 -182.3 62.9 -176.25 L58.6 -172.55 58.35 -172.25 Q57.15 -170.95 56.45 -169.45 L55.8 -167.7 55.75 -167.65 55.75 -167.6 55.7 -167.55 55.35 -165.75 55.35 -163.5 Q55.35 -162.35 55.6 -161.25 L73 -173.2 Q72.8 -176.05 74.45 -179.15 L74.45 -177.25 Q74.5 -175.65 74.9 -173.95 L74.9 -173.9 Q75.45 -171.6 76.8 -169.55 L78.7 -167.1 Q79.7 -166.05 80.85 -165.15 L81.15 -164.9 81.7 -164.55 81.8 -164.5 Q85.3 -162.2 89.75 -162 92.8 -161.85 95.5 -162.7 L95.55 -162.7 95.6 -162.75 Q98.55 -163.75 101.05 -166.05 105.8 -170.45 106.05 -176.9 106.15 -181.9 103.55 -185.9 M50 -80.5 Q50 -79.7 49.45 -79.1 L49.4 -79.1 Q48.85 -78.5 48.05 -78.5 47.2 -78.55 46.6 -79.1 46 -79.7 46 -80.5 46 -81.35 46.6 -81.9 47.2 -82.5 48.05 -82.5 48.85 -82.5 49.45 -81.9 L49.4 -81.9 Q50 -81.35 50 -80.5 M60.15 -69.7 L60.15 -69.35 Q59.75 -58.35 57.2 -47.65 L56.75 -45.9 Q54.55 -37 50.6 -28.8 L49.85 -27.2 Q46 -19.25 40.3 -12.55 L36.1 -7.95 31.9 -4.2 59.1 -4.2 Q63.6 -7.1 67.35 -10.75 L58.2 -10.85 Q57.9 -10.9 57.75 -11.05 57.5 -11.25 57.5 -11.55 L57.7 -12.05 58.45 -12.9 58.45 -12.95 58.55 -13 60.3 -15.15 60.55 -15.4 60.85 -15.45 71 -15.3 71.45 -15.1 Q74 -18.25 76.15 -21.75 L78.4 -25.7 78.9 -26.7 69.05 -27.15 Q68.8 -27.2 68.65 -27.35 68.45 -27.5 68.4 -27.75 L68.45 -28.2 69.4 -30.15 69.5 -30.35 69.5 -30.4 69.65 -30.65 69.9 -31.3 70.2 -31.6 70.6 -31.7 80.9 -31.2 81.1 -31.15 Q83.8 -37.35 85.5 -43.9 L75.55 -44.45 75.15 -44.6 74.9 -44.95 74.95 -44.95 74.9 -45.35 75.55 -47.8 75.75 -48.55 76 -48.9 76.45 -49.05 86.45 -48.5 86.55 -48.45 Q87.9 -55.5 88.2 -62.6 L79 -63.2 Q78.7 -63.25 78.5 -63.45 L78.3 -64 78.55 -66.85 78.55 -66.9 78.55 -67.2 78.8 -67.65 79.3 -67.8 88.3 -67.25 88.25 -68.95 88.25 -69 88.2 -69.7 87.9 -74.45 60 -76.95 60.15 -69.7 M23.6 -84.55 Q24.2 -83.95 24.2 -83.15 24.2 -82.35 23.65 -81.75 L23.6 -81.75 Q23.05 -81.15 22.25 -81.15 21.4 -81.2 20.85 -81.75 20.25 -82.3 20.25 -83.15 20.25 -83.95 20.85 -84.55 21.4 -85.15 22.25 -85.1 23.05 -85.15 23.65 -84.55 L23.6 -84.55 M37.8 -81.8 Q37.8 -80.95 37.2 -80.4 36.6 -79.8 35.8 -79.8 34.95 -79.8 34.4 -80.4 33.8 -80.95 33.8 -81.8 33.8 -82.6 34.4 -83.2 34.95 -83.8 35.8 -83.75 36.65 -83.8 37.2 -83.2 37.75 -82.6 37.8 -81.8 M3.25 -95.45 L2.5 -97.2 Q1.15 -100.1 -0.65 -102.75 L-2.3 -104.9 -4.5 -107.25 -7.35 -109.6 -9.4 -110.95 -11.6 -111.8 Q-15.25 -113.05 -20 -113.75 L-27.5 -114.6 -29.05 -114.7 -29.5 -114.75 -36.55 -115.2 -41.4 -115.55 -45.8 -115.85 -50.8 -114.3 Q-55.75 -112.65 -60.8 -110.35 -73.25 -104.75 -86.65 -95.45 L-91.65 -91.85 -85.1 -95.45 Q-65.4 -106 -53.35 -110 L-48 -111.55 Q-46.05 -110.8 -44.3 -109.5 -38.8 -105.4 -36 -95.95 L4.25 -92.45 3.25 -95.45 M8.65 -82.55 Q7.85 -82.55 7.25 -83.15 6.65 -83.7 6.7 -84.55 6.65 -85.35 7.25 -85.95 7.85 -86.55 8.65 -86.55 9.5 -86.55 10.05 -85.95 10.65 -85.35 10.65 -84.55 10.65 -83.7 10.05 -83.15 9.5 -82.55 8.65 -82.55 M-31.7 -149.2 Q-32.4 -149.2 -32.95 -149.75 -33.5 -150.3 -33.5 -151.15 -33.55 -151.95 -33.05 -152.55 -32.55 -153.15 -31.8 -153.15 -31.05 -153.2 -30.5 -152.6 -30 -152.05 -29.95 -151.2 L-29.95 -151.05 Q-30 -150.3 -30.45 -149.8 L-31.15 -149.3 -31.7 -149.2 M-28.9 -142.9 Q-28.3 -142.9 -27.8 -142.5 L-27.65 -142.35 Q-27.1 -141.8 -27.05 -140.95 -27.05 -140.15 -27.55 -139.55 -28 -139.05 -28.55 -138.95 L-28.8 -138.95 Q-29.55 -138.95 -30.05 -139.5 -30.6 -140.05 -30.65 -140.8 L-30.65 -140.9 Q-30.65 -141.7 -30.1 -142.3 L-29.95 -142.45 Q-29.55 -142.9 -28.9 -142.9 M-28.3 -131.4 L-27.45 -131.65 Q-26.75 -131.7 -26.2 -131.1 -25.7 -130.55 -25.65 -129.7 -25.65 -128.85 -26.1 -128.3 -26.65 -127.7 -27.4 -127.7 L-28.25 -127.9 -28.5 -128.1 -28.65 -128.25 -29 -128.75 -29.2 -129.65 Q-29.25 -130.45 -28.7 -131.05 L-28.3 -131.4 M-87.35 -54.35 Q-88.45 -57.35 -88.6 -63.2 L-111.3 -47.25 Q-109.1 -45.95 -107.15 -43.5 L-105.95 -41.8 -98.3 -46.95 -87.35 -54.35 M-82.65 -63.05 Q-81.95 -54.55 -77.95 -48 L-77.3 -46.95 -77.05 -46.55 Q-71.8 -39 -64.05 -39 L-63.9 -39 Q-56.05 -39.1 -49.9 -46.95 L-49.15 -48 -48.45 -49 -47.35 -50.7 Q-45.95 -53.15 -44.85 -55.85 -42.4 -62.1 -42 -69.7 L-41.9 -71.95 -42 -74.95 Q-42.5 -84.3 -46.8 -91.4 L-47.35 -92.25 -51.55 -89.25 -50.5 -87.7 Q-47.2 -82.2 -46.7 -74.95 L-46.55 -72.1 -46.65 -69.8 -46.65 -69.7 Q-47.25 -59.35 -52.4 -52 -54.65 -48.85 -57.1 -47.05 L-57.2 -46.95 -58.1 -46.4 -59.3 -45.7 Q-65.9 -43.2 -70.85 -46.85 -67.6 -45.3 -62.25 -46.45 L-63.4 -46.95 Q-66.8 -48.75 -69.4 -53.05 L-70.95 -56.15 -77.8 -56.35 -78.6 -58.85 -71.85 -58.65 Q-72.55 -60.85 -72.9 -63.25 L-79.45 -63.5 -79.6 -65.8 -79.6 -69.5 -82.85 -67.25 -82.8 -65.5 -82.65 -63.05 M-90.55 -41 L-91.1 -41.65 -91.9 -42.95 -92 -42.9 -92.05 -42.95 -97.65 -39.5 -97.15 -36.35 -89.5 -40.1 -90.55 -41 M-134.95 -30.6 L-134.95 -30.55 Q-135.45 -28.3 -135.55 -25.85 L-135.6 -23.15 -135.5 -21.6 Q-135.05 -16.1 -132.45 -11.85 L-131.85 -10.95 Q-128.45 -6.05 -123.45 -6.05 L-123.4 -6.05 Q-118 -6.1 -113.85 -11.85 L-113.4 -12.5 -112.7 -13.6 -111.1 -16.9 Q-109.5 -20.95 -109.25 -25.85 -108.8 -34.05 -112.35 -39.85 L-114.3 -42.45 -114.4 -42.55 -116 -43.95 -119 -41.8 Q-116.5 -40.75 -114.65 -37.65 -111.75 -32.85 -112.1 -26 -112.5 -19.2 -115.85 -14.4 -117.3 -12.4 -118.95 -11.2 L-119.55 -10.8 -120.35 -10.35 Q-124.65 -8.7 -127.85 -11.1 -125.8 -10.05 -122.3 -10.8 -125 -11.85 -126.9 -15.1 L-127.9 -17.1 -132.4 -17.25 -132.9 -18.85 -128.55 -18.7 -129.2 -21.75 -133.45 -21.85 -133.55 -23.4 -133.55 -26 Q-133.4 -29.45 -132.45 -32.35 L-134.95 -30.6 M-97.1 -25.1 L-96.45 -24.95 Q-94.85 -24.5 -93.75 -22.55 -92.45 -20.3 -92.55 -17.2 L-92.6 -16.45 Q-92.95 -12.9 -94.8 -10.35 -95.6 -9.25 -96.45 -8.65 L-96.5 -8.6 -96.8 -8.45 -97.2 -8.2 Q-99.5 -7.35 -101.15 -8.55 L-98.6 -8.35 -98.25 -8.45 -98.6 -8.6 Q-99.8 -9.25 -100.6 -10.7 L-101.1 -11.75 -103.45 -11.85 -103.7 -12.7 -101.4 -12.6 -101.7 -14.2 -103.95 -14.3 -103.95 -15.1 -103.9 -16.45 -103.85 -17.2 Q-103.55 -19.15 -102.8 -20.7 L-101.75 -22.55 Q-99.85 -25.1 -97.5 -25.1 L-97.1 -25.1 M-97.4 -28.25 L-98.9 -27.95 Q-100.95 -27.2 -102.7 -24.8 -104.6 -22.35 -105.35 -19.2 L-105.7 -17.25 -105.75 -16.4 -105.85 -14.75 -105.8 -13.8 Q-105.65 -10.5 -104.2 -7.95 L-103.95 -7.55 -103.85 -7.4 Q-101.9 -4.45 -98.9 -4.45 L-98.85 -4.45 Q-95.8 -4.5 -93.3 -7.55 L-93 -7.95 -92.7 -8.35 -92.25 -9 -91.2 -11 Q-90.2 -13.45 -89.9 -16.4 L-89.85 -17.25 Q-89.65 -21.65 -91.5 -24.8 L-92.6 -26.35 -92.7 -26.45 Q-94.4 -28.3 -96.8 -28.3 L-97.4 -28.25 M-82.3 -20.3 Q-81.95 -22.65 -81 -24.55 L-79.6 -26.8 Q-77.25 -29.95 -74.35 -29.95 L-73.9 -29.9 -73.05 -29.75 Q-71.1 -29.2 -69.8 -26.8 -68.3 -24.05 -68.5 -20.3 L-68.6 -19.3 Q-69.1 -14.95 -71.45 -11.85 -72.45 -10.55 -73.5 -9.75 L-73.55 -9.7 -73.95 -9.5 -74.45 -9.2 Q-77.3 -8.15 -79.3 -9.7 L-76.15 -9.45 -75.7 -9.5 -76.15 -9.7 Q-77.55 -10.5 -78.55 -12.3 L-79.15 -13.6 -82 -13.7 -82.25 -14.75 -79.45 -14.65 -79.8 -16.55 -82.55 -16.65 -82.55 -17.65 -82.45 -19.3 -82.3 -20.3 M-84.1 -22.7 L-84.6 -20.3 -84.7 -19.25 -84.85 -17.25 -84.85 -16.1 Q-84.75 -12.05 -83 -8.9 L-82.75 -8.4 -82.6 -8.25 Q-80.3 -4.65 -76.6 -4.6 L-76.55 -4.6 Q-72.8 -4.65 -69.65 -8.4 L-69.25 -8.9 -68.9 -9.4 -68.35 -10.2 -67 -12.65 Q-65.7 -15.65 -65.3 -19.25 L-65.2 -20.3 Q-64.85 -25.7 -67 -29.6 L-68.3 -31.5 -68.4 -31.6 Q-70.5 -33.9 -73.4 -33.85 L-74.15 -33.8 -76 -33.4 Q-78.55 -32.5 -80.75 -29.6 -83.1 -26.6 -84.1 -22.7 M-35 -74.95 L-35.25 -70.5 -35.3 -69.7 Q-36.2 -58.1 -39.25 -46.95 L-40.15 -43.95 Q-44.1 -31.05 -51.8 -19.6 -58.1 -10.3 -66.75 -4.2 L-32.55 -4.2 Q-29 -5.9 -25.75 -8.3 -23.5 -10 -21.45 -12 L-30.6 -12.1 Q-30.95 -12.15 -31.15 -12.35 L-31.4 -12.85 -31.2 -13.4 -28.7 -16.55 -28.4 -16.75 -28.05 -16.85 -17.85 -16.65 -17.4 -16.5 Q-15.05 -19.55 -13.15 -22.9 L-9.9 -29.25 -9.65 -29.8 -19.35 -30.3 -19.8 -30.45 -20.05 -30.9 -20.05 -31.4 -18.65 -34.5 -18.35 -34.85 -17.9 -35 -8 -34.5 -7.75 -34.45 Q-5.5 -40.35 -4.2 -46.55 L-3.65 -48.95 -13.1 -49.5 Q-13.35 -49.55 -13.55 -49.7 L-13.8 -50.05 -13.85 -50.45 -13.2 -53.65 -12.9 -54.1 -12.35 -54.25 -2.9 -53.7 -2.8 -53.7 Q-1.6 -60.95 -1.3 -68.3 L-11.05 -68.95 Q-11.35 -69 -11.55 -69.2 L-11.75 -69.7 -11.75 -69.8 -11.55 -73 -11.3 -73.5 -10.7 -73.7 -1.15 -73.1 -1.15 -83.15 -34.75 -85.3 Q-34.8 -80.1 -35 -74.95"/>
<path fill="#ffffff" d="M-35 -74.95 Q-34.8 -80.1 -34.75 -85.3 L-1.15 -83.15 -1.15 -73.1 -10.7 -73.7 -11.3 -73.5 -11.55 -73 -11.75 -69.8 -11.75 -69.7 -11.55 -69.2 Q-11.35 -69 -11.05 -68.95 L-1.3 -68.3 Q-1.6 -60.95 -2.8 -53.7 L-2.9 -53.7 -12.35 -54.25 -12.9 -54.1 -13.2 -53.65 -13.85 -50.45 -13.8 -50.05 -13.55 -49.7 Q-13.35 -49.55 -13.1 -49.5 L-3.65 -48.95 -4.2 -46.55 Q-5.5 -40.35 -7.75 -34.45 L-8 -34.5 -17.9 -35 -18.35 -34.85 -18.65 -34.5 -20.05 -31.4 -20.05 -30.9 -19.8 -30.45 -19.35 -30.3 -9.65 -29.8 -9.9 -29.25 -13.15 -22.9 Q-15.05 -19.55 -17.4 -16.5 L-17.85 -16.65 -28.05 -16.85 -28.4 -16.75 -28.7 -16.55 -31.2 -13.4 -31.4 -12.85 -31.15 -12.35 Q-30.95 -12.15 -30.6 -12.1 L-21.45 -12 Q-23.5 -10 -25.75 -8.3 -29 -5.9 -32.55 -4.2 L-66.75 -4.2 Q-58.1 -10.3 -51.8 -19.6 -44.1 -31.05 -40.15 -43.95 L-39.25 -46.95 Q-36.2 -58.1 -35.3 -69.7 L-35.25 -70.5 -35 -74.95 M103.55 -185.9 Q106.15 -181.9 106.05 -176.9 105.8 -170.45 101.05 -166.05 98.55 -163.75 95.6 -162.75 L95.55 -162.7 95.5 -162.7 Q92.8 -161.85 89.75 -162 85.3 -162.2 81.8 -164.5 L81.7 -164.55 81.15 -164.9 80.85 -165.15 Q79.7 -166.05 78.7 -167.1 L76.8 -169.55 Q75.45 -171.6 74.9 -173.9 L74.9 -173.95 Q74.5 -175.65 74.45 -177.25 L74.45 -179.15 Q72.8 -176.05 73 -173.2 L55.6 -161.25 Q55.35 -162.35 55.35 -163.5 L55.35 -165.75 55.7 -167.55 55.75 -167.6 55.75 -167.65 55.8 -167.7 56.45 -169.45 Q57.15 -170.95 58.35 -172.25 L58.6 -172.55 62.9 -176.25 Q69.9 -182.3 77.55 -188.3 L81.05 -190.9 Q85.35 -193.6 90.65 -193.35 97.2 -193.05 101.7 -188.2 L103.55 -185.9 M104.1 -178.7 Q104.05 -181.3 103.05 -182.45 L83.65 -171.25 Q82.1 -173 81.5 -175.1 L95.85 -188.35 Q96.9 -188.5 99 -187.65 L99.5 -187.4 Q98.2 -188.9 95.95 -189.95 L95.15 -190.25 91.6 -190.85 Q86.25 -191.1 82.4 -187.55 78.55 -183.95 78.4 -178.7 78.3 -176.8 78.75 -175.1 L78.75 -175.05 Q79.25 -173.15 80.35 -171.45 L80.4 -171.4 80.45 -171.35 81.85 -169.55 82.35 -169 Q83.7 -167.7 85.3 -166.85 87.75 -165.55 90.8 -165.4 96.15 -165.15 100 -168.7 102.5 -171 102.85 -172.75 L87.9 -168.35 Q86.65 -168.8 85.55 -169.55 L104.05 -178.3 104.1 -178.7 M53.1 -163.35 Q53.15 -161.75 53.6 -160.3 54.05 -158.5 55 -156.9 L7.45 -127.95 7.3 -128.25 Q7 -129.1 6.95 -130.05 L6.95 -131.1 7 -131.55 Q7.25 -133.05 8.3 -134.2 8.8 -134.8 9.5 -135.2 L9.55 -135.25 53.1 -165.5 53.1 -163.35 M36.8 -125.4 L37.3 -123.4 37.5 -122.2 37.95 -119.15 38.1 -117.7 29.4 -118.8 29.7 -119.6 29.9 -120.5 30.25 -122.25 30.25 -122.45 30.4 -125.3 30.05 -129.2 34.7 -131.65 34.95 -131.1 Q36.05 -128.4 36.8 -125.4 M26.6 -125.1 L26.4 -122.55 26.4 -122.45 26.1 -120.95 26.15 -121 25.85 -120.15 25.8 -120 25.75 -119.75 25.6 -119.35 25.6 -119.25 15.25 -120.6 15.3 -120.95 15.45 -121.5 26.5 -127.3 26.6 -125.1 M5.15 -136.4 Q4.1 -135.05 0.3 -122.55 L-13.65 -124.15 -13.25 -124.9 Q-11.1 -129.25 -11.4 -134.4 -11.7 -138.65 -14.9 -143 L-14.45 -143.15 -14.4 -143.15 10.15 -139.85 5.15 -136.4 M0.15 -108.75 L-0.1 -109.05 -0.25 -109.15 -2.6 -111.25 -4.7 -112.75 -8.75 -115 -8.9 -115.1 Q-13.1 -116.9 -19.95 -117.95 L-23.3 -118.35 -29.05 -118.95 -29.15 -118.95 -32.1 -119.15 -35.3 -119.35 -35.2 -122.85 46.35 -112.95 46.5 -109.65 41.65 -109.75 Q39.75 -109.8 38.55 -108.2 L35.95 -105 0.25 -108.7 0.2 -108.7 0.15 -108.75 M40.2 -99.3 Q46 -96.8 49.7 -92.45 L49.7 -92.5 Q54.7 -86.25 53.75 -76 L1.75 -80.75 1.7 -83.9 8.35 -90.3 8.7 -90.95 8.75 -91.15 8.75 -91.3 8.75 -91.45 8.7 -91.65 7.7 -95.45 7.25 -96.7 Q5.8 -100.65 3.55 -104.05 L35.65 -100.9 40.2 -99.3 M14.35 -142.8 L-18.05 -147.25 -20 -146.8 Q-21.45 -146.2 -22.45 -144.9 -20.95 -139.8 -20.45 -136.3 L-20 -132.7 -19.8 -130.2 Q-19.7 -128.15 -19.75 -125.3 L-19.75 -124.95 -19.8 -124.95 -33.9 -126.75 -34.05 -126.75 -34.4 -130.65 -34.45 -131.1 -34.8 -134.05 -35.2 -136.35 -36 -140.25 -36.35 -141.65 Q-38.25 -149.15 -40.65 -155 -40.8 -157.2 -38.25 -157.05 L20.6 -148.6 21.6 -147.9 14.35 -142.8 M49 -105.45 Q67.8 -104.65 78.8 -102.15 81.75 -101.2 84.35 -99.3 88.5 -96.4 91.85 -91.1 94.1 -87.6 95.85 -83.75 L63.5 -86.85 Q62.35 -94.3 57.4 -99.3 54 -102.75 48.8 -105.1 L48.25 -105.35 47.85 -105.5 48.25 -105.45 48.45 -105.45 49 -105.45 M50 -80.5 Q50 -81.35 49.4 -81.9 L49.45 -81.9 Q48.85 -82.5 48.05 -82.5 47.2 -82.5 46.6 -81.9 46 -81.35 46 -80.5 46 -79.7 46.6 -79.1 47.2 -78.55 48.05 -78.5 48.85 -78.5 49.4 -79.1 L49.45 -79.1 Q50 -79.7 50 -80.5 M60.15 -69.7 L60 -76.95 87.9 -74.45 88.2 -69.7 88.25 -69 88.25 -68.95 88.3 -67.25 79.3 -67.8 78.8 -67.65 78.55 -67.2 78.55 -66.9 78.55 -66.85 78.3 -64 78.5 -63.45 Q78.7 -63.25 79 -63.2 L88.2 -62.6 Q87.9 -55.5 86.55 -48.45 L86.45 -48.5 76.45 -49.05 76 -48.9 75.75 -48.55 75.55 -47.8 74.9 -45.35 74.95 -44.95 74.9 -44.95 75.15 -44.6 75.55 -44.45 85.5 -43.9 Q83.8 -37.35 81.1 -31.15 L80.9 -31.2 70.6 -31.7 70.2 -31.6 69.9 -31.3 69.65 -30.65 69.5 -30.4 69.5 -30.35 69.4 -30.15 68.45 -28.2 68.4 -27.75 Q68.45 -27.5 68.65 -27.35 68.8 -27.2 69.05 -27.15 L78.9 -26.7 78.4 -25.7 76.15 -21.75 Q74 -18.25 71.45 -15.1 L71 -15.3 60.85 -15.45 60.55 -15.4 60.3 -15.15 58.55 -13 58.45 -12.95 58.45 -12.9 57.7 -12.05 57.5 -11.55 Q57.5 -11.25 57.75 -11.05 57.9 -10.9 58.2 -10.85 L67.35 -10.75 Q63.6 -7.1 59.1 -4.2 L31.9 -4.2 36.1 -7.95 40.3 -12.55 Q46 -19.25 49.85 -27.2 L50.6 -28.8 Q54.55 -37 56.75 -45.9 L57.2 -47.65 Q59.75 -58.35 60.15 -69.35 L60.15 -69.7 M37.8 -81.8 Q37.75 -82.6 37.2 -83.2 36.65 -83.8 35.8 -83.75 34.95 -83.8 34.4 -83.2 33.8 -82.6 33.8 -81.8 33.8 -80.95 34.4 -80.4 34.95 -79.8 35.8 -79.8 36.6 -79.8 37.2 -80.4 37.8 -80.95 37.8 -81.8 M23.6 -84.55 L23.65 -84.55 Q23.05 -85.15 22.25 -85.1 21.4 -85.15 20.85 -84.55 20.25 -83.95 20.25 -83.15 20.25 -82.3 20.85 -81.75 21.4 -81.2 22.25 -81.15 23.05 -81.15 23.6 -81.75 L23.65 -81.75 Q24.2 -82.35 24.2 -83.15 24.2 -83.95 23.6 -84.55 M3.25 -95.45 L4.25 -92.45 -36 -95.95 Q-38.8 -105.4 -44.3 -109.5 -46.05 -110.8 -48 -111.55 L-53.35 -110 Q-65.4 -106 -85.1 -95.45 L-91.65 -91.85 -86.65 -95.45 Q-73.25 -104.75 -60.8 -110.35 -55.75 -112.65 -50.8 -114.3 L-45.8 -115.85 -41.4 -115.55 -36.55 -115.2 -29.5 -114.75 -29.05 -114.7 -27.5 -114.6 -20 -113.75 Q-15.25 -113.05 -11.6 -111.8 L-9.4 -110.95 -7.35 -109.6 -4.5 -107.25 -2.3 -104.9 -0.65 -102.75 Q1.15 -100.1 2.5 -97.2 L3.25 -95.45 M-28.3 -131.4 L-28.7 -131.05 Q-29.25 -130.45 -29.2 -129.65 L-29 -128.75 -28.65 -128.25 -28.5 -128.1 -28.25 -127.9 -27.4 -127.7 Q-26.65 -127.7 -26.1 -128.3 -25.65 -128.85 -25.65 -129.7 -25.7 -130.55 -26.2 -131.1 -26.75 -131.7 -27.45 -131.65 L-28.3 -131.4 M-28.9 -142.9 Q-29.55 -142.9 -29.95 -142.45 L-30.1 -142.3 Q-30.65 -141.7 -30.65 -140.9 L-30.65 -140.8 Q-30.6 -140.05 -30.05 -139.5 -29.55 -138.95 -28.8 -138.95 L-28.55 -138.95 Q-28 -139.05 -27.55 -139.55 -27.05 -140.15 -27.05 -140.95 -27.1 -141.8 -27.65 -142.35 L-27.8 -142.5 Q-28.3 -142.9 -28.9 -142.9 M-31.7 -149.2 L-31.15 -149.3 -30.45 -149.8 Q-30 -150.3 -29.95 -151.05 L-29.95 -151.2 Q-30 -152.05 -30.5 -152.6 -31.05 -153.2 -31.8 -153.15 -32.55 -153.15 -33.05 -152.55 -33.55 -151.95 -33.5 -151.15 -33.5 -150.3 -32.95 -149.75 -32.4 -149.2 -31.7 -149.2 M8.65 -82.55 Q9.5 -82.55 10.05 -83.15 10.65 -83.7 10.65 -84.55 10.65 -85.35 10.05 -85.95 9.5 -86.55 8.65 -86.55 7.85 -86.55 7.25 -85.95 6.65 -85.35 6.7 -84.55 6.65 -83.7 7.25 -83.15 7.85 -82.55 8.65 -82.55 M-87.35 -54.35 L-98.3 -46.95 -105.95 -41.8 -107.15 -43.5 Q-109.1 -45.95 -111.3 -47.25 L-88.6 -63.2 Q-88.45 -57.35 -87.35 -54.35 M-82.65 -63.05 L-82.8 -65.5 -82.85 -67.25 -79.6 -69.5 -79.6 -65.8 -79.45 -63.5 -72.9 -63.25 Q-72.55 -60.85 -71.85 -58.65 L-78.6 -58.85 -77.8 -56.35 -70.95 -56.15 -69.4 -53.05 Q-66.8 -48.75 -63.4 -46.95 L-62.25 -46.45 Q-67.6 -45.3 -70.85 -46.85 -65.9 -43.2 -59.3 -45.7 L-58.1 -46.4 -57.2 -46.95 -57.1 -47.05 Q-54.65 -48.85 -52.4 -52 -47.25 -59.35 -46.65 -69.7 L-46.65 -69.8 -46.55 -72.1 -46.7 -74.95 Q-47.2 -82.2 -50.5 -87.7 L-51.55 -89.25 -47.35 -92.25 -46.8 -91.4 Q-42.5 -84.3 -42 -74.95 L-41.9 -71.95 -42 -69.7 Q-42.4 -62.1 -44.85 -55.85 -45.95 -53.15 -47.35 -50.7 L-48.45 -49 -49.15 -48 -49.9 -46.95 Q-56.05 -39.1 -63.9 -39 L-64.05 -39 Q-71.8 -39 -77.05 -46.55 L-77.3 -46.95 -77.95 -48 Q-81.95 -54.55 -82.65 -63.05 M-134.95 -30.6 L-132.45 -32.35 Q-133.4 -29.45 -133.55 -26 L-133.55 -23.4 -133.45 -21.85 -129.2 -21.75 -128.55 -18.7 -132.9 -18.85 -132.4 -17.25 -127.9 -17.1 -126.9 -15.1 Q-125 -11.85 -122.3 -10.8 -125.8 -10.05 -127.85 -11.1 -124.65 -8.7 -120.35 -10.35 L-119.55 -10.8 -118.95 -11.2 Q-117.3 -12.4 -115.85 -14.4 -112.5 -19.2 -112.1 -26 -111.75 -32.85 -114.65 -37.65 -116.5 -40.75 -119 -41.8 L-116 -43.95 -114.4 -42.55 -114.3 -42.45 -112.35 -39.85 Q-108.8 -34.05 -109.25 -25.85 -109.5 -20.95 -111.1 -16.9 L-112.7 -13.6 -113.4 -12.5 -113.85 -11.85 Q-118 -6.1 -123.4 -6.05 L-123.45 -6.05 Q-128.45 -6.05 -131.85 -10.95 L-132.45 -11.85 Q-135.05 -16.1 -135.5 -21.6 L-135.6 -23.15 -135.55 -25.85 Q-135.45 -28.3 -134.95 -30.55 L-134.95 -30.6 M-90.55 -41 L-89.5 -40.1 -97.15 -36.35 -97.65 -39.5 -92.05 -42.95 -92 -42.9 -91.9 -42.95 -91.1 -41.65 -90.55 -41 M-97.1 -25.1 L-97.5 -25.1 Q-99.85 -25.1 -101.75 -22.55 L-102.8 -20.7 Q-103.55 -19.15 -103.85 -17.2 L-103.9 -16.45 -103.95 -15.1 -103.95 -14.3 -101.7 -14.2 -101.4 -12.6 -103.7 -12.7 -103.45 -11.85 -101.1 -11.75 -100.6 -10.7 Q-99.8 -9.25 -98.6 -8.6 L-98.25 -8.45 -98.6 -8.35 -101.15 -8.55 Q-99.5 -7.35 -97.2 -8.2 L-96.8 -8.45 -96.5 -8.6 -96.45 -8.65 Q-95.6 -9.25 -94.8 -10.35 -92.95 -12.9 -92.6 -16.45 L-92.55 -17.2 Q-92.45 -20.3 -93.75 -22.55 -94.85 -24.5 -96.45 -24.95 L-97.1 -25.1 M-97.4 -28.25 L-96.8 -28.3 Q-94.4 -28.3 -92.7 -26.45 L-92.6 -26.35 -91.5 -24.8 Q-89.65 -21.65 -89.85 -17.25 L-89.9 -16.4 Q-90.2 -13.45 -91.2 -11 L-92.25 -9 -92.7 -8.35 -93 -7.95 -93.3 -7.55 Q-95.8 -4.5 -98.85 -4.45 L-98.9 -4.45 Q-101.9 -4.45 -103.85 -7.4 L-103.95 -7.55 -104.2 -7.95 Q-105.65 -10.5 -105.8 -13.8 L-105.85 -14.75 -105.75 -16.4 -105.7 -17.25 -105.35 -19.2 Q-104.6 -22.35 -102.7 -24.8 -100.95 -27.2 -98.9 -27.95 L-97.4 -28.25 M-82.3 -20.3 L-82.45 -19.3 -82.55 -17.65 -82.55 -16.65 -79.8 -16.55 -79.45 -14.65 -82.25 -14.75 -82 -13.7 -79.15 -13.6 -78.55 -12.3 Q-77.55 -10.5 -76.15 -9.7 L-75.7 -9.5 -76.15 -9.45 -79.3 -9.7 Q-77.3 -8.15 -74.45 -9.2 L-73.95 -9.5 -73.55 -9.7 -73.5 -9.75 Q-72.45 -10.55 -71.45 -11.85 -69.1 -14.95 -68.6 -19.3 L-68.5 -20.3 Q-68.3 -24.05 -69.8 -26.8 -71.1 -29.2 -73.05 -29.75 L-73.9 -29.9 -74.35 -29.95 Q-77.25 -29.95 -79.6 -26.8 L-81 -24.55 Q-81.95 -22.65 -82.3 -20.3 M-84.1 -22.7 Q-83.1 -26.6 -80.75 -29.6 -78.55 -32.5 -76 -33.4 L-74.15 -33.8 -73.4 -33.85 Q-70.5 -33.9 -68.4 -31.6 L-68.3 -31.5 -67 -29.6 Q-64.85 -25.7 -65.2 -20.3 L-65.3 -19.25 Q-65.7 -15.65 -67 -12.65 L-68.35 -10.2 -68.9 -9.4 -69.25 -8.9 -69.65 -8.4 Q-72.8 -4.65 -76.55 -4.6 L-76.6 -4.6 Q-80.3 -4.65 -82.6 -8.25 L-82.75 -8.4 -83 -8.9 Q-84.75 -12.05 -84.85 -16.1 L-84.85 -17.25 -84.7 -19.25 -84.6 -20.3 -84.1 -22.7"/>
</svg>
