<?xml version="1.0" encoding="UTF-8"?>
<svg version="1.1" viewBox="-182.45 -288.15 364.96 288.15" xmlns="http://www.w3.org/2000/svg" >
<!-- Converted to SVG from FLA files from http://www.newgrounds.com/downloads/designassets/ -->
<path fill="#000000" d="M139 -284.45 L139.25 -284.6 Q146.05 -288.5 154.6 -288.1 166.4 -287.6 174.55 -278.9 L174.6 -278.85 174.65 -278.8 174.7 -278.75 177.7 -275 177.9 -274.7 178 -274.55 Q182.75 -267.3 182.5 -258.15 182.25 -249.8 177.8 -243.2 L177.75 -243.15 177.7 -243.1 Q175.9 -240.55 173.4 -238.2 168.85 -234.1 163.6 -232.2 L163.45 -232.2 130.05 -217.9 130 -217.85 129.9 -217.8 129.3 -217.55 129.2 -217.5 Q125.55 -216.1 121.45 -215.9 L118.1 -216 118.05 -216 117.85 -216.05 99.25 -206.1 83.1 -197.45 78.1 -194.85 78.05 -194.85 Q78.9 -192.9 80.75 -186.75 82.2 -181.95 83 -177.1 L83.6 -172.3 92.35 -171.2 92.3 -171.25 92.35 -171.25 Q93.8 -171.1 94.8 -170 L94.85 -169.95 94.9 -169.95 95.35 -169.4 95.65 -168.7 95.95 -167.55 95.95 -167.4 96.4 -159.7 113.35 -158.7 Q128.1 -157.35 138.3 -155 L138.65 -154.95 Q138.65 -154.95 138.75 -154.9 145.05 -152.95 150.5 -148.5 L154.35 -145 Q157.95 -141.25 161.1 -136.25 L162.45 -134.1 164.2 -130.95 165.85 -127.6 165.9 -127.55 166.85 -125.3 167.9 -122.85 167.95 -122.85 169.15 -119.4 169.15 -119.3 169.2 -118.25 169.2 -118.2 Q169 -116.55 167.55 -115.5 L156.85 -107.85 157.05 -101.75 Q157.25 -85.95 154.35 -70.3 153.05 -63.5 151.1 -56.9 147.55 -45.15 141.75 -34.2 132.4 -16.55 116.4 -4.6 L116.4 -4.55 Q113.15 -2.15 109.75 -0.25 L108.85 -0.05 -152.3 -0.05 -156.75 0 -156.9 0 -157.05 0 -157.45 0 -157.5 0 -157.6 0 -160.15 -0.2 Q-169.05 -1.65 -175.5 -11.8 L-175.5 -11.9 Q-182.45 -22.75 -182.45 -37.75 -182.45 -52.85 -175.5 -63.25 L-175.35 -63.4 -172.25 -67.7 Q-172.7 -77.45 -170.65 -85.6 -163.8 -93.3 -155.25 -101.75 -142.55 -114.45 -126.1 -128.95 L-125.9 -139.35 -125.4 -153.1 -124.45 -167.05 Q-123.7 -176.6 -122.55 -185.55 -122.35 -187.2 -121.1 -188.15 L-117 -191.4 -111.35 -195.75 -99 -204.8 -93.85 -208.4 -84.25 -214.85 -84.25 -214.9 -84.2 -214.85 -84.05 -214.95 Q-86.75 -218.25 -87.7 -222.05 -88.35 -224.55 -88.25 -227.2 -87.2 -233.5 -86.7 -237.7 L-86.2 -239.55 -84.6 -245 -81.2 -253.75 -81.1 -253.8 Q-79.35 -254.75 -77.35 -255.35 L-73.3 -256.45 -67.7 -258 -67.6 -258 Q-68.15 -258.9 -68.2 -259.95 -70 -260.35 -71.25 -261.75 L-71.35 -261.8 -71.65 -262.4 -71.95 -266.25 Q-72.05 -268.4 -71.6 -272.25 L-71.6 -272.3 Q-70.6 -273.75 -68.8 -274.4 L-68.5 -274.5 -68.5 -274.55 Q-68.05 -279.4 -64.15 -282.85 -59.75 -286.9 -53.45 -286.9 -47.05 -286.9 -42.6 -282.85 -39.8 -280.3 -38.8 -277.45 -37.25 -276.75 -36.2 -276.05 -36.25 -273.05 -36.75 -270.15 L-35.65 -268.55 Q-35.9 -265.05 -36.55 -261.75 L-37.15 -259.15 -40.95 -257.65 -41.8 -255.15 -41.65 -255.05 -41.6 -255.05 -41.6 -255.1 -41.1 -254.95 Q-39.85 -254.5 -38.75 -253.75 L-38.65 -253.65 Q-36.35 -252.4 -34.1 -250.95 L-32.5 -249.95 -31.05 -248.95 Q-28.25 -244.2 -26.9 -241.15 -25.5 -237.95 -24.4 -234.55 L-24.35 -234.5 -24.3 -234.4 53.3 -222.85 53.35 -222.85 Q54.2 -222.75 54.95 -222.25 L58.45 -219.75 58.55 -219.8 98.25 -247.75 98.35 -248.05 98.3 -247.95 99.1 -249.9 Q99.9 -251.75 101.2 -253.45 103.1 -256.05 105.7 -258.05 L107 -259.1 107.05 -259.15 107.25 -259.25 112.2 -263.25 129 -276.75 129.2 -276.95 133.95 -280.8 134.1 -280.95 134.65 -281.4 Q136.65 -283.15 139 -284.45 M-58.5 -276.8 L-58.8 -276.7 -59.05 -276.55 -59.55 -276.25 -59.7 -271.85 -59.7 -271.8 Q-59.45 -268.75 -58.85 -268.45 L-52.05 -267.95 Q-50.8 -267.95 -50.05 -268.5 L-49.6 -269.05 -49.5 -269.2 -48.65 -270.25 Q-48.1 -271.2 -47.2 -271.1 L-44.4 -270.85 -44.35 -270.85 Q-43.6 -270.85 -43.2 -269.95 L-43.2 -269.9 -42.9 -269.1 -42.85 -269 -42.35 -267.6 -42.3 -267.4 -39.75 -267.3 Q-39.35 -267.8 -39.25 -268.25 L-39.25 -268.3 Q-38.15 -271.65 -38.55 -274.15 L-39 -275.05 Q-48.2 -277.8 -58.5 -276.8 M136.6 -97.65 L136.65 -98.1 Q136.65 -98.5 137 -98.8 L137.7 -99 150.8 -98.15 150.75 -100.7 150.7 -101.75 150.25 -108.65 109.55 -112.35 Q109.85 -107.05 109.75 -101.75 L109.7 -101.3 Q109.15 -85.25 105.4 -69.6 L104.75 -67 Q101.55 -54.05 95.85 -42.05 L94.7 -39.7 Q89.05 -28.05 80.75 -18.25 L74.6 -11.6 68.5 -6.1 108.2 -6.1 Q114.75 -10.35 120.25 -15.65 L106.9 -15.85 Q106.5 -15.85 106.2 -16.1 105.85 -16.4 105.85 -16.8 105.85 -17.25 106.15 -17.6 L107.25 -18.8 107.3 -18.85 107.35 -18.95 109.95 -22.15 110.3 -22.4 110.8 -22.5 125.55 -22.3 126.2 -22 Q129.95 -26.6 133.1 -31.75 L136.4 -37.5 137.15 -38.95 122.75 -39.65 Q122.4 -39.7 122.15 -39.9 L122.1 -39.9 Q121.85 -40.15 121.75 -40.5 121.65 -40.85 121.85 -41.2 L123.25 -44 123.4 -44.35 123.6 -44.75 123.6 -44.8 124 -45.65 124.4 -46.15 125 -46.3 140 -45.55 140.3 -45.5 Q144.25 -54.5 146.75 -64.1 L132.25 -64.95 Q131.9 -64.95 131.65 -65.15 L131.3 -65.65 131.35 -65.65 Q131.2 -65.95 131.3 -66.2 L132.2 -69.75 132.25 -69.8 132.5 -70.85 132.9 -71.4 133.55 -71.6 148.1 -70.8 148.3 -70.75 Q150.3 -81 150.7 -91.4 L137.25 -92.3 Q136.8 -92.35 136.55 -92.65 136.25 -93 136.25 -93.4 L136.6 -97.6 136.6 -97.65 M156 -133 Q151.1 -140.7 145.05 -145 141.2 -147.75 136.9 -149.1 120.85 -152.75 93.45 -153.95 L92.65 -154 92.45 -154 92.35 -154 91.8 -154 92.35 -153.75 93.2 -153.4 Q100.75 -150.05 105.7 -145 112.95 -137.65 114.65 -126.8 L161.85 -122.3 Q159.3 -127.85 156 -133 M99.45 -238.55 L99.45 -241.6 35.85 -197.5 35.8 -197.45 34.05 -195.95 Q32.55 -194.25 32.15 -192.05 L32.05 -191.4 32.05 -189.9 Q32.15 -188.55 32.6 -187.3 L32.75 -186.85 102.2 -229.1 102.2 -229.15 Q100.85 -231.45 100.15 -234.05 99.55 -236.2 99.45 -238.55 M154.25 -282.3 Q146.55 -282.7 140.25 -278.75 L135.15 -274.95 Q123.95 -266.15 113.75 -257.35 L107.45 -251.95 107.1 -251.55 Q105.35 -249.6 104.3 -247.4 L103.35 -244.85 103.35 -244.8 103.35 -244.75 103.3 -244.75 103.3 -244.7 103.25 -244.65 Q102.85 -243.4 102.75 -242 102.55 -240.45 102.7 -238.75 L102.7 -238.7 Q102.75 -237.05 103.15 -235.45 L128.5 -252.85 Q128.2 -257.05 130.6 -261.6 L130.65 -258.75 Q130.7 -256.5 131.25 -253.95 132.1 -250.6 134.05 -247.6 135.2 -245.75 136.8 -244 L139.9 -241.15 140.4 -240.8 141.2 -240.25 141.35 -240.2 Q146.4 -236.85 152.95 -236.5 157.4 -236.3 161.3 -237.55 L161.4 -237.6 161.45 -237.65 161.5 -237.65 Q165.8 -239.15 169.5 -242.5 176.4 -248.9 176.7 -258.3 176.9 -265.6 173.1 -271.45 L170.4 -274.85 Q163.85 -281.9 154.25 -282.3 M142.25 -273.85 Q147.9 -279.05 155.65 -278.7 158.35 -278.6 160.8 -277.8 L162 -277.3 Q165.3 -275.8 167.15 -273.65 L166.45 -274 Q163.4 -275.25 161.85 -275 L140.95 -255.7 Q141.8 -252.6 144.05 -250.1 L172.35 -266.4 Q173.85 -264.7 173.9 -260.9 L173.85 -260.35 146.8 -247.6 Q148.4 -246.45 150.25 -245.8 L172.1 -252.25 Q171.55 -249.7 167.9 -246.35 162.25 -241.15 154.5 -241.5 150.1 -241.7 146.5 -243.6 144.15 -244.85 142.2 -246.8 L142.15 -246.8 141.4 -247.55 141.4 -247.6 139.35 -250.2 139.25 -250.3 139.2 -250.35 Q137.6 -252.85 136.9 -255.6 L136.9 -255.65 Q136.25 -258.2 136.35 -260.95 136.6 -268.65 142.25 -273.85 M-42.55 -264.6 L-43.25 -264.8 -43.9 -265 -44 -265.1 -44.1 -265.55 -44.3 -266.15 -44.5 -266.85 -44.75 -267.55 -44.8 -267.85 -46.6 -268.05 -46.8 -268 -46.9 -267.9 -47.2 -267.45 -47.6 -266.85 -48 -266.25 -48.3 -265.8 -48.4 -265.7 -50.25 -265.2 -52.1 -264.9 -53.25 -264.8 -53.55 -264.8 Q-54.5 -264.65 -54.6 -264.35 L-54.85 -263.75 -54.9 -263.3 -54.85 -263.2 -54.85 -263.1 -54.85 -263 -54.8 -262.65 -54.55 -261.75 -54.35 -261.05 -53.8 -259.45 -52.5 -258.4 -51 -257.6 -49.45 -257.15 -48.9 -257.1 -47.95 -257.1 -47.5 -257.1 -46.95 -257.15 -45 -257.65 Q-44.1 -258.05 -43.7 -258.35 L-43.2 -258.9 -42.9 -259.65 -42.3 -261.3 -42.2 -261.75 -41.95 -262.6 -41.7 -263.9 -41.95 -264.3 -42.3 -264.45 -42.55 -264.6 M-33.95 -229.3 Q-36.75 -229.5 -37.3 -227.65 L-37.4 -226.35 Q-33.9 -217.8 -31.1 -206.85 L-30.6 -204.8 -29.45 -199.05 -28.9 -195.75 -28.35 -191.4 -28.3 -190.8 -27.8 -185.05 -27.55 -185.05 -6.95 -182.45 -6.9 -182.45 -6.9 -182.95 -7 -190.1 -7.3 -193.75 -7.95 -199.05 Q-8.65 -204.15 -10.85 -211.55 -9.35 -213.5 -7.3 -214.35 L-4.4 -215 42.85 -208.5 53.45 -215.95 52 -216.95 -33.95 -229.3 M-39.65 -248.85 L-41.25 -245.75 Q-44.3 -243.25 -48.4 -243.2 -52.25 -243.2 -55.85 -244.6 -58.45 -245.65 -60.65 -247.25 L-62.6 -248.8 -64.65 -250.95 -65.2 -251.7 -71.2 -250.8 Q-69.55 -246.1 -69.2 -243.25 L-68.5 -237.85 Q-68.15 -235.25 -68.45 -229.75 L-73.25 -232.7 -67.95 -224.1 -65.5 -225.4 -59.6 -228.35 -52.9 -231.6 -49.2 -233.3 Q-41.95 -236.4 -34.2 -235.85 L-34.15 -235.85 -34.1 -235.85 -34.9 -239.9 Q-35.3 -244.2 -35.1 -247.2 -37.3 -248.3 -39.65 -248.85 M-26.3 -222.75 Q-25.55 -223.65 -24.45 -223.65 -23.4 -223.7 -22.65 -222.85 -21.85 -222 -21.8 -220.8 L-21.8 -220.55 Q-21.85 -219.5 -22.5 -218.75 L-23.55 -218 -24.35 -217.85 Q-25.4 -217.85 -26.15 -218.65 -26.95 -219.45 -27 -220.7 -27.05 -221.9 -26.3 -222.75 M-22.8 -205.75 Q-22.8 -206.9 -22.05 -207.75 L-21.8 -208.05 Q-21.15 -208.7 -20.25 -208.7 -19.35 -208.7 -18.65 -208.1 L-18.4 -207.85 Q-17.65 -207 -17.6 -205.85 -17.55 -204.6 -18.3 -203.75 -18.9 -203.05 -19.75 -202.9 L-20.1 -202.9 Q-21.2 -202.85 -21.95 -203.65 -22.75 -204.45 -22.8 -205.6 L-22.8 -205.75 M0.85 -209.05 L0.2 -208.8 Q4.9 -202.45 5.3 -196.25 5.7 -188.7 2.55 -182.4 L2 -181.35 22.4 -178.95 Q27.9 -197.2 29.4 -199.15 L36.75 -204.2 0.85 -209.05 M-29.5 -179.4 L-29.6 -174.3 -24.9 -174 -20.65 -173.7 -20.6 -173.7 -20.45 -173.7 -12.1 -172.85 -12.05 -172.85 -7.2 -172.2 Q2.85 -170.65 8.9 -168.05 L9.15 -167.95 15.1 -164.6 18.1 -162.45 21.55 -159.4 21.75 -159.2 22.15 -158.75 22.25 -158.7 74.4 -153.35 78.2 -158 Q79.95 -160.35 82.7 -160.25 L89.85 -160.05 89.65 -164.95 -29.5 -179.4 M-18.2 -192.25 Q-17.1 -192.3 -16.3 -191.45 -15.55 -190.6 -15.55 -189.4 -15.5 -188.2 -16.2 -187.35 -16.95 -186.5 -18.05 -186.45 -18.75 -186.45 -19.3 -186.8 L-19.65 -187.05 -19.85 -187.25 -20.4 -188 -20.7 -189.3 Q-20.75 -190.5 -20 -191.35 L-19.35 -191.9 Q-18.85 -192.25 -18.2 -192.25 M-105.6 -79.35 Q-107.2 -83.7 -107.35 -92.3 L-140.55 -68.95 Q-137.35 -67.1 -134.5 -63.5 L-132.7 -61 -121.6 -68.55 -105.6 -79.35 M-104.55 -139.35 L-111.85 -134.1 -102.25 -139.35 Q-73.55 -154.75 -55.9 -160.65 L-48.15 -162.9 Q-45.3 -161.75 -42.75 -159.9 -34.7 -153.85 -30.65 -140.1 L28.1 -135 26.65 -139.35 25.6 -141.95 Q23.65 -146.15 20.95 -150 L20.95 -150.05 18.6 -153.15 15.35 -156.55 11.2 -159.95 Q9.75 -161.05 8.2 -161.95 L4.95 -163.2 Q-0.35 -165.05 -7.3 -166.1 L-18.25 -167.35 -20.5 -167.5 -21.1 -167.55 -31.4 -168.2 -38.5 -168.7 -44.95 -169.2 -52.25 -166.9 Q-59.4 -164.45 -66.8 -161.1 -84.95 -152.9 -104.55 -139.35 M72.95 -191.4 L72.6 -192.25 65.75 -188.65 66.3 -182.95 66.1 -178.8 66.05 -178.5 65.6 -175.95 65.25 -174.7 64.85 -173.45 77.5 -171.85 77.3 -174 76.65 -178.45 76.35 -180.2 75.65 -183.1 Q74.55 -187.45 72.95 -191.4 M44.25 -176.6 L44.2 -176.1 59.3 -174.15 59.3 -174.25 59.5 -174.85 59.6 -175.25 59.65 -175.45 60.05 -176.7 60.05 -176.65 60.45 -178.8 60.45 -178.9 60.75 -182.65 60.6 -185.9 44.5 -177.45 44.25 -176.6 M-99 -98.15 L-99 -95.65 -98.75 -92.1 Q-97.7 -79.65 -91.9 -70.1 L-90.9 -68.55 -90.5 -68 Q-82.85 -56.95 -71.55 -56.9 L-71.35 -56.9 Q-59.9 -57.05 -50.95 -68.55 L-49.8 -70.1 -48.8 -71.55 -47.2 -74 Q-45.1 -77.6 -43.55 -81.5 -39.95 -90.65 -39.35 -101.75 L-39.3 -105.05 Q-39.25 -107.3 -39.35 -109.4 -40.1 -123.1 -46.4 -133.4 L-47.15 -134.65 -53.3 -130.3 -51.8 -128.05 Q-47 -119.95 -46.2 -109.4 -46.05 -107.4 -46.05 -105.3 L-46.15 -101.95 -46.15 -101.9 -46.15 -101.75 Q-47.05 -86.65 -54.6 -75.9 -57.85 -71.35 -61.45 -68.7 L-61.55 -68.55 -62.85 -67.75 -64.6 -66.75 -64.65 -66.75 Q-74.25 -63.1 -81.5 -68.4 -76.8 -66.1 -69 -67.8 L-70.65 -68.55 Q-75.6 -71.2 -79.35 -77.45 -80.65 -79.65 -81.65 -82 L-91.7 -82.25 -92.8 -85.95 -83 -85.65 Q-84 -88.85 -84.55 -92.4 L-94 -92.7 -94.3 -96.1 -94.3 -101.5 -99 -98.15 M-86.35 -49.4 L-89 -48.75 Q-92.75 -47.4 -95.95 -43.2 -99.4 -38.85 -100.85 -33.15 L-101.55 -29.65 -101.75 -28.1 -102 -25.2 -101.95 -23.45 Q-101.8 -17.55 -99.25 -13 L-98.85 -12.25 -98.65 -12 Q-95.3 -6.75 -89.9 -6.7 L-89.8 -6.7 Q-84.35 -6.75 -79.8 -12.25 L-79.2 -13 -78.65 -13.65 -77.85 -14.85 -75.9 -18.45 Q-73.95 -22.8 -73.35 -28.1 L-73.25 -29.65 Q-72.75 -37.5 -75.9 -43.2 L-77.8 -46 -77.95 -46.1 Q-80.95 -49.45 -85.25 -49.45 L-86.35 -49.4 M-145.05 -62.15 L-147.4 -64.15 -151.75 -61.05 Q-148.15 -59.45 -145.4 -54.95 -141.25 -47.9 -141.75 -37.95 -142.3 -28 -147.25 -21 -149.35 -18.05 -151.7 -16.3 L-152.6 -15.7 -153.75 -15.05 Q-160.05 -12.7 -164.75 -16.15 -161.7 -14.65 -156.6 -15.75 -160.5 -17.3 -163.35 -22.05 L-164.8 -25 -171.35 -25.2 -172.1 -27.55 -165.7 -27.35 Q-166.4 -29.45 -166.75 -31.75 L-172.9 -31.95 -173.05 -34.15 -173.05 -37.95 Q-172.8 -43 -171.4 -47.25 L-175.1 -44.65 -175.1 -44.6 Q-175.8 -41.35 -175.95 -37.75 L-176 -33.8 -175.9 -31.5 Q-175.2 -23.5 -171.45 -17.3 L-170.6 -15.95 Q-165.65 -8.85 -158.3 -8.85 L-158.2 -8.85 Q-150.35 -8.9 -144.3 -17.3 L-143.65 -18.25 -142.65 -19.85 Q-141.3 -22.15 -140.25 -24.7 -137.95 -30.6 -137.55 -37.75 -136.95 -49.75 -142.1 -58.2 -143.45 -60.35 -144.9 -61.95 L-145.05 -62.15 M-84.75 -43.45 Q-81.9 -42.65 -80 -39.15 -77.8 -35.15 -78.1 -29.6 L-78.15 -28.2 Q-78.9 -21.8 -82.35 -17.25 -83.85 -15.35 -85.4 -14.2 L-85.45 -14.15 -86 -13.85 -86.8 -13.4 Q-90.9 -11.9 -93.85 -14.1 -92.1 -13.25 -89.25 -13.75 L-88.6 -13.9 -89.2 -14.15 Q-91.3 -15.25 -92.75 -17.9 L-93.6 -19.85 -97.8 -19.95 -98.15 -21.45 -94.05 -21.35 -94.55 -24.2 -98.55 -24.3 -98.55 -25.75 -98.4 -28.2 -98.25 -29.6 Q-97.7 -33.05 -96.3 -35.85 -95.5 -37.65 -94.3 -39.15 -90.85 -43.75 -86.65 -43.75 L-85.95 -43.65 -84.75 -43.45 M-112.4 -62.6 L-112.45 -62.7 -120.6 -57.7 -119.85 -53.1 -108.75 -58.55 Q-109.6 -59.15 -110.3 -59.9 L-111.05 -60.8 -112.25 -62.7 -112.4 -62.6 M-126.6 -32.95 Q-123.85 -36.65 -120.4 -36.65 L-119.85 -36.6 -118.9 -36.45 Q-116.55 -35.8 -114.9 -32.95 -113.05 -29.65 -113.2 -25.15 L-113.25 -24 Q-113.75 -18.75 -116.5 -15.05 -117.65 -13.5 -118.9 -12.55 L-118.95 -12.5 -119.4 -12.25 -120 -11.95 Q-123.35 -10.7 -125.75 -12.5 -124.35 -11.8 -122.05 -12.15 L-121.5 -12.3 -122 -12.5 Q-123.7 -13.45 -124.95 -15.6 L-125.7 -17.15 -129.1 -17.25 -129.45 -18.5 -126.1 -18.4 -126.5 -20.7 -129.8 -20.8 -129.85 -21.95 -129.75 -24 -129.65 -25.15 Q-129.3 -27.95 -128.2 -30.25 L-126.6 -32.95 M94.5 -135 L94.45 -135 Q89.1 -141.35 80.65 -145 77.5 -146.35 74 -147.3 L27.1 -151.9 Q30.4 -146.9 32.55 -141.15 L33.15 -139.35 34.65 -133.8 34.7 -133.55 34.7 -133.3 34.7 -133.05 34.65 -132.85 34.1 -131.85 24.4 -122.5 24.5 -117.9 100.35 -110.95 Q101.75 -125.85 94.5 -135 M-132.35 -25.2 L-132.5 -23.9 -132.6 -21.5 -132.55 -20.15 Q-132.3 -15.3 -130.2 -11.6 L-129.85 -10.95 -129.7 -10.75 Q-126.85 -6.45 -122.4 -6.45 L-122.35 -6.45 Q-117.9 -6.5 -114.3 -10.95 L-113.8 -11.6 -113.4 -12.15 -112.75 -13.1 -111.25 -16.05 Q-109.75 -19.6 -109.35 -23.9 L-109.25 -25.2 Q-109 -31.6 -111.65 -36.25 -112.4 -37.55 -113.25 -38.5 L-113.4 -38.6 Q-115.9 -41.35 -119.4 -41.3 L-120.25 -41.25 -122.4 -40.8 Q-125.45 -39.7 -128 -36.25 -130.7 -32.65 -131.85 -28.05 L-132.35 -25.2 M32.55 -125.45 Q33.4 -126.35 34.55 -126.35 35.8 -126.35 36.65 -125.45 37.5 -124.6 37.5 -123.4 37.45 -122.2 36.65 -121.4 L36.65 -121.35 Q35.8 -120.55 34.55 -120.55 33.4 -120.55 32.55 -121.4 L32.55 -121.35 Q31.7 -122.2 31.7 -123.4 31.7 -124.6 32.55 -125.45 M56.4 -123.4 Q57.25 -122.6 57.3 -121.4 57.25 -120.2 56.45 -119.35 L56.4 -119.3 Q55.6 -118.5 54.4 -118.5 53.2 -118.5 52.35 -119.35 L52.35 -119.3 Q51.45 -120.15 51.45 -121.4 51.45 -122.6 52.35 -123.4 53.2 -124.3 54.4 -124.3 55.6 -124.3 56.45 -123.4 L56.4 -123.4 M20.3 -121.35 L-28.8 -124.5 -29.15 -109.4 -29.55 -102.9 -29.6 -101.75 Q-30.85 -84.8 -35.35 -68.55 L-36.65 -64.2 Q-42.5 -45.3 -53.7 -28.6 -62.9 -15 -75.5 -6.1 L-25.6 -6.1 Q-20.4 -8.6 -15.65 -12.05 -12.35 -14.55 -9.35 -17.5 L-22.75 -17.65 Q-23.25 -17.7 -23.55 -18 -23.9 -18.35 -23.9 -18.75 -23.95 -19.2 -23.6 -19.55 L-19.95 -24.1 -19.55 -24.45 -19.05 -24.55 -4.15 -24.3 -3.45 -24.1 Q-0.05 -28.55 2.7 -33.45 L7.45 -42.75 7.85 -43.5 -6.3 -44.25 -7 -44.45 -7.35 -45.1 -7.35 -45.85 -5.35 -50.35 -4.9 -50.9 -4.2 -51.1 10.25 -50.35 10.6 -50.3 Q13.9 -58.95 15.8 -67.95 L16.6 -71.5 2.8 -72.3 Q2.45 -72.35 2.2 -72.55 L1.8 -73.1 Q1.65 -73.4 1.75 -73.7 L2.65 -78.3 Q2.7 -78.75 3.05 -79 L3.85 -79.2 17.7 -78.4 17.85 -78.4 Q19.6 -89 20.05 -99.75 L5.85 -100.65 Q5.35 -100.7 5.05 -101.05 4.75 -101.4 4.75 -101.75 L4.75 -101.9 5.05 -106.55 Q5.05 -107.05 5.45 -107.35 L6.3 -107.65 20.3 -106.7 20.3 -121.35 M94.05 -119.55 Q94.9 -118.75 94.95 -117.55 94.9 -116.35 94.1 -115.5 L94.05 -115.45 Q93.25 -114.65 92.05 -114.6 90.85 -114.65 90 -115.5 L90 -115.45 Q89.1 -116.3 89.1 -117.55 89.1 -118.75 90 -119.55 90.85 -120.45 92.05 -120.45 93.25 -120.45 94.1 -119.55 L94.05 -119.55 M76.25 -121.45 Q77.1 -120.6 77.1 -119.4 77.1 -118.2 76.25 -117.35 75.4 -116.55 74.2 -116.5 73 -116.5 72.15 -117.35 71.3 -118.2 71.3 -119.4 71.3 -120.6 72.15 -121.45 73 -122.35 74.2 -122.3 75.4 -122.35 76.25 -121.45"/>
<path fill="#ffffff" d="M76.25 -121.45 Q75.4 -122.35 74.2 -122.3 73 -122.35 72.15 -121.45 71.3 -120.6 71.3 -119.4 71.3 -118.2 72.15 -117.35 73 -116.5 74.2 -116.5 75.4 -116.55 76.25 -117.35 77.1 -118.2 77.1 -119.4 77.1 -120.6 76.25 -121.45 M142.25 -273.85 Q136.6 -268.65 136.35 -260.95 136.25 -258.2 136.9 -255.65 L136.9 -255.6 Q137.6 -252.85 139.2 -250.35 L139.25 -250.3 139.35 -250.2 141.4 -247.6 141.4 -247.55 142.15 -246.8 142.2 -246.8 Q144.15 -244.85 146.5 -243.6 150.1 -241.7 154.5 -241.5 162.25 -241.15 167.9 -246.35 171.55 -249.7 172.1 -252.25 L150.25 -245.8 Q148.4 -246.45 146.8 -247.6 L173.85 -260.35 173.9 -260.9 Q173.85 -264.7 172.35 -266.4 L144.05 -250.1 Q141.8 -252.6 140.95 -255.7 L161.85 -275 Q163.4 -275.25 166.45 -274 L167.15 -273.65 Q165.3 -275.8 162 -277.3 L160.8 -277.8 Q158.35 -278.6 155.65 -278.7 147.9 -279.05 142.25 -273.85 M154.25 -282.3 Q163.85 -281.9 170.4 -274.85 L173.1 -271.45 Q176.9 -265.6 176.7 -258.3 176.4 -248.9 169.5 -242.5 165.8 -239.15 161.5 -237.65 L161.45 -237.65 161.4 -237.6 161.3 -237.55 Q157.4 -236.3 152.95 -236.5 146.4 -236.85 141.35 -240.2 L141.2 -240.25 140.4 -240.8 139.9 -241.15 136.8 -244 Q135.2 -245.75 134.05 -247.6 132.1 -250.6 131.25 -253.95 130.7 -256.5 130.65 -258.75 L130.6 -261.6 Q128.2 -257.05 128.5 -252.85 L103.15 -235.45 Q102.75 -237.05 102.7 -238.7 L102.7 -238.75 Q102.55 -240.45 102.75 -242 102.85 -243.4 103.25 -244.65 L103.3 -244.7 103.3 -244.75 103.35 -244.75 103.35 -244.8 103.35 -244.85 104.3 -247.4 Q105.35 -249.6 107.1 -251.55 L107.45 -251.95 113.75 -257.35 Q123.95 -266.15 135.15 -274.95 L140.25 -278.75 Q146.55 -282.7 154.25 -282.3 M99.45 -238.55 Q99.55 -236.2 100.15 -234.05 100.85 -231.45 102.2 -229.15 L102.2 -229.1 32.75 -186.85 32.6 -187.3 Q32.15 -188.55 32.05 -189.9 L32.05 -191.4 32.15 -192.05 Q32.55 -194.25 34.05 -195.95 L35.8 -197.45 35.85 -197.5 99.45 -241.6 99.45 -238.55 M156 -133 Q159.3 -127.85 161.85 -122.3 L114.65 -126.8 Q112.95 -137.65 105.7 -145 100.75 -150.05 93.2 -153.4 L92.35 -153.75 91.8 -154 92.35 -154 92.45 -154 92.65 -154 93.45 -153.95 Q120.85 -152.75 136.9 -149.1 141.2 -147.75 145.05 -145 151.1 -140.7 156 -133 M136.6 -97.65 L136.6 -97.6 136.25 -93.4 Q136.25 -93 136.55 -92.65 136.8 -92.35 137.25 -92.3 L150.7 -91.4 Q150.3 -81 148.3 -70.75 L148.1 -70.8 133.55 -71.6 132.9 -71.4 132.5 -70.85 132.25 -69.8 132.2 -69.75 131.3 -66.2 Q131.2 -65.95 131.35 -65.65 L131.3 -65.65 131.65 -65.15 Q131.9 -64.95 132.25 -64.95 L146.75 -64.1 Q144.25 -54.5 140.3 -45.5 L140 -45.55 125 -46.3 124.4 -46.15 124 -45.65 123.6 -44.8 123.6 -44.75 123.4 -44.35 123.25 -44 121.85 -41.2 Q121.65 -40.85 121.75 -40.5 121.85 -40.15 122.1 -39.9 L122.15 -39.9 Q122.4 -39.7 122.75 -39.65 L137.15 -38.95 136.4 -37.5 133.1 -31.75 Q129.95 -26.6 126.2 -22 L125.55 -22.3 110.8 -22.5 110.3 -22.4 109.95 -22.15 107.35 -18.95 107.3 -18.85 107.25 -18.8 106.15 -17.6 Q105.85 -17.25 105.85 -16.8 105.85 -16.4 106.2 -16.1 106.5 -15.85 106.9 -15.85 L120.25 -15.65 Q114.75 -10.35 108.2 -6.1 L68.5 -6.1 74.6 -11.6 80.75 -18.25 Q89.05 -28.05 94.7 -39.7 L95.85 -42.05 Q101.55 -54.05 104.75 -67 L105.4 -69.6 Q109.15 -85.25 109.7 -101.3 L109.75 -101.75 Q109.85 -107.05 109.55 -112.35 L150.25 -108.65 150.7 -101.75 150.75 -100.7 150.8 -98.15 137.7 -99 137 -98.8 Q136.65 -98.5 136.65 -98.1 L136.6 -97.65 M-58.5 -276.8 Q-48.2 -277.8 -39 -275.05 L-38.55 -274.15 Q-38.15 -271.65 -39.25 -268.3 L-39.25 -268.25 Q-39.35 -267.8 -39.75 -267.3 L-42.3 -267.4 -42.35 -267.6 -42.85 -269 -42.9 -269.1 -43.2 -269.9 -43.2 -269.95 Q-43.6 -270.85 -44.35 -270.85 L-44.4 -270.85 -47.2 -271.1 Q-48.1 -271.2 -48.65 -270.25 L-49.5 -269.2 -49.6 -269.05 -50.05 -268.5 Q-50.8 -267.95 -52.05 -267.95 L-58.85 -268.45 Q-59.45 -268.75 -59.7 -271.8 L-59.7 -271.85 -59.55 -276.25 -59.05 -276.55 -58.8 -276.7 -58.5 -276.8 M-42.55 -264.6 L-42.3 -264.45 -41.95 -264.3 -41.7 -263.9 -41.95 -262.6 -42.2 -261.75 -42.3 -261.3 -42.9 -259.65 -43.2 -258.9 -43.7 -258.35 Q-44.1 -258.05 -45 -257.65 L-46.95 -257.15 -47.5 -257.1 -47.95 -257.1 -48.9 -257.1 -49.45 -257.15 -51 -257.6 -52.5 -258.4 -53.8 -259.45 -54.35 -261.05 -54.55 -261.75 -54.8 -262.65 -54.85 -263 -54.85 -263.1 -54.85 -263.2 -54.9 -263.3 -54.85 -263.75 -54.6 -264.35 Q-54.5 -264.65 -53.55 -264.8 L-53.25 -264.8 -52.1 -264.9 -50.25 -265.2 -48.4 -265.7 -48.3 -265.8 -48 -266.25 -47.6 -266.85 -47.2 -267.45 -46.9 -267.9 -46.8 -268 -46.6 -268.05 -44.8 -267.85 -44.75 -267.55 -44.5 -266.85 -44.3 -266.15 -44.1 -265.55 -44 -265.1 -43.9 -265 -43.25 -264.8 -42.55 -264.6 M-39.65 -248.85 Q-37.3 -248.3 -35.1 -247.2 -35.3 -244.2 -34.9 -239.9 L-34.1 -235.85 -34.15 -235.85 -34.2 -235.85 Q-41.95 -236.4 -49.2 -233.3 L-52.9 -231.6 -59.6 -228.35 -65.5 -225.4 -67.95 -224.1 -73.25 -232.7 -68.45 -229.75 Q-68.15 -235.25 -68.5 -237.85 L-69.2 -243.25 Q-69.55 -246.1 -71.2 -250.8 L-65.2 -251.7 -64.65 -250.95 -62.6 -248.8 -60.65 -247.25 Q-58.45 -245.65 -55.85 -244.6 -52.25 -243.2 -48.4 -243.2 -44.3 -243.25 -41.25 -245.75 L-39.65 -248.85 M-33.95 -229.3 L52 -216.95 53.45 -215.95 42.85 -208.5 -4.4 -215 -7.3 -214.35 Q-9.35 -213.5 -10.85 -211.55 -8.65 -204.15 -7.95 -199.05 L-7.3 -193.75 -7 -190.1 -6.9 -182.95 -6.9 -182.45 -6.95 -182.45 -27.55 -185.05 -27.8 -185.05 -28.3 -190.8 -28.35 -191.4 -28.9 -195.75 -29.45 -199.05 -30.6 -204.8 -31.1 -206.85 Q-33.9 -217.8 -37.4 -226.35 L-37.3 -227.65 Q-36.75 -229.5 -33.95 -229.3 M-22.8 -205.75 L-22.8 -205.6 Q-22.75 -204.45 -21.95 -203.65 -21.2 -202.85 -20.1 -202.9 L-19.75 -202.9 Q-18.9 -203.05 -18.3 -203.75 -17.55 -204.6 -17.6 -205.85 -17.65 -207 -18.4 -207.85 L-18.65 -208.1 Q-19.35 -208.7 -20.25 -208.7 -21.15 -208.7 -21.8 -208.05 L-22.05 -207.75 Q-22.8 -206.9 -22.8 -205.75 M-26.3 -222.75 Q-27.05 -221.9 -27 -220.7 -26.95 -219.45 -26.15 -218.65 -25.4 -217.85 -24.35 -217.85 L-23.55 -218 -22.5 -218.75 Q-21.85 -219.5 -21.8 -220.55 L-21.8 -220.8 Q-21.85 -222 -22.65 -222.85 -23.4 -223.7 -24.45 -223.65 -25.55 -223.65 -26.3 -222.75 M-29.5 -179.4 L89.65 -164.95 89.85 -160.05 82.7 -160.25 Q79.95 -160.35 78.2 -158 L74.4 -153.35 22.25 -158.7 22.15 -158.75 21.75 -159.2 21.55 -159.4 18.1 -162.45 15.1 -164.6 9.15 -167.95 8.9 -168.05 Q2.85 -170.65 -7.2 -172.2 L-12.05 -172.85 -12.1 -172.85 -20.45 -173.7 -20.6 -173.7 -20.65 -173.7 -24.9 -174 -29.6 -174.3 -29.5 -179.4 M0.85 -209.05 L36.75 -204.2 29.4 -199.15 Q27.9 -197.2 22.4 -178.95 L2 -181.35 2.55 -182.4 Q5.7 -188.7 5.3 -196.25 4.9 -202.45 0.2 -208.8 L0.85 -209.05 M-18.2 -192.25 Q-18.85 -192.25 -19.35 -191.9 L-20 -191.35 Q-20.75 -190.5 -20.7 -189.3 L-20.4 -188 -19.85 -187.25 -19.65 -187.05 -19.3 -186.8 Q-18.75 -186.45 -18.05 -186.45 -16.95 -186.5 -16.2 -187.35 -15.5 -188.2 -15.55 -189.4 -15.55 -190.6 -16.3 -191.45 -17.1 -192.3 -18.2 -192.25 M44.25 -176.6 L44.5 -177.45 60.6 -185.9 60.75 -182.65 60.45 -178.9 60.45 -178.8 60.05 -176.65 60.05 -176.7 59.65 -175.45 59.6 -175.25 59.5 -174.85 59.3 -174.25 59.3 -174.15 44.2 -176.1 44.25 -176.6 M72.95 -191.4 Q74.55 -187.45 75.65 -183.1 L76.35 -180.2 76.65 -178.45 77.3 -174 77.5 -171.85 64.85 -173.45 65.25 -174.7 65.6 -175.95 66.05 -178.5 66.1 -178.8 66.3 -182.95 65.75 -188.65 72.6 -192.25 72.95 -191.4 M-104.55 -139.35 Q-84.95 -152.9 -66.8 -161.1 -59.4 -164.45 -52.25 -166.9 L-44.95 -169.2 -38.5 -168.7 -31.4 -168.2 -21.1 -167.55 -20.5 -167.5 -18.25 -167.35 -7.3 -166.1 Q-0.35 -165.05 4.95 -163.2 L8.2 -161.95 Q9.75 -161.05 11.2 -159.95 L15.35 -156.55 18.6 -153.15 20.95 -150.05 20.95 -150 Q23.65 -146.15 25.6 -141.95 L26.65 -139.35 28.1 -135 -30.65 -140.1 Q-34.7 -153.85 -42.75 -159.9 -45.3 -161.75 -48.15 -162.9 L-55.9 -160.65 Q-73.55 -154.75 -102.25 -139.35 L-111.85 -134.1 -104.55 -139.35 M-105.6 -79.35 L-121.6 -68.55 -132.7 -61 -134.5 -63.5 Q-137.35 -67.1 -140.55 -68.95 L-107.35 -92.3 Q-107.2 -83.7 -105.6 -79.35 M-99 -98.15 L-94.3 -101.5 -94.3 -96.1 -94 -92.7 -84.55 -92.4 Q-84 -88.85 -83 -85.65 L-92.8 -85.95 -91.7 -82.25 -81.65 -82 Q-80.65 -79.65 -79.35 -77.45 -75.6 -71.2 -70.65 -68.55 L-69 -67.8 Q-76.8 -66.1 -81.5 -68.4 -74.25 -63.1 -64.65 -66.75 L-64.6 -66.75 -62.85 -67.75 -61.55 -68.55 -61.45 -68.7 Q-57.85 -71.35 -54.6 -75.9 -47.05 -86.65 -46.15 -101.75 L-46.15 -101.9 -46.15 -101.95 -46.05 -105.3 Q-46.05 -107.4 -46.2 -109.4 -47 -119.95 -51.8 -128.05 L-53.3 -130.3 -47.15 -134.65 -46.4 -133.4 Q-40.1 -123.1 -39.35 -109.4 -39.25 -107.3 -39.3 -105.05 L-39.35 -101.75 Q-39.95 -90.65 -43.55 -81.5 -45.1 -77.6 -47.2 -74 L-48.8 -71.55 -49.8 -70.1 -50.95 -68.55 Q-59.9 -57.05 -71.35 -56.9 L-71.55 -56.9 Q-82.85 -56.95 -90.5 -68 L-90.9 -68.55 -91.9 -70.1 Q-97.7 -79.65 -98.75 -92.1 L-99 -95.65 -99 -98.15 M-145.05 -62.15 L-144.9 -61.95 Q-143.45 -60.35 -142.1 -58.2 -136.95 -49.75 -137.55 -37.75 -137.95 -30.6 -140.25 -24.7 -141.3 -22.15 -142.65 -19.85 L-143.65 -18.25 -144.3 -17.3 Q-150.35 -8.9 -158.2 -8.85 L-158.3 -8.85 Q-165.65 -8.85 -170.6 -15.95 L-171.45 -17.3 Q-175.2 -23.5 -175.9 -31.5 L-176 -33.8 -175.95 -37.75 Q-175.8 -41.35 -175.1 -44.6 L-175.1 -44.65 -171.4 -47.25 Q-172.8 -43 -173.05 -37.95 L-173.05 -34.15 -172.9 -31.95 -166.75 -31.75 Q-166.4 -29.45 -165.7 -27.35 L-172.1 -27.55 -171.35 -25.2 -164.8 -25 -163.35 -22.05 Q-160.5 -17.3 -156.6 -15.75 -161.7 -14.65 -164.75 -16.15 -160.05 -12.7 -153.75 -15.05 L-152.6 -15.7 -151.7 -16.3 Q-149.35 -18.05 -147.25 -21 -142.3 -28 -141.75 -37.95 -141.25 -47.9 -145.4 -54.95 -148.15 -59.45 -151.75 -61.05 L-147.4 -64.15 -145.05 -62.15 M-86.35 -49.4 L-85.25 -49.45 Q-80.95 -49.45 -77.95 -46.1 L-77.8 -46 -75.9 -43.2 Q-72.75 -37.5 -73.25 -29.65 L-73.35 -28.1 Q-73.95 -22.8 -75.9 -18.45 L-77.85 -14.85 -78.65 -13.65 -79.2 -13 -79.8 -12.25 Q-84.35 -6.75 -89.8 -6.7 L-89.9 -6.7 Q-95.3 -6.75 -98.65 -12 L-98.85 -12.25 -99.25 -13 Q-101.8 -17.55 -101.95 -23.45 L-102 -25.2 -101.75 -28.1 -101.55 -29.65 -100.85 -33.15 Q-99.4 -38.85 -95.95 -43.2 -92.75 -47.4 -89 -48.75 L-86.35 -49.4 M-84.75 -43.45 L-85.95 -43.65 -86.65 -43.75 Q-90.85 -43.75 -94.3 -39.15 -95.5 -37.65 -96.3 -35.85 -97.7 -33.05 -98.25 -29.6 L-98.4 -28.2 -98.55 -25.75 -98.55 -24.3 -94.55 -24.2 -94.05 -21.35 -98.15 -21.45 -97.8 -19.95 -93.6 -19.85 -92.75 -17.9 Q-91.3 -15.25 -89.2 -14.15 L-88.6 -13.9 -89.25 -13.75 Q-92.1 -13.25 -93.85 -14.1 -90.9 -11.9 -86.8 -13.4 L-86 -13.85 -85.45 -14.15 -85.4 -14.2 Q-83.85 -15.35 -82.35 -17.25 -78.9 -21.8 -78.15 -28.2 L-78.1 -29.6 Q-77.8 -35.15 -80 -39.15 -81.9 -42.65 -84.75 -43.45 M-112.4 -62.6 L-112.25 -62.7 -111.05 -60.8 -110.3 -59.9 Q-109.6 -59.15 -108.75 -58.55 L-119.85 -53.1 -120.6 -57.7 -112.45 -62.7 -112.4 -62.6 M-126.6 -32.95 L-128.2 -30.25 Q-129.3 -27.95 -129.65 -25.15 L-129.75 -24 -129.85 -21.95 -129.8 -20.8 -126.5 -20.7 -126.1 -18.4 -129.45 -18.5 -129.1 -17.25 -125.7 -17.15 -124.95 -15.6 Q-123.7 -13.45 -122 -12.5 L-121.5 -12.3 -122.05 -12.15 Q-124.35 -11.8 -125.75 -12.5 -123.35 -10.7 -120 -11.95 L-119.4 -12.25 -118.95 -12.5 -118.9 -12.55 Q-117.65 -13.5 -116.5 -15.05 -113.75 -18.75 -113.25 -24 L-113.2 -25.15 Q-113.05 -29.65 -114.9 -32.95 -116.55 -35.8 -118.9 -36.45 L-119.85 -36.6 -120.4 -36.65 Q-123.85 -36.65 -126.6 -32.95 M-132.35 -25.2 L-131.85 -28.05 Q-130.7 -32.65 -128 -36.25 -125.45 -39.7 -122.4 -40.8 L-120.25 -41.25 -119.4 -41.3 Q-115.9 -41.35 -113.4 -38.6 L-113.25 -38.5 Q-112.4 -37.55 -111.65 -36.25 -109 -31.6 -109.25 -25.2 L-109.35 -23.9 Q-109.75 -19.6 -111.25 -16.05 L-112.75 -13.1 -113.4 -12.15 -113.8 -11.6 -114.3 -10.95 Q-117.9 -6.5 -122.35 -6.45 L-122.4 -6.45 Q-126.85 -6.45 -129.7 -10.75 L-129.85 -10.95 -130.2 -11.6 Q-132.3 -15.3 -132.55 -20.15 L-132.6 -21.5 -132.5 -23.9 -132.35 -25.2 M94.5 -135 Q101.75 -125.85 100.35 -110.95 L24.5 -117.9 24.4 -122.5 34.1 -131.85 34.65 -132.85 34.7 -133.05 34.7 -133.3 34.7 -133.55 34.65 -133.8 33.15 -139.35 32.55 -141.15 Q30.4 -146.9 27.1 -151.9 L74 -147.3 Q77.5 -146.35 80.65 -145 89.1 -141.35 94.45 -135 L94.5 -135 M94.05 -119.55 L94.1 -119.55 Q93.25 -120.45 92.05 -120.45 90.85 -120.45 90 -119.55 89.1 -118.75 89.1 -117.55 89.1 -116.3 90 -115.45 L90 -115.5 Q90.85 -114.65 92.05 -114.6 93.25 -114.65 94.05 -115.45 L94.1 -115.5 Q94.9 -116.35 94.95 -117.55 94.9 -118.75 94.05 -119.55 M20.3 -121.35 L20.3 -106.7 6.3 -107.65 5.45 -107.35 Q5.05 -107.05 5.05 -106.55 L4.75 -101.9 4.75 -101.75 Q4.75 -101.4 5.05 -101.05 5.35 -100.7 5.85 -100.65 L20.05 -99.75 Q19.6 -89 17.85 -78.4 L17.7 -78.4 3.85 -79.2 3.05 -79 Q2.7 -78.75 2.65 -78.3 L1.75 -73.7 Q1.65 -73.4 1.8 -73.1 L2.2 -72.55 Q2.45 -72.35 2.8 -72.3 L16.6 -71.5 15.8 -67.95 Q13.9 -58.95 10.6 -50.3 L10.25 -50.35 -4.2 -51.1 -4.9 -50.9 -5.35 -50.35 -7.35 -45.85 -7.35 -45.1 -7 -44.45 -6.3 -44.25 7.85 -43.5 7.45 -42.75 2.7 -33.45 Q-0.05 -28.55 -3.45 -24.1 L-4.15 -24.3 -19.05 -24.55 -19.55 -24.45 -19.95 -24.1 -23.6 -19.55 Q-23.95 -19.2 -23.9 -18.75 -23.9 -18.35 -23.55 -18 -23.25 -17.7 -22.75 -17.65 L-9.35 -17.5 Q-12.35 -14.55 -15.65 -12.05 -20.4 -8.6 -25.6 -6.1 L-75.5 -6.1 Q-62.9 -15 -53.7 -28.6 -42.5 -45.3 -36.65 -64.2 L-35.35 -68.55 Q-30.85 -84.8 -29.6 -101.75 L-29.55 -102.9 -29.15 -109.4 -28.8 -124.5 20.3 -121.35 M56.4 -123.4 L56.45 -123.4 Q55.6 -124.3 54.4 -124.3 53.2 -124.3 52.35 -123.4 51.45 -122.6 51.45 -121.4 51.45 -120.15 52.35 -119.3 L52.35 -119.35 Q53.2 -118.5 54.4 -118.5 55.6 -118.5 56.4 -119.3 L56.45 -119.35 Q57.25 -120.2 57.3 -121.4 57.25 -122.6 56.4 -123.4 M32.55 -125.45 Q31.7 -124.6 31.7 -123.4 31.7 -122.2 32.55 -121.35 L32.55 -121.4 Q33.4 -120.55 34.55 -120.55 35.8 -120.55 36.65 -121.35 L36.65 -121.4 Q37.45 -122.2 37.5 -123.4 37.5 -124.6 36.65 -125.45 35.8 -126.35 34.55 -126.35 33.4 -126.35 32.55 -125.45"/>
</svg>
