<?xml version="1.0" encoding="UTF-8"?>
<svg version="1.1" viewBox="0 0 400 400" xmlns="http://www.w3.org/2000/svg">
<!-- Converted to SVG from FLA files from http://www.newgrounds.com/downloads/designassets/ -->
<path fill="#000000" d="m0 0h400v400h-400v-400"/>
<path fill="#ffb50e" d="m323.5 12h64.5v47.2l-123.05 277.75h-32.05l90.6-324.95m64.5 175.2v90.8l-63.75 58.95-28.4 0.05 92.15-149.8m-138.15-175.2l-41.05 325h-16.15l-41.05-325h98.25m-237.85 44.1v-44.1h65.9l90.65 324.95h-32.05l-124.5-280.85m0 128.9l93.55 152-28.35-0.05-65.2-60.2v-91.75"/>
<path fill="#fff17a" d="m12 185v-128.9l124.5 280.85-30.95 0.05-93.55-152m311.5-173l-90.6 324.95-24.1 0.05 41.05-325h73.65m-58.55 324.95l123.05-277.75v128l-92.15 149.8-30.9-0.05m-96.4 0l-90.65-324.95h73.7l41.05 325-24.1-0.05"/>
<path fill="#000000" d="m361.95 260.6v22.95l7.45-0.35-0.85-12.4 10.85-4.7 0.75 0.3 1.2 9.8 6.65-0.45v95.7h-376v-98.2l11.2-2q0.05 5.45 0.45 17.35l6.55-0.25-2.05-10.3 10.55-1.7 4 22.3 3.35-0.5 267.05-1.6v-36.25h27.5l0.3 7.9 6.5 1.85 3.95-13.65-0.2 0.85 10.8 3.35"/>
<path fill="#000000" d="m331.2 49.45l0.25-0.15q6.45-3.7 14.6-3.35 11.2 0.5 18.95 8.75l0.1 0.05 0.05 0.05 0.05 0.05q1.55 1.65 2.8 3.6l0.2 0.25 0.15 0.15h-0.05q4.5 6.9 4.3 15.6-0.25 7.95-4.45 14.2l-0.1 0.1q-1.75 2.45-4.1 4.7-4.35 3.9-9.35 5.7h-0.15l-31.75 13.6-0.05 0.05-0.1 0.05q-0.3 0.05-0.6 0.25l-0.05 0.05q-3.45 1.3-7.35 1.5l-3.25-0.1-0.2-0.05q-8.9 4.7-17.7 9.5l-15.35 8.2-4.75 2.45-0.05 0.05 2.55 7.7q1.4 4.55 2.15 9.15l0.55 4.55 8.35 1.05h-0.05 0.05q1.35 0.15 2.3 1.2h0.05l0.05 0.05 0.4 0.5 0.35 0.65 0.25 1.1v0.15l0.45 7.3 16.1 1q14 1.25 23.75 3.5l0.3 0.05 0.1 0.05q6 1.85 11.2 6.05l3.65 3.35q3.45 3.55 6.45 8.35l1.25 2 1.7 3 1.55 3.2 0.05 0.05 0.9 2.15 1 2.3h0.05q0.75 1.6 1.15 3.35v0.05l0.05 1v0.05q-0.2 1.55-1.55 2.55v0.05l-10.2 7.25 0.15 5.8q0.25 15.05-2.55 29.95-1.2 6.45-3.05 12.7-3.4 11.2-8.95 21.6-8.9 16.8-24.1 28.2-3.1 2.35-6.35 4.1l-0.85 0.2h-248.45l-4.25 0.1h-0.1-0.15l-0.4-0.05h-0.05-0.05l-2.45-0.2q-8.45-1.35-14.6-11v-0.1q-6.6-10.3-6.6-24.6 0-14.4 6.6-24.25l0.1-0.15 2.95-4.1q-0.4-9.3 1.55-17.05 6.5-7.3 14.65-15.35 12.1-12.1 27.75-25.9l0.15-9.85 0.5-13.1 0.9-13.3q0.7-9.05 1.85-17.6 0.15-1.55 1.35-2.45l3.9-3.1 5.4-4.1q5.85-4.5 11.7-8.65l4.9-3.4q4.55-3.2 9.15-6.15v-0.05l0.05 0.05q0.05-0.1 0.15-0.1-2.55-3.1-3.45-6.75-0.6-2.35-0.55-4.9l1.5-10 0.45-1.75 1.5-5.2 3.25-8.3 0.1-0.05q1.7-0.9 3.6-1.45l3.8-1.05 5.35-1.5h0.1q-0.55-0.85-0.55-1.85-1.75-0.35-2.95-1.7l-0.05-0.05-0.3-0.6-0.3-3.65q-0.05-2.05 0.35-5.7v-0.05q0.95-1.4 2.65-2l0.3-0.1v-0.05q0.4-4.6 4.1-7.9 4.2-3.85 10.2-3.85 6.1 0 10.3 3.85 2.7 2.45 3.65 5.15 1.5 0.65 2.5 1.35-0.05 2.85-0.55 5.6l1.05 1.5q-0.25 3.35-0.85 6.5l-0.55 2.45-3.65 1.4-0.8 2.4 0.15 0.1v-0.05l0.5 0.15q1.2 0.45 2.25 1.15l0.1 0.05 4.35 2.6 1.5 0.95 1.4 0.95q2.65 4.5 3.9 7.4l2.4 6.3 0.05 0.05 0.05 0.1 73.85 11q0.8 0.1 1.55 0.55l3.35 2.4 0.05-0.05 37.8-26.6 0.1-0.25-0.05 0.05 0.75-1.85q0.75-1.75 2-3.4 1.8-2.45 4.25-4.35l1.3-1v-0.05l0.2-0.1q2.3-1.95 4.75-3.8l15.95-12.85 0.2-0.2 4.5-3.65 0.15-0.15 0.55-0.4h-0.05q1.95-1.7 4.15-2.9m-139.15 66.7q1.25-0.55 2.75-0.65l44.95 6.2 10.05-7.1-1.35-0.95-81.75-11.75q-2.7-0.2-3.2 1.6-0.2 0.5-0.15 1.2 3.35 8.15 6 18.55l0.5 1.95 1.1 5.45 0.5 3.2 0.55 4.1 0.05 0.6 0.45 5.45h0.25l19.6 2.5h0.05v-0.5l-0.1-6.8-0.25-3.45-0.65-5.05q-0.7-4.85-2.75-11.9 1.45-1.85 3.4-2.65m34.9 14.45l6.95-4.8-34.1-4.6h-0.05l-0.6 0.2q4.45 6.05 4.85 11.95 0.4 7.15-2.6 13.2l-0.55 1 19.45 2.25q5.2-17.35 6.65-19.2m-60.5-34.9h0.1l-0.8-3.9q-0.35-4.05-0.2-6.9-2.05-1.1-4.3-1.6l-1.5 2.95q-2.95 2.4-6.8 2.4-3.7 0.05-7.15-1.3-2.45-1-4.55-2.55l-1.85-1.45-1.95-2.05-0.55-0.7-5.65 0.85q1.55 4.45 1.9 7.15l0.65 5.15q0.3 2.45 0.05 7.75l-4.55-2.85 5.05 8.2 2.3-1.25 5.6-2.8 6.4-3.1q1.7-0.85 3.5-1.6 6.9-2.95 14.3-2.45v0.05m127.1-2.6q-0.1-1.5 0.05-2.9l-60.5 41.95-0.1 0.05q-0.9 0.55-1.65 1.4-1.45 1.65-1.8 3.75l-0.1 0.6v1.45q0.1 1.3 0.5 2.45l0.2 0.45 66.05-40.2v-0.05q-1.3-2.2-1.95-4.65-0.55-2.05-0.7-4.3m48.9 133.55l-0.05-2.4-0.05-1-0.45-6.55-38.7-3.55q0.3 5.05 0.15 10.1v0.45q-0.55 15.25-4.1 30.15l-0.6 2.5q-3.05 12.3-8.5 23.7l-1.05 2.25q-5.4 11.05-13.3 20.4l-5.85 6.35-5.8 5.2h37.75q6.25-4.05 11.5-9.05l-12.7-0.2-0.7-0.25q-0.3-0.3-0.3-0.7-0.05-0.4 0.25-0.7l1.05-1.2h0.05l0.05-0.1 2.45-3.05 0.35-0.25 0.45-0.1 14.1 0.2 0.6 0.25q3.55-4.35 6.55-9.25l3.15-5.45 0.7-1.4-13.7-0.65-0.6-0.25-0.35-0.55 0.1-0.65 1.3-2.7 0.15-0.3 0.05-0.05 0.15-0.35v-0.05l0.4-0.85q0.1-0.3 0.35-0.45l0.6-0.1 14.25 0.65 0.3 0.05q3.75-8.55 6.1-17.65l-13.75-0.8-0.55-0.2-0.35-0.5v-0.55l0.85-3.35 0.05-0.05 0.2-1 0.4-0.5 0.65-0.2 13.85 0.75 0.15 0.05q1.9-9.75 2.3-19.65l-12.8-0.85q-0.45 0-0.7-0.3-0.3-0.35-0.25-0.75l0.3-4v-0.05l0.05-0.4q0.05-0.4 0.35-0.65t0.7-0.2l12.45 0.75m-5.45-44.55q-3.65-2.6-7.75-3.9-15.3-3.45-41.4-4.6l-0.7-0.05h-0.2-0.1-0.55l0.55 0.2 0.8 0.35q7.15 3.2 11.9 8 6.9 7 8.5 17.3l44.9 4.3q-2.45-5.3-5.55-10.2-4.65-7.3-10.4-11.4m26.65-120.3l-2.55-3.2q-6.25-6.7-15.35-7.15-7.4-0.35-13.35 3.4l-4.85 3.6q-10.65 8.4-20.35 16.8l-6 5.1-0.35 0.4q-1.65 1.85-2.65 3.9l-0.9 2.45v0.05 0.05h-0.05v0.05l-0.05 0.05-0.5 2.55q-0.15 1.45-0.05 3.05v0.05q0.1 1.6 0.45 3.1l24.15-16.55q-0.35-4 1.95-8.35l0.05 2.7q0.1 2.2 0.6 4.6 0.8 3.2 2.65 6.05l2.6 3.4 3 2.75 0.45 0.3 0.75 0.55 0.15 0.05q4.8 3.2 11.05 3.5 4.2 0.2 7.95-1l0.05-0.05 0.1-0.05q4.15-1.45 7.6-4.6 6.6-6.1 6.9-15.05 0.2-6.95-3.45-12.5m-5.65-2.1l-0.65-0.3q-2.95-1.2-4.4-1l-19.9 18.4q0.85 2.95 3 5.35l26.9-15.55q1.4 1.6 1.45 5.25l-0.05 0.5-25.7 12.15q1.5 1.05 3.25 1.7l20.8-6.1q-0.55 2.4-4 5.6-5.35 4.95-12.75 4.6-4.2-0.2-7.6-2-2.25-1.2-4.1-3.05h-0.05l-0.7-0.7v-0.05l-1.95-2.5-0.1-0.1-0.05-0.05q-1.5-2.35-2.2-5-0.6-2.4-0.5-5.05 0.2-7.35 5.6-12.3 5.35-4.95 12.75-4.6 2.6 0.1 4.9 0.85l1.15 0.45q3.15 1.45 4.9 3.5m-179.8 50.5q-0.05 1-0.65 1.75l-1 0.7-0.75 0.15q-1 0-1.75-0.75-0.75-0.8-0.75-1.95-0.05-1.15 0.65-1.95 0.7-0.85 1.75-0.85 1-0.05 1.75 0.75 0.7 0.8 0.75 1.95v0.2m1.5 11.3q0.85 0 1.55 0.6v-0.05l0.2 0.25q0.75 0.8 0.8 1.95 0 1.15-0.7 1.95l-1.35 0.8-0.35 0.05q-1.05 0-1.8-0.75-0.7-0.8-0.75-1.85v-0.15q-0.05-1.1 0.7-1.9l0.2-0.25q0.65-0.6 1.5-0.65m1.95 15.65q1.05-0.05 1.8 0.75 0.7 0.8 0.75 2 0 1.1-0.65 1.9-0.75 0.8-1.75 0.85l-1.2-0.3-0.35-0.25-0.2-0.2-0.5-0.7-0.3-1.25q-0.05-1.15 0.7-1.95l0.6-0.5q0.5-0.35 1.1-0.35m-38.35-80.45l-0.25 0.1-0.3 0.15-0.45 0.3q-0.3 2.3-0.15 4.2 0.25 2.95 0.85 3.2l6.45 0.5q1.2-0.05 1.9-0.55l0.4-0.55 0.15-0.1 0.75-1q0.55-0.9 1.4-0.8l2.7 0.25q0.75 0 1.1 0.85l0.3 0.8 0.05 0.1 0.5 1.35v0.15l2.45 0.1 0.5-0.9v-0.05q1-3.2 0.65-5.55l-0.45-0.85q-8.75-2.65-18.55-1.7m118.25 83.85q0.45 2.8 0.5 5.45l-0.2 3.95-0.05 0.3-0.45 2.4-0.3 1.2-0.4 1.2 12.05 1.5-0.2-2.05-0.6-4.2v-0.05l-0.3-1.6-0.65-2.8q-1.05-4.15-2.6-7.9l-0.3-0.8-6.5 3.4m-29.6 52.25v0.2 0.25 0.25l-0.05 0.2-0.5 0.95-9.2 8.9 0.1 4.35 72.15 6.6q1.3-14.15-5.6-22.85v-0.05q-5.1-6.05-13.15-9.5-3-1.25-6.35-2.2l-44.6-4.35q3.15 4.75 5.15 10.2l0.6 1.75 1.45 5.3m9.35-41.55l-0.25 0.8v0.45l14.3 1.9 0.05-0.15 0.15-0.55 0.1-0.35 0.1-0.2 0.35-1.2v0.05l0.4-2.05v-0.1l0.25-3.55-0.15-3.1-15.3 8.05m-61.85 9.45l-0.55-0.05-9.8-0.65-6.75-0.45-6.15-0.45-6.95 2.15q-6.8 2.35-13.85 5.55-17.25 7.8-35.9 20.7l-6.95 4.95 9.1-4.95q27.35-14.65 44.1-20.25 4-1.35 7.4-2.15 2.75 1.05 5.15 2.85 7.65 5.75 11.5 18.8l55.9 4.9-1.35-4.15-1.05-2.5q-1.85-4-4.4-7.65v-0.05l-2.25-2.95-3.05-3.25-4-3.25-2.85-1.9-3.05-1.15q-5.05-1.75-11.65-2.8l-10.45-1.15-2.15-0.15m8.05-5.1l4.6 0.6q9.55 1.5 15.35 4l0.25 0.05q3 1.45 5.65 3.2l2.85 2.05 3.3 2.9 0.15 0.2 0.4 0.45 0.05 0.05h0.05l49.6 5.1 3.65-4.45q1.65-2.25 4.25-2.15l6.8 0.2-0.2-4.65-113.35-13.75-0.1 4.85 4.45 0.25 4.05 0.3h0.05 0.15l7.95 0.8h0.05m-38.1-87.6l-1.1 0.15h-0.25q-0.95 0.1-1.05 0.4l-0.2 0.6q-0.1 0.2-0.05 0.4v0.1 0.1l0.05 0.1 0.05 0.3 0.2 0.9 0.2 0.65 0.55 1.5 1.25 1.05 1.4 0.75 1.5 0.4 0.5 0.05h0.9 0.45l0.5-0.05 1.85-0.45 1.25-0.65 0.45-0.55 0.3-0.75 0.55-1.55 0.15-0.4 0.2-0.85 0.25-1.2-0.25-0.4-0.35-0.15-0.25-0.15-0.6-0.15-0.65-0.2-0.1-0.1-0.1-0.4-0.2-0.6-0.15-0.7-0.25-0.65-0.05-0.25-1.7-0.2h-0.2l-0.1 0.15-0.3 0.4-0.4 0.6-0.35 0.55-0.3 0.45-0.05 0.05-1.8 0.5-1.75 0.25m4.7 123.95l-5.85 4.15 1.4 2.15q4.6 7.65 5.35 17.75l0.15 3.9-0.1 3.2v0.15q-0.85 14.4-8.05 24.6-3.05 4.35-6.5 6.85l-0.1 0.15-1.25 0.75-1.65 0.95h-0.05q-9.15 3.5-16.05-1.55 4.5 2.15 11.95 0.55l-1.6-0.7q-4.7-2.5-8.3-8.5-1.25-2.05-2.15-4.3l-9.55-0.25-1.1-3.5 9.35 0.3q-0.95-3.1-1.45-6.45l-9.05-0.25-0.25-3.25q-0.15-2.5 0-5.15l-4.5 3.15 0.05 2.4 0.2 3.4q1 11.85 6.55 20.95l0.9 1.45 0.4 0.55q7.3 10.5 18.05 10.5h0.15q10.9-0.1 19.45-11.05l1.1-1.45 0.9-1.4 1.55-2.35q1.95-3.4 3.45-7.15 3.45-8.7 4-19.25l0.1-3.15-0.1-4.1q-0.7-13.05-6.7-22.85l-0.7-1.2m-69.55 88.85l-2.05 0.45q-2.9 1.05-5.35 4.35-2.55 3.4-3.6 7.8l-0.5 2.7-0.15 1.2-0.1 2.3 0.05 1.3q0.2 4.6 2.25 8.15l0.35 0.6 0.15 0.2q2.7 4.05 6.9 4.05h0.05q4.25-0.05 7.7-4.25l0.45-0.6 0.35-0.55 0.65-0.9 1.45-2.8q1.4-3.4 1.8-7.5l0.1-1.2q0.25-6.1-2.3-10.5l-1.55-2.15-0.1-0.1q-2.4-2.6-5.7-2.6l-0.85 0.05m7.6-20.4l-0.1 0.1-0.1-0.1-7.7 4.75 0.7 4.4 10.55-5.2-1.45-1.25-0.75-0.85-1.15-1.85m6.35-15.8q-1.5-4.15-1.7-12.35l-31.55 22.2q3.05 1.75 5.75 5.2l1.7 2.35 10.55-7.15q9.85-6.7 15.25-10.25m-12.65 40.8q2.25 0.65 3.8 3.35 1.75 3.1 1.6 7.4l-0.05 1.1q-0.45 4.95-3.05 8.5l-2.3 2.35-0.05 0.05-0.45 0.25-0.55 0.3q-3.2 1.2-5.5-0.5l3.55 0.3 0.55-0.15-0.5-0.2q-1.65-0.85-2.8-2.9l-0.7-1.5-3.3-0.1-0.3-1.2 3.2 0.1-0.4-2.2-3.15-0.1v-1.1q-0.05-0.95 0.05-1.9l0.1-1.1q0.35-2.65 1.4-4.85 0.6-1.4 1.5-2.55 2.65-3.55 5.9-3.55l0.55 0.05 0.9 0.15m30.95-12.3l-2.5 0.55q-3.55 1.3-6.65 5.3-3.25 4.15-4.65 9.55-0.4 1.6-0.65 3.35l-0.2 1.5-0.2 2.75v1.65q0.15 5.6 2.6 9.95l0.4 0.7 0.15 0.25q3.2 5 8.35 5.05h0.05q5.2-0.1 9.55-5.3l0.55-0.7 0.5-0.65 0.8-1.1 1.85-3.45q1.85-4.15 2.4-9.15l0.15-1.5q0.45-7.5-2.55-12.9l-1.8-2.65-0.15-0.1q-2.9-3.2-6.95-3.15l-1.05 0.05m1.55 5.6q2.7 0.8 4.5 4.1 2.1 3.85 1.8 9.1l-0.05 1.35q-0.7 6.05-4 10.4l-2.9 2.9-0.05 0.05-0.5 0.3-0.75 0.4q-3.95 1.45-6.7-0.65 1.65 0.8 4.35 0.35l0.65-0.15-0.6-0.25q-2-1.05-3.35-3.6l-0.85-1.8-4-0.1-0.35-1.45 3.9 0.1-0.45-2.7-3.8-0.1v-1.35q0-1.15 0.15-2.35l0.15-1.35q0.5-3.25 1.85-5.95 0.75-1.7 1.9-3.15 3.3-4.35 7.3-4.35l0.65 0.05 1.15 0.2m-85.95-1.15l-0.05 0.1q-0.65 3.1-0.8 6.5-0.1 1.9-0.05 3.75l0.1 2.2q0.65 7.6 4.25 13.5l0.8 1.3q4.75 6.75 11.7 6.75h0.1q7.5-0.05 13.25-8.05l0.6-0.9 0.95-1.5q1.3-2.2 2.25-4.6 2.2-5.65 2.6-12.45 0.6-11.4-4.35-19.45-1.25-2.05-2.65-3.55l-0.15-0.2-2.2-1.9-4.2 2.95q3.45 1.5 6.05 5.8 4 6.65 3.5 16.15-0.5 9.45-5.2 16.15-2 2.8-4.25 4.45l-0.9 0.55-1.05 0.65q-6 2.25-10.5-1.05 2.9 1.45 7.75 0.4-3.7-1.5-6.4-6l-1.4-2.8-6.2-0.2-0.75-2.25 6.1 0.2q-0.65-2-0.95-4.2l-5.9-0.15-0.15-2.15q-0.1-1.75 0.05-3.6 0.2-4.8 1.55-8.85l-3.5 2.45m94.75 36.7h47.45q4.95-2.35 9.45-5.65 3.15-2.35 6-5.15l-12.75-0.2q-0.45 0-0.75-0.3l-0.35-0.75q0-0.4 0.3-0.75l3.5-4.35 0.4-0.3 0.45-0.1 14.15 0.25 0.7 0.2q3.2-4.25 5.85-8.9l4.5-8.85 0.35-0.75-13.4-0.65q-0.4-0.05-0.7-0.25l-0.35-0.6 0.05-0.7 1.9-4.3 0.4-0.5 0.65-0.2 13.8 0.7 0.3 0.05q3.15-8.2 4.95-16.8l0.75-3.35-13.1-0.75-0.6-0.25-0.4-0.5-0.05-0.6 0.9-4.4q0.05-0.4 0.4-0.65 0.3-0.25 0.75-0.2l13.15 0.8h0.15q1.65-10.1 2.1-20.35l-13.55-0.85q-0.45-0.05-0.75-0.4l-0.25-0.65v-0.15l0.3-4.4q0-0.5 0.35-0.75 0.3-0.35 0.8-0.3l13.3 0.9v-13.95l-46.7-3q0 7.2-0.35 14.4l-0.35 6.15-0.05 1.1q-1.2 16.15-5.45 31.6l-1.25 4.15q-5.55 17.95-16.2 33.85-8.75 12.95-20.75 21.4m161.3-104.05q-0.8 0.8-1.9 0.8-1.15 0-1.95-0.8-0.85-0.8-0.85-1.95t0.85-1.95q0.8-0.8 1.95-0.8t1.95 0.8h-0.05q0.8 0.8 0.85 1.95 0 1.15-0.8 1.95h-0.05m-21.65-3.75q0-1.15 0.8-1.95t1.95-0.8 1.95 0.8 0.8 1.95-0.8 1.95-1.95 0.8-1.95-0.8-0.8-1.95m-14.15-3.8q0.8 0.8 0.8 1.9 0 1.15-0.8 1.95v0.05q-0.8 0.8-1.95 0.8-1.1-0.05-1.9-0.85v0.05q-0.85-0.85-0.85-2 0-1.1 0.85-1.9 0.8-0.85 1.9-0.85 1.15 0 1.95 0.85m-18.85 1.9v0.05q-0.8 0.8-1.95 0.8-1.15-0.05-1.9-0.85v0.05q-0.85-0.8-0.85-1.95t0.85-1.95q0.75-0.85 1.9-0.85t1.95 0.85q0.8 0.8 0.85 1.95-0.05 1.1-0.85 1.9"/>
<path fill="#ffffff" d="m233.8 204.55q0.8-0.8 0.85-1.9-0.05-1.15-0.85-1.95-0.8-0.85-1.95-0.85t-1.9 0.85q-0.85 0.8-0.85 1.95t0.85 1.95v-0.05q0.75 0.8 1.9 0.85 1.15 0 1.95-0.8v-0.05m124.2-144.85q-1.75-2.05-4.9-3.5l-1.15-0.45q-2.3-0.75-4.9-0.85-7.4-0.35-12.75 4.6-5.4 4.95-5.6 12.3-0.1 2.65 0.5 5.05 0.7 2.65 2.2 5l0.05 0.05 0.1 0.1 1.95 2.5v0.05l0.7 0.7h0.05q1.85 1.85 4.1 3.05 3.4 1.8 7.6 2 7.4 0.35 12.75-4.6 3.45-3.2 4-5.6l-20.8 6.1q-1.75-0.65-3.25-1.7l25.7-12.15 0.05-0.5q-0.05-3.65-1.45-5.25l-26.9 15.55q-2.15-2.4-3-5.35l19.9-18.4q1.45-0.2 4.4 1l0.65 0.3m5.65 2.1q3.65 5.55 3.45 12.5-0.3 8.95-6.9 15.05-3.45 3.15-7.6 4.6l-0.1 0.05-0.05 0.05q-3.75 1.2-7.95 1-6.25-0.3-11.05-3.5l-0.15-0.05-0.75-0.55-0.45-0.3-3-2.75-2.6-3.4q-1.85-2.85-2.65-6.05-0.5-2.4-0.6-4.6l-0.05-2.7q-2.3 4.35-1.95 8.35l-24.15 16.55q-0.35-1.5-0.45-3.1v-0.05q-0.1-1.6 0.05-3.05l0.5-2.55 0.05-0.05v-0.05h0.05v-0.05-0.05l0.9-2.45q1-2.05 2.65-3.9l0.35-0.4 6-5.1q9.7-8.4 20.35-16.8l4.85-3.6q5.95-3.75 13.35-3.4 9.1 0.45 15.35 7.15l2.55 3.2m-26.65 120.3q5.75 4.1 10.4 11.4 3.1 4.9 5.55 10.2l-44.9-4.3q-1.6-10.3-8.5-17.3-4.75-4.8-11.9-8l-0.8-0.35-0.55-0.2h0.55 0.1 0.2l0.7 0.05q26.1 1.15 41.4 4.6 4.1 1.3 7.75 3.9m5.45 44.55l-12.45-0.75q-0.4-0.05-0.7 0.2t-0.35 0.65l-0.05 0.4v0.05l-0.3 4q-0.05 0.4 0.25 0.75 0.25 0.3 0.7 0.3l12.8 0.85q-0.4 9.9-2.3 19.65l-0.15-0.05-13.85-0.75-0.65 0.2-0.4 0.5-0.2 1-0.05 0.05-0.85 3.35v0.55l0.35 0.5 0.55 0.2 13.75 0.8q-2.35 9.1-6.1 17.65l-0.3-0.05-14.25-0.65-0.6 0.1q-0.25 0.15-0.35 0.45l-0.4 0.85v0.05l-0.15 0.35-0.05 0.05-0.15 0.3-1.3 2.7-0.1 0.65 0.35 0.55 0.6 0.25 13.7 0.65-0.7 1.4-3.15 5.45q-3 4.9-6.55 9.25l-0.6-0.25-14.1-0.2-0.45 0.1-0.35 0.25-2.45 3.05-0.05 0.1h-0.05l-1.05 1.2q-0.3 0.3-0.25 0.7 0 0.4 0.3 0.7l0.7 0.25 12.7 0.2q-5.25 5-11.5 9.05h-37.75l5.8-5.2 5.85-6.35q7.9-9.35 13.3-20.4l1.05-2.25q5.45-11.4 8.5-23.7l0.6-2.5q3.55-14.9 4.1-30.15v-0.45q0.15-5.05-0.15-10.1l38.7 3.55 0.45 6.55 0.05 1 0.05 2.4m-48.9-133.55q0.15 2.25 0.7 4.3 0.65 2.45 1.95 4.65v0.05l-66.05 40.2-0.2-0.45q-0.4-1.15-0.5-2.45v-1.45l0.1-0.6q0.35-2.1 1.8-3.75 0.75-0.85 1.65-1.4l0.1-0.05 60.5-41.95q-0.15 1.4-0.05 2.9m-127.1 2.6v-0.05q-7.4-0.5-14.3 2.45-1.8 0.75-3.5 1.6l-6.4 3.1-5.6 2.8-2.3 1.25-5.05-8.2 4.55 2.85q0.25-5.3-0.05-7.75l-0.65-5.15q-0.35-2.7-1.9-7.15l5.65-0.85 0.55 0.7 1.95 2.05 1.85 1.45q2.1 1.55 4.55 2.55 3.45 1.35 7.15 1.3 3.85 0 6.8-2.4l1.5-2.95q2.25 0.5 4.3 1.6-0.15 2.85 0.2 6.9l0.8 3.9h-0.1m60.5 34.9q-1.45 1.85-6.65 19.2l-19.45-2.25 0.55-1q3-6.05 2.6-13.2-0.4-5.9-4.85-11.95l0.6-0.2h0.05l34.1 4.6-6.95 4.8m-34.9-14.45q-1.95 0.8-3.4 2.65 2.05 7.05 2.75 11.9l0.65 5.05 0.25 3.45 0.1 6.8v0.5h-0.05l-19.6-2.5h-0.25l-0.45-5.45-0.05-0.6-0.55-4.1-0.5-3.2-1.1-5.45-0.5-1.95q-2.65-10.4-6-18.55-0.05-0.7 0.15-1.2 0.5-1.8 3.2-1.6l81.75 11.75 1.35 0.95-10.05 7.1-44.95-6.2q-1.5 0.1-2.75 0.65m-10.4 21q-0.6 0-1.1 0.35l-0.6 0.5q-0.75 0.8-0.7 1.95l0.3 1.25 0.5 0.7 0.2 0.2 0.35 0.25 1.2 0.3q1-0.05 1.75-0.85 0.65-0.8 0.65-1.9-0.05-1.2-0.75-2-0.75-0.8-1.8-0.75m-1.95-15.65q-0.85 0.05-1.5 0.65l-0.2 0.25q-0.75 0.8-0.7 1.9v0.15q0.05 1.05 0.75 1.85 0.75 0.75 1.8 0.75l0.35-0.05 1.35-0.8q0.7-0.8 0.7-1.95-0.05-1.15-0.8-1.95l-0.2-0.25v0.05q-0.7-0.6-1.55-0.6m-1.5-11.3v-0.2q-0.05-1.15-0.75-1.95-0.75-0.8-1.75-0.75-1.05 0-1.75 0.85-0.7 0.8-0.65 1.95 0 1.15 0.75 1.95 0.75 0.75 1.75 0.75l0.75-0.15 1-0.7q0.6-0.75 0.65-1.75m9.3 45.4h-0.05l-7.95-0.8h-0.15-0.05l-4.05-0.3-4.45-0.25 0.1-4.85 113.35 13.75 0.2 4.65-6.8-0.2q-2.6-0.1-4.25 2.15l-3.65 4.45-49.6-5.1h-0.05l-0.05-0.05-0.4-0.45-0.15-0.2-3.3-2.9-2.85-2.05q-2.65-1.75-5.65-3.2l-0.25-0.05q-5.8-2.5-15.35-4l-4.6-0.6m-8.05 5.1l2.15 0.15 10.45 1.15q6.6 1.05 11.65 2.8l3.05 1.15 2.85 1.9 4 3.25 3.05 3.25 2.25 2.95v0.05q2.55 3.65 4.4 7.65l1.05 2.5 1.35 4.15-55.9-4.9q-3.85-13.05-11.5-18.8-2.4-1.8-5.15-2.85-3.4 0.8-7.4 2.15-16.75 5.6-44.1 20.25l-9.1 4.95 6.95-4.95q18.65-12.9 35.9-20.7 7.05-3.2 13.85-5.55l6.95-2.15 6.15 0.45 6.75 0.45 9.8 0.65 0.55 0.05m61.85-9.45l15.3-8.05 0.15 3.1-0.25 3.55v0.1l-0.4 2.05v-0.05l-0.35 1.2-0.1 0.2-0.1 0.35-0.15 0.55-0.05 0.15-14.3-1.9v-0.45l0.25-0.8m-9.35 41.55l-1.45-5.3-0.6-1.75q-2-5.45-5.15-10.2l44.6 4.35q3.35 0.95 6.35 2.2 8.05 3.45 13.15 9.5v0.05q6.9 8.7 5.6 22.85l-72.15-6.6-0.1-4.35 9.2-8.9 0.5-0.95 0.05-0.2v-0.25-0.25-0.2m29.6-52.25l6.5-3.4 0.3 0.8q1.55 3.75 2.6 7.9l0.65 2.8 0.3 1.6v0.05l0.6 4.2 0.2 2.05-12.05-1.5 0.4-1.2 0.3-1.2 0.45-2.4 0.05-0.3 0.2-3.95q-0.05-2.65-0.5-5.45m-118.25-83.85q9.8-0.95 18.55 1.7l0.45 0.85q0.35 2.35-0.65 5.55v0.05l-0.5 0.9-2.45-0.1v-0.15l-0.5-1.35-0.05-0.1-0.3-0.8q-0.35-0.85-1.1-0.85l-2.7-0.25q-0.85-0.1-1.4 0.8l-0.75 1-0.15 0.1-0.4 0.55q-0.7 0.5-1.9 0.55l-6.45-0.5q-0.6-0.25-0.85-3.2-0.15-1.9 0.15-4.2l0.45-0.3 0.3-0.15 0.25-0.1m10.8 135.25l0.7 1.2q6 9.8 6.7 22.85l0.1 4.1-0.1 3.15q-0.55 10.55-4 19.25-1.5 3.75-3.45 7.15l-1.55 2.35-0.9 1.4-1.1 1.45q-8.55 10.95-19.45 11.05h-0.15q-10.75 0-18.05-10.5l-0.4-0.55-0.9-1.45q-5.55-9.1-6.55-20.95l-0.2-3.4-0.05-2.4 4.5-3.15q-0.15 2.65 0 5.15l0.25 3.25 9.05 0.25q0.5 3.35 1.45 6.45l-9.35-0.3 1.1 3.5 9.55 0.25q0.9 2.25 2.15 4.3 3.6 6 8.3 8.5l1.6 0.7q-7.45 1.6-11.95-0.55 6.9 5.05 16.05 1.55h0.05l1.65-0.95 1.25-0.75 0.1-0.15q3.45-2.5 6.5-6.85 7.2-10.2 8.05-24.6v-0.15l0.1-3.2-0.15-3.9q-0.75-10.1-5.35-17.75l-1.4-2.15 5.85-4.15m-4.7-123.95l1.75-0.25 1.8-0.5 0.05-0.05 0.3-0.45 0.35-0.55 0.4-0.6 0.3-0.4 0.1-0.15h0.2l1.7 0.2 0.05 0.25 0.25 0.65 0.15 0.7 0.2 0.6 0.1 0.4 0.1 0.1 0.65 0.2 0.6 0.15 0.25 0.15 0.35 0.15 0.25 0.4-0.25 1.2-0.2 0.85-0.15 0.4-0.55 1.55-0.3 0.75-0.45 0.55-1.25 0.65-1.85 0.45-0.5 0.05h-0.45-0.9l-0.5-0.05-1.5-0.4-1.4-0.75-1.25-1.05-0.55-1.5-0.2-0.65-0.2-0.9-0.05-0.3-0.05-0.1v-0.1-0.1q-0.05-0.2 0.05-0.4l0.2-0.6q0.1-0.3 1.05-0.4h0.25l1.1-0.15m-50.9 176.6q-5.4 3.55-15.25 10.25l-10.55 7.15-1.7-2.35q-2.7-3.45-5.75-5.2l31.55-22.2q0.2 8.2 1.7 12.35m-6.35 15.8l1.15 1.85 0.75 0.85 1.45 1.25-10.55 5.2-0.7-4.4 7.7-4.75 0.1 0.1 0.1-0.1m-7.6 20.4l0.85-0.05q3.3 0 5.7 2.6l0.1 0.1 1.55 2.15q2.55 4.4 2.3 10.5l-0.1 1.2q-0.4 4.1-1.8 7.5l-1.45 2.8-0.65 0.9-0.35 0.55-0.45 0.6q-3.45 4.2-7.7 4.25h-0.05q-4.2 0-6.9-4.05l-0.15-0.2-0.35-0.6q-2.05-3.55-2.25-8.15l-0.05-1.3 0.1-2.3 0.15-1.2 0.5-2.7q1.05-4.4 3.6-7.8 2.45-3.3 5.35-4.35l2.05-0.45m1.3 4.6l-0.9-0.15-0.55-0.05q-3.25 0-5.9 3.55-0.9 1.15-1.5 2.55-1.05 2.2-1.4 4.85l-0.1 1.1q-0.1 0.95-0.05 1.9v1.1l3.15 0.1 0.4 2.2-3.2-0.1 0.3 1.2 3.3 0.1 0.7 1.5q1.15 2.05 2.8 2.9l0.5 0.2-0.55 0.15-3.55-0.3q2.3 1.7 5.5 0.5l0.55-0.3 0.45-0.25 0.05-0.05 2.3-2.35q2.6-3.55 3.05-8.5l0.05-1.1q0.15-4.3-1.6-7.4-1.55-2.7-3.8-3.35m30.95-12.3l1.05-0.05q4.05-0.05 6.95 3.15l0.15 0.1 1.8 2.65q3 5.4 2.55 12.9l-0.15 1.5q-0.55 5-2.4 9.15l-1.85 3.45-0.8 1.1-0.5 0.65-0.55 0.7q-4.35 5.2-9.55 5.3h-0.05q-5.15-0.05-8.35-5.05l-0.15-0.25-0.4-0.7q-2.45-4.35-2.6-9.95v-1.65l0.2-2.75 0.2-1.5q0.25-1.75 0.65-3.35 1.4-5.4 4.65-9.55 3.1-4 6.65-5.3l2.5-0.55m1.55 5.6l-1.15-0.2-0.65-0.05q-4 0-7.3 4.35-1.15 1.45-1.9 3.15-1.35 2.7-1.85 5.95l-0.15 1.35q-0.15 1.2-0.15 2.35v1.35l3.8 0.1 0.45 2.7-3.9-0.1 0.35 1.45 4 0.1 0.85 1.8q1.35 2.55 3.35 3.6l0.6 0.25-0.65 0.15q-2.7 0.45-4.35-0.35 2.75 2.1 6.7 0.65l0.75-0.4 0.5-0.3 0.05-0.05 2.9-2.9q3.3-4.35 4-10.4l0.05-1.35q0.3-5.25-1.8-9.1-1.8-3.3-4.5-4.1m-85.95-1.15l3.5-2.45q-1.35 4.05-1.55 8.85-0.15 1.85-0.05 3.6l0.15 2.15 5.9 0.15q0.3 2.2 0.95 4.2l-6.1-0.2 0.75 2.25 6.2 0.2 1.4 2.8q2.7 4.5 6.4 6-4.85 1.05-7.75-0.4 4.5 3.3 10.5 1.05l1.05-0.65 0.9-0.55q2.25-1.65 4.25-4.45 4.7-6.7 5.2-16.15 0.5-9.5-3.5-16.15-2.6-4.3-6.05-5.8l4.2-2.95 2.2 1.9 0.15 0.2q1.4 1.5 2.65 3.55 4.95 8.05 4.35 19.45-0.4 6.8-2.6 12.45-0.95 2.4-2.25 4.6l-0.95 1.5-0.6 0.9q-5.75 8-13.25 8.05h-0.1q-6.95 0-11.7-6.75l-0.8-1.3q-3.6-5.9-4.25-13.5l-0.1-2.2q-0.05-1.85 0.05-3.75 0.15-3.4 0.8-6.5l0.05-0.1m220.25-74.9q-0.8-0.85-1.95-0.85-1.1 0-1.9 0.85-0.85 0.8-0.85 1.9 0 1.15 0.85 2v-0.05q0.8 0.8 1.9 0.85 1.15 0 1.95-0.8v-0.05q0.8-0.8 0.8-1.95 0-1.1-0.8-1.9m14.15 3.8q0 1.15 0.8 1.95t1.95 0.8 1.95-0.8 0.8-1.95-0.8-1.95-1.95-0.8-1.95 0.8-0.8 1.95m21.65 3.75h0.05q0.8-0.8 0.8-1.95-0.05-1.15-0.85-1.95h0.05q-0.8-0.8-1.95-0.8t-1.95 0.8q-0.85 0.8-0.85 1.95t0.85 1.95q0.8 0.8 1.95 0.8 1.1 0 1.9-0.8m-161.3 104.05q12-8.45 20.75-21.4 10.65-15.9 16.2-33.85l1.25-4.15q4.25-15.45 5.45-31.6l0.05-1.1 0.35-6.15q0.35-7.2 0.35-14.4l46.7 3v13.95l-13.3-0.9q-0.5-0.05-0.8 0.3-0.35 0.25-0.35 0.75l-0.3 4.4v0.15l0.25 0.65q0.3 0.35 0.75 0.4l13.55 0.85q-0.45 10.25-2.1 20.35h-0.15l-13.15-0.8q-0.45-0.05-0.75 0.2-0.35 0.25-0.4 0.65l-0.9 4.4 0.05 0.6 0.4 0.5 0.6 0.25 13.1 0.75-0.75 3.35q-1.8 8.6-4.95 16.8l-0.3-0.05-13.8-0.7-0.65 0.2-0.4 0.5-1.9 4.3-0.05 0.7 0.35 0.6q0.3 0.2 0.7 0.25l13.4 0.65-0.35 0.75-4.5 8.85q-2.65 4.65-5.85 8.9l-0.7-0.2-14.15-0.25-0.45 0.1-0.4 0.3-3.5 4.35q-0.3 0.35-0.3 0.75l0.35 0.75q0.3 0.3 0.75 0.3l12.75 0.2q-2.85 2.8-6 5.15-4.5 3.3-9.45 5.65h-47.45"/>
<path fill="#ffffff" d="m381.05 331.05q0.95 0 0.95 1v6.6q0 1-0.95 1h-15.45q-1.65-0.05-1.65 1.5v9.95q0 1.45 1.65 1.45h5.9q4.4 0 7.5 3 3 2.95 3 7.2v9.7q0 4.2-3.1 7.15t-7.4 2.95h-15.4q-1.1 0-1.1-1v-6.55q0-1 1.1-1h15.4q1.5 0 1.5-1.55v-9.7q0-1.55-1.5-1.5h-5.9q-4.35-0.05-7.45-3.05-3.15-2.95-3.15-7.1v-9.95q0-4.2 3.15-7.15 3.1-2.95 7.45-2.95h15.45m-45.1 8.6h-6.4q-1 0-1 1.05v32.25q0 1.05 1 1.05h6.4q1.6 0 1.6-1.55v-31.25q0-1.6-1.6-1.55m7.45-5.65q3.05 2.95 3.05 7.15v31.3q0 4.2-3.05 7.15-3.1 2.95-7.45 2.95h-15.3q-1.05 0-1.05-1v-49.5q0-1 1.05-1h15.3q4.35 0 7.45 2.95m-287.25 0q3.1-2.95 7.5-2.95h15.35q0.95 0 0.95 1v6.5q0 1-0.95 1h-15.35q-1.65 0-1.65 1.6v10.4q0 0.95 1.05 0.95h15.95q0.95 0 0.95 0.95v6.65q0 1-0.95 1h-15.95q-1.05 0-1.05 0.95v10.4q0 1.55 1.65 1.55h15.35q0.95 0 0.95 1v6.55q0 1-0.95 1h-15.35q-4.4 0-7.5-2.95-3.1-2.9-3.1-7.15v-31.3q0-4.3 3.1-7.15m-11.65 7.15v40.4q0 1-0.95 1h-6.95q-1.05 0-1.05-1v-40.35q0-1.6-1.6-1.55h-5.75q-1.65-0.05-1.65 1.55v40.35q0 1-0.95 1h-6.95q-1.05 0-1-1v-40.4q0-4.3 3.1-7.15 3.05-2.95 7.45-2.95h5.75q4.4 0 7.5 2.95 3.05 2.85 3.05 7.15m88.1-10.2q1.05 0.05 1.05 1.1v40.4q-0.05 4.2-3.2 7.15-3.1 2.95-7.4 2.95h-5.85q-2.75 0-5.15-1.4-0.9-0.45-1.8 0-2.45 1.4-5.15 1.4h-5.85q-4.3 0-7.4-2.95-3.15-2.95-3.15-7.15v-40.4q0-1.05 1.05-1.1h6.9q1.1 0.05 1.1 1.1v40.4q0 1.55 1.5 1.55h5.85q1.6 0 1.6-1.5v-40.45q0-1.05 0.95-1.1h7q1.05 0.05 1.05 1.1v40.45q-0.05 1.5 1.5 1.5h5.85q1.6 0 1.6-1.55v-40.4q-0.05-1.05 1-1.1h6.95m12.85 3.05q3.1-2.95 7.45-2.95h5.75q4.3 0 7.4 2.95t3.1 7.15v6.1q0 1-0.95 1h-6.95q-1.05 0-1-1v-6.05q0-1.6-1.6-1.55h-5.75q-1.65-0.05-1.65 1.55v31.25q0 1.55 1.65 1.55h5.75q1.6 0 1.6-1.55v-6q-0.05-1.05-1-1.05h-2.4q-1.05 0-1-0.95v-6.55q-0.05-1 1-1h11.35q0.95 0 0.95 1v14.55q0 4.2-3.1 7.15t-7.4 2.95h-5.75q-4.35 0-7.45-2.95-3.15-2.95-3.15-7.15v-31.3q0-4.2 3.15-7.15m84.1-2.95q4.35 0 7.45 2.95t3.1 7.15v31.3q0 4.2-3.1 7.15t-7.45 2.95h-5.7q-4.35 0-7.45-2.95-3.2-2.95-3.15-7.15v-31.3q-0.05-4.2 3.15-7.15 3.1-2.95 7.45-2.95h5.7m-5.7 8.6q-1.7-0.05-1.7 1.5v31.3q0 1.55 1.7 1.55h5.7q1.6 0 1.6-1.55v-31.3q0-1.55-1.6-1.5h-5.7m-29.65-0.1h-6.4q-1.05 0-1.05 1.1v10.9q0 0.95 1.05 0.95h6.4q1.55 0 1.55-1.45v-9.9q0-1.6-1.55-1.6m7.4-5.55q3.1 2.95 3.1 7.15v9.9q0 3.2-1.9 5.85-2.05 2.6-5.1 3.6-0.45 0.25-0.4 0.65-0.1 0.4 0.25 0.6l1.1 0.7q6.05 4.3 6.05 11.2v7.9q0 1-1.05 1h-6.85q-1.05 0-1.05-1v-7.9q0-2.6-2.25-4.2l-5.55-3.7-0.85-0.05q-0.35 0.2-0.35 0.65v15.1q0 1.05-1 1.1h-6.95q-1.05-0.05-1.05-1.1v-49.4q0-1 1.05-1h15.4q4.3 0 7.4 2.95m93.15-2.95h5.75q4.4 0 7.5 2.95 3 2.85 3 7.15v40.4q0 1-0.95 1h-6.9q-1.05 0-1.05-1v-40.35q0-1.6-1.6-1.55h-5.75q-1.7-0.05-1.7 1.55v40.35q0 1-0.9 1h-6.95q-1.05 0-1.05-1v-40.4q0-4.3 3.1-7.15 3.1-2.95 7.5-2.95m-20.15 0q0.95 0 0.95 1v40.4q0 4.2-3.1 7.15t-7.4 2.95h-5.8q-4.3 0-7.4-2.95-3.15-2.95-3.15-7.15v-40.4q0-1 1.05-1h6.9q0.95 0 1 1v40.4q-0.05 1.55 1.6 1.55h5.8q1.6 0 1.6-1.55v-40.4q-0.05-1 1-1h6.95"/>
</svg>
