<?xml version="1.0" encoding="UTF-8"?>
<svg version="1.1" viewBox="-140 -197.3 250 197.3" xmlns="http://www.w3.org/2000/svg">
<!-- Converted to SVG from FLA files from http://www.newgrounds.com/downloads/designassets/ -->
<path fill="#000000" d="m104.55-191l0.05 0.05 0.05 0.05 2.05 2.55 0.15 0.2 0.05 0.15v-0.05q3.25 5 3.1 11.25-0.2 5.75-3.2 10.25l-0.05 0.05h-0.05q-1.2 1.75-2.9 3.4-3.15 2.8-6.75 4.1h-0.1l-22.9 9.8-0.1 0.05-0.4 0.2h-0.05q-2.5 0.95-5.3 1.1l-2.35-0.05-0.15-0.05-12.75 6.8-11.05 5.9-3.4 1.8h-0.05l1.85 5.55 1.55 6.6 0.4 3.3 6 0.75q1 0.1 1.7 0.85l0.05 0.05 0.25 0.35 0.25 0.45 0.2 0.8v0.15l0.35 5.2 11.55 0.7q10.1 0.95 17.1 2.55l0.25 0.05h0.05q4.35 1.35 8.1 4.4l2.6 2.4q2.45 2.55 4.65 5.95l0.9 1.5 1.2 2.15 1.15 2.3 0.65 1.6v-0.05l0.75 1.7 0.85 2.4v0.05l0.05 0.7v0.05q-0.15 1.1-1.15 1.85l-7.35 5.25 0.15 4.15q0.15 10.85-1.85 21.55-0.85 4.65-2.2 9.15-2.45 8.05-6.45 15.55-6.4 12.1-17.35 20.3-2.25 1.65-4.55 2.95l-0.6 0.15h-178.9l-3.05 0.05h-0.1-0.1-0.25-0.1l-1.8-0.15q-6.05-1-10.45-7.95l-0.05-0.05q-4.75-7.45-4.75-17.7 0-10.35 4.75-17.45l0.1-0.1 2.1-3q-0.3-6.65 1.1-12.25l10.55-11.05q8.75-8.7 20-18.65l0.15-7.1 0.35-9.4 0.6-9.55 1.35-12.7q0.15-1.1 1-1.75l2.8-2.25 3.85-2.95 8.45-6.2 3.55-2.45 6.55-4.45h0.05l12.8-7.2 4.05-2.05 4.6-2.2 2.5-1.2q4.95-2.1 10.3-1.7h0.05l59.9 8.9 1.1 0.4 2.45 1.7 0.05-0.05 27.2-19.1v-0.15l0.55-1.35q0.55-1.25 1.45-2.45 1.3-1.75 3.05-3.1 0.5-0.45 0.95-0.75v-0.05l0.15-0.05 3.4-2.75 11.5-9.25 0.15-0.15 3.25-2.6 0.1-0.1 0.4-0.3h-0.05q1.4-1.25 3-2.1l0.15-0.1q4.65-2.65 10.5-2.4 8.1 0.35 13.7 6.3m-55.55 85.55h-0.55-0.2l-0.4-0.05 0.4 0.15 0.55 0.25q5.2 2.35 8.6 5.8 4.95 5 6.1 12.45l32.35 3.1q-1.75-3.85-4-7.35-3.35-5.3-7.5-8.2-2.6-1.9-5.55-2.85-11-2.5-29.8-3.3m-34.65-37.35l7.25-5.1-1-0.7-58.85-8.45q-2.55-0.15-2.4 2.05 2.4 5.85 4.3 13.35l0.35 1.4 0.8 3.9 0.4 2.3 0.35 2.95 0.05 0.45 0.35 3.9h0.15l14.1 1.8h0.05v-0.35q0.05-2.85-0.05-4.9l-0.2-2.5-0.45-3.6q-0.5-3.5-2-8.6 1-1.3 2.45-1.9l1.95-0.45 32.4 4.45m25.85 43.5l-4.55-1.6-32.1-3.15q2.25 3.4 3.7 7.35l0.45 1.25 1 3.8 0.05 0.2v0.15 0.15l-0.05 0.2-0.35 0.65-6.65 6.4 0.05 3.15 52 4.75q0.95-10.25-4.05-16.5v0.05q-3.7-4.35-9.5-6.85m-40.05-9.45l0.05 0.05h0.05l35.7 3.7 2.6-3.2q1.2-1.6 3.1-1.55l4.85 0.1-0.15-3.3-81.55-9.9-0.1 3.5 3.2 0.2 2.95 0.2h0.1l5.75 0.6 3.35 0.4q6.85 1.05 11.05 2.85l0.15 0.1 4.05 2.25 2.1 1.5 2.35 2.1 0.15 0.1 0.25 0.3m5-27.65l5-3.45-24.55-3.3h-0.05l-0.45 0.15q3.2 4.35 3.5 8.6 0.3 5.15-1.85 9.5l-0.4 0.75 13.95 1.6q3.8-12.5 4.85-13.85m21.45 11.3l-0.1-2.2-11.05 5.8-0.15 0.55-0.05 0.35 10.35 1.35v-0.1l0.15-0.4 0.05-0.25 0.05-0.15 0.3-0.85-0.05 0.05 0.3-1.5v-0.1l0.2-2.55m10.2-0.3q-0.75-3-1.85-5.7l-0.25-0.55-4.65 2.45 0.35 3.9-0.15 2.85v0.2l-0.35 1.75-0.2 0.9-0.3 0.8 8.7 1.1-0.15-1.45-0.45-3.05-0.2-1.2-0.5-2m16.3-37.95v-2.15l-43.55 30.25-0.05 0.05q-0.7 0.4-1.2 1-1.05 1.15-1.3 2.65l-0.05 0.45v1.05q0.05 0.95 0.35 1.8l0.15 0.3 47.55-28.95q-0.95-1.6-1.4-3.4-0.45-1.45-0.5-3.05m51-15.35l-0.05 0.4-18.5 8.75q1.1 0.75 2.35 1.2l14.95-4.4q-0.35 1.75-2.85 4.05-3.85 3.55-9.2 3.3-3.05-0.15-5.5-1.45-1.6-0.85-2.95-2.15l-0.5-0.55-1.4-1.8-0.05-0.05-0.05-0.05q-1.1-1.7-1.6-3.6v-0.05q-0.45-1.7-0.35-3.6 0.15-5.25 4-8.85 3.85-3.55 9.2-3.3l3.55 0.6 0.8 0.3q2.25 1.05 3.55 2.55l-0.5-0.25q-2.1-0.85-3.15-0.7l-14.35 13.25q0.6 2.1 2.15 3.85l19.4-11.2q1 1.15 1.05 3.75m-0.55-7.2l-1.85-2.3q-4.5-4.85-11.05-5.15-5.3-0.25-9.6 2.45l-3.5 2.6q-7.65 6-14.65 12.05l-4.3 3.7-0.25 0.3q-1.2 1.3-1.9 2.8l-0.65 1.75-0.05 0.05v0.05l-0.05 0.05-0.35 1.8v2.25q0 1.15 0.25 2.25l17.4-11.95q-0.2-2.85 1.45-5.95v1.9q0.05 1.6 0.45 3.3v0.05q0.55 2.3 1.9 4.35l1.9 2.45q1 1.05 2.15 1.95l0.3 0.25 0.55 0.35 0.1 0.05q3.5 2.3 7.95 2.5 3.05 0.15 5.75-0.7h0.05l0.05-0.05q2.95-1 5.45-3.3 4.75-4.4 5-10.85 0.1-5-2.5-9m-53.55 105.4q0 0.8-0.55 1.4h-0.05q-0.55 0.6-1.35 0.6-0.85-0.05-1.45-0.6-0.6-0.6-0.6-1.4 0-0.85 0.6-1.4 0.6-0.6 1.45-0.6 0.8 0 1.4 0.6h-0.05q0.6 0.55 0.6 1.4m10.15 10.8v0.35q-0.4 11-2.95 21.7l-0.45 1.75q-2.2 8.9-6.15 17.1l-0.75 1.6q-3.85 7.95-9.55 14.65l-4.2 4.6-4.2 3.75h27.2q4.5-2.9 8.25-6.55l-9.15-0.1q-0.3-0.05-0.45-0.2-0.25-0.2-0.25-0.5l0.2-0.5 0.75-0.85v-0.05l0.1-0.05 1.75-2.15 0.25-0.25 0.3-0.05 10.15 0.15 0.45 0.2q2.55-3.15 4.7-6.65l2.25-3.95 0.5-1-9.85-0.45q-0.25-0.05-0.4-0.2-0.2-0.15-0.25-0.4l0.05-0.45 0.95-1.95 0.1-0.2v-0.05l0.15-0.25 0.25-0.65 0.3-0.3 0.4-0.1 10.3 0.5 0.2 0.05q2.7-6.2 4.4-12.75l-9.95-0.55-0.4-0.15-0.25-0.35h0.05l-0.05-0.4 0.65-2.45 0.2-0.75 0.25-0.35 0.45-0.15 10 0.55 0.1 0.05q1.35-7.05 1.65-14.15l-9.2-0.6q-0.3-0.05-0.5-0.25l-0.2-0.55 0.25-2.85v-0.05-0.3l0.25-0.45 0.5-0.15 9 0.55-0.05-1.7v-0.05l-0.05-0.7-0.3-4.75-27.9-2.5 0.15 7.25m-36.55-14.85q0.6 0.6 0.6 1.4t-0.55 1.4h-0.05q-0.55 0.6-1.35 0.6-0.85-0.05-1.4-0.6-0.6-0.55-0.6-1.4 0-0.8 0.6-1.4 0.55-0.6 1.4-0.55 0.8-0.05 1.4 0.55h-0.05m14.2 2.75q0 0.85-0.6 1.4-0.6 0.6-1.4 0.6-0.85 0-1.4-0.6-0.6-0.55-0.6-1.4 0-0.8 0.6-1.4 0.55-0.6 1.4-0.55 0.85-0.05 1.4 0.55t0.6 1.4m-34.55-13.65l-0.75-1.75q-1.35-2.9-3.15-5.55l-1.65-2.15-2.2-2.35-2.85-2.35-2.05-1.35-2.2-0.85q-3.65-1.25-8.4-1.95l-7.5-0.85-1.55-0.1-0.45-0.05-7.05-0.45-4.85-0.35-4.4-0.3-5 1.55q-4.95 1.65-10 3.95-12.45 5.6-25.85 14.9l-5 3.6 6.55-3.6q19.7-10.55 31.75-14.55l5.35-1.55q1.95 0.75 3.7 2.05 5.5 4.1 8.3 13.55l40.25 3.5-1-3m5.4 12.9q-0.8 0-1.4-0.6-0.6-0.55-0.55-1.4-0.05-0.8 0.55-1.4t1.4-0.6q0.85 0 1.4 0.6 0.6 0.6 0.6 1.4 0 0.85-0.6 1.4-0.55 0.6-1.4 0.6m-40.35-66.65q-0.7 0-1.25-0.55t-0.55-1.4q-0.05-0.8 0.45-1.4t1.25-0.6q0.75-0.05 1.3 0.55 0.5 0.55 0.55 1.4v0.15q-0.05 0.75-0.5 1.25l-0.7 0.5-0.55 0.1m2.8 6.3q0.6 0 1.1 0.4l0.15 0.15q0.55 0.55 0.6 1.4 0 0.8-0.5 1.4-0.45 0.5-1 0.6h-0.25q-0.75 0-1.25-0.55-0.55-0.55-0.6-1.3v-0.1q0-0.8 0.55-1.4l0.15-0.15q0.4-0.45 1.05-0.45m0.6 11.5l0.85-0.25q0.7-0.05 1.25 0.55 0.5 0.55 0.55 1.4 0 0.85-0.45 1.4-0.55 0.6-1.3 0.6l-0.85-0.2-0.25-0.2-0.15-0.15-0.35-0.5-0.2-0.9q-0.05-0.8 0.5-1.4l0.4-0.35m-59.05 77.05q-1.1-3-1.25-8.85l-22.7 15.95q2.2 1.3 4.15 3.75l1.2 1.7 7.65-5.15 10.95-7.4m4.7-8.7q0.7 8.5 4.7 15.05l0.65 1.05 0.25 0.4q5.25 7.55 13 7.55h0.15q7.85-0.1 14-7.95l0.75-1.05 0.7-1 1.1-1.7q1.4-2.45 2.5-5.15 2.45-6.25 2.85-13.85l0.1-2.25-0.1-3q-0.5-9.35-4.8-16.45l-0.55-0.85-4.2 3 1.05 1.55q3.3 5.5 3.8 12.75l0.15 2.85-0.1 2.3v0.1q-0.6 10.35-5.75 17.7-2.25 3.15-4.7 4.95l-0.1 0.1-0.9 0.55-1.2 0.7q-6.6 2.5-11.55-1.15 3.25 1.55 8.6 0.4l-1.15-0.5q-3.4-1.8-6-6.1l-1.55-3.1-6.85-0.2-0.8-2.5 6.75 0.2q-0.7-2.2-1.05-4.6l-6.55-0.25-0.15-2.3v-3.7l-3.25 2.25 0.05 1.75 0.15 2.45m-7.9 22.05l-0.55-0.65-0.8-1.3-0.1 0.05-0.05-0.05-5.6 3.45 0.5 3.15 7.65-3.75-1.05-0.9m-44.4 10.4v0.05q-0.5 2.25-0.6 4.7l-0.05 2.7 0.1 1.55q0.45 5.5 3.05 9.75l0.6 0.9q3.4 4.9 8.4 4.9h0.05q5.4-0.05 9.55-5.8l0.45-0.65 0.7-1.1 1.6-3.3q1.6-4.05 1.85-8.95 0.45-8.2-3.1-14l-1.95-2.6-0.1-0.1-1.6-1.4-3 2.15q2.5 1.05 4.35 4.15 2.9 4.8 2.55 11.65-0.4 6.8-3.75 11.6-1.45 2-3.1 3.2l-0.6 0.4-0.8 0.45q-4.3 1.65-7.5-0.75 2.05 1.05 5.55 0.3-2.7-1.05-4.6-4.3l-1-2-4.5-0.15-0.5-1.6 4.35 0.15-0.65-3.05-4.25-0.1-0.1-1.55v-2.6q0.15-3.45 1.1-6.35l-2.5 1.75m37.85 5.5l0.65 0.15q1.6 0.45 2.7 2.4 1.3 2.25 1.2 5.35l-0.05 0.75q-0.35 3.55-2.2 6.1-0.8 1.1-1.65 1.7l-0.05 0.05-0.3 0.15-0.4 0.25q-2.3 0.85-3.95-0.35l2.55 0.2 0.35-0.1-0.35-0.15q-1.2-0.65-2-2.1l-0.5-1.05-2.35-0.1-0.25-0.85 2.3 0.1-0.3-1.6-2.25-0.1v-0.8l0.05-1.35 0.05-0.75q0.3-1.95 1.05-3.5l1.05-1.85q1.9-2.55 4.25-2.55h0.4m-0.3-3.15l-1.5 0.3q-2.05 0.75-3.8 3.15-1.9 2.45-2.65 5.6l-0.35 1.95-0.05 0.85-0.1 1.65 0.05 0.95q0.15 3.3 1.6 5.85l0.25 0.4 0.1 0.15q1.95 2.95 4.95 2.95h0.05q3.05-0.05 5.55-3.1l0.3-0.4 0.3-0.4 0.45-0.65 1.05-2q1-2.45 1.3-5.4l0.05-0.85q0.2-4.4-1.65-7.55l-1.1-1.55-0.1-0.1q-1.7-1.85-4.1-1.85l-0.6 0.05m15.1 7.95q0.35-2.35 1.3-4.25l1.4-2.25q2.35-3.15 5.25-3.15l0.45 0.05 0.85 0.15q1.95 0.55 3.25 2.95 1.5 2.75 1.3 6.5l-0.1 1q-0.5 4.35-2.85 7.45-1 1.3-2.05 2.1l-0.05 0.05-0.4 0.2-0.5 0.3q-2.85 1.05-4.85-0.5l3.15 0.25 0.45-0.05-0.45-0.2q-1.4-0.8-2.4-2.6l-0.6-1.3-2.85-0.1-0.25-1.05 2.8 0.1-0.35-1.9-2.75-0.1v-1l0.1-1.65 0.15-1m-1.8-2.4l-0.5 2.4-0.1 1.05-0.15 2v1.15q0.1 4.05 1.85 7.2l0.25 0.5 0.15 0.15q2.3 3.6 6 3.65h0.05q3.75-0.05 6.9-3.8l0.4-0.5 0.35-0.5 0.55-0.8 1.35-2.45q1.3-3 1.7-6.6l0.1-1.05q0.35-5.4-1.8-9.3l-1.3-1.9-0.1-0.1q-2.1-2.3-5-2.25l-0.75 0.05-1.85 0.4q-2.55 0.9-4.75 3.8-2.35 3-3.35 6.9m49.1-52.25l-0.25 4.45-0.05 0.8q-0.9 11.6-3.95 22.75l-0.9 3q-3.95 12.9-11.65 24.35-6.3 9.3-14.95 15.4h34.2q3.55-1.7 6.8-4.1 2.25-1.7 4.3-3.7l-9.15-0.1q-0.35-0.05-0.55-0.25l-0.25-0.5 0.2-0.55 2.5-3.15 0.3-0.2 0.35-0.1 10.2 0.2 0.45 0.15q2.35-3.05 4.25-6.4l3.25-6.35 0.25-0.55-9.7-0.5-0.45-0.15-0.25-0.45v-0.5l1.4-3.1 0.3-0.35 0.45-0.15 9.9 0.5 0.25 0.05q2.25-5.9 3.55-12.1l0.55-2.4-9.45-0.55q-0.25-0.05-0.45-0.2l-0.25-0.35-0.05-0.4 0.65-3.2 0.3-0.45 0.55-0.15 9.45 0.55h0.1q1.2-7.25 1.5-14.6l-9.75-0.65q-0.3-0.05-0.5-0.25l-0.2-0.5v-0.1l0.2-3.2 0.25-0.5 0.6-0.2 9.55 0.6v-10.05l-33.6-2.15q-0.05 5.2-0.25 10.35"/>
<path fill="#ffffff" d="m-35-74.95q0.2-5.15 0.25-10.35l33.6 2.15v10.05l-9.55-0.6-0.6 0.2-0.25 0.5-0.2 3.2v0.1l0.2 0.5q0.2 0.2 0.5 0.25l9.75 0.65q-0.3 7.35-1.5 14.6h-0.1l-9.45-0.55-0.55 0.15-0.3 0.45-0.65 3.2 0.05 0.4 0.25 0.35q0.2 0.15 0.45 0.2l9.45 0.55-0.55 2.4q-1.3 6.2-3.55 12.1l-0.25-0.05-9.9-0.5-0.45 0.15-0.3 0.35-1.4 3.1v0.5l0.25 0.45 0.45 0.15 9.7 0.5-0.25 0.55-3.25 6.35q-1.9 3.35-4.25 6.4l-0.45-0.15-10.2-0.2-0.35 0.1-0.3 0.2-2.5 3.15-0.2 0.55 0.25 0.5q0.2 0.2 0.55 0.25l9.15 0.1q-2.05 2-4.3 3.7-3.25 2.4-6.8 4.1h-34.2q8.65-6.1 14.95-15.4 7.7-11.45 11.65-24.35l0.9-3q3.05-11.15 3.95-22.75l0.05-0.8 0.25-4.45m138.55-110.95q2.6 4 2.5 9-0.25 6.45-5 10.85-2.5 2.3-5.45 3.3l-0.05 0.05h-0.05q-2.7 0.85-5.75 0.7-4.45-0.2-7.95-2.5l-0.1-0.05-0.55-0.35-0.3-0.25q-1.15-0.9-2.15-1.95l-1.9-2.45q-1.35-2.05-1.9-4.35v-0.05q-0.4-1.7-0.45-3.3v-1.9q-1.65 3.1-1.45 5.95l-17.4 11.95q-0.25-1.1-0.25-2.25v-2.25l0.35-1.8 0.05-0.05v-0.05l0.05-0.05 0.65-1.75q0.7-1.5 1.9-2.8l0.25-0.3 4.3-3.7q7-6.05 14.65-12.05l3.5-2.6q4.3-2.7 9.6-2.45 6.55 0.3 11.05 5.15l1.85 2.3m0.55 7.2q-0.05-2.6-1.05-3.75l-19.4 11.2q-1.55-1.75-2.15-3.85l14.35-13.25q1.05-0.15 3.15 0.7l0.5 0.25q-1.3-1.5-3.55-2.55l-0.8-0.3-3.55-0.6q-5.35-0.25-9.2 3.3-3.85 3.6-4 8.85-0.1 1.9 0.35 3.6v0.05q0.5 1.9 1.6 3.6l0.05 0.05 0.05 0.05 1.4 1.8 0.5 0.55q1.35 1.3 2.95 2.15 2.45 1.3 5.5 1.45 5.35 0.25 9.2-3.3 2.5-2.3 2.85-4.05l-14.95 4.4q-1.25-0.45-2.35-1.2l18.5-8.75 0.05-0.4m-51 15.35q0.05 1.6 0.5 3.05 0.45 1.8 1.4 3.4l-47.55 28.95-0.15-0.3q-0.3-0.85-0.35-1.8v-1.05l0.05-0.45q0.25-1.5 1.3-2.65 0.5-0.6 1.2-1l0.05-0.05 43.55-30.25v2.15m-16.3 37.95l0.5 2 0.2 1.2 0.45 3.05 0.15 1.45-8.7-1.1 0.3-0.8 0.2-0.9 0.35-1.75v-0.2l0.15-2.85-0.35-3.9 4.65-2.45 0.25 0.55q1.1 2.7 1.85 5.7m-10.2 0.3l-0.2 2.55v0.1l-0.3 1.5 0.05-0.05-0.3 0.85-0.05 0.15-0.05 0.25-0.15 0.4v0.1l-10.35-1.35 0.05-0.35 0.15-0.55 11.05-5.8 0.1 2.2m-21.45-11.3q-1.05 1.35-4.85 13.85l-13.95-1.6 0.4-0.75q2.15-4.35 1.85-9.5-0.3-4.25-3.5-8.6l0.45-0.15h0.05l24.55 3.3-5 3.45m-5 27.65l-0.25-0.3-0.15-0.1-2.35-2.1-2.1-1.5-4.05-2.25-0.15-0.1q-4.2-1.8-11.05-2.85l-3.35-0.4-5.75-0.6h-0.1l-2.95-0.2-3.2-0.2 0.1-3.5 81.55 9.9 0.15 3.3-4.85-0.1q-1.9-0.05-3.1 1.55l-2.6 3.2-35.7-3.7h-0.05l-0.05-0.05m40.05 9.45q5.8 2.5 9.5 6.85v-0.05q5 6.25 4.05 16.5l-52-4.75-0.05-3.15 6.65-6.4 0.35-0.65 0.05-0.2v-0.15-0.15l-0.05-0.2-1-3.8-0.45-1.25q-1.45-3.95-3.7-7.35l32.1 3.15 4.55 1.6m-25.85-43.5l-32.4-4.45-1.95 0.45q-1.45 0.6-2.45 1.9 1.5 5.1 2 8.6l0.45 3.6 0.2 2.5q0.1 2.05 0.05 4.9v0.35h-0.05l-14.1-1.8h-0.15l-0.35-3.9-0.05-0.45-0.35-2.95-0.4-2.3-0.8-3.9-0.35-1.4q-1.9-7.5-4.3-13.35-0.15-2.2 2.4-2.05l58.85 8.45 1 0.7-7.25 5.1m34.65 37.35q18.8 0.8 29.8 3.3 2.95 0.95 5.55 2.85 4.15 2.9 7.5 8.2 2.25 3.5 4 7.35l-32.35-3.1q-1.15-7.45-6.1-12.45-3.4-3.45-8.6-5.8l-0.55-0.25-0.4-0.15 0.4 0.05h0.2 0.55m1 24.95q0-0.85-0.6-1.4h0.05q-0.6-0.6-1.4-0.6-0.85 0-1.45 0.6-0.6 0.55-0.6 1.4 0 0.8 0.6 1.4 0.6 0.55 1.45 0.6 0.8 0 1.35-0.6h0.05q0.55-0.6 0.55-1.4m10.15 10.8l-0.15-7.25 27.9 2.5 0.3 4.75 0.05 0.7v0.05l0.05 1.7-9-0.55-0.5 0.15-0.25 0.45v0.3 0.05l-0.25 2.85 0.2 0.55q0.2 0.2 0.5 0.25l9.2 0.6q-0.3 7.1-1.65 14.15l-0.1-0.05-10-0.55-0.45 0.15-0.25 0.35-0.2 0.75-0.65 2.45 0.05 0.4h-0.05l0.25 0.35 0.4 0.15 9.95 0.55q-1.7 6.55-4.4 12.75l-0.2-0.05-10.3-0.5-0.4 0.1-0.3 0.3-0.25 0.65-0.15 0.25v0.05l-0.1 0.2-0.95 1.95-0.05 0.45q0.05 0.25 0.25 0.4 0.15 0.15 0.4 0.2l9.85 0.45-0.5 1-2.25 3.95q-2.15 3.5-4.7 6.65l-0.45-0.2-10.15-0.15-0.3 0.05-0.25 0.25-1.75 2.15-0.1 0.05v0.05l-0.75 0.85-0.2 0.5q0 0.3 0.25 0.5 0.15 0.15 0.45 0.2l9.15 0.1q-3.75 3.65-8.25 6.55h-27.2l4.2-3.75 4.2-4.6q5.7-6.7 9.55-14.65l0.75-1.6q3.95-8.2 6.15-17.1l0.45-1.75q2.55-10.7 2.95-21.7v-0.35m-22.35-12.1q-0.05-0.8-0.6-1.4t-1.4-0.55q-0.85-0.05-1.4 0.55-0.6 0.6-0.6 1.4 0 0.85 0.6 1.4 0.55 0.6 1.4 0.6 0.8 0 1.4-0.6 0.6-0.55 0.6-1.4m-14.2-2.75h0.05q-0.6-0.6-1.4-0.55-0.85-0.05-1.4 0.55-0.6 0.6-0.6 1.4 0 0.85 0.6 1.4 0.55 0.55 1.4 0.6 0.8 0 1.35-0.6h0.05q0.55-0.6 0.55-1.4t-0.6-1.4m-20.35-10.9l1 3-40.25-3.5q-2.8-9.45-8.3-13.55-1.75-1.3-3.7-2.05l-5.35 1.55q-12.05 4-31.75 14.55l-6.55 3.6 5-3.6q13.4-9.3 25.85-14.9 5.05-2.3 10-3.95l5-1.55 4.4 0.3 4.85 0.35 7.05 0.45 0.45 0.05 1.55 0.1 7.5 0.85q4.75 0.7 8.4 1.95l2.2 0.85 2.05 1.35 2.85 2.35 2.2 2.35 1.65 2.15q1.8 2.65 3.15 5.55l0.75 1.75m-31.55-35.95l-0.4 0.35q-0.55 0.6-0.5 1.4l0.2 0.9 0.35 0.5 0.15 0.15 0.25 0.2 0.85 0.2q0.75 0 1.3-0.6 0.45-0.55 0.45-1.4-0.05-0.85-0.55-1.4-0.55-0.6-1.25-0.55l-0.85 0.25m-0.6-11.5q-0.65 0-1.05 0.45l-0.15 0.15q-0.55 0.6-0.55 1.4v0.1q0.05 0.75 0.6 1.3 0.5 0.55 1.25 0.55h0.25q0.55-0.1 1-0.6 0.5-0.6 0.5-1.4-0.05-0.85-0.6-1.4l-0.15-0.15q-0.5-0.4-1.1-0.4m-2.8-6.3l0.55-0.1 0.7-0.5q0.45-0.5 0.5-1.25v-0.15q-0.05-0.85-0.55-1.4-0.55-0.6-1.3-0.55-0.75 0-1.25 0.6t-0.45 1.4q0 0.85 0.55 1.4t1.25 0.55m40.35 66.65q0.85 0 1.4-0.6 0.6-0.55 0.6-1.4 0-0.8-0.6-1.4-0.55-0.6-1.4-0.6-0.8 0-1.4 0.6t-0.55 1.4q-0.05 0.85 0.55 1.4 0.6 0.6 1.4 0.6m-96 28.2l-10.95 7.4-7.65 5.15-1.2-1.7q-1.95-2.45-4.15-3.75l22.7-15.95q0.15 5.85 1.25 8.85m4.7-8.7l-0.15-2.45-0.05-1.75 3.25-2.25v3.7l0.15 2.3 6.55 0.25q0.35 2.4 1.05 4.6l-6.75-0.2 0.8 2.5 6.85 0.2 1.55 3.1q2.6 4.3 6 6.1l1.15 0.5q-5.35 1.15-8.6-0.4 4.95 3.65 11.55 1.15l1.2-0.7 0.9-0.55 0.1-0.1q2.45-1.8 4.7-4.95 5.15-7.35 5.75-17.7v-0.1l0.1-2.3-0.15-2.85q-0.5-7.25-3.8-12.75l-1.05-1.55 4.2-3 0.55 0.85q4.3 7.1 4.8 16.45l0.1 3-0.1 2.25q-0.4 7.6-2.85 13.85-1.1 2.7-2.5 5.15l-1.1 1.7-0.7 1-0.75 1.05q-6.15 7.85-14 7.95h-0.15q-7.75 0-13-7.55l-0.25-0.4-0.65-1.05q-4-6.55-4.7-15.05m-52.3 32.45l2.5-1.75q-0.95 2.9-1.1 6.35v2.6l0.1 1.55 4.25 0.1 0.65 3.05-4.35-0.15 0.5 1.6 4.5 0.15 1 2q1.9 3.25 4.6 4.3-3.5 0.75-5.55-0.3 3.2 2.4 7.5 0.75l0.8-0.45 0.6-0.4q1.65-1.2 3.1-3.2 3.35-4.8 3.75-11.6 0.35-6.85-2.55-11.65-1.85-3.1-4.35-4.15l3-2.15 1.6 1.4 0.1 0.1 1.95 2.6q3.55 5.8 3.1 14-0.25 4.9-1.85 8.95l-1.6 3.3-0.7 1.1-0.45 0.65q-4.15 5.75-9.55 5.8h-0.05q-5 0-8.4-4.9l-0.6-0.9q-2.6-4.25-3.05-9.75l-0.1-1.55 0.05-2.7q0.1-2.45 0.6-4.7v-0.05m44.4-10.4l1.05 0.9-7.65 3.75-0.5-3.15 5.6-3.45 0.05 0.05 0.1-0.05 0.8 1.3 0.55 0.65m-6.55 15.9h-0.4q-2.35 0-4.25 2.55l-1.05 1.85q-0.75 1.55-1.05 3.5l-0.05 0.75-0.05 1.35v0.8l2.25 0.1 0.3 1.6-2.3-0.1 0.25 0.85 2.35 0.1 0.5 1.05q0.8 1.45 2 2.1l0.35 0.15-0.35 0.1-2.55-0.2q1.65 1.2 3.95 0.35l0.4-0.25 0.3-0.15 0.05-0.05q0.85-0.6 1.65-1.7 1.85-2.55 2.2-6.1l0.05-0.75q0.1-3.1-1.2-5.35-1.1-1.95-2.7-2.4l-0.65-0.15m-0.3-3.15l0.6-0.05q2.4 0 4.1 1.85l0.1 0.1 1.1 1.55q1.85 3.15 1.65 7.55l-0.05 0.85q-0.3 2.95-1.3 5.4l-1.05 2-0.45 0.65-0.3 0.4-0.3 0.4q-2.5 3.05-5.55 3.1h-0.05q-3 0-4.95-2.95l-0.1-0.15-0.25-0.4q-1.45-2.55-1.6-5.85l-0.05-0.95 0.1-1.65 0.05-0.85 0.35-1.95q0.75-3.15 2.65-5.6 1.75-2.4 3.8-3.15l1.5-0.3m15.1 7.95l-0.15 1-0.1 1.65v1l2.75 0.1 0.35 1.9-2.8-0.1 0.25 1.05 2.85 0.1 0.6 1.3q1 1.8 2.4 2.6l0.45 0.2-0.45 0.05-3.15-0.25q2 1.55 4.85 0.5l0.5-0.3 0.4-0.2 0.05-0.05q1.05-0.8 2.05-2.1 2.35-3.1 2.85-7.45l0.1-1q0.2-3.75-1.3-6.5-1.3-2.4-3.25-2.95l-0.85-0.15-0.45-0.05q-2.9 0-5.25 3.15l-1.4 2.25q-0.95 1.9-1.3 4.25m-1.8-2.4q1-3.9 3.35-6.9 2.2-2.9 4.75-3.8l1.85-0.4 0.75-0.05q2.9-0.05 5 2.25l0.1 0.1 1.3 1.9q2.15 3.9 1.8 9.3l-0.1 1.05q-0.4 3.6-1.7 6.6l-1.35 2.45-0.55 0.8-0.35 0.5-0.4 0.5q-3.15 3.75-6.9 3.8h-0.05q-3.7-0.05-6-3.65l-0.15-0.15-0.25-0.5q-1.75-3.15-1.85-7.2v-1.15l0.15-2 0.1-1.05 0.5-2.4"/>
</svg>
