<?xml version="1.0" encoding="UTF-8"?>
<svg version="1.1" viewBox="-182.45 -288.15 364.96 288.15" xmlns="http://www.w3.org/2000/svg" >
<!-- Converted to SVG from FLA files from http://www.newgrounds.com/downloads/designassets/ -->
<path fill="#000000" d="m139-284.45l0.25-0.15q6.8-3.9 15.35-3.5 11.8 0.5 19.95 9.2l0.05 0.05 0.05 0.05 0.05 0.05 3 3.75 0.2 0.3 0.1 0.15q4.75 7.25 4.5 16.4-0.25 8.35-4.7 14.95l-0.05 0.05-0.05 0.05q-1.8 2.55-4.3 4.9-4.55 4.1-9.8 6h-0.15l-33.4 14.3-0.05 0.05-0.1 0.05-0.6 0.25-0.1 0.05q-3.65 1.4-7.75 1.6l-3.35-0.1h-0.05l-0.2-0.05-18.6 9.95-16.15 8.65-5 2.6h-0.05q0.85 1.95 2.7 8.1 1.45 4.8 2.25 9.65l0.6 4.8 8.75 1.1-0.05-0.05h0.05q1.45 0.15 2.45 1.25l0.05 0.05h0.05l0.45 0.55 0.3 0.7 0.3 1.15v0.15l0.45 7.7 16.95 1q14.75 1.35 24.95 3.7l0.35 0.05t0.1 0.05q6.3 1.95 11.75 6.4l3.85 3.5q3.6 3.75 6.75 8.75l1.35 2.15 1.75 3.15 1.65 3.35 0.05 0.05 0.95 2.25 1.05 2.45h0.05l1.2 3.45v0.1l0.05 1.05v0.05q-0.2 1.65-1.65 2.7l-10.7 7.65 0.2 6.1q0.2 15.8-2.7 31.45-1.3 6.8-3.25 13.4-3.55 11.75-9.35 22.7-9.35 17.65-25.35 29.6v0.05q-3.25 2.4-6.65 4.3l-0.9 0.2h-261.15l-4.45 0.05h-0.15-0.15-0.4-0.05-0.1l-2.55-0.2q-8.9-1.45-15.35-11.6v-0.1q-6.95-10.85-6.95-25.85 0-15.1 6.95-25.5l0.15-0.15 3.1-4.3q-0.45-9.75 1.6-17.9 6.85-7.7 15.4-16.15 12.7-12.7 29.15-27.2l0.2-10.4 0.5-13.75 0.95-13.95q0.75-9.55 1.9-18.5 0.2-1.65 1.45-2.6l4.1-3.25 5.65-4.35 12.35-9.05 5.15-3.6 9.6-6.45v-0.05l0.05 0.05 0.15-0.1q-2.7-3.3-3.65-7.1-0.65-2.5-0.55-5.15 1.05-6.3 1.55-10.5l0.5-1.85 1.6-5.45 3.4-8.75 0.1-0.05q1.75-0.95 3.75-1.55l4.05-1.1 5.6-1.55h0.1q-0.55-0.9-0.6-1.95-1.8-0.4-3.05-1.8l-0.1-0.05-0.3-0.6-0.3-3.85q-0.1-2.15 0.35-6v-0.05q1-1.45 2.8-2.1l0.3-0.1v-0.05q0.45-4.85 4.35-8.3 4.4-4.05 10.7-4.05 6.4 0 10.85 4.05 2.8 2.55 3.8 5.4 1.55 0.7 2.6 1.4-0.05 3-0.55 5.9l1.1 1.6q-0.25 3.5-0.9 6.8l-0.6 2.6-3.8 1.5-0.85 2.5 0.15 0.1h0.05v-0.05l0.5 0.15q1.25 0.45 2.35 1.2l0.1 0.1q2.3 1.25 4.55 2.7l1.6 1 1.45 1q2.8 4.75 4.15 7.8 1.4 3.2 2.5 6.6l0.05 0.05 0.05 0.1 77.6 11.55h0.05q0.85 0.1 1.6 0.6l3.5 2.5 0.1-0.05 39.7-27.95 0.1-0.3-0.05 0.1 0.8-1.95q0.8-1.85 2.1-3.55 1.9-2.6 4.5-4.6l1.3-1.05 0.05-0.05 0.2-0.1 4.95-4 16.8-13.5 0.2-0.2 4.75-3.85 0.15-0.15 0.55-0.45q2-1.75 4.35-3.05m-197.5 7.65l-0.3 0.1-0.25 0.15-0.5 0.3-0.15 4.4v0.05q0.25 3.05 0.85 3.35l6.8 0.5q1.25 0 2-0.55l0.45-0.55 0.1-0.15 0.85-1.05q0.55-0.95 1.45-0.85l2.8 0.25h0.05q0.75 0 1.15 0.9v0.05l0.3 0.8 0.05 0.1 0.5 1.4 0.05 0.2 2.55 0.1q0.4-0.5 0.5-0.95v-0.05q1.1-3.35 0.7-5.85l-0.45-0.9q-9.2-2.75-19.5-1.75m195.1 179.15l0.05-0.45q0-0.4 0.35-0.7l0.7-0.2 13.1 0.85-0.05-2.55-0.05-1.05-0.45-6.9-40.7-3.7q0.3 5.3 0.2 10.6l-0.05 0.45q-0.55 16.05-4.3 31.7l-0.65 2.6q-3.2 12.95-8.9 24.95l-1.15 2.35q-5.65 11.65-13.95 21.45l-6.15 6.65-6.1 5.5h39.7q6.55-4.25 12.05-9.55l-13.35-0.2q-0.4 0-0.7-0.25-0.35-0.3-0.35-0.7 0-0.45 0.3-0.8l1.1-1.2 0.05-0.05 0.05-0.1 2.6-3.2 0.35-0.25 0.5-0.1 14.75 0.2 0.65 0.3q3.75-4.6 6.9-9.75l3.3-5.75 0.75-1.45-14.4-0.7q-0.35-0.05-0.6-0.25h-0.05q-0.25-0.25-0.35-0.6t0.1-0.7l1.4-2.8 0.15-0.35 0.2-0.4v-0.05l0.4-0.85 0.4-0.5 0.6-0.15 15 0.75 0.3 0.05q3.95-9 6.45-18.6l-14.5-0.85q-0.35 0-0.6-0.2l-0.35-0.5h0.05q-0.15-0.3-0.05-0.55l0.9-3.55 0.05-0.05 0.25-1.05 0.4-0.55 0.65-0.2 14.55 0.8 0.2 0.05q2-10.25 2.4-20.65l-13.45-0.9q-0.45-0.05-0.7-0.35-0.3-0.35-0.3-0.75l0.35-4.2v-0.05m19.4-35.35q-4.9-7.7-10.95-12-3.85-2.75-8.15-4.1-16.05-3.65-43.45-4.85l-0.8-0.05h-0.2-0.1-0.55l0.55 0.25 0.85 0.35q7.55 3.35 12.5 8.4 7.25 7.35 8.95 18.2l47.2 4.5q-2.55-5.55-5.85-10.7m-56.55-105.55v-3.05l-63.6 44.1-0.05 0.05-1.75 1.5q-1.5 1.7-1.9 3.9l-0.1 0.65v1.5q0.1 1.35 0.55 2.6l0.15 0.45 69.45-42.25v-0.05q-1.35-2.3-2.05-4.9-0.6-2.15-0.7-4.5m54.8-43.75q-7.7-0.4-14 3.55l-5.1 3.8q-11.2 8.8-21.4 17.6l-6.3 5.4-0.35 0.4q-1.75 1.95-2.8 4.15l-0.95 2.55v0.05 0.05h-0.05v0.05l-0.05 0.05q-0.4 1.25-0.5 2.65-0.2 1.55-0.05 3.25v0.05q0.05 1.65 0.45 3.25l25.35-17.4q-0.3-4.2 2.1-8.75l0.05 2.85q0.05 2.25 0.6 4.8 0.85 3.35 2.8 6.35 1.15 1.85 2.75 3.6l3.1 2.85 0.5 0.35 0.8 0.55 0.15 0.05q5.05 3.35 11.6 3.7 4.45 0.2 8.35-1.05l0.1-0.05 0.05-0.05h0.05q4.3-1.5 8-4.85 6.9-6.4 7.2-15.8 0.2-7.3-3.6-13.15l-2.7-3.4q-6.55-7.05-16.15-7.45m-12 8.45q5.65-5.2 13.4-4.85 2.7 0.1 5.15 0.9l1.2 0.5q3.3 1.5 5.15 3.65l-0.7-0.35q-3.05-1.25-4.6-1l-20.9 19.3q0.85 3.1 3.1 5.6l28.3-16.3q1.5 1.7 1.55 5.5l-0.05 0.55-27.05 12.75q1.6 1.15 3.45 1.8l21.85-6.45q-0.55 2.55-4.2 5.9-5.65 5.2-13.4 4.85-4.4-0.2-8-2.1-2.35-1.25-4.3-3.2h-0.05l-0.75-0.75v-0.05l-2.05-2.6-0.1-0.1-0.05-0.05q-1.6-2.5-2.3-5.25v-0.05q-0.65-2.55-0.55-5.3 0.25-7.7 5.9-12.9m-184.8 9.25l-0.7-0.2-0.65-0.2-0.1-0.1-0.1-0.45-0.2-0.6-0.2-0.7-0.25-0.7-0.05-0.3-1.8-0.2-0.2 0.05-0.1 0.1-0.3 0.45-0.4 0.6-0.4 0.6-0.3 0.45-0.1 0.1-1.85 0.5-1.85 0.3-1.15 0.1h-0.3q-0.95 0.15-1.05 0.45l-0.25 0.6-0.05 0.45 0.05 0.1v0.1 0.1l0.05 0.35 0.25 0.9 0.2 0.7 0.55 1.6 1.3 1.05 1.5 0.8 1.55 0.45 0.55 0.05h0.95 0.45l0.55-0.05 1.95-0.5q0.9-0.4 1.3-0.7l0.5-0.55 0.3-0.75 0.6-1.65 0.1-0.45 0.25-0.85 0.25-1.3-0.25-0.4-0.35-0.15-0.25-0.15m8.6 35.3q-2.8-0.2-3.35 1.65l-0.1 1.3q3.5 8.55 6.3 19.5l0.5 2.05 1.15 5.75 0.55 3.3 0.55 4.35 0.05 0.6 0.5 5.75h0.25l20.6 2.6h0.05v-0.5l-0.1-7.15-0.3-3.65-0.65-5.3q-0.7-5.1-2.9-12.5 1.5-1.95 3.55-2.8l2.9-0.65 47.25 6.5 10.6-7.45-1.45-1-85.95-12.35m-5.7-19.55l-1.6 3.1q-3.05 2.5-7.15 2.55-3.85 0-7.45-1.4-2.6-1.05-4.8-2.65l-1.95-1.55-2.05-2.15-0.55-0.75-6 0.9q1.65 4.7 2 7.55l0.7 5.4q0.35 2.6 0.05 8.1l-4.8-2.95 5.3 8.6 2.45-1.3 5.9-2.95 6.7-3.25 3.7-1.7q7.25-3.1 15-2.55h0.05 0.05l-0.8-4.05q-0.4-4.3-0.2-7.3-2.2-1.1-4.55-1.65m13.35 26.1q0.75-0.9 1.85-0.9 1.05-0.05 1.8 0.8 0.8 0.85 0.85 2.05v0.25q-0.05 1.05-0.7 1.8l-1.05 0.75-0.8 0.15q-1.05 0-1.8-0.8-0.8-0.8-0.85-2.05-0.05-1.2 0.7-2.05m3.5 17q0-1.15 0.75-2l0.25-0.3q0.65-0.65 1.55-0.65t1.6 0.6l0.25 0.25q0.75 0.85 0.8 2 0.05 1.25-0.7 2.1-0.6 0.7-1.45 0.85h-0.35q-1.1 0.05-1.85-0.75-0.8-0.8-0.85-1.95v-0.15m23.65-3.3l-0.65 0.25q4.7 6.35 5.1 12.55 0.4 7.55-2.75 13.85l-0.55 1.05 20.4 2.4q5.5-18.25 7-20.2l7.35-5.05-35.9-4.85m-30.35 29.65l-0.1 5.1 4.7 0.3 4.25 0.3h0.05 0.15l8.35 0.85h0.05l4.85 0.65q10.05 1.55 16.1 4.15l0.25 0.1 5.95 3.35 3 2.15 3.45 3.05 0.2 0.2 0.4 0.45 0.1 0.05 52.15 5.35 3.8-4.65q1.75-2.35 4.5-2.25l7.15 0.2-0.2-4.9-119.15-14.45m11.3-12.85q1.1-0.05 1.9 0.8 0.75 0.85 0.75 2.05 0.05 1.2-0.65 2.05-0.75 0.85-1.85 0.9-0.7 0-1.25-0.35l-0.35-0.25-0.2-0.2-0.55-0.75-0.3-1.3q-0.05-1.2 0.7-2.05l0.65-0.55q0.5-0.35 1.15-0.35m-87.4 112.9q-1.6-4.35-1.75-12.95l-33.2 23.35q3.2 1.85 6.05 5.45l1.8 2.5 11.1-7.55 16-10.8m1.05-60l-7.3 5.25 9.6-5.25q28.7-15.4 46.35-21.3l7.75-2.25q2.85 1.15 5.4 3 8.05 6.05 12.1 19.8l58.75 5.1-1.45-4.35-1.05-2.6q-1.95-4.2-4.65-8.05v-0.05l-2.35-3.1-3.25-3.4-4.15-3.4q-1.45-1.1-3-2l-3.25-1.25q-5.3-1.85-12.25-2.9l-10.95-1.25-2.25-0.15-0.6-0.05-10.3-0.65-7.1-0.5-6.45-0.5-7.3 2.3q-7.15 2.45-14.55 5.8-18.15 8.2-37.75 21.75m177.5-52.05l-0.35-0.85-6.85 3.6 0.55 5.7-0.2 4.15-0.05 0.3-0.45 2.55-0.35 1.25-0.4 1.25 12.65 1.6-0.2-2.15-0.65-4.45-0.3-1.75-0.7-2.9q-1.1-4.35-2.7-8.3m-28.7 14.8l-0.05 0.5 15.1 1.95v-0.1l0.2-0.6 0.1-0.4 0.05-0.2 0.4-1.25v0.05l0.4-2.15v-0.1l0.3-3.75-0.15-3.25-16.1 8.45-0.25 0.85m-143.25 78.45v2.5l0.25 3.55q1.05 12.45 6.85 22l1 1.55 0.4 0.55q7.65 11.05 18.95 11.1h0.2q11.45-0.15 20.4-11.65l1.15-1.55 1-1.45 1.6-2.45q2.1-3.6 3.65-7.5 3.6-9.15 4.2-20.25l0.05-3.3q0.05-2.25-0.05-4.35-0.75-13.7-7.05-24l-0.75-1.25-6.15 4.35 1.5 2.25q4.8 8.1 5.6 18.65 0.15 2 0.15 4.1l-0.1 3.35v0.05 0.15q-0.9 15.1-8.45 25.85-3.25 4.55-6.85 7.2l-0.1 0.15-1.3 0.8-1.75 1h-0.05q-9.6 3.65-16.85-1.65 4.7 2.3 12.5 0.6l-1.65-0.75q-4.95-2.65-8.7-8.9-1.3-2.2-2.3-4.55l-10.05-0.25-1.1-3.7 9.8 0.3q-1-3.2-1.55-6.75l-9.45-0.3-0.3-3.4v-5.4l-4.7 3.35m12.65 48.75l-2.65 0.65q-3.75 1.35-6.95 5.55-3.45 4.35-4.9 10.05l-0.7 3.5-0.2 1.55-0.25 2.9 0.05 1.75q0.15 5.9 2.7 10.45l0.4 0.75 0.2 0.25q3.35 5.25 8.75 5.3h0.1q5.45-0.05 10-5.55l0.6-0.75 0.55-0.65 0.8-1.2 1.95-3.6q1.95-4.35 2.55-9.65l0.1-1.55q0.5-7.85-2.65-13.55l-1.9-2.8-0.15-0.1q-3-3.35-7.3-3.35l-1.1 0.05m-58.7-12.75l-2.35-2-4.35 3.1q3.6 1.6 6.35 6.1 4.15 7.05 3.65 17-0.55 9.95-5.5 16.95-2.1 2.95-4.45 4.7l-0.9 0.6-1.15 0.65q-6.3 2.35-11-1.1 3.05 1.5 8.15 0.4-3.9-1.55-6.75-6.3l-1.45-2.95-6.55-0.2-0.75-2.35 6.4 0.2q-0.7-2.1-1.05-4.4l-6.15-0.2-0.15-2.2v-3.8q0.25-5.05 1.65-9.3l-3.7 2.6v0.05q-0.7 3.25-0.85 6.85l-0.05 3.95 0.1 2.3q0.7 8 4.45 14.2l0.85 1.35q4.95 7.1 12.3 7.1h0.1q7.85-0.05 13.9-8.45l0.65-0.95 1-1.6q1.35-2.3 2.4-4.85 2.3-5.9 2.7-13.05 0.6-12-4.55-20.45-1.35-2.15-2.8-3.75l-0.15-0.2m60.3 18.7q2.85 0.8 4.75 4.3 2.2 4 1.9 9.55l-0.05 1.4q-0.75 6.4-4.2 10.95-1.5 1.9-3.05 3.05l-0.05 0.05-0.55 0.3-0.8 0.45q-4.1 1.5-7.05-0.7 1.75 0.85 4.6 0.35l0.65-0.15-0.6-0.25q-2.1-1.1-3.55-3.75l-0.85-1.95-4.2-0.1-0.35-1.5 4.1 0.1-0.5-2.85-4-0.1v-1.45l0.15-2.45 0.15-1.4q0.55-3.45 1.95-6.25 0.8-1.8 2-3.3 3.45-4.6 7.65-4.6l0.7 0.1 1.2 0.2m-27.65-19.15l-0.05-0.1-8.15 5 0.75 4.6 11.1-5.45q-0.85-0.6-1.55-1.35l-0.75-0.9-1.2-1.9-0.15 0.1m-14.2 29.65q2.75-3.7 6.2-3.7l0.55 0.05 0.95 0.15q2.35 0.65 4 3.5 1.85 3.3 1.7 7.8l-0.05 1.15q-0.5 5.25-3.25 8.95-1.15 1.55-2.4 2.5l-0.05 0.05-0.45 0.25-0.6 0.3q-3.35 1.25-5.75-0.55 1.4 0.7 3.7 0.35l0.55-0.15-0.5-0.2q-1.7-0.95-2.95-3.1l-0.75-1.55-3.4-0.1-0.35-1.25 3.35 0.1-0.4-2.3-3.3-0.1-0.05-1.15 0.1-2.05 0.1-1.15q0.35-2.8 1.45-5.1l1.6-2.7m221.1-102.05h-0.05q-5.35-6.35-13.8-10-3.15-1.35-6.65-2.3l-46.9-4.6q3.3 5 5.45 10.75l0.6 1.8 1.5 5.55 0.05 0.25v0.25 0.25l-0.05 0.2-0.55 1-9.7 9.35 0.1 4.6 75.85 6.95q1.4-14.9-5.85-24.05m-226.85 109.8l-0.15 1.3-0.1 2.4 0.05 1.35q0.25 4.85 2.35 8.55l0.35 0.65 0.15 0.2q2.85 4.3 7.3 4.3h0.05q4.45-0.05 8.05-4.5l0.5-0.65 0.4-0.55 0.65-0.95 1.5-2.95q1.5-3.55 1.9-7.85l0.1-1.3q0.25-6.4-2.4-11.05-0.75-1.3-1.6-2.25l-0.15-0.1q-2.5-2.75-6-2.7l-0.85 0.05-2.15 0.45q-3.05 1.1-5.6 4.55-2.7 3.6-3.85 8.2l-0.5 2.85m164.9-100.25q0.85-0.9 2-0.9 1.25 0 2.1 0.9 0.85 0.85 0.85 2.05-0.05 1.2-0.85 2v0.05q-0.85 0.8-2.1 0.8-1.15 0-2-0.85v0.05q-0.85-0.85-0.85-2.05t0.85-2.05m23.85 2.05q0.85 0.8 0.9 2-0.05 1.2-0.85 2.05l-0.05 0.05q-0.8 0.8-2 0.8t-2.05-0.85v0.05q-0.9-0.85-0.9-2.1 0-1.2 0.9-2 0.85-0.9 2.05-0.9t2.05 0.9h-0.05m-36.1 2.05l-49.1-3.15-0.35 15.1-0.4 6.5-0.05 1.15q-1.25 16.95-5.75 33.2l-1.3 4.35q-5.85 18.9-17.05 35.6-9.2 13.6-21.8 22.5h49.9q5.2-2.5 9.95-5.95 3.3-2.5 6.3-5.45l-13.4-0.15q-0.5-0.05-0.8-0.35-0.35-0.35-0.35-0.75-0.05-0.45 0.3-0.8l3.65-4.55 0.4-0.35 0.5-0.1 14.9 0.25 0.7 0.2q3.4-4.45 6.15-9.35l4.75-9.3 0.4-0.75-14.15-0.75-0.7-0.2-0.35-0.65v-0.75l2-4.5 0.45-0.55 0.7-0.2 14.45 0.75 0.35 0.05q3.3-8.65 5.2-17.65l0.8-3.55-13.8-0.8q-0.35-0.05-0.6-0.25l-0.4-0.55q-0.15-0.3-0.05-0.6l0.9-4.6q0.05-0.45 0.4-0.7l0.8-0.2 13.85 0.8h0.15q1.75-10.6 2.2-21.35l-14.2-0.9q-0.5-0.05-0.8-0.4t-0.3-0.7v-0.15l0.3-4.65q0-0.5 0.4-0.8l0.85-0.3 14 0.95v-14.65m73.75 1.8q0.85 0.8 0.9 2-0.05 1.2-0.85 2.05l-0.05 0.05q-0.8 0.8-2 0.85-1.2-0.05-2.05-0.9v0.05q-0.9-0.85-0.9-2.1 0-1.2 0.9-2 0.85-0.9 2.05-0.9t2.05 0.9h-0.05m-17.8-1.9q0.85 0.85 0.85 2.05t-0.85 2.05q-0.85 0.8-2.05 0.85-1.2 0-2.05-0.85t-0.85-2.05 0.85-2.05q0.85-0.9 2.05-0.85 1.2-0.05 2.05 0.85"/>
<path fill="#ffffff" d="m76.25-121.45q-0.85-0.9-2.05-0.85-1.2-0.05-2.05 0.85-0.85 0.85-0.85 2.05t0.85 2.05 2.05 0.85q1.2-0.05 2.05-0.85 0.85-0.85 0.85-2.05t-0.85-2.05m66-152.4q-5.65 5.2-5.9 12.9-0.1 2.75 0.55 5.3v0.05q0.7 2.75 2.3 5.25l0.05 0.05 0.1 0.1 2.05 2.6v0.05l0.75 0.75h0.05q1.95 1.95 4.3 3.2 3.6 1.9 8 2.1 7.75 0.35 13.4-4.85 3.65-3.35 4.2-5.9l-21.85 6.45q-1.85-0.65-3.45-1.8l27.05-12.75 0.05-0.55q-0.05-3.8-1.55-5.5l-28.3 16.3q-2.25-2.5-3.1-5.6l20.9-19.3q1.55-0.25 4.6 1l0.7 0.35q-1.85-2.15-5.15-3.65l-1.2-0.5q-2.45-0.8-5.15-0.9-7.75-0.35-13.4 4.85m12-8.45q9.6 0.4 16.15 7.45l2.7 3.4q3.8 5.85 3.6 13.15-0.3 9.4-7.2 15.8-3.7 3.35-8 4.85h-0.05l-0.05 0.05-0.1 0.05q-3.9 1.25-8.35 1.05-6.55-0.35-11.6-3.7l-0.15-0.05-0.8-0.55-0.5-0.35-3.1-2.85q-1.6-1.75-2.75-3.6-1.95-3-2.8-6.35-0.55-2.55-0.6-4.8l-0.05-2.85q-2.4 4.55-2.1 8.75l-25.35 17.4q-0.4-1.6-0.45-3.25v-0.05q-0.15-1.7 0.05-3.25 0.1-1.4 0.5-2.65l0.05-0.05v-0.05h0.05v-0.05-0.05l0.95-2.55q1.05-2.2 2.8-4.15l0.35-0.4 6.3-5.4q10.2-8.8 21.4-17.6l5.1-3.8q6.3-3.95 14-3.55m-54.8 43.75q0.1 2.35 0.7 4.5 0.7 2.6 2.05 4.9v0.05l-69.45 42.25-0.15-0.45q-0.45-1.25-0.55-2.6v-1.5l0.1-0.65q0.4-2.2 1.9-3.9l1.75-1.5 0.05-0.05 63.6-44.1v3.05m56.55 105.55q3.3 5.15 5.85 10.7l-47.2-4.5q-1.7-10.85-8.95-18.2-4.95-5.05-12.5-8.4l-0.85-0.35-0.55-0.25h0.55 0.1 0.2l0.8 0.05q27.4 1.2 43.45 4.85 4.3 1.35 8.15 4.1 6.05 4.3 10.95 12m-19.4 35.35v0.05l-0.35 4.2q0 0.4 0.3 0.75 0.25 0.3 0.7 0.35l13.45 0.9q-0.4 10.4-2.4 20.65l-0.2-0.05-14.55-0.8-0.65 0.2-0.4 0.55-0.25 1.05-0.05 0.05-0.9 3.55q-0.1 0.25 0.05 0.55h-0.05l0.35 0.5q0.25 0.2 0.6 0.2l14.5 0.85q-2.5 9.6-6.45 18.6l-0.3-0.05-15-0.75-0.6 0.15-0.4 0.5-0.4 0.85v0.05l-0.2 0.4-0.15 0.35-1.4 2.8q-0.2 0.35-0.1 0.7t0.35 0.6h0.05q0.25 0.2 0.6 0.25l14.4 0.7-0.75 1.45-3.3 5.75q-3.15 5.15-6.9 9.75l-0.65-0.3-14.75-0.2-0.5 0.1-0.35 0.25-2.6 3.2-0.05 0.1-0.05 0.05-1.1 1.2q-0.3 0.35-0.3 0.8 0 0.4 0.35 0.7 0.3 0.25 0.7 0.25l13.35 0.2q-5.5 5.3-12.05 9.55h-39.7l6.1-5.5 6.15-6.65q8.3-9.8 13.95-21.45l1.15-2.35q5.7-12 8.9-24.95l0.65-2.6q3.75-15.65 4.3-31.7l0.05-0.45q0.1-5.3-0.2-10.6l40.7 3.7 0.45 6.9 0.05 1.05 0.05 2.55-13.1-0.85-0.7 0.2q-0.35 0.3-0.35 0.7l-0.05 0.45m-195.1-179.15q10.3-1 19.5 1.75l0.45 0.9q0.4 2.5-0.7 5.85v0.05q-0.1 0.45-0.5 0.95l-2.55-0.1-0.05-0.2-0.5-1.4-0.05-0.1-0.3-0.8v-0.05q-0.4-0.9-1.15-0.9h-0.05l-2.8-0.25q-0.9-0.1-1.45 0.85l-0.85 1.05-0.1 0.15-0.45 0.55q-0.75 0.55-2 0.55l-6.8-0.5q-0.6-0.3-0.85-3.35v-0.05l0.15-4.4 0.5-0.3 0.25-0.15 0.3-0.1m15.95 12.2l0.25 0.15 0.35 0.15 0.25 0.4-0.25 1.3-0.25 0.85-0.1 0.45-0.6 1.65-0.3 0.75-0.5 0.55q-0.4 0.3-1.3 0.7l-1.95 0.5-0.55 0.05h-0.45-0.95l-0.55-0.05-1.55-0.45-1.5-0.8-1.3-1.05-0.55-1.6-0.2-0.7-0.25-0.9-0.05-0.35v-0.1-0.1l-0.05-0.1 0.05-0.45 0.25-0.6q0.1-0.3 1.05-0.45h0.3l1.15-0.1 1.85-0.3 1.85-0.5 0.1-0.1 0.3-0.45 0.4-0.6 0.4-0.6 0.3-0.45 0.1-0.1 0.2-0.05 1.8 0.2 0.05 0.3 0.25 0.7 0.2 0.7 0.2 0.6 0.1 0.45 0.1 0.1 0.65 0.2 0.7 0.2m2.9 15.75q2.35 0.55 4.55 1.65-0.2 3 0.2 7.3l0.8 4.05h-0.05-0.05q-7.75-0.55-15 2.55l-3.7 1.7-6.7 3.25-5.9 2.95-2.45 1.3-5.3-8.6 4.8 2.95q0.3-5.5-0.05-8.1l-0.7-5.4q-0.35-2.85-2-7.55l6-0.9 0.55 0.75 2.05 2.15 1.95 1.55q2.2 1.6 4.8 2.65 3.6 1.4 7.45 1.4 4.1-0.05 7.15-2.55l1.6-3.1m5.7 19.55l85.95 12.35 1.45 1-10.6 7.45-47.25-6.5-2.9 0.65q-2.05 0.85-3.55 2.8 2.2 7.4 2.9 12.5l0.65 5.3 0.3 3.65 0.1 7.15v0.5h-0.05l-20.6-2.6h-0.25l-0.5-5.75-0.05-0.6-0.55-4.35-0.55-3.3-1.15-5.75-0.5-2.05q-2.8-10.95-6.3-19.5l0.1-1.3q0.55-1.85 3.35-1.65m11.15 23.55v0.15q0.05 1.15 0.85 1.95 0.75 0.8 1.85 0.75h0.35q0.85-0.15 1.45-0.85 0.75-0.85 0.7-2.1-0.05-1.15-0.8-2l-0.25-0.25q-0.7-0.6-1.6-0.6t-1.55 0.65l-0.25 0.3q-0.75 0.85-0.75 2m-3.5-17q-0.75 0.85-0.7 2.05 0.05 1.25 0.85 2.05 0.75 0.8 1.8 0.8l0.8-0.15 1.05-0.75q0.65-0.75 0.7-1.8v-0.25q-0.05-1.2-0.85-2.05-0.75-0.85-1.8-0.8-1.1 0-1.85 0.9m-3.2 43.35l119.15 14.45 0.2 4.9-7.15-0.2q-2.75-0.1-4.5 2.25l-3.8 4.65-52.15-5.35-0.1-0.05-0.4-0.45-0.2-0.2-3.45-3.05-3-2.15-5.95-3.35-0.25-0.1q-6.05-2.6-16.1-4.15l-4.85-0.65h-0.05l-8.35-0.85h-0.15-0.05l-4.25-0.3-4.7-0.3 0.1-5.1m30.35-29.65l35.9 4.85-7.35 5.05q-1.5 1.95-7 20.2l-20.4-2.4 0.55-1.05q3.15-6.3 2.75-13.85-0.4-6.2-5.1-12.55l0.65-0.25m-19.05 16.8q-0.65 0-1.15 0.35l-0.65 0.55q-0.75 0.85-0.7 2.05l0.3 1.3 0.55 0.75 0.2 0.2 0.35 0.25q0.55 0.35 1.25 0.35 1.1-0.05 1.85-0.9 0.7-0.85 0.65-2.05 0-1.2-0.75-2.05-0.8-0.85-1.9-0.8m62.45 15.65l0.25-0.85 16.1-8.45 0.15 3.25-0.3 3.75v0.1l-0.4 2.15v-0.05l-0.4 1.25-0.05 0.2-0.1 0.4-0.2 0.6v0.1l-15.1-1.95 0.05-0.5m28.7-14.8q1.6 3.95 2.7 8.3l0.7 2.9 0.3 1.75 0.65 4.45 0.2 2.15-12.65-1.6 0.4-1.25 0.35-1.25 0.45-2.55 0.05-0.3 0.2-4.15-0.55-5.7 6.85-3.6 0.35 0.85m-177.5 52.05q19.6-13.55 37.75-21.75 7.4-3.35 14.55-5.8l7.3-2.3 6.45 0.5 7.1 0.5 10.3 0.65 0.6 0.05 2.25 0.15 10.95 1.25q6.95 1.05 12.25 2.9l3.25 1.25q1.55 0.9 3 2l4.15 3.4 3.25 3.4 2.35 3.1v0.05q2.7 3.85 4.65 8.05l1.05 2.6 1.45 4.35-58.75-5.1q-4.05-13.75-12.1-19.8-2.55-1.85-5.4-3l-7.75 2.25q-17.65 5.9-46.35 21.3l-9.6 5.25 7.3-5.25m-1.05 60l-16 10.8-11.1 7.55-1.8-2.5q-2.85-3.6-6.05-5.45l33.2-23.35q0.15 8.6 1.75 12.95m6.6-18.8l4.7-3.35v5.4l0.3 3.4 9.45 0.3q0.55 3.55 1.55 6.75l-9.8-0.3 1.1 3.7 10.05 0.25q1 2.35 2.3 4.55 3.75 6.25 8.7 8.9l1.65 0.75q-7.8 1.7-12.5-0.6 7.25 5.3 16.85 1.65h0.05l1.75-1 1.3-0.8 0.1-0.15q3.6-2.65 6.85-7.2 7.55-10.75 8.45-25.85v-0.15-0.05l0.1-3.35q0-2.1-0.15-4.1-0.8-10.55-5.6-18.65l-1.5-2.25 6.15-4.35 0.75 1.25q6.3 10.3 7.05 24 0.1 2.1 0.05 4.35l-0.05 3.3q-0.6 11.1-4.2 20.25-1.55 3.9-3.65 7.5l-1.6 2.45-1 1.45-1.15 1.55q-8.95 11.5-20.4 11.65h-0.2q-11.3-0.05-18.95-11.1l-0.4-0.55-1-1.55q-5.8-9.55-6.85-22l-0.25-3.55v-2.5m-46.05 36l0.15 0.2q1.45 1.6 2.8 3.75 5.15 8.45 4.55 20.45-0.4 7.15-2.7 13.05-1.05 2.55-2.4 4.85l-1 1.6-0.65 0.95q-6.05 8.4-13.9 8.45h-0.1q-7.35 0-12.3-7.1l-0.85-1.35q-3.75-6.2-4.45-14.2l-0.1-2.3 0.05-3.95q0.15-3.6 0.85-6.85v-0.05l3.7-2.6q-1.4 4.25-1.65 9.3v3.8l0.15 2.2 6.15 0.2q0.35 2.3 1.05 4.4l-6.4-0.2 0.75 2.35 6.55 0.2 1.45 2.95q2.85 4.75 6.75 6.3-5.1 1.1-8.15-0.4 4.7 3.45 11 1.1l1.15-0.65 0.9-0.6q2.35-1.75 4.45-4.7 4.95-7 5.5-16.95 0.5-9.95-3.65-17-2.75-4.5-6.35-6.1l4.35-3.1 2.35 2m58.7 12.75l1.1-0.05q4.3 0 7.3 3.35l0.15 0.1 1.9 2.8q3.15 5.7 2.65 13.55l-0.1 1.55q-0.6 5.3-2.55 9.65l-1.95 3.6-0.8 1.2-0.55 0.65-0.6 0.75q-4.55 5.5-10 5.55h-0.1q-5.4-0.05-8.75-5.3l-0.2-0.25-0.4-0.75q-2.55-4.55-2.7-10.45l-0.05-1.75 0.25-2.9 0.2-1.55 0.7-3.5q1.45-5.7 4.9-10.05 3.2-4.2 6.95-5.55l2.65-0.65m1.6 5.95l-1.2-0.2-0.7-0.1q-4.2 0-7.65 4.6-1.2 1.5-2 3.3-1.4 2.8-1.95 6.25l-0.15 1.4-0.15 2.45v1.45l4 0.1 0.5 2.85-4.1-0.1 0.35 1.5 4.2 0.1 0.85 1.95q1.45 2.65 3.55 3.75l0.6 0.25-0.65 0.15q-2.85 0.5-4.6-0.35 2.95 2.2 7.05 0.7l0.8-0.45 0.55-0.3 0.05-0.05q1.55-1.15 3.05-3.05 3.45-4.55 4.2-10.95l0.05-1.4q0.3-5.55-1.9-9.55-1.9-3.5-4.75-4.3m-27.65-19.15l0.15-0.1 1.2 1.9 0.75 0.9q0.7 0.75 1.55 1.35l-11.1 5.45-0.75-4.6 8.15-5 0.05 0.1m-14.2 29.65l-1.6 2.7q-1.1 2.3-1.45 5.1l-0.1 1.15-0.1 2.05 0.05 1.15 3.3 0.1 0.4 2.3-3.35-0.1 0.35 1.25 3.4 0.1 0.75 1.55q1.25 2.15 2.95 3.1l0.5 0.2-0.55 0.15q-2.3 0.35-3.7-0.35 2.4 1.8 5.75 0.55l0.6-0.3 0.45-0.25 0.05-0.05q1.25-0.95 2.4-2.5 2.75-3.7 3.25-8.95l0.05-1.15q0.15-4.5-1.7-7.8-1.65-2.85-4-3.5l-0.95-0.15-0.55-0.05q-3.45 0-6.2 3.7m-5.75 7.75l0.5-2.85q1.15-4.6 3.85-8.2 2.55-3.45 5.6-4.55l2.15-0.45 0.85-0.05q3.5-0.05 6 2.7l0.15 0.1q0.85 0.95 1.6 2.25 2.65 4.65 2.4 11.05l-0.1 1.3q-0.4 4.3-1.9 7.85l-1.5 2.95-0.65 0.95-0.4 0.55-0.5 0.65q-3.6 4.45-8.05 4.5h-0.05q-4.45 0-7.3-4.3l-0.15-0.2-0.35-0.65q-2.1-3.7-2.35-8.55l-0.05-1.35 0.1-2.4 0.15-1.3m226.85-109.8q7.25 9.15 5.85 24.05l-75.85-6.95-0.1-4.6 9.7-9.35 0.55-1 0.05-0.2v-0.25-0.25l-0.05-0.25-1.5-5.55-0.6-1.8q-2.15-5.75-5.45-10.75l46.9 4.6q3.5 0.95 6.65 2.3 8.45 3.65 13.8 10h0.05m-0.45 15.45h0.05q-0.85-0.9-2.05-0.9t-2.05 0.9q-0.9 0.8-0.9 2 0 1.25 0.9 2.1v-0.05q0.85 0.85 2.05 0.9 1.2-0.05 2-0.85l0.05-0.05q0.8-0.85 0.85-2.05-0.05-1.2-0.9-2m-73.75-1.8v14.65l-14-0.95-0.85 0.3q-0.4 0.3-0.4 0.8l-0.3 4.65v0.15q0 0.35 0.3 0.7t0.8 0.4l14.2 0.9q-0.45 10.75-2.2 21.35h-0.15l-13.85-0.8-0.8 0.2q-0.35 0.25-0.4 0.7l-0.9 4.6q-0.1 0.3 0.05 0.6l0.4 0.55q0.25 0.2 0.6 0.25l13.8 0.8-0.8 3.55q-1.9 9-5.2 17.65l-0.35-0.05-14.45-0.75-0.7 0.2-0.45 0.55-2 4.5v0.75l0.35 0.65 0.7 0.2 14.15 0.75-0.4 0.75-4.75 9.3q-2.75 4.9-6.15 9.35l-0.7-0.2-14.9-0.25-0.5 0.1-0.4 0.35-3.65 4.55q-0.35 0.35-0.3 0.8 0 0.4 0.35 0.75 0.3 0.3 0.8 0.35l13.4 0.15q-3 2.95-6.3 5.45-4.75 3.45-9.95 5.95h-49.9q12.6-8.9 21.8-22.5 11.2-16.7 17.05-35.6l1.3-4.35q4.5-16.25 5.75-33.2l0.05-1.15 0.4-6.5 0.35-15.1 49.1 3.15m36.1-2.05h0.05q-0.85-0.9-2.05-0.9t-2.05 0.9q-0.9 0.8-0.9 2 0 1.25 0.9 2.1v-0.05q0.85 0.85 2.05 0.85t2-0.8l0.05-0.05q0.8-0.85 0.85-2.05-0.05-1.2-0.9-2m-23.85-2.05q-0.85 0.85-0.85 2.05t0.85 2.05v-0.05q0.85 0.85 2 0.85 1.25 0 2.1-0.8v-0.05q0.8-0.8 0.85-2 0-1.2-0.85-2.05-0.85-0.9-2.1-0.9-1.15 0-2 0.9"/>
</svg>
