<?xml version="1.0" encoding="UTF-8"?>
<svg version="1.1" viewBox="25 85 450 330" xmlns="http://www.w3.org/2000/svg">
<!-- Based on https://openclipart.org/detail/193993/openclipart-scissors-logo-in-green-by-openclipart-193993 -->
<g transform="matrix(2.4048,0,0,2.4048,-752.2533,-131.48775)">
	<path fill="#4e9a06" d="M 351.2772,94.478848 C 341.3945,94.393992 331.24805,98.734969 328.27783,106.83735 323.86322,116.61372 330.94754,128.035 343.04483,131.55494 343.08345,131.56486 343.13947,131.54502 343.17515,131.55494 356.36692,136.3231 372.78605,138.65126 387.08323,153.44469 L 392.4411,158.99559 387.60595,163.91815 C 373.26671,178.68635 356.90347,180.95847 343.69728,185.70277 343.66845,185.71713 343.60053,185.68841 343.56693,185.70277 331.50342,189.18838 324.50621,200.55447 328.79994,210.31521 328.81497,210.34406 328.78492,210.38955 328.79994,210.4199 332.47,220.29782 346.8844,224.67084 358.4643,222.04546 358.50281,222.03801 358.5556,222.05292 358.59461,222.04546 370.45448,219.97797 380.16476,210.3286 377.41263,200.57505 376.05476,195.76286 374.31715,193.52798 372.70823,192.19608 371.90366,191.53011 371.20172,191.11414 370.74801,190.72984 370.29442,190.34553 368.38584,189.27571 368.38584,189.27571 369.56684,188.41613 370.25665,188.00947 371.27052,187.37836 372.7853,186.39122 375.43163,185.17839 378.84986,183.71262 385.62658,180.80674 395.60722,176.70401 407.07657,170.09731 427.82065,181.88867 454.77431,197.16032 469.67107,205.60236 484.56843,214.04443 499.81605,209.78658 506.13077,205.91639 L 426.234,159.02128 506.58736,111.66837 C 494.13333,103.9875 479.92146,107.24019 470.45448,111.86472 449.40761,123.80147 428.29345,135.68175 407.20513,147.57884 397.58918,142.32298 387.27089,137.50389 378.32539,133.64933 374.90386,132.17528 372.26359,130.97547 370.74603,129.98359 369.98709,129.48768 368.06713,128.41259 368.06713,128.41259 369.82229,127.38958 371.68204,125.50448 373.03305,124.06611 374.38407,122.62775 375.97414,120.4977 376.88816,116.78715 379.29726,106.97591 369.91919,97.300486 358.06595,95.211602 355.77101,94.704543 353.2958,94.630045 351.2688,94.478643 z M 349.97047,102.75269 C 354.38164,102.54551 358.9346,103.7519 361.86216,106.10423 366.2487,109.6283 367.08419,114.48259 365.39055,118.46272 363.69681,122.44326 359.63707,125.38542 353.89057,125.37521 H 353.76024 C 348.49314,125.61923 343.35666,123.18635 340.29992,119.61483 337.24379,116.04329 336.37254,111.60172 339.38525,107.7796 V 107.67478 C 341.46663,104.5042 345.5618,102.95924 349.97025,102.75228 z M 353.36807,191.88334 C 353.75882,191.87587 354.16206,191.86897 354.41349,191.88334 360.16078,191.88304 364.22951,194.81655 365.91348,198.79584 367.59737,202.77503 366.7817,207.638 362.38514,211.15432 359.45396,213.49871 354.77576,214.81765 350.36247,214.61056 345.94919,214.4034 341.98108,212.75843 339.90783,209.5833 L 339.77749,209.47861 C 336.87036,205.77245 337.71436,201.57964 340.56156,198.06273 343.40868,194.54581 348.29169,191.95707 353.36822,191.88317 z" />
</g>
</svg>
