<?xml version="1.0" encoding="UTF-8"?>
<svg version="1.1" viewBox="0 0 310 290" xmlns="http://www.w3.org/2000/svg">
<!-- Based on https://openclipart.org/detail/177065/openclipart-scissors-logo-by-rejon-177065 -->
<g transform="translate(-52.93 -72.46)">
	<g transform="matrix(.73819 0 0 .73819 -107.35 -18.486)">
		<path d="m242.24 457.26c2.9343 0.00004 5.5779 0.4891 7.9307 1.4672 2.3792 0.97816 4.3883 2.366 6.0273 4.1636 1.6654 1.7976 2.9343 3.9786 3.8067 6.5428 0.89876 2.5378 1.3482 5.3796 1.3482 8.5254-0.00004 3.1723-0.44945 6.0273-1.3482 8.5651-0.87241 2.5378-2.1413 4.7055-3.8067 6.5031-1.639 1.7976-3.6481 3.1855-6.0273 4.1636-2.3528 0.95168-4.9963 1.4275-7.9307 1.4275s-5.5911-0.47584-7.9703-1.4275c-2.3528-0.97811-4.3619-2.366-6.0273-4.1636s-2.9476-3.9653-3.8464-6.5031c-0.89881-2.5378-1.3482-5.3928-1.3482-8.5651 0-3.1458 0.4494-5.9876 1.3482-8.5254 0.89881-2.5642 2.1809-4.7451 3.8464-6.5428 1.6654-1.7976 3.6745-3.1854 6.0273-4.1636 2.3792-0.97807 5.0359-1.4671 7.9703-1.4672m0 35.847c3.9653 0 6.9261-1.3218 8.8823-3.9653 1.9562-2.67 2.9343-6.3842 2.9343-11.143-0.00004-4.7848-0.97815-8.5122-2.9343-11.182-1.9563-2.67-4.917-4.0049-8.8823-4.005-2.0091 0.00004-3.7539 0.3437-5.2342 1.031-1.4804 0.68735-2.7229 1.6787-3.7274 2.974-0.97812 1.2954-1.7183 2.8947-2.2206 4.798-0.47585 1.8769-0.71377 4.005-0.71376 6.3842-0.00001 2.3792 0.23791 4.5073 0.71376 6.3842 0.50227 1.8769 1.2425 3.4631 2.2206 4.7584 1.0045 1.2689 2.247 2.247 3.7274 2.9343 1.4804 0.68733 3.2251 1.031 5.2342 1.031" />
		<path d="m271.6 511.66v-53.77h4.2032c1.0045 0.00004 1.639 0.48909 1.9034 1.4672l0.5948 4.7584c1.7183-2.0884 3.6745-3.767 5.8687-5.036 2.2206-1.2689 4.7716-1.9033 7.6531-1.9034 2.2999 0.00004 4.3883 0.44944 6.2652 1.3482 1.8769 0.87241 3.4762 2.181 4.798 3.9257 1.3217 1.7183 2.3395 3.8596 3.0533 6.4238 0.71372 2.5643 1.0706 5.5118 1.0706 8.8427-0.00004 2.9608-0.39658 5.7233-1.1896 8.2875-0.7931 2.5378-1.9298 4.7452-3.4102 6.6221-1.4804 1.8505-3.3045 3.3177-5.4722 4.4015-2.1413 1.0574-4.5602 1.5861-7.2566 1.5861-2.485 0-4.613-0.40975-6.3842-1.2292-1.7448-0.8195-3.2912-1.9827-4.6394-3.4895v17.765h-7.0583m17.884-48.774c-2.2999 0.00003-4.3222 0.52874-6.067 1.5861-1.7183 1.0574-3.3044 2.5511-4.7584 4.4808v19.43c1.2953 1.7448 2.7096 2.974 4.2429 3.6878 1.5597 0.71377 3.2912 1.0706 5.1946 1.0706 3.7274 0 6.5956-1.335 8.6048-4.005 2.0091-2.67 3.0136-6.4767 3.0136-11.42-0.00004-2.6171-0.23796-4.8641-0.71376-6.7411-0.44944-1.8769-1.1103-3.4102-1.9827-4.5998-0.8724-1.216-1.943-2.1016-3.2119-2.6568-1.2689-0.55512-2.7097-0.83269-4.3222-0.83272" />
		<path d="m332.95 457.26c2.4056 0.00004 4.6262 0.40979 6.6617 1.2292 2.0355 0.79311 3.7935 1.9563 5.2739 3.4895 1.4804 1.5069 2.6303 3.3838 3.4498 5.6308 0.8459 2.2206 1.2689 4.7584 1.2689 7.6134-0.00004 1.1103-0.119 1.8505-0.35688 2.2206-0.23796 0.37011-0.68736 0.55516-1.3482 0.55514h-26.726c0.0529 2.5378 0.39652 4.7452 1.031 6.6221 0.63444 1.8769 1.5068 3.4498 2.6171 4.7187 1.1103 1.2425 2.432 2.1809 3.9653 2.8154 1.5332 0.60802 3.2516 0.91203 5.1549 0.91202 1.7712 0.00001 3.2912-0.19826 4.5601-0.5948 1.2953-0.42296 2.4056-0.87236 3.3309-1.3482 0.92521-0.47583 1.6918-0.91201 2.2999-1.3086 0.63442-0.42296 1.1763-0.63445 1.6258-0.63446 0.58155 0.00001 1.031 0.22471 1.3482 0.67411l1.9827 2.5775c-0.87241 1.0574-1.9166 1.9827-3.1326 2.7757-1.2161 0.76663-2.5246 1.4011-3.9257 1.9034-1.3747 0.50227-2.8022 0.87237-4.2826 1.1103-1.4804 0.26435-2.9476 0.39653-4.4015 0.39653-2.7758 0-5.34-0.46262-7.6927-1.3879-2.3263-0.95168-4.3486-2.3263-6.0669-4.1239-1.6919-1.824-3.0137-4.0711-3.9653-6.7411-0.95168-2.67-1.4275-5.7365-1.4275-9.1996 0-2.8021 0.42297-5.4192 1.2689-7.8513 0.87236-2.432 2.1148-4.5337 3.7274-6.3049 1.6126-1.7976 3.582-3.1987 5.9083-4.2032 2.3263-1.0309 4.9434-1.5464 7.8514-1.5465m0.15861 5.1946c-3.4102 0.00004-6.0934 0.99137-8.0496 2.974-1.9562 1.9562-3.1723 4.6791-3.6481 8.1686h21.849c-0.00004-1.639-0.22474-3.1326-0.67411-4.4808-0.44943-1.3746-1.1103-2.551-1.9827-3.5291-0.8724-1.0045-1.943-1.7712-3.2119-2.2999-1.2425-0.55511-2.67-0.83268-4.2826-0.83272" />
		<path d="m360.34 498.06v-40.169h4.2032c1.0045 0.00004 1.639 0.48909 1.9034 1.4672l0.55514 4.3619c1.7447-1.9298 3.6877-3.4894 5.829-4.6791 2.1677-1.1896 4.6658-1.7844 7.4945-1.7844 2.1941 0.00004 4.1239 0.37014 5.7894 1.1103 1.6918 0.7138 3.0929 1.7448 4.2032 3.093 1.1367 1.3218 1.9958 2.9212 2.5775 4.798 0.58155 1.877 0.87234 3.9521 0.87238 6.2256v25.576h-7.0583v-25.576c-0.00003-3.0401-0.70057-5.3928-2.1016-7.0583-1.3747-1.6918-3.4895-2.5378-6.3445-2.5378-2.0884 0.00003-4.0446 0.50231-5.8687 1.5068-1.7976 1.0046-3.4631 2.366-4.9963 4.0843v29.581h-7.0583" />
		<path d="m433.35 465.03c-0.21152 0.29083-0.423 0.51553-0.63446 0.67411-0.21151 0.15864-0.51552 0.23795-0.91202 0.23792-0.39656 0.00003-0.83275-0.15858-1.3086-0.47584-0.44943-0.34363-1.031-0.71373-1.7447-1.1103-0.71379-0.3965-1.5862-0.75338-2.6171-1.0706-1.0046-0.34363-2.247-0.51546-3.7274-0.51549-1.9562 0.00003-3.6878 0.35691-5.1946 1.0706-1.5068 0.68735-2.7758 1.6919-3.8067 3.0136-1.0046 1.3218-1.7712 2.9212-2.2999 4.798-0.50228 1.8769-0.75342 3.9786-0.75341 6.3049-0.00001 2.4321 0.27756 4.5998 0.83272 6.5031 0.55513 1.8769 1.335 3.4631 2.3395 4.7584 1.0045 1.2689 2.2206 2.247 3.6481 2.9343 1.4539 0.66089 3.0797 0.99133 4.8774 0.99133 1.7183 0 3.1326-0.19826 4.2429-0.5948 1.1103-0.42296 2.0355-0.88558 2.7757-1.3879 0.74017-0.50227 1.3482-0.95167 1.824-1.3482 0.47581-0.42296 0.95165-0.63445 1.4275-0.63446 0.60799 0.00001 1.0574 0.22471 1.3482 0.67411l1.9827 2.5775c-1.7448 2.1413-3.9257 3.7142-6.5428 4.7187-2.6171 0.97811-5.3796 1.4672-8.2875 1.4672-2.5114 0-4.8509-0.46262-7.0186-1.3879-2.1413-0.92524-4.005-2.2602-5.5911-4.005-1.5861-1.7712-2.8418-3.9389-3.7671-6.5031-0.89882-2.5642-1.3482-5.4854-1.3482-8.7634 0-2.9872 0.40975-5.7497 1.2293-8.2875 0.84593-2.5378 2.062-4.7187 3.6481-6.5428 1.6126-1.8504 3.5952-3.2912 5.948-4.3222 2.3527-1.0309 5.0492-1.5464 8.0893-1.5465 2.8021 0.00004 5.2871 0.46266 7.4548 1.3879 2.1677 0.89884 4.0842 2.181 5.7497 3.8464l-1.8637 2.5378" />
		<path d="m452.44 439.65v58.409h-7.0583v-58.409h7.0583" />
		<path d="m474.35 457.89v40.169h-7.0583v-40.169h7.0583m1.5861-12.61c-0.00002 0.68737-0.14541 1.335-0.43619 1.943-0.26437 0.58163-0.63446 1.1103-1.1103 1.5861-0.44941 0.44945-0.97812 0.80633-1.5861 1.0706-0.60803 0.2644-1.2557 0.39658-1.943 0.39653-0.68733 0.00005-1.335-0.13213-1.943-0.39653-0.58159-0.26431-1.1103-0.62119-1.5861-1.0706-0.44941-0.47579-0.80629-1.0045-1.0706-1.5861-0.26436-0.60797-0.39654-1.2556-0.39653-1.943-0.00001-0.68727 0.13217-1.3349 0.39653-1.943 0.26435-0.6344 0.62123-1.1763 1.0706-1.6258 0.47583-0.47578 1.0045-0.84588 1.5861-1.1103 0.60801-0.2643 1.2557-0.39647 1.943-0.39653 0.68731 0.00006 1.335 0.13223 1.943 0.39653 0.60801 0.26441 1.1367 0.63451 1.5861 1.1103 0.47583 0.44946 0.84592 0.99139 1.1103 1.6258 0.29078 0.60807 0.43617 1.2557 0.43619 1.943" />
		<path d="m488.41 511.66v-53.77h4.2032c1.0045 0.00004 1.639 0.48909 1.9034 1.4672l0.5948 4.7584c1.7183-2.0884 3.6745-3.767 5.8687-5.036 2.2206-1.2689 4.7716-1.9033 7.6531-1.9034 2.2999 0.00004 4.3883 0.44944 6.2652 1.3482 1.8769 0.87241 3.4762 2.181 4.798 3.9257 1.3217 1.7183 2.3395 3.8596 3.0533 6.4238 0.71372 2.5643 1.0706 5.5118 1.0706 8.8427-0.00004 2.9608-0.39657 5.7233-1.1896 8.2875-0.7931 2.5378-1.9298 4.7452-3.4102 6.6221-1.4804 1.8505-3.3045 3.3177-5.4722 4.4015-2.1413 1.0574-4.5602 1.5861-7.2566 1.5861-2.485 0-4.613-0.40975-6.3842-1.2292-1.7448-0.8195-3.2912-1.9827-4.6394-3.4895v17.765h-7.0583m17.884-48.774c-2.2999 0.00003-4.3222 0.52874-6.067 1.5861-1.7183 1.0574-3.3045 2.5511-4.7584 4.4808v19.43c1.2953 1.7448 2.7096 2.974 4.2429 3.6878 1.5597 0.71377 3.2912 1.0706 5.1946 1.0706 3.7274 0 6.5956-1.335 8.6048-4.005 2.0091-2.67 3.0136-6.4767 3.0136-11.42-0.00003-2.6171-0.23795-4.8641-0.71376-6.7411-0.44944-1.8769-1.1103-3.4102-1.9827-4.5998-0.8724-1.216-1.943-2.1016-3.2119-2.6568-1.2689-0.55512-2.7097-0.83269-4.3222-0.83272" />
		<path d="m563.36 498.06h-3.1326c-0.68736 0-1.2425-0.10574-1.6654-0.31722-0.423-0.21148-0.70057-0.66089-0.83272-1.3482l-0.79306-3.7274c-1.0574 0.95168-2.0884 1.8108-3.093 2.5775-1.0046 0.7402-2.062 1.3746-3.1723 1.9034-1.1103 0.50227-2.2999 0.88559-3.5688 1.1499-1.2425 0.26436-2.6304 0.39654-4.1636 0.39654-1.5597 0-3.0269-0.21149-4.4015-0.63446-1.3482-0.4494-2.5246-1.1103-3.5291-1.9827-1.0046-0.87237-1.8108-1.9694-2.4188-3.2912-0.58159-1.3482-0.87238-2.9343-0.87237-4.7584-0.00001-1.5861 0.43618-3.1062 1.3086-4.5601 0.87236-1.4804 2.2734-2.7889 4.2032-3.9257 1.9562-1.1367 4.5072-2.062 7.6531-2.7757 3.1458-0.74017 6.9922-1.1631 11.539-1.2689v-3.1326c-0.00003-3.1194-0.67413-5.4721-2.0223-7.0583-1.3218-1.6125-3.2912-2.4188-5.9083-2.4188-1.7183 0.00003-3.1723 0.22473-4.3619 0.6741-1.1632 0.423-2.1809 0.91206-3.0533 1.4672-0.84595 0.52875-1.5861 1.0178-2.2206 1.4672-0.60803 0.423-1.216 0.63449-1.824 0.63446-0.47585 0.00003-0.89882-0.11893-1.2689-0.35688-0.34367-0.26433-0.62124-0.58155-0.83272-0.95168l-1.2689-2.2602c2.2206-2.1412 4.613-3.7406 7.1772-4.798s5.406-1.5861 8.5254-1.5861c2.247 0.00004 4.2429 0.37013 5.9876 1.1103 1.7447 0.74023 3.2119 1.7712 4.4015 3.093s2.0884 2.9212 2.6964 4.798c0.60798 1.877 0.91199 3.9389 0.91202 6.1859v25.695m-18.32-4.3222c1.2424 0 2.3792-0.11896 3.4102-0.35688 1.031-0.26435 1.9958-0.62123 2.8947-1.0706 0.92522-0.47583 1.7976-1.0442 2.6171-1.7051 0.84591-0.66088 1.6654-1.4143 2.4585-2.2602v-8.3668c-3.2516 0.10576-6.0141 0.37011-8.2875 0.79306-2.2735 0.39655-4.124 0.92526-5.5515 1.5861-1.4275 0.6609-2.4717 1.4408-3.1326 2.3395-0.63446 0.89882-0.95168 1.9034-0.95167 3.0136-0.00001 1.0574 0.17182 1.9695 0.51549 2.7361 0.34365 0.76663 0.80627 1.4011 1.3879 1.9034 0.58157 0.47585 1.2689 0.83273 2.062 1.0706 0.79305 0.21149 1.6522 0.31723 2.5775 0.31723" />
		<path d="m575.75 498.06v-40.169h4.0446c0.76661 0.00004 1.2953 0.14543 1.5861 0.43618 0.29078 0.29083 0.48904 0.79311 0.5948 1.5068l0.47583 6.2652c1.3746-2.8021 3.0665-4.9831 5.0756-6.5428 2.0355-1.5861 4.4147-2.3792 7.1376-2.3792 1.1103 0.00004 2.1148 0.13221 3.0136 0.39653 0.89878 0.23796 1.7315 0.58162 2.4982 1.031l-0.91202 5.2739c-0.18508 0.66092-0.59483 0.99136-1.2292 0.99133-0.37013 0.00003-0.93849-0.11893-1.7051-0.35688-0.76666-0.26432-1.8373-0.3965-3.2119-0.39653-2.4585 0.00003-4.5205 0.71379-6.1859 2.1413-1.639 1.4276-3.0137 3.5027-4.1239 6.2256v25.576h-7.0583" />
		<path d="m621.45 498.7c-3.1723 0-5.6176-0.88559-7.3358-2.6568-1.6919-1.7712-2.5378-4.3222-2.5378-7.6531v-24.585h-4.8377c-0.42297 0.00004-0.77985-0.11892-1.0706-0.35688-0.29079-0.26432-0.43618-0.66085-0.43618-1.1896v-2.8154l6.5824-0.83272 1.6258-12.411c0.0529-0.39648 0.2247-0.7137 0.5155-0.95168 0.29078-0.2643 0.66087-0.39648 1.1103-0.39653h3.5688v13.839h11.499v5.1153h-11.499v24.109c-0.00001 1.6919 0.40974 2.9476 1.2292 3.7671 0.81949 0.81951 1.8769 1.2293 3.1723 1.2292 0.74018 0.00001 1.3746-0.0925 1.9034-0.27757 0.55513-0.21148 1.031-0.43618 1.4275-0.67411 0.39651-0.23791 0.72695-0.4494 0.99133-0.63445 0.29077-0.21148 0.5419-0.31722 0.75341-0.31723 0.37008 0.00001 0.70052 0.22471 0.99133 0.67411l2.062 3.3705c-1.2161 1.1367-2.6832 2.0355-4.4015 2.6964-1.7183 0.63445-3.4895 0.95168-5.3135 0.95168" />
	</g>
	<path d="m98.915 75.688c-16.45-0.14125-33.339 7.0844-38.283 20.571-7.3482 16.273 4.4438 35.284 24.58 41.143 0.0643 0.0165 0.15755-0.0165 0.21694 0 21.958 7.9367 49.288 11.812 73.086 36.436l8.9183 9.2396-8.0482 8.1937c-23.868 24.582-51.105 28.364-73.087 36.261-0.048 0.0239-0.16106-0.0239-0.21697 0-20.08 5.8019-31.727 24.721-24.58 40.968 0.025 0.048-0.025 0.12373 0 0.17426 6.1089 16.442 30.102 23.721 49.377 19.351 0.0641-0.0124 0.15199 0.0124 0.21694 0 19.741-3.4414 35.904-19.503 31.323-35.738-2.2602-8.01-5.1525-11.73-7.8306-13.947-1.3392-1.1085-2.5076-1.8009-3.2628-2.4406-0.75502-0.63966-3.9319-2.4204-3.9319-2.4204 1.9658-1.4308 3.114-2.1077 4.8016-3.1582 2.5214-1.6431 6.9263-3.6619 12.616-6.1017 11.28-4.8369 27.893-11.666 46.984-22.663 34.529 19.627 79.394 45.047 104.19 59.099 24.797 14.052 50.177 6.9647 60.688 0.52269l-132.99-78.058 133.75-78.82c-20.73-12.785-44.386-7.3708-60.144 0.32682-35.033 19.869-70.178 39.644-105.28 59.447-16.006-8.7485-33.181-16.77-48.071-23.186-5.6952-2.4536-10.09-4.4507-12.616-6.1017-1.2633-0.82548-4.4591-2.615-4.4591-2.615 2.9215-1.7028 6.0171-4.8406 8.2659-7.2348s4.8955-5.9397 6.4169-12.116c4.01-16.331-11.6-32.436-31.33-35.913-3.82-0.844-7.94-0.968-11.314-1.22zm-2.1751 13.772c7.3425-0.34487 14.921 1.6632 19.794 5.5787 7.3015 5.8659 8.6922 13.946 5.8731 20.571-2.8193 6.6257-9.5768 11.523-19.142 11.506h-0.21695c-8.7672 0.40617-17.317-3.6434-22.405-9.5883-5.087-5.9449-6.5372-13.338-1.5225-19.7v-0.17448c3.4645-5.2775 10.281-7.8491 17.619-8.1936zm5.6554 148.36c0.65039-0.0124 1.3216-0.0239 1.7401 0 9.5665-0.00048 16.339 4.8824 19.142 11.506 2.8029 6.6235 1.4452 14.718-5.873 20.571-4.879 3.9023-12.666 6.0977-20.012 5.753-7.346-0.34484-13.951-3.0829-17.402-8.368l-0.21695-0.17426c-4.839-6.169-3.4341-13.148 1.3051-19.002 4.7391-5.854 12.867-10.163 21.317-10.286z" />
</g>
</svg>
