<?xml version="1.0" encoding="UTF-8"?>
<svg version="1.1" xmlns="http://www.w3.org/2000/svg" viewBox="0 0 541.4375 541.43744">
<!-- Based on https://commons.wikimedia.org/wiki/File:Patreon_logo.svg -->
<path fill="#ff5900" d="M 270.71875,0 C 121.2033,0 0,121.20325 0,270.71875 l 0,270.59375 62.84375,0 c 0,-90.15625 0,-180.4375 0,-270.59375 0,-114.80006 93.07497,-207.875 207.875,-207.875 114.80007,0 207.875,93.07494 207.875,207.875 0,111.57117 -87.92144,202.59138 -198.25,207.625 -35.05466,-0.28696 -64.94083,-5.97612 -78.03125,-14.03125 l 0,-89.34375 c 19.537,12.79164 42.90434,20.25 68,20.25 68.64109,0 124.28125,-55.64016 124.28125,-124.28125 0,-68.64109 -55.64016,-124.3125 -124.28125,-124.3125 -68.64109,0 -124.28125,55.67141 -124.28125,124.3125 l 0,270.375 c 41.01855,-0.0383 84.59187,0.0562 124.6875,0 149.5155,0 270.71875,-121.07825 270.71875,-270.59375 C 541.4375,121.20325 420.23425,0 270.71875,0 z" />
</svg>
