<?xml version="1.0" encoding="UTF-8"?>
<svg version="1.1" xmlns="http://www.w3.org/2000/svg" viewBox="0 0 541.4375 541.43744">
<!-- Based on https://commons.wikimedia.org/wiki/File:Patreon_logo.svg -->
<path fill="#ff5900" d="m270.72 0c-149.52 0-270.72 121.2-270.72 270.72v270.59h62.844v-270.59c0-114.8 93.075-207.88 207.88-207.88s207.88 93.075 207.88 207.88c0 111.57-87.921 202.59-198.25 207.62-35.055-0.28696-64.941-5.9761-78.031-14.031v-89.344c19.537 12.792 42.904 20.25 68 20.25 68.641 0 124.28-55.64 124.28-124.28 0-68.641-55.64-124.31-124.28-124.31-68.641 0-124.28 55.671-124.28 124.31v270.38c41.019-0.0383 84.592 0.0562 124.69 0 149.52 0 270.72-121.08 270.72-270.59-0.01-149.53-121.22-270.73-270.73-270.73z" />
</svg>
