<?xml version="1.0" encoding="UTF-8"?>
<!-- Based on paypal_rgb.eps from https://www.paypal-media.com/multimedia#logos -->
<svg version="1.1" viewBox="0 0 30.6301 36.152" xmlns="http://www.w3.org/2000/svg">
<path fill="#293982" d="M 26.085224,2.7258 C 24.411324,0.818 21.385224,0 17.514124,0 L 6.2793244,0 c -0.79219,0 -1.46524,0.5758 -1.58907,1.3571 L 0.01213375,31.02583 c -0.0929688,0.58515 0.3601566,1.11523 0.9531246,1.11523 l 6.93593605,0 1.74219,-11.04926 -0.0543,0.3461 c 0.12422,-0.7808 0.7922396,-1.357 1.5832396,-1.357 l 3.2961,0 c 6.475,0 11.5449,-2.6301 13.0257,-10.2379 0.0442,-0.225 0.0821,-0.4441 0.1153,-0.6582 -0.1871,-0.0988 -0.1871,-0.0988 0,0 0.441,-2.8117 -0.0031,-4.7258 -1.5242,-6.459" />
<path fill="#469cdb" d="m 27.609424,9.1848 0,0 c -0.034,0.2152 -0.0711,0.4332 -0.1153,0.6582 -1.4808,7.607 -6.5507,10.2379 -13.0257,10.2379 l -3.2969,0 c -0.791,0 -1.4589996,0.5762 -1.5820496,1.357 l -1.68828,10.70199 -0.4789,3.035938 c -0.08086,0.512109 0.31523,0.976172 0.8332,0.976172 l 5.8468296,0 c 0.6922,0 1.2809,-0.503906 1.3891,-1.18711 l 0.057,-0.29805 1.102,-6.98398 0.0711,-0.38594 c 0.1078,-0.68281 0.6969,-1.18712 1.3887,-1.18712 l 0.875,0 c 5.664,0 10.0992,-2.3008 11.3953,-8.9558 0.541,-2.7809 0.2609,-5.1032 -1.1703,-6.734 -0.4336,-0.4942 -0.9727,-0.902 -1.6008,-1.2352" />
<path fill="#232d62" d="m 26.058624,8.5668 c -0.2258,-0.066 -0.459,-0.1257 -0.6988,-0.1789 -0.2403,-0.0531 -0.4879,-0.1 -0.7422,-0.141 -0.8899,-0.1441 -1.8617,-0.2121 -2.9059,-0.2121 l -8.807,0 c -0.2168,0 -0.4231,0.0492 -0.607,0.1379 -0.4071,0.1953 -0.7082,0.5793 -0.7821,1.05 l -1.8718496,11.8691 -0.05391,0.3461 c 0.12305,-0.7808 0.7910596,-1.357 1.5820596,-1.357 l 3.2969,0 c 6.475,0 11.5449,-2.6301 13.0257,-10.2379 0.0442,-0.225 0.0813,-0.443 0.1153,-0.6582 -0.375,-0.198 -0.7813,-0.3687 -1.2184,-0.5141 -0.1086,-0.0359 -0.2195,-0.0707 -0.3328,-0.1039" />
</svg>
