<?xml version="1.0" encoding="UTF-8"?>
<!-- Based on paypal_rgb.eps from https://www.paypal-media.com/multimedia#logos -->
<svg version="1.1" viewBox="0 0 30.6301 36.152" xmlns="http://www.w3.org/2000/svg">
<path fill="#002f86" d="m26.085 2.7258c-1.674-1.9078-4.7-2.7258-8.571-2.7258h-11.235c-0.79219 0-1.4652 0.5758-1.5891 1.3571l-4.6778 29.669c-0.092969 0.58515 0.36016 1.1152 0.95312 1.1152h6.9359l1.7422-11.049-0.0543 0.3461c0.12422-0.7808 0.79224-1.357 1.5832-1.357h3.2961c6.475 0 11.545-2.6301 13.026-10.238 0.0442-0.225 0.0821-0.4441 0.1153-0.6582-0.1871-0.0988-0.1871-0.0988 0 0 0.441-2.8117-0.0031-4.7258-1.5242-6.459" />
<path fill="#009cde" d="m27.609 9.1848c-0.034 0.2152-0.0711 0.4332-0.1153 0.6582-1.4808 7.607-6.5507 10.238-13.026 10.238h-3.2969c-0.791 0-1.459 0.5762-1.582 1.357l-1.6883 10.702-0.4789 3.0359c-0.08086 0.51211 0.31523 0.97617 0.8332 0.97617h5.8468c0.6922 0 1.2809-0.50391 1.3891-1.1871l0.057-0.29805 1.102-6.984 0.0711-0.38594c0.1078-0.68281 0.6969-1.1871 1.3887-1.1871h0.875c5.664 0 10.099-2.3008 11.395-8.9558 0.541-2.7809 0.2609-5.1032-1.1703-6.734-0.4336-0.4942-0.9727-0.902-1.6008-1.2352" />
<path fill="#012069" d="m26.059 8.5668c-0.2258-0.066-0.459-0.1257-0.6988-0.1789-0.2403-0.0531-0.4879-0.1-0.7422-0.141-0.8899-0.1441-1.8617-0.2121-2.9059-0.2121h-8.807c-0.2168 0-0.4231 0.0492-0.607 0.1379-0.4071 0.1953-0.7082 0.5793-0.7821 1.05l-1.8718 11.869-0.05391 0.3461c0.12305-0.7808 0.79106-1.357 1.5821-1.357h3.2969c6.475 0 11.545-2.6301 13.026-10.238 0.0442-0.225 0.0813-0.443 0.1153-0.6582-0.375-0.198-0.7813-0.3687-1.2184-0.5141-0.1086-0.0359-0.2195-0.0707-0.3328-0.1039" />
</svg>
