<?xml version="1.0" encoding="UTF-8"?>
<svg version="1.1" viewBox="0 0 2743.8123 2743.8789" xmlns="http://www.w3.org/2000/svg">
<!-- Based on Pinterest_Badge_Red.eps from http://business.pinterest.com/en/brand-guidelines -->
<path fill="#cc2127" d="M 1371.9522,0 C 614.2852,0 0,614.23 0,1371.92 c 0,561.771 337.8052,1044.381 821.1992,1256.568 -3.859,-95.797 -0.691,-210.797 23.879,-315.027 26.375,-111.383 176.524,-747.561 176.524,-747.561 0,0 -43.83,-87.6 -43.83,-217.07 0,-203.3 117.84,-355.15 264.59,-355.15 124.79,0 185.07,93.73 185.07,205.97 0,125.45 -80,313.08 -121.15,486.87 -34.37,145.531 72.96,264.23 216.54,264.23 259.93,0 435,-333.85 435,-729.4 0,-300.69 -202.52,-525.74 -570.87,-525.74 -416.151,0 -675.413,310.35 -675.413,657.01 0,119.52 35.242,203.82 90.441,269.08 25.383,29.98 28.907,42.04 19.719,76.46 -6.578,25.25 -21.695,86.02 -27.949,110.102 -9.137,34.75 -37.285,47.168 -68.692,34.34 -191.679,-78.252 -280.957,-288.172 -280.957,-524.132 0,-389.72 328.68,-857.02 980.511,-857.02 523.79,0 868.53,379.03 868.53,785.89 0,538.191 -299.2,940.262 -740.25,940.262 -148.11,0 -287.44,-80.071 -335.16,-171.012 0,0 -79.65,316.101 -96.52,377.129 -29.08,105.781 -86.02,211.492 -138.08,293.9021 123.39,36.418 253.73,56.2578 388.82,56.2578 757.59,0 1371.86,-614.2379 1371.86,-1371.9589 C 2743.8122,614.23 2129.5422,0 1371.9522,0"/>
</svg>
