<?xml version="1.0" encoding="UTF-8"?>
<!-- Drawn from scratch, based on https://forums.playfire.com/general-discussion/thread/87300#post-2266740 -->
<svg version="1.1" viewBox="0 0 772.65625 772.65625" xmlns="http://www.w3.org/2000/svg" xmlns:xlink="http://www.w3.org/1999/xlink">
<defs>
	<linearGradient id="PlayfireGradient" x1="1" y1="0" x2="0" y2="1">
		<stop stop-color="#fda21a" offset="0"/>
		<stop stop-color="#fee635" offset="0.85355002"/>
	</linearGradient>
</defs>
<path fill="url(#PlayfireGradient)" d="m386.34 0c-213.36 0-386.34 172.98-386.34 386.34s172.98 386.31 386.34 386.31 386.31-172.95 386.31-386.31l0.01-386.34h-386.32z"/>
<path fill="#000000" d="m357.38 665.48c-75.77-8.36-143.29-45.12-189.72-103.3-53.25-66.71-72.992-151.17-55.18-236.07 6.327-30.156 22.249-67.721 39.919-94.18 39.319-58.88 96.347-99.501 164.27-117.01 9.865-2.543 21.643-3.526 21.643-3.526 0.017 0.056-4.392 2.017-11.187 4.989-19.351 8.465-41.49 22.549-58.891 37.464-45.171 38.718-73.882 91.635-82.55 152.15-1.679 11.721-1.679 49.279 0 61 2.923 20.406 9.4 44.243 16.869 62.086 1.958 4.677 7.33 17.04 7.33 17.04s-1.867-9.588-2.348-13.094c-6.913-50.435 1.856-102.19 24.756-146.12 34.652-66.469 98.741-113.81 171.08-126.37 56.829-9.869 113.34-0.528 161.79 26.743 12.437 7 19.183 13.446 19.183 13.446s-7.524-2.23-13.083-4.337c-11.726-4.442-25.235-8.088-40.845-11.022-13.937-2.619-49.34-3.707-64.155-1.971-92.822 10.877-162.6 71.905-169.34 148.1-3.443 38.955 13.215 82.486 42.872 112.03 23.656 23.568 52.568 36.643 85.359 38.601 10.398 0.621 37.716-3.013 37.716-3.013s-10.079-0.892-13.646-1.604c-25.62-5.116-46.37-18.378-60.314-38.549-11.633-16.828-16.053-30.552-16.773-52.083-0.76-22.737 2.913-37.54 13.621-54.894 12.574-20.378 32.773-35.513 55.61-41.667 11.581-3.121 35.51-3.108 47 0.026 36.612 9.985 62.659 39.702 68.86 78.561 0.865 5.42 1.111 19.906 1.111 19.906s1.863-10.849 2.433-12.967c3.312-12.315 4.048-34.932 1.623-49.881-4.034-24.873-14.681-48.333-30.634-67.502-2.797-3.36-6.197-8.22-6.197-8.22s8.315 3.632 16.855 9.973c38.295 28.432 62.67 72.279 68.509 123.24 1.676 14.631 0.706 42.437-1.984 56.813-5.238 28.002-17.088 54.612-35.037 78.678-4.329 5.805-19.311 20.823-19.311 20.823s23.493-17.632 32.4-25.564c22.43-19.975 45.968-52.275 57.491-78.89 8.602-19.868 15.82-43.046 18.789-62.114 0.666-4.278 1.961-10.936 1.961-10.936s1.169 8.156 1.175 21.063-0.344 28.529-1.767 39.389c-8.88 67.739-43.142 131.53-94.25 175.53-41.196 35.465-88.57 57.181-143.53 65.794-12.221 1.915-56.804 2.837-69.5 1.437z"/>
</svg>
