<?xml version="1.0" encoding="UTF-8"?>
<svg version="1.1" xmlns="http://www.w3.org/2000/svg" viewBox="0 0 40.0945 35.8047">
<!-- Based on Pocket_Logo_Small.eps from https://getpocket.com/blog/press/ -->
<path fill="#ef3e56" d="m31.407 14.997-9.43 9.045c-0.5329 0.5097-1.218 0.766-1.9032 0.766-0.6855 0-1.3711-0.2563-1.9027-0.766l-9.4316-9.045c-1.096-1.051-1.132-2.791-0.0812-3.887 1.0508-1.0965 2.791-1.1316 3.8867-0.0808l7.5289 7.2199 7.5274-7.2199c1.0957-1.0508 2.8359-1.0149 3.8867 0.08 1.0508 1.0965 1.0144 2.836-0.0809 3.8875zm8.489-12.602c-0.52-1.4316-1.894-2.3945-3.417-2.3945h-32.843c-1.4977 0-2.8633 0.9422-3.3973 2.3445-0.15862 0.4172-0.2387 0.8508-0.2387 1.291v12.098l0.13828 2.4062c0.58047 5.472 3.4211 10.253 7.8156 13.588 0.0793 0.061 0.1594 0.12 0.2395 0.178l0.05039 0.0352c2.3562 1.723 4.9932 2.889 7.8382 3.463 1.3137 0.2656 2.6563 0.4004 3.9906 0.4004 1.2321 0 2.4708-0.1133 3.6875-0.3399 0.1465-0.0285 0.2918-0.0558 0.4387-0.0879 0.0406-0.0078 0.084-0.0246 0.1285-0.0461 2.7243-0.5957 5.2551-1.7312 7.5235-3.3894l0.0504-0.0352c0.0793-0.0586 0.1597-0.1172 0.239-0.1777 4.3946-3.3352 7.2356-8.116 7.8157-13.589l0.1382-2.4062v-12.098c0-0.418-0.0507-0.8328-0.198-1.241"/>
</svg>
