<?xml version="1.0" encoding="UTF-8"?>
<svg xmlns="http://www.w3.org/2000/svg" version="1.1" viewBox="0 0 28.606005 39.73">
	<g transform="translate(-46.431998,-0.10899991)">
		<ellipse style="fill:#ffffff;stroke:#000000" cx="65.245003" cy="28.417999" rx="4.4109998" ry="5.3239999" />
		<path style="fill:#ffffff;stroke:#000000;stroke-linecap:round;stroke-linejoin:round" d="m 58.303,39.285 c 0.063,-0.197 0.108,-0.4 0.108,-0.615 0,-1.359 -1.361,-2.463 -3.04,-2.463 -1.679,0 -3.039,1.104 -3.039,2.463 0,0.215 0.044,0.418 0.108,0.615 h 5.863 z" />
		<path style="fill:#ffffff;stroke:#000000;stroke-linecap:round;stroke-linejoin:round" d="m 68.949,39.285 c 0.062,-0.197 0.107,-0.4 0.107,-0.615 0,-1.359 -1.361,-2.463 -3.041,-2.463 -1.679,0 -3.039,1.104 -3.039,2.463 0,0.215 0.043,0.418 0.107,0.615 h 5.866 z" />
		<circle style="fill:#ffffff;stroke:#000000" cx="49.683998" cy="11.836" r="2.7019999" />
		<circle style="fill:#ffffff;stroke:#000000" cx="71.786003" cy="11.836" r="2.7019999" />
		<path style="fill:none;stroke:#000000;stroke-linecap:round;stroke-linejoin:round" d="m 68.226,2.352 c 0,0 0,0 -5.404,-1.272 l -1.986,6.278" />
		<ellipse style="fill:#ffffff;stroke:#000000" cx="56.146" cy="28.417999" rx="4.4109998" ry="5.3239999" />
		<circle style="fill:#ffffff;stroke:#000000" cx="70.431" cy="2.789" r="2.1300001" />
		<path style="fill:#ffffff;stroke:#000000" d="m 59.181,39.289 h 2.99 c 2.655,-1.383 4.624,-6.34 4.624,-12.262 0,-6.99 -2.74,-12.655 -6.119,-12.655 -3.38,0 -6.119,5.666 -6.119,12.655 0,5.922 1.968,10.879 4.624,12.262 z" />
		<ellipse style="fill:#ffffff;stroke:#000000" cx="60.675999" cy="15.552" rx="12.238" ry="7.987" />
		<line style="fill:none;stroke:#000000;stroke-linecap:round;stroke-linejoin:round" x1="57.457001" y1="39.285" x2="64.053001" y2="39.285" />
		<g>
			<circle style="fill:#ff4500;stroke:#ff4500" cx="56.426998" cy="13.993" r="1.4299999" />
			<circle style="fill:#ff4500;stroke:#ff4500" cx="65.050003" cy="13.993" r="1.431" />
			<path style="fill:none;stroke:#000000;stroke-linecap:round" d="m 56.507,19.229 c 1.066,1.066 2.786,1.271 4.212,1.271" />
			<path style="fill:none;stroke:#000000;stroke-linecap:round" d="M 64.963,19.229 C 63.896,20.295 62.177,20.5 60.75,20.5" />
		</g>
	</g>
</svg>
