<?xml version="1.0" encoding="UTF-8"?>
<svg version="1.1" viewBox="0 0 660 660" xmlns="http://www.w3.org/2000/svg">
<!-- Based on https://regexcrossword.com/img/logo.svg -->
<rect fill="#FF8100" x="0" y="0" width="660" height="660" rx="70"/>
<g stroke="#000" stroke-width="2" transform="translate(328.721392 328.721392) rotate(-45) translate(-328.721392, -328.721392) translate(130.221392, 130.221392)">
	<rect fill="#000" width="100" height="100" x="0"   y="0"/>
	<rect fill="#000" width="100" height="100" x="99"  y="0"/>
	<rect fill="#fff" width="100" height="100" x="198" y="0"/>
	<rect fill="#fff" width="100" height="100" x="297" y="0"/>
	<rect fill="#000" width="100" height="100" x="0"   y="99"/>
	<rect fill="#fff" width="100" height="100" x="99"  y="99"/>
	<rect fill="#000" width="100" height="100" x="198" y="99"/>
	<rect fill="#fff" width="100" height="100" x="297" y="99"/>
	<rect fill="#000" width="100" height="100" x="0"   y="198"/>
	<rect fill="#000" width="100" height="100" x="99"  y="198"/>
	<rect fill="#fff" width="100" height="100" x="198" y="198"/>
	<rect fill="#fff" width="100" height="100" x="297" y="198"/>
	<rect fill="#000" width="100" height="100" x="0"   y="297"/>
	<rect fill="#fff" width="100" height="100" x="99"  y="297"/>
	<rect fill="#000" width="100" height="100" x="198" y="297"/>
	<rect fill="#fff" width="100" height="100" x="297" y="297"/>
	<rect fill="none" stroke="#000" stroke-width="18" x="-1.5" y="-1.5" width="400" height="400" rx="10"/>
</g>
</svg>
