<?xml version="1.0" encoding="UTF-8"?>
<svg version="1.1" xmlns="http://www.w3.org/2000/svg" viewBox="0 0 211.97 209">
<!-- Quickly drawn from scratch, based on low-res favicon. -->
<path fill="#0288d1" d="m50.647 18.237-11.206 58.228h28.564q16.809 0 27.136-9.2285 10.437-9.3384 10.437-24.28 0-11.975-7.0312-18.347-6.9214-6.3721-19.995-6.3721h-27.905zm40.759 67.017q7.0312 1.648 11.646 8.1299 4.7241 6.4819 10.876 25.818l13.953 44.824h-23.401l-12.854-42.078q-4.946-16.26-11.428-21.75-6.482-5.498-19.885-5.498h-24.5l-13.513 69.328h-22.302l31.97-164.03h49.988q22.742 0 34.827 10.327 12.195 10.217 12.195 29.553 0 17.139-10.327 29.663t-27.246 15.71z"/>
<path fill="#cd9a01" d="m151.86 95.27-24.082 65.303h48.252l-24.17-65.303zm-10.02-17.49h20.127l50.01 131.22h-18.457l-11.953-33.662h-59.15l-11.953 33.662h-18.721l50.098-131.22z"/>
</svg>
