<?xml version="1.0" encoding="UTF-8"?>
<svg xmlns="http://www.w3.org/2000/svg" version="1.1" viewBox="0 0 12.414 18.5118">
<!-- The letter "S" in the font "lobster" https://www.shadertoy.com/api https://github.com/beautypi/shadertoy-iOS-v2/tree/master/shadertoy/Images.xcassets/AppIcon.appiconset -->
<path fill="#ff8020" d="m12.414 2.8789c0-2.6406-2.7382-2.8789-3.8671-2.8789-3.0977 0-5.5469 1.8008-5.5469 4.2969 0 3.5312 4.9258 4.9961 4.9258 9.1016 0 2.0156-1.1797 3.1914-2.7852 3.1914-1.5391 0-2.3086-1.1016-2.3086-2.3047 0-1.6562 1.5156-2.2578 2.8125-2.2578-0.0742-1.246-1.2734-1.582-2.1133-1.582-1.6836 0-3.5312 1.344-3.5312 3.938 0 2.9297 2.3516 4.1289 5.0898 4.1289 3.4844 0 6.75-1.9688 6.75-6.0039 0-5.1875-5.4063-5.668-5.4063-9.1953 0-1.4414 0.89062-2.1875 2.2109-2.1875s1.7773 0.76953 1.7773 1.6094c0 0.79297-0.43359 1.6836-1.082 2.0664 0.3125 0.35938 0.67188 0.50391 1.1055 0.50391 1.1992 0 1.9688-1.0312 1.9688-2.4258z"/>
</svg>
