<?xml version="1.0" encoding="UTF-8"?>
<svg
	xmlns:svg="http://www.w3.org/2000/svg"
	xmlns="http://www.w3.org/2000/svg"
	xmlns:xlink="http://www.w3.org/1999/xlink"
	version="1.1"
	width="237.3125"
	height="237.3125"
>
	<defs>
		<linearGradient id="SkypeGradient" x1="0%" y1="0%" x2="0%" y2="100%">
			<stop style="stop-color: #00aff0" offset="0" />
			<stop style="stop-color: #019dd6" offset="1" />
		</linearGradient>
	</defs>
	<path fill="url(#SkypeGradient)" d="M 66.65625,0 C 29.837635,0 0,29.837635 0,66.65625 c 0,12.036114 3.201107,23.315525 8.78125,33.0625 -1.052934,6.15459 -1.625,12.48263 -1.625,18.9375 0,61.57975 49.92025,111.5 111.5,111.5 6.45487,0 12.78291,-0.57207 18.9375,-1.625 9.74697,5.58014 21.02639,8.78125 33.0625,8.78125 36.81862,0 66.65625,-29.83763 66.65625,-66.65625 0,-12.03611 -3.20111,-23.31553 -8.78125,-33.0625 1.05293,-6.15459 1.625,-12.48263 1.625,-18.9375 0,-61.57975 -49.92025,-111.5 -111.5,-111.5 -6.45487,0 -12.78291,0.572066 -18.9375,1.625 C 89.971775,3.201107 78.692364,0 66.65625,0 z" />
	<path fill="#ffffff" d="m 142.31778,186.3831 c 9.82977,-2.86105 18.2266,-7.71822 23.35625,-13.5105 13.39356,-15.12369 13.02635,-39.50107 -0.79741,-52.93622 -6.75133,-6.56155 -14.96895,-9.8858 -36.51385,-14.77086 C 98.57813,98.4122 93.89475,96.07161 92.95213,87.468515 c -0.51878,-4.734816 1.90618,-9.428863 6.70412,-12.977313 4.01461,-2.969113 14.01451,-4.290803 22.21621,-2.936322 8.95768,1.47933 11.84473,3.029258 19.78379,10.621037 3.575,3.418618 7.48292,6.725218 8.68426,7.348001 5.47373,2.837612 15.23035,0.131917 17.85979,-4.952853 4.91795,-9.510266 -2.96577,-21.714998 -19.01032,-29.429751 -9.7975,-4.710961 -17.32565,-6.540896 -29.57957,-7.190168 -25.7103,-1.362258 -47.517185,8.932466 -54.134903,25.556328 -3.292981,8.272043 -3.270484,23.506326 0.04558,30.862536 2.91811,6.47342 10.371986,13.58968 17.793104,16.98718 3.076736,1.40857 15.891929,5.16822 28.478219,8.35477 12.64427,3.20123 24.4566,6.76555 26.39825,7.96555 10.54304,6.51596 7.67467,20.70576 -5.42745,26.84955 -4.78287,2.24276 -6.92974,2.62371 -14.60695,2.59188 -13.70221,-0.0568 -19.4245,-3.14078 -29.168663,-15.72024 -5.602559,-7.23275 -9.064814,-9.11861 -15.589849,-8.49163 -3.83464,0.36846 -5.627406,1.17406 -8.084397,3.63283 -2.828846,2.83089 -3.150947,3.75498 -3.097957,8.88786 0.06709,6.49851 1.771788,10.36805 7.247432,16.4511 7.334422,8.14802 20.605944,14.43043 35.232764,16.67831 10.42678,1.60241 28.17001,0.57708 37.6222,-2.17407 z" />
</svg>
