<?xml version="1.0" encoding="UTF-8"?>
<svg xmlns="http://www.w3.org/2000/svg" xmlns:xlink="http://www.w3.org/1999/xlink" version="1.1" viewBox="0 0 237.3125 237.3125">
<!-- Based on /usr/share/icons/hicolor/256x256/apps/skype.png -->
<defs>
	<linearGradient id="SkypeGradient" x1="0%" y1="0%" x2="0%" y2="100%">
		<stop style="stop-color: #00aff0" offset="0" />
		<stop style="stop-color: #019dd6" offset="1" />
	</linearGradient>
</defs>
<path fill="url(#SkypeGradient)" d="m66.656 0c-36.818 0-66.656 29.838-66.656 66.656 0 12.036 3.2011 23.316 8.7812 33.062-1.0529 6.1546-1.625 12.483-1.625 18.938 0 61.58 49.92 111.5 111.5 111.5 6.4549 0 12.783-0.57207 18.938-1.625 9.747 5.5801 21.026 8.7812 33.062 8.7812 36.819 0 66.656-29.838 66.656-66.656 0-12.036-3.2011-23.316-8.7812-33.062 1.0529-6.1546 1.625-12.483 1.625-18.938 0-61.58-49.92-111.5-111.5-111.5-6.4549 0-12.783 0.57207-18.938 1.625-9.75-5.5799-21.03-8.781-33.066-8.781z" />
<path fill="#ffffff" d="m142.32 186.38c9.8298-2.861 18.227-7.7182 23.356-13.51 13.394-15.124 13.026-39.501-0.79741-52.936-6.7513-6.5616-14.969-9.8858-36.514-14.771-29.782-6.748-34.465-9.088-35.408-17.691-0.51878-4.7348 1.9062-9.4289 6.7041-12.977 4.0146-2.9691 14.015-4.2908 22.216-2.9363 8.9577 1.4793 11.845 3.0293 19.784 10.621 3.575 3.4186 7.4829 6.7252 8.6843 7.348 5.4737 2.8376 15.23 0.13192 17.86-4.9529 4.918-9.5103-2.9658-21.715-19.01-29.43-9.7975-4.711-17.326-6.5409-29.58-7.1902-25.71-1.3623-47.517 8.9325-54.135 25.556-3.293 8.272-3.2705 23.506 0.04558 30.863 2.9181 6.4734 10.372 13.59 17.793 16.987 3.0767 1.4086 15.892 5.1682 28.478 8.3548 12.644 3.2012 24.457 6.7656 26.398 7.9656 10.543 6.516 7.6747 20.706-5.4274 26.85-4.7829 2.2428-6.9297 2.6237-14.607 2.5919-13.702-0.0568-19.424-3.1408-29.169-15.72-5.6026-7.2328-9.0648-9.1186-15.59-8.4916-3.8346 0.36846-5.6274 1.1741-8.0844 3.6328-2.8288 2.8309-3.1509 3.755-3.098 8.8879 0.06709 6.4985 1.7718 10.368 7.2474 16.451 7.3344 8.148 20.606 14.43 35.233 16.678 10.427 1.6024 28.17 0.57708 37.622-2.1741z" />
</svg>
