<?xml version="1.0" encoding="UTF-8"?>
<svg xmlns="http://www.w3.org/2000/svg" version="1.1" viewBox="0 0 1827.7528 1862.5221">
<!-- Based on ss_logo.eps (but without the gradient effect) from http://www.slideshare.net/about/logos -->
<!-- Slide frame -->
<path fill="#b1b3b5" d="m193.21 1027.6v-764.9c0-126.69 32.273-166.41 148.22-166.41h1155.7c109.85 0 148.65 47.21 148.65 166.41v741l89.32-61.703v-761.1c0-100.04-75.3-180.9-167.9-180.9h-1305.7c-92.62 0-167.87 80.86-167.87 180.92v784.49l99.578 62.211"/>
<!-- Blue head -->
<path fill="#008ed3" d="m963.19 769.05c0 115.96 100.53 209.92 224.42 209.92 123.88 0 224.41-93.957 224.41-209.92 0-115.94-100.53-209.91-224.41-209.91-123.89 0-224.42 93.97-224.42 209.91"/>
<!-- Blue head highlight -->
<path fill="#38b5e7" d="m1188.4 580.33c-4.92 0-10.18 0.26-15.7 0.78-171.11 17.3-194.04 168.77-181.86 238.89 0 0 39.717-185.59 183.25-185.59 88.85 0 86.35-54.11 14.31-54.08"/>
<!-- Blue body -->
<path fill="#008ed3" d="m938.42 1168.3c0-64.973 29.926-108.45 122.96-103.79 134.17 4.207 397.84 34.609 695.18-177.68 55.65-38.816 92.09 14.027 57.98 64.519-66.38 81.344-192.62 182.36-386.17 261.8 205.25 697.54-499.78 808.34-489.02 450.71 0 10.25-0.93-495.57-0.93-495.57"/>
<!-- Blue body highlight -->
<path fill="#38b5e7" d="m1781.8 896.22c-122.44 76.832-260.16 165.98-480.44 190.53 7.27 6.54 11.64 17.7 11.43 32.989 136.76-26.899 301.52-89.391 469.01-223.52m-737.56 190.53c-55.451 0-72.655 35.27-72.655 35.27s59.965 15.871 157.49 15.871c25.54 0 53.73-1.082 84.04-3.812 3.83-4.707 7.63-9.688 11.42-14.848 8.94-12.383 18.36-21.723 27.59-28.172-23.18 1.473-47.22 2.231-72.21 2.231-40.29 0-82.94-1.981-128.37-6.329-2.52-0.16-4.95-0.211-7.3-0.211"/>
<!-- Arm shadow -->
<path fill="#0072a9" d="m938.89 1379.6s299.68 54.738 370.72-231.88c9.83-55.152-17.75-48.59-40.2-16.34-22.44 32.219-230.48 167.81-328.64 173.9l-1.875 74.32"/>
<!-- Orange head -->
<path fill="#f6921e" d="m889.79 769.05c0 115.96-100.5 209.92-224.39 209.92s-224.4-93.957-224.4-209.92c0-115.94 100.51-209.91 224.4-209.91 123.9 0 224.39 93.97 224.39 209.91"/>
<!-- Orange head highlight -->
<path fill="#fab858" d="m669.47 580.33c-4.922 0-10.192 0.26-15.766 0.78-171.11 17.3-194.02 168.77-181.87 238.89 0 0 39.746-185.59 183.73-185.59 88.434 0 86.301-54.11 13.903-54.08"/>
<!-- Orange body -->
<path fill="#f6921e" d="m889.34 1168.3c0-64.973-29.945-108.45-122.98-103.79-134.17 4.207-397.82 34.609-695.18-177.68-55.617-38.816-92.086 14.027-57.973 64.519 66.398 81.344 192.61 182.36 386.16 261.8-204.77 697.54 499.78 808.34 489.03 450.71 0 10.25 0.938-495.57 0.938-495.57"/>
<!-- Orange arm -->
<path fill="#f6921e" d="m1224.6 1119.2c-97.26 133.7-213.19 108.9-349.24-17.313-141.18-131.84-47.227 196.36 10.293 209.46 84.617 19.641 118.27 38.289 232.81 12.121 107.99-25.218 160.82-101.92 183.26-156.6 37.42-91.149-27.1-116.87-77.12-47.668"/>
<!-- Orange body lower highlight -->
<path fill="#fab859" d="m426.5 1220.8c-25.629 105.62-49.035 244.24-12.25 376.5 13.515 48.692 35.316 96.481 68 141.5-65.863-111.35-80.043-265.2-38.5-421.25 7.106-26.684 15.887-53.359 26.25-80l-43.5-16.75z"/>
<!-- Orange body upper highlight -->
<path fill="#fab859" d="m46 896.25c252.7 202.45 499.3 241.75 652.75 241.75 42.403 0 77.641-3.09 104-6.5 34.262-4.399 53.5-9.5 53.5-9.5s-13.141-26.492-52.5-33.5c-5.992-1.07-12.473-1.75-19.75-1.75-2.367 0-4.765 0.09-7.25 0.2496-45.484 4.348-88.171 6.25-128.5 6.25-294.21 0-458.77-106.96-602.25-197z"/>
<!-- Orange arm highlight -->
<path fill="#fab859" d="m1269.1 1103.3c-3.29 0-6.66 1.672-9.46 5.57-66.77 89.282-123.99 118.45-175.6 118.45-21.31 0-41.71-4.961-61.43-12.774 24.92 15.57 49.9 21.813 74 21.813 98.94 0 182.67-105.53 182.67-105.53 9.52-12.281-0.06-27.531-10.18-27.531"/>
</svg>
