<?xml version="1.0" encoding="UTF-8"?>
<svg xmlns="http://www.w3.org/2000/svg" version="1.1" viewBox="53.35 61.18 494.44 478.2">
<!-- Based on slides-symbol-600x600.svg from https://slides.com/about -->
<rect x="105.788" y="97.399" transform="matrix(0.9801 0.1983 -0.1983 0.9801 65.6971 -55.2603)" fill="#512833" width="405.796" height="405.807"/>
<rect x="79.178" y="97.399" transform="matrix(0.9953 0.0966 -0.0966 0.9953 30.3391 -25.8528)" fill="#934358" width="405.801" height="405.804"/>
<rect x="53.352" y="97.4" fill="#E5637C" width="405.802" height="405.802"/>
<path fill="#FFFFFF" d="M193.319,376.016c0-2.399,1.499-6.008,4.508-10.819c3.003-4.808,5.709-7.213,8.115-7.213
	c0.236,0,2.164,1.144,5.771,3.427c3.606,2.287,8.774,4.569,15.508,6.852c6.729,2.288,14.844,3.427,24.345,3.427
	c9.496,0,17.312-2.706,23.443-8.115c6.132-5.41,9.198-12.741,9.198-22c0-9.254-2.706-16.467-8.116-21.641
	c-5.411-5.167-16.174-10.036-32.28-14.606c-16.111-4.564-27.771-10.396-34.984-17.492c-7.212-7.089-10.82-17.854-10.82-32.28
	c0-14.426,5.528-26.508,16.59-36.246c11.056-9.738,25.484-14.607,43.279-14.607c12.263,0,23.202,1.565,32.822,4.688
	c9.614,3.129,14.425,6.617,14.425,10.46c0,3.127-1.386,7.157-4.146,12.082c-2.768,4.931-5.229,7.394-7.394,7.394
	c-0.243,0-1.804-0.722-4.688-2.165c-8.178-4.329-17.375-6.492-27.591-6.492c-10.223,0-18.157,2.108-23.804,6.312
	c-5.653,4.209-8.476,9.681-8.476,16.41c0,6.734,2.102,12.025,6.312,15.869c4.204,3.85,11.361,7.338,21.459,10.459
	c22.597,6.977,37.926,14.606,45.984,22.902c8.054,8.296,12.083,20.801,12.083,37.509c0,16.716-5.951,30.476-17.854,41.297
	c-11.902,10.819-26.148,16.229-42.738,16.229s-30.9-2.463-42.919-7.394C199.327,385.338,193.319,380.586,193.319,376.016z"/>
</svg>
