<?xml version="1.0" encoding="UTF-8"?>
<svg xmlns="http://www.w3.org/2000/svg" version="1.1" viewBox="2284.691 2328.1526">
<!-- Based on ss_logo.eps from http://www.slideshare.net/about/logos -->
<g transform="matrix(1,0,0,-1,0,0)">
<!-- Slide frame -->
<path
	id="frame"
	fill="#b0b1b2"
	d="m 193.207,834.898 0,764.902 c 0,126.69 32.273,166.41 148.215,166.41 l 1155.688,0 c 109.85,0 148.65,-47.21 148.65,-166.41 l 0,-740.999 89.32,61.703 0,761.096 c 0,100.06 -75.28,180.92 -167.86,180.92 l -1305.755,0 c -92.582,0 -167.8361,-80.86 -167.8361,-180.92 l 0,-784.491 99.5781,-62.211"
	/>
<!-- Blue head -->
<path
	id="bluehead"
	fill="#418dd3"
	d="m 963.188,1093.47 c 0,-115.958 100.532,-209.915 224.422,-209.915 123.88,0 224.41,93.957 224.41,209.915 0,115.94 -100.53,209.91 -224.41,209.91 -123.89,0 -224.422,-93.97 -224.422,-209.91"
	/>
<path
	id="blueheadhighlight"
	fill="#5abaea"
	d="m 1188.35,1282.19 c -4.92,0 -10.18,-0.26 -15.7,-0.78 -171.11,-17.3 -194.041,-168.77 -181.857,-238.89 0,0 39.717,185.59 183.247,185.59 88.85,0 86.35,54.11 14.31,54.08"
	/>
<path
	id="bluebody"
	fill="#418dd3"
	d="m 938.418,694.199 c 0,64.973 29.926,108.449 122.962,103.789 134.17,-4.207 397.84,-34.609 695.18,177.676 55.65,38.816 92.09,-14.027 57.98,-64.519 C 1748.16,829.801 1621.92,728.789 1428.37,649.34 1633.62,-48.1992 928.594,-159 939.348,198.629 c 0,-10.25 -0.93,495.57 -0.93,495.57"
	/>
<path
	id="bluebodyhighlight"
	fill="#5abaea"
	d="M 1781.82,966.301 C 1659.38,889.469 1521.66,800.32 1301.38,775.77 c 7.27,-6.54 11.64,-17.7 11.43,-32.989 136.76,26.899 301.52,89.391 469.01,223.52 M 1044.26,775.77 c -55.451,0 -72.655,-35.27 -72.655,-35.27 0,0 59.965,-15.871 157.485,-15.871 25.54,0 53.73,1.082 84.04,3.812 3.83,4.707 7.63,9.688 11.42,14.848 8.94,12.383 18.36,21.723 27.59,28.172 -23.18,-1.473 -47.22,-2.231 -72.21,-2.231 -40.29,0 -82.94,1.981 -128.37,6.329 -2.52,0.16 -4.95,0.211 -7.3,0.211"
	/>
<path
	id="armshadow"
	fill="#2f6fb0"
	d="m 938.891,482.91 c 0,0 299.679,-54.738 370.719,231.879 9.83,55.152 -17.75,48.59 -40.2,16.34 C 1246.97,698.91 1038.93,563.32 940.766,557.23 l -1.875,-74.32"
	/>
<path
	id="orangehead"
	fill="#f58614"
	d="m 889.789,1093.47 c 0,-115.958 -100.496,-209.915 -224.394,-209.915 -123.887,0 -224.399,93.957 -224.399,209.915 0,115.94 100.512,209.91 224.399,209.91 123.898,0 224.394,-93.97 224.394,-209.91"
	 />
<path
	id="orangeheadhighlight"
	fill="#f7b040"
	d="m 669.473,1282.19 c -4.922,0 -10.192,-0.26 -15.766,-0.78 -171.113,-17.3 -194.019,-168.77 -181.867,-238.89 0,0 39.746,185.59 183.73,185.59 88.434,0 86.301,54.11 13.903,54.08"
	/>
<path
	id="orangebody"
	fill="#f58614"
	d="m 889.336,694.199 c 0,64.973 -29.945,108.449 -122.981,103.789 C 632.184,793.781 368.539,763.379 71.1797,975.664 15.5625,1014.48 -20.9063,961.637 13.207,911.145 79.6055,829.801 205.816,728.789 399.371,649.34 194.605,-48.1992 899.148,-159 888.398,198.629 c 0,-10.25 0.938,495.57 0.938,495.57"
	/>
<path
	id="orangearm"
	fill="#f58614"
	d="M 1224.55,743.289 C 1127.29,609.59 1011.36,634.391 875.309,760.602 734.133,892.445 828.082,564.238 885.602,551.141 970.219,531.5 1003.87,512.852 1118.41,539.02 c 107.99,25.218 160.82,101.921 183.26,156.601 37.42,91.149 -27.1,116.867 -77.12,47.668"
	/>
<path
	id="orangebodylowerhighlight"
	fill="#f7b040"
	d="m 426.49833,641.77 c -25.629,-105.622 -49.035,-244.24296 -12.25,-376.5 13.515,-48.692 35.316,-96.48096 68,-141.5 -65.863,111.34696 -80.043,265.204 -38.5,421.25 7.106,26.684 15.887,53.35896 26.25,80 l -43.5,16.75 z"
	/>
<path
	id="orangebodyhighlight"
	fill="#f7b040"
	d="M 45.998326,966.27 C 298.69722,763.86 545.29933,724.52 698.74833,724.52 c 42.403,0 77.641,3.09 104,6.5 34.262,4.39896 53.5,9.5 53.5,9.5 0,0 -13.14096,26.492 -52.5,33.5 -5.992,1.07 -12.473,1.75 -19.75,1.75 -2.367,0 -4.765,-0.0896 -7.25,-0.2496 -45.484,-4.348 -88.171,-6.25 -128.5,-6.25 -294.207,0 -458.77311,106.96104 -602.250004,197 z"
	/>
<path
	id="orangearmhighlight"
	fill="#f7b040"
	d="m 1269.05,759.172 c -3.29,0 -6.66,-1.672 -9.46,-5.57 -66.77,-89.282 -123.99,-118.454 -175.6,-118.454 -21.31,0 -41.71,4.961 -61.43,12.774 24.92,-15.57 49.9,-21.813 74,-21.813 98.94,0 182.67,105.532 182.67,105.532 9.52,12.281 -0.06,27.531 -10.18,27.531"
	/>
</g>
</svg>
