<?xml version="1.0" encoding="UTF-8"?>
<svg xmlns="http://www.w3.org/2000/svg" version="1.1" viewBox="0 0 1827.7528 1862.5221">
<!-- Based on ss_logo.eps (but without the gradient effect) from http://www.slideshare.net/about/logos -->
<!-- Slide frame -->
<path fill="#b1b3b5" d="m 193.20867,1027.622 0,-764.902 c 0,-126.69 32.273,-166.41 148.215,-166.41 l 1155.68803,0 c 109.85,0 148.65,47.21 148.65,166.41 l 0,740.999 89.32,-61.703 0,-761.096 C 1735.0817,80.86 1659.8017,0 1567.2217,0 L 261.46667,0 C 168.88467,0 93.630574,80.86 93.630574,180.92 l 0,784.491 99.578096,62.211" />
<!-- Blue head -->
<path fill="#008ed3" d="m 963.18967,769.05 c 0,115.958 100.53203,209.915 224.42203,209.915 123.88,0 224.41,-93.957 224.41,-209.915 0,-115.94 -100.53,-209.91 -224.41,-209.91 -123.89,0 -224.42203,93.97 -224.42203,209.91" />
<!-- Blue head highlight -->
<path fill="#38b5e7" d="m 1188.3517,580.33 c -4.92,0 -10.18,0.26 -15.7,0.78 -171.11,17.3 -194.04103,168.77 -181.85703,238.89 0,0 39.71703,-185.59 183.24703,-185.59 88.85,0 86.35,-54.11 14.31,-54.08" />
<!-- Blue body -->
<path fill="#008ed3" d="m 938.41967,1168.321 c 0,-64.973 29.926,-108.449 122.96203,-103.789 134.17,4.207 397.84,34.609 695.18,-177.676 55.65,-38.816 92.09,14.027 57.98,64.519 -66.38,81.344 -192.62,182.356 -386.17,261.805 205.25,697.5392 -499.77603,808.34 -489.02203,450.711 0,10.25 -0.93,-495.57 -0.93,-495.57" />
<!-- Blue body highlight -->
<path fill="#38b5e7" d="m 1781.8217,896.219 c -122.44,76.832 -260.16,165.981 -480.44,190.531 7.27,6.54 11.64,17.7 11.43,32.989 136.76,-26.899 301.52,-89.391 469.01,-223.52 m -737.56,190.531 c -55.45103,0 -72.65503,35.27 -72.65503,35.27 0,0 59.96503,15.871 157.48503,15.871 25.54,0 53.73,-1.082 84.04,-3.812 3.83,-4.707 7.63,-9.688 11.42,-14.848 8.94,-12.383 18.36,-21.723 27.59,-28.172 -23.18,1.473 -47.22,2.231 -72.21,2.231 -40.29,0 -82.94,-1.981 -128.37,-6.329 -2.52,-0.16 -4.95,-0.211 -7.3,-0.211" />
<!-- Arm shadow -->
<path fill="#0072a9" d="m 938.89267,1379.61 c 0,0 299.67903,54.738 370.71903,-231.879 9.83,-55.152 -17.75,-48.59 -40.2,-16.34 -22.44,32.219 -230.48,167.809 -328.64403,173.899 l -1.875,74.32" />
<!-- Orange head -->
<path fill="#f6921e" d="m 889.79067,769.05 c 0,115.958 -100.496,209.915 -224.394,209.915 -123.887,0 -224.399,-93.957 -224.399,-209.915 0,-115.94 100.512,-209.91 224.399,-209.91 123.898,0 224.394,93.97 224.394,209.91" />
<!-- Orange head highlight -->
<path fill="#fab858" d="m 669.47467,580.33 c -4.922,0 -10.192,0.26 -15.766,0.78 -171.113,17.3 -194.019,168.77 -181.867,238.89 0,0 39.746,-185.59 183.73,-185.59 88.434,0 86.301,-54.11 13.903,-54.08" />
<!-- Orange body -->
<path fill="#f6921e" d="m 889.33767,1168.321 c 0,-64.973 -29.945,-108.449 -122.981,-103.789 -134.171,4.207 -397.816,34.609 -695.175296,-177.676 -55.6172,-38.816 -92.086,14.027 -57.9727,64.519 66.3985,81.344 192.608996,182.356 386.163996,261.805 -204.766,697.5392 499.777,808.34 489.027,450.711 0,10.25 0.938,-495.57 0.938,-495.57" />
<!-- Orange arm -->
<path fill="#f6921e" d="m 1224.5517,1119.231 c -97.26,133.699 -213.19,108.898 -349.24103,-17.313 -141.176,-131.843 -47.227,196.364 10.293,209.461 84.617,19.641 118.26803,38.289 232.80803,12.121 107.99,-25.218 160.82,-101.921 183.26,-156.601 37.42,-91.149 -27.1,-116.867 -77.12,-47.668" />
<!-- Orange body lower highlight -->
<path fill="#fab859" d="m 426.5,1220.75 c -25.629,105.622 -49.035,244.243 -12.25,376.5 13.515,48.692 35.316,96.481 68,141.5 -65.863,-111.347 -80.043,-265.204 -38.5,-421.25 7.106,-26.684 15.887,-53.359 26.25,-80 l -43.5,-16.75 z" />
<!-- Orange body upper highlight -->
<path fill="#fab859" d="M 46,896.25 C 298.69889,1098.66 545.301,1138 698.75,1138 c 42.403,0 77.641,-3.09 104,-6.5 34.262,-4.399 53.5,-9.5 53.5,-9.5 0,0 -13.14096,-26.492 -52.5,-33.5 -5.992,-1.07 -12.473,-1.75 -19.75,-1.75 -2.367,0 -4.765,0.09 -7.25,0.2496 -45.484,4.348 -88.171,6.25 -128.5,6.25 -294.207,0 -458.77311,-106.96104 -602.25,-197 z" />
<!-- Orange arm highlight -->
<path fill="#fab859" d="m 1269.0517,1103.348 c -3.29,0 -6.66,1.672 -9.46,5.57 -66.77,89.282 -123.99,118.454 -175.6,118.454 -21.31,0 -41.71,-4.961 -61.43,-12.774 24.92,15.57 49.9,21.813 74,21.813 98.94,0 182.67,-105.532 182.67,-105.532 9.52,-12.281 -0.06,-27.531 -10.18,-27.531" />
</svg>
