<?xml version="1.0" encoding="UTF-8"?>
<svg xmlns="http://www.w3.org/2000/svg" version="1.1" viewBox="0 0 823 823">
<!-- Based on smashcast-icon.eps from https://drive.google.com/drive/folders/0B9Ekxwvoc30RUjJxNDRqX0N6WHM -->
<path fill="#eb5055" d="m187.96 370.16c-5.85 0-11.79-1.13-17.52-3.52l-120.48-50.17c-23.26-9.68-34.26-36.39-24.57-59.65 9.69-23.26 36.39-34.26 59.65-24.58l120.48 50.17c23.26 9.68 34.26 36.39 24.57 59.65-7.3 17.53-24.26 28.09-42.13 28.09M707.66 595.23 707.66 595.23 707.66 595.23c-6.19 0-12.48-1.26-18.5-3.94l-116.3-51.69c-23.02-10.23-33.39-37.19-23.16-60.22 10.23-23.02 37.18-33.4 60.21-23.16l116.3 51.69c23.02 10.23 33.39 37.19 23.16 60.22-7.56 17-24.24 27.1-41.71 27.1M234.15 818.7c-6.01 0-12.12-1.19-17.99-3.72-23.15-9.95-33.85-36.78-23.9-59.93l68.83-160.14c9.95-23.15 36.77-33.85 59.92-23.9 23.15 9.95 33.85 36.78 23.9 59.93l-68.82 160.14c-7.43 17.27-24.25 27.62-41.93 27.62M476.35 255.15c-5.69 0-11.47-1.07-17.07-3.33-23.36-9.43-34.65-36.02-25.22-59.38l29.07-72.01c9.43-23.37 36.02-34.65 59.38-25.22 23.36 9.43 34.66 36.02 25.22 59.38l-29.07 72.01c-7.17 17.77-24.27 28.55-42.31 28.55"/>
<path fill="#208efc" d="m535.59 822.68c-18.12 0-35.26-10.87-42.38-28.73l-64.57-161.9c-9.33-23.4 2.07-49.94 25.47-59.27 23.41-9.33 49.95 2.07 59.27 25.47l64.57 161.9c9.33 23.4-2.07 49.94-25.47 59.27-5.54 2.21-11.26 3.26-16.89 3.26M593.62 375.52 593.62 375.52 593.62 375.52c-18.12 0-35.26-10.87-42.38-28.73-9.33-23.4 2.07-49.94 25.47-59.27l161.9-64.57c23.42-9.33 49.95 2.07 59.27 25.47 9.33 23.4-2.07 49.94-25.47 59.27l-161.9 64.57c-5.54 2.21-11.26 3.26-16.89 3.26M308.36 252.93c-18.1 0-35.23-10.85-42.37-28.68l-64.57-161.34c-9.36-23.39 2.01-49.94 25.4-59.3 23.4-9.36 49.95 2.01 59.31 25.41l64.57 161.34c9.36 23.39-2.01 49.94-25.4 59.3-5.56 2.22-11.3 3.28-16.94 3.28M78.15 581.54c-18.06 0-35.16-10.8-42.33-28.58-9.42-23.37 1.89-49.95 25.26-59.36l107.62-43.36c23.37-9.41 49.95 1.9 59.36 25.27 9.42 23.37-1.89 49.95-25.26 59.36l-107.62 43.36c-5.59 2.25-11.36 3.32-17.03 3.32"/>
</svg>
