<?xml version="1.0" encoding="UTF-8"?>
<svg version="1.1" viewBox="0 0 435.403 245.872" xmlns="http://www.w3.org/2000/svg" xmlns:xlink="http://www.w3.org/1999/xlink">
<!-- Based on sc_cmyk_gradient.ai from https://soundcloud.com/press -->
<defs>
	 <linearGradient id="SoundCloudGradient" x1="0" y1="0" x2="0" y2="1">
		<stop stop-color="#ff8800" offset="0"/>
		<stop stop-color="#ff3300" offset="1"/>
	 </linearGradient>
</defs>
<path fill="url(#SoundCloudGradient)" d="m232.77 6.4c-4.043 1.567-5.115 3.171-5.154 6.297v169.97c0.042 3.278 2.586 5.825 5.785 6.145 0.136 0.014 148.45 0 148.45 0 29.577 0 53.551-23.71 53.551-53.29 0-29.581-23.974-53.558-53.551-53.558-7.338 0-14.34 1.488-20.714 4.159-4.26-48.268-44.74-86.131-94.11-86.131-12.082 0-23.858 2.375-34.26 6.4m-19.821 7.494c-1.309 1.08-2.156 2.713-2.18 4.536l-0.013 0.608-2.405 120.04 1.227 22.189 1.192 21.594c0.042 3.197 2.686 5.835 5.9 5.835 3.203 0 5.847-2.638 5.892-5.881v0.05 0.001l2.626-43.788v-0.001l-2.626-120.65c-0.028-2.13-1.189-3.996-2.892-5.026-0.882-0.534-1.906-0.847-3-0.847-1.406 0-2.703 0.506-3.721 1.346m-17.543 9.943c-1.504 0.984-2.519 2.683-2.549 4.612l-0.02 1.043-2.066 109.54c0 0.066 2.086 44.465 2.086 44.465 0.001 0.063 0.009 0.126 0.013 0.188 0.062 1.241 0.533 2.384 1.286 3.285 1.017 1.219 2.54 2.001 4.226 2.001 1.499 0 2.867-0.617 3.867-1.615 0.999-0.995 1.632-2.368 1.66-3.884l0.231-4.395 2.096-40.01-2.327-110.62c-0.032-1.896-1.012-3.572-2.474-4.561-0.878-0.595-1.929-0.943-3.053-0.943-1.092 0-2.114 0.331-2.976 0.896m-20.545 22.263-2.304 92.95 2.305 44.726c0.054 2.849 2.319 5.099 5.154 5.099 2.827 0 5.091-2.25 5.153-5.131v0.037l2.582-44.725-2.582-92.965c-0.062-2.871-2.326-5.126-5.153-5.126-2.835 0-5.1 2.257-5.155 5.135m-17.856-3.528-2.525 96.474 2.527 45.009c0.059 2.643 2.16 4.737 4.782 4.737 2.612 0 4.711-2.094 4.782-4.76v0.032l2.838-45.018-2.838-96.479c-0.071-2.665-2.17-4.752-4.782-4.752-2.622 0-4.723 2.09-4.784 4.757m-17.715-2.533-2.744 98.998 2.747 45.443c0.068 2.433 2.005 4.357 4.41 4.357 2.395 0 4.33-1.923 4.409-4.376l3.092-45.42-3.091-99.004c-0.079-2.46-2.014-4.385-4.41-4.385-2.405 0-4.342 1.928-4.413 4.387m-17.576 3.222c0 0.002-2.963 95.771-2.963 95.771l2.966 45.727c0.075 2.227 1.85 3.987 4.039 3.987 2.177 0 3.95-1.755 4.04-4.005l3.344-45.709-3.344-95.773c-0.089-2.25-1.863-4.012-4.04-4.012-2.189 0-3.964 1.764-4.042 4.014m-17.705 7.608c0 0.005-3.181 88.395-3.181 88.395l3.185 46.204c0.082 2.021 1.693 3.617 3.668 3.617 1.957 0 3.566-1.59 3.665-3.624l3.601-46.197-3.6-88.395c-0.094-2.039-1.705-3.635-3.666-3.635-1.975 0-3.586 1.596-3.672 3.635m7.338 134.58m-24.409-118.42c0 0.002-3.404 71.942-3.404 71.942l3.404 46.492c0.089 1.815 1.538 3.25 3.298 3.25 1.744 0 3.191-1.435 3.295-3.26v0.014l3.851-46.496-3.851-71.945c-0.104-1.829-1.551-3.26-3.295-3.26-1.76 0-3.209 1.434-3.298 3.263m-17.154 27.706-3.625 44.218 3.625 46.496c0.098 1.638 1.355 2.881 2.924 2.881 1.554 0 2.811-1.242 2.925-2.883l4.107-46.494-4.107-44.236c-0.112-1.63-1.37-2.87-2.925-2.87-1.569 0-2.826 1.241-2.924 2.888m-17.015-3.455-3.841 47.669 3.841 46.116c0.107 1.426 1.207 2.505 2.557 2.505 1.332 0 2.429-1.079 2.55-2.505l4.363-46.116-4.363-47.678c-0.121-1.424-1.218-2.501-2.55-2.501-1.35 0-2.45 1.079-2.557 2.51m-16.873 1.267c0 0.002-4.063 46.392-4.063 46.392l4.063 44.699c0.115 1.243 1.033 2.141 2.183 2.141 1.13 0 2.045-0.898 2.179-2.132l4.618-44.708-4.615-46.394c-0.137-1.24-1.052-2.136-2.182-2.136-1.15 0-2.068 0.899-2.183 2.138m-16.732 7.289c0 0.003-4.282 39.099-4.282 39.099l4.282 38.238c0.123 1.023 0.885 1.765 1.81 1.765 0.918 0 1.66-0.723 1.807-1.756l4.872-38.247-4.87-39.101c-0.149-1.039-0.891-1.758-1.809-1.758-0.925 0-1.687 0.74-1.81 1.76m-16.034 14.906-3.183 24.18 3.183 23.76c0.12 1.002 0.838 1.702 1.746 1.702 0.883 0 1.598-0.694 1.743-1.693l3.77-23.777-3.77-24.189c-0.144-0.997-0.86-1.695-1.743-1.695-0.908 0-1.626 0.702-1.746 1.704"/>
<path fill="#ff3300" d="m389.89 237.56h-3.896v-24.209h4.186c8.363 0 11.815 4.009 11.815 12.105 0 7.241-3.784 12.104-12.105 12.104m0.575-31.907h-12.39v39.599h11.815c10.198 0 20.255-5.886 20.255-19.796 0-14.487-8.363-19.803-19.68-19.803m-30.212 22.234c0 6.332-3.101 10.24-8.138 10.24-5.039 0-8.093-4.018-8.093-10.35v-22.124h-7.92v22.234c0 11.537 6.452 17.986 16.013 17.986 10.066 0 16.066-6.624 16.066-18.096v-22.124h-7.928v22.234zm-49.153 10.122c-6.397 0-9.055-5.483-9.055-12.553 0-7.075 2.658-12.557 9.055-12.557 6.387 0 9.041 5.482 9.041 12.557 0 7.07-2.654 12.553-9.041 12.553m0-32.976c-10.809 0-17.196 8.368-17.196 20.423 0 12.053 6.387 20.417 17.196 20.417 10.802 0 17.198-8.364 17.198-20.417 0-12.055-6.396-20.423-17.198-20.423m-36.742 0.62h-7.924v39.599h23.81v-7.806h-15.886v-31.793zm-29.373 7.246c3.562 0 5.828 1.583 7.241 4.296l7.347-3.397c-2.487-5.146-7.01-8.765-14.477-8.765-10.347 0-17.587 8.368-17.587 20.423 0 12.498 6.946 20.417 17.306 20.417 7.185 0 11.934-3.337 14.651-8.941l-6.677-3.963c-2.09 3.512-4.186 5.04-7.749 5.04-5.943 0-9.396-5.432-9.396-12.553 0-7.352 3.406-12.557 9.341-12.557m-44.745 24.661h-3.906v-24.209h4.192c8.371 0 11.822 4.009 11.822 12.105 0 7.241-3.793 12.104-12.108 12.104m0.562-31.907h-12.382v39.599h11.82c10.18 0 20.254-5.886 20.254-19.796 0-14.487-8.376-19.803-19.692-19.803m-30.37 16.747c0 2.205 0.11 7.182 0.11 8.657-0.506-1.018-1.809-3.005-2.768-4.476l-14.034-20.928h-7.579v39.599h7.809v-17.423c0-2.205-0.116-7.183-0.116-8.656 0.514 1.018 1.814 2.996 2.769 4.473l14.541 21.606h7.076v-39.599h-7.808v16.747zm-42.088 5.487c0 6.332-3.11 10.24-8.141 10.24-5.035 0-8.09-4.018-8.09-10.35v-22.124h-7.919v22.234c0 11.537 6.451 17.986 16.009 17.986 10.065 0 16.06-6.624 16.06-18.096v-22.124h-7.919v22.234zm-49.15 10.122c-6.395 0-9.054-5.483-9.054-12.553 0-7.075 2.659-12.557 9.054-12.557 6.392 0 9.047 5.482 9.047 12.557 0 7.07-2.655 12.553-9.047 12.553m0-32.976c-10.803 0-17.195 8.368-17.195 20.423 0 12.053 6.392 20.417 17.195 20.417 10.8 0 17.195-8.364 17.195-20.417 0-12.055-6.395-20.423-17.195-20.423m-36.438 16.006c-6.281-1.476-7.974-2.265-7.974-4.752 0-1.75 1.412-3.564 5.653-3.564 3.622 0 6.451 1.477 8.994 4.075l5.718-5.544c-3.737-3.898-8.261-6.221-14.426-6.221-7.809 0-14.141 4.416-14.141 11.602 0 7.799 5.091 10.122 12.387 11.812 7.467 1.699 8.824 2.837 8.824 5.381 0 2.998-2.211 4.299-6.904 4.299-3.789 0-7.348-1.301-10.125-4.53l-5.713 5.093c2.999 4.412 8.772 7.183 15.386 7.183 10.804 0 15.558-5.088 15.558-12.613 0-8.601-6.957-10.748-13.237-12.221"/>
</svg>
