<?xml version="1.0" encoding="UTF-8"?>
<svg
   xmlns:svg="http://www.w3.org/2000/svg"
   xmlns="http://www.w3.org/2000/svg"
   version="1.1"
   width="64"
   height="64"
>
    <path fill="#919191" d="m 9.3049611,36.847632 4.4013079,0.04316 -0.153442,19.598393 29.291259,0 0,-19.527506 4.637782,0 0,24.287331 -38.2006795,0 0.023777,-24.401371 z" />
    <rect fill="#919191" width="22.944817" height="4.881876" x="16.481951" y="48.434078" />
    <rect fill="#a78b68" width="23.066864" height="5.0039229" x="20.749949" y="37.830307" transform="matrix(0.9953749,0.09606666,-0.09606666,0.9953749,0,0)" />
    <rect fill="#c19653" width="23.066864" height="5.0039229" x="26.472515" y="23.401554" transform="matrix(0.96240291,0.27162592,-0.27162592,0.96240291,0,0)" />
    <rect fill="#d48c28" width="23.066864" height="5.0039229" x="30.528769" y="3.1535864" transform="matrix(0.85597805,0.51701216,-0.51701216,0.85597805,0,0)" />
    <rect fill="#fe8908" width="23.066864" height="5.0039229" x="27.191883" y="-24.475019" transform="matrix(0.58242689,0.81288309,-0.81288309,0.58242689,0,0)" />
    <rect fill="#ff7a15" width="23.066864" height="5.0039229" x="11.174569" y="-50.183693" transform="matrix(0.16480989,0.98632535,-0.98632535,0.16480989,0,0)" />
</svg>
