<?xml version="1.0" encoding="UTF-8"?>
<svg xmlns="http://www.w3.org/2000/svg" version="1.1" viewBox="0 0 43.21 53.596">
<!-- Based on se-logo.eps from https://stackexchange.com/about/logos -->
<path fill="#185297" d="m0 34.802v2.3078c0 3.9191 3.066 7.1004 6.85 7.1004h18.454v9.3855l9.057-9.3855h1.992c3.787 0 6.857-3.1813 6.857-7.1004v-2.3078"/>
<path fill="#326eb6" d="m0 32.298h43.21v-8.8871h-43.21"/>
<path fill="#46a2d9" d="m0 20.852h43.21v-8.8891h-43.21"/>
<path fill="#8fd8f6" d="m6.85 0c-3.784 0-6.85 3.1808-6.85 7.1v2.3082h43.21v-2.3082c0-3.9192-3.07-7.1-6.857-7.1"/>
<path fill="#3a6ca6" d="m8.106 44.21h-1.256c-3.784 0-6.85-3.181-6.85-7.1v-2.3078h17.184"/>
<path fill="#5184c1" d="m19.6 32.298h-19.6v-8.8871h28.176"/>
<path fill="#62b0df" d="m30.644 20.852h-30.644v-8.8891h39.22"/>
</svg>
