<?xml version="1.0" encoding="UTF-8"?>
<svg xmlns="http://www.w3.org/2000/svg" version="1.1" viewBox="0 0 223.90626 102.34375">
	<path fill="#000000" d="m 209.89376,30.25 c 0,8.97 -7.28,16.25 -16.25,16.25 -8.97,0 -16.25,-7.28 -16.25,-16.25 0,-8.97 7.28,-16.25 16.25,-16.25 8.97,0 16.25,7.28 16.25,16.25 z M 193.5625,-2.1279166e-6 C 176.90178,-2.1279166e-6 163.37007,13.436438 163.21875,30.062498 l -18.90625,27.09375 c -0.77022,-0.0797 -1.55305,-0.125 -2.34375,-0.125 -4.22405,-6e-6 -8.17152,1.161163 -11.5625,3.1875 l -85.625,-34.4375 C 42.543434,15.622435 33.46497,7.9687479 22.65625,7.9687479 10.176882,7.9687449 0,18.176876 0,30.656248 c -1.1999999e-6,12.479366 10.176878,22.65625 22.65625,22.65625 4.223861,-6e-6 8.171517,-1.161101 11.5625,-3.1875 l 85.625,34.375 c 2.2152,10.182552 11.29462,17.843752 22.125,17.843752 11.73131,0 21.41029,-8.99255 22.53125,-20.437502 l 29.0625,-21.25 c 16.75121,-2e-6 30.34376,-13.566124 30.34375,-30.3125 C 223.90626,13.587792 210.31492,-2.1279165e-6 193.5625,-2.1279165e-6 z m 0,10.0000000279166 c 11.22382,0 20.34375,9.1196581 20.34375,20.3437501 -1e-5,11.22409 -9.11993,20.3125 -20.34375,20.3125 -11.22381,-2e-6 -20.34375,-9.088408 -20.34375,-20.3125 -1e-5,-11.224094 9.11993,-20.3437501 20.34375,-20.3437501 z M 22.65625,13.968748 c 6.397402,-3e-6 11.926337,3.574206 14.71875,8.84375 l -8.28125,-3.3125 0,0.03125 c -6.672004,-2.396 -14.084,0.865 -16.75,7.5 -2.666002,6.634994 0.401,14.14525 6.875,17.03125 l 0,0.03125 7.03125,2.8125 c -1.155873,0.251763 -2.359837,0.40625 -3.59375,0.40625 C 13.423259,47.3125 6,39.889244 6,30.656248 c 0,-9.232998 7.423254,-16.6875 16.65625,-16.6875 z m 119.3125,49.0625 c 9.23351,-8e-6 16.65625,7.422702 16.65625,16.65625 -4e-5,9.233552 -7.4227,16.656252 -16.65625,16.656252 -6.42264,0 -11.96824,-3.581 -14.75,-8.875002 2.7391,1.105312 5.48292,2.199332 8.21875,3.312502 6.78897,2.728 14.521,-0.55275 17.25,-7.343752 2.72896,-6.789005 -0.585,-14.49075 -7.375,-17.21875 l -6.9375,-2.78125 c 1.15588,-0.251754 2.35976,-0.40625 3.59375,-0.40625 z" />
</svg>
