<?xml version="1.0" encoding="utf-8"?>
<svg version="1.1" viewBox="0 0 317.78391 398.85739" xmlns="http://www.w3.org/2000/svg">
<!-- Based on stellar-rocket@1x.pdf from https://www.stellar.org/about/media/#Presskit -->
<path fill="#ed8117" d="m172.19 258.72c12.705-18.155 8.3277-43.256-9.7574-56.092-18.091-12.833-43.041-8.5187-55.728 9.6314-0.3123 0.4458-0.5675 0.9093-0.8582 1.3625-22.132 32.679-25.853 68.86-8.0867 81.458 17.77 12.61 50.351-3.1135 73.448-35.096 0.3249-0.4229 0.6764-0.82 0.9826-1.2642"/>
<path fill="#eebb18" d="m168.1 245.68c8.942-12.489 5.9845-29.677-6.5967-38.397-12.597-8.7286-30.058-5.6714-39 6.8177-0.2274 0.3074-0.3992 0.6259-0.6066 0.9344-15.594 22.477-18.34 47.291-5.964 55.858 12.368 8.563 35.198-2.3349 51.465-24.344 0.2385-0.2909 0.4818-0.5637 0.7031-0.8695"/>
<path fill="#5b6a72" d="m173.91 131.33c-12.202-8.4542-73.595-42.774-134.76 35.647-1.8652 2.3987-2.7845 6.0136 2.2832 4.4355 14.457-4.4958 47.229-9.7434 85.271 16.644 51.373 35.634 47.208-56.726 47.208-56.726"/>
<path fill="#5b6a72" d="m227.61 170.18c12.002 8.4953 64.659 54.031 11.771 136.68-1.6149 2.522-4.6953 4.5735-4.9131-0.6464-0.6317-14.885-6.6941-46.998-44.112-73.508-50.533-35.812 37.254-62.529 37.254-62.529"/>
<path fill="#dcf2f9" stroke="#5b6a72" stroke-width="9.965" stroke-linejoin="round" d="m301.1 5.7817-0.0209-0.0165c-4.77-3.3828-92.51 2.245-125.33 56.475-32.83 54.24-61.36 106.96-67.21 117.14-5.8426 10.186-2.5964 15.747 7.8187 23.119 4.741 3.3522 18.104 12.81 31.275 22.125 13.159 9.3131 26.523 18.771 31.263 22.123 10.422 7.376 16.723 8.5794 24.303-0.38002 7.5754-8.9581 47.389-53.692 87.167-103.02 39.78-49.313 15.51-134.19 10.73-137.57 z"/>
<path fill="#fefefe" stroke="#5b6a72" stroke-width="10" stroke-linejoin="round" d="m203.46 75.025c11.266-16.016 33.377-19.845 49.384-8.5612s19.847 33.412 8.572 49.414c-11.262 16.009-33.383 19.846-49.39 8.5627-16.002-11.285-19.834-33.404-8.5665-49.415 z"/>
<path fill="none" stroke="#979797" stroke-width="5" stroke-linecap="square" d="m2.5 396.36 53.26-74.95"/>
<path fill="none" stroke="#979797" stroke-width="5" stroke-linecap="square" d="m32.9 386.23 29.914-42.09"/>
</svg>
