<?xml version="1.0" encoding="UTF-8"?>
<svg version="1.1" viewBox="0 0 300 300" xmlns="http://www.w3.org/2000/svg">
<!-- https://commons.wikimedia.org/wiki/File:StumbleUpon_Logo.svg -->
<path fill="#eb4823" d="M 300,150 A 150,150 0 1 1 0,150 150,150 0 1 1 300,150 z" />
<path fill="#ffffff" d="M 149,83 C 128.013,83 111,100.013 111,121 L 111,175 C 111,179.971 106.971,184 102,184 97.0294,184 93,179.971 93,175 L 93,151 64,151 64,176 C 64,196.987 81.0132,214 102,214 122.987,214 140,196.987 140,176 L 140,121 C 140,116.029 144.029,112 149,112 153.971,112 158,116.029 158,121 L 158,132 170,137.5 187,132 187,121 C 187,100.013 169.987,83 149,83 z M 158,151.5 158,176 C 158,196.987 175.013,214 196,214 216.987,214 234,196.987 234,176 L 234,152 205,152 205,176 C 205,180.971 200.971,185 196,185 191.029,185 187,180.971 187,176 L 187,151.5 170,157 158,151.5 z" />
</svg>
