<?xml version="1.0" encoding="UTF-8"?>
<!-- Created with Inkscape (http://www.inkscape.org/) -->
<svg
	xmlns:svg="http://www.w3.org/2000/svg"
	xmlns="http://www.w3.org/2000/svg"
	version="1.1"
	width="128"
	height="128">
	<rect fill="#000000" x="0" y="0" width="128" height="128" />
	<rect fill="#aec562" x="8" y="8" width="64" height="39" />
	<rect fill="#bd4031" x="79" y="8" width="42" height="76" />
	<rect fill="#d09b75" x="8" y="54" width="28" height="67" />
	<rect fill="#fef205" x="43" y="54" width="29" height="67" />
	<rect fill="#9ec8e0" x="79" y="90" width="42" height="31" />
	<path fill="#000000" d="M 64.51788,14.98602 C 54.25266,14.6891 43.25081,15.81788 34.87687,22.34174 26.05588,28.79377 23.29059,40.49856 24.29751,50.89246 c 0.38173,8.22153 4.42852,16.43886 11.73856,20.5996 9.91403,6.21793 22.002,6.79453 32.67717,11.00746 2.68548,4.6076 -6.38247,4.42385 -9.19058,4.31732 -8.53833,-0.40335 -16.59897,-3.53197 -24.32144,-6.95108 -4.51391,-2.38108 -10.72464,0.57833 -10.78599,5.93699 -0.43101,6.42467 -0.56364,13.00203 0.65242,19.34863 2.07621,4.75235 8.07015,5.12764 12.38773,6.64714 14.5902,3.6846 30.30095,5.33768 44.94428,1.06211 8.45943,-2.40158 15.80959,-8.73052 18.55259,-17.20998 3.4358,-10.31355 3.46139,-22.529 -2.43716,-31.96748 -5.90681,-8.9504 -17.05273,-11.43801 -26.8344,-13.73345 -5.11653,-1.18057 -10.44794,-1.98053 -15.16281,-4.4012 3.00354,-3.16777 8.36819,-2.29925 12.42066,-2.23358 7.65993,0.5003 14.76574,3.60686 22.10444,5.51372 6.01035,0.82816 7.08813,-6.29253 6.6917,-10.71172 -0.093,-5.22867 -0.13487,-10.47959 -0.50094,-15.69132 -0.74196,-3.6559 -4.80469,-3.85834 -7.75025,-4.49719 C 81.29486,16.0185 72.92908,15.03317 64.51788,14.98602 z" />
	<path fill="#ffffff" d="m 64.45538,20.86102 c -8.93902,-0.12477 -18.62476,0.44624 -25.98844,6.12645 -6.86306,4.99807 -8.93569,14.04991 -8.40487,22.11166 0.0189,6.42121 2.45791,13.23348 8.12925,16.75674 9.75633,6.43168 21.85689,6.83185 32.49718,11.04857 4.53754,1.85546 6.29787,8.20303 2.88451,11.89231 -4.11754,4.63377 -10.98866,4.17485 -16.61763,3.72052 -8.3,-0.75773 -16.14062,-3.7552 -23.70037,-7.08945 -4.88589,-1.69343 -2.75165,5.86587 -3.23232,8.74813 0.68013,3.35694 -1.49345,9.17272 3.02639,10.15382 15.01324,4.8626 31.50933,7.09978 46.94435,2.8817 6.07066,-1.64322 11.99723,-5.29877 14.45881,-11.34191 C 98.3391,86.96114 98.63839,76.03268 93.87828,67.39352 89.55852,60.32739 80.90372,58.30283 73.41365,56.38538 66.52854,54.52414 59.00604,54.08677 52.86158,50.17352 c -4.1267,-2.63051 -2.21824,-9.00688 1.71273,-10.7849 7.26754,-3.39087 15.6827,-2.15863 23.25657,-0.56766 4.65065,1.03787 9.06425,2.91154 13.68695,4.04001 0.43075,-6.15313 0.0111,-12.33325 0.14062,-18.5 -8.53787,-1.88021 -17.17848,-3.4608 -25.95499,-3.47813 l -0.6253,-0.0125 -0.62283,-0.009 5e-5,5e-5 z" />
</svg>
