<?xml version="1.0" encoding="UTF-8"?>
<svg xmlns="http://www.w3.org/2000/svg" version="1.1" viewBox="0 0 128 128">
<!-- Based on stylish-128.png -->
<rect fill="#000000" width="128" height="128" x="0" y="0"/>
<rect fill="#aec562" width="63.75" height="38.5" x="7.5" y="7.5"/>
<rect fill="#bd4031" width="41.75" height="76" x="78.75" y="7.5"/>
<rect fill="#d09b75" width="27.5" height="67" x="7.5" y="53.5"/>
<rect fill="#fef205" width="28.75" height="67" x="42.5" y="53.5"/>
<rect fill="#9ec8e0" width="41.75" height="30.75" x="78.75" y="89.75"/>
<path fill="#000000" d="m58.25 114.35c-3.4917-0.23937-7.3785-0.67221-10.125-1.1276-6.8302-1.1324-17.931-4.2785-20.222-5.7309-1.2642-0.80174-2.3217-2.0985-2.7966-3.4294-0.48523-1.3597-0.48523-21.266 0-22.626 0.49348-1.3828 1.5076-2.5861 2.8393-3.3689 1.0246-0.60227 1.4411-0.69276 3.179-0.6907 1.8777 0.0023 2.1146 0.06604 3.875 1.0437 4.554 2.5292 12.895 5.6099 17.75 6.5559 5.5282 1.0772 9.1558 1.2675 12.567 0.65934 3.4405-0.61338 4.9288-1.6941 4.5286-3.2887-0.306-1.219-3.466-2.27-13.839-4.6-7.971-1.79-11.037-2.738-14.988-4.637-7.921-3.805-12.682-8.732-15.257-15.789-2.623-7.186-2.218-18.162 0.93-25.244 1.4191-3.192 3.0389-5.5692 5.5963-8.2127 6.0705-6.275 14.047-9.4398 25.61-10.161 9.6785-0.60367 20.518 0.51874 32.171 3.3312 4.8119 1.1614 6.0657 1.8178 7.2995 3.8216l0.75728 1.2299 0.07292 10.33c0.04654 6.5927-0.02103 10.679-0.18676 11.294-0.37796 1.4036-1.5675 2.9066-2.9381 3.7122-1.0263 0.60327-1.4668 0.70419-3.073 0.70404-1.7012-0.000162-2.1993-0.13156-5.375-1.4179-10.723-4.3435-21.26-5.7784-28.061-3.8211-1.4902 0.42887-2.3438 1.3508-1.8271 1.9734 0.54056 0.65134 4.0606 1.6323 10.887 3.0341 11.413 2.3436 15.482 3.5309 20.227 5.902 6.298 3.147 10.164 6.765 12.78 11.955 1.9148 3.8039 2.7594 7.242 3.0268 12.322 0.17818 3.3846-0.20894 9.0337-0.79734 11.635-3.1435 13.899-12.978 22.014-29.294 24.175-2.8109 0.37219-12.428 0.66677-15.312 0.46904z"/>
<path fill="#ffffff" d="m58.25 108.1c-8.6409-0.75307-14.979-2.0086-22.812-4.5188l-4.4375-1.422v-9.3129-9.3129l3.5625 1.7183c11.356 5.4772 22.539 7.8978 31.107 6.733 3.8454-0.52278 6.3116-1.5314 8.1767-3.344 1.708-1.659 2.239-3.015 2.261-5.764 0.015-1.977-0.068-2.423-0.681-3.67-0.864-1.762-2.031-2.806-4.297-3.847-2.403-1.105-4.117-1.583-12.505-3.487-3.987-0.905-8.567-2.085-10.177-2.621-10.133-3.378-15.343-8.335-17.472-16.625-0.76683-2.9865-0.83812-9.3482-0.14135-12.613 1.4492-6.7904 4.4116-11.295 9.7902-14.886 8.4799-5.6613 22.296-6.8454 40.754-3.4928 3.5578 0.64623 10.281 2.1931 10.505 2.4169 0.06744 0.06744 0.09305 4.1249 0.05692 9.0166l-0.066 8.894-1.75-0.749c-4.613-1.974-10.936-3.838-16.125-4.753-4.069-0.717-12.576-0.797-15.395-0.144-4.0227 0.93206-6.4926 2.4994-7.5782 4.8089-1.1965 2.5454-0.91826 5.7865 0.65447 7.6239 2.1091 2.464 4.3335 3.255 15.514 5.5168 9.3662 1.8948 13.258 3.018 17.59 5.077 6.85 3.2557 10.63 7.8996 12.134 14.908 0.34516 1.6082 0.4524 3.1586 0.44096 6.375-0.02208 6.2074-0.81601 9.8839-3.0674 14.204-3.6164 6.9396-10.453 11.09-20.917 12.701-3.1298 0.48158-12.211 0.82367-15.125 0.56974z"/>
</svg>
