<?xml version="1.0" encoding="UTF-8"?>
<svg
   xmlns:svg="http://www.w3.org/2000/svg"
   xmlns="http://www.w3.org/2000/svg"
   version="1.1"
   width="128"
   height="128"
>
	<rect fill="#000000" width="128" height="128" x="0" y="0" />
	<rect fill="#aec562" width="63.75" height="38.5" x="7.5" y="7.5" />
	<rect fill="#bd4031" width="41.75" height="76" x="78.75" y="7.5" />
	<rect fill="#d09b75" width="27.5" height="67" x="7.5" y="53.5" />
	<rect fill="#fef205" width="28.75" height="67" x="42.5" y="53.5" />
	<rect fill="#9ec8e0" width="41.75" height="30.75" x="78.75" y="89.75" />
	<path fill="#000000" d="m 58.25,114.35092 c -3.491685,-0.23937 -7.378502,-0.67221 -10.125,-1.12755 -6.83017,-1.13236 -17.931462,-4.27853 -20.221663,-5.73093 -1.264197,-0.80174 -2.321682,-2.09849 -2.79665,-3.42943 -0.485228,-1.3597 -0.485228,-21.266315 0,-22.626017 0.493478,-1.382813 1.507603,-2.586111 2.839285,-3.368918 1.02456,-0.602272 1.441055,-0.692762 3.179028,-0.690697 1.87772,0.0023 2.114637,0.06604 3.875,1.043687 4.554025,2.52915 12.895105,5.609895 17.75,6.555893 5.52819,1.077195 9.155845,1.26752 12.567212,0.659342 3.440548,-0.613382 4.92878,-1.694145 4.528578,-3.28868 C 69.539362,81.12672 66.37926,80.076085 56.006395,77.74646 48.035457,75.95628 44.96876,75.007503 41.017672,73.109233 33.096525,69.303575 28.336257,64.377165 25.760577,57.319635 23.13806,50.133768 23.542669,39.15791 26.691155,32.07578 c 1.41906,-3.192002 3.038935,-5.569217 5.596292,-8.212729 6.070518,-6.275029 14.046938,-9.439751 25.609845,-10.160955 9.678463,-0.603668 20.518033,0.518745 32.170918,3.331224 4.8119,1.161375 6.065745,1.817819 7.299505,3.821616 l 0.757285,1.229936 0.07292,10.329641 c 0.04654,6.592672 -0.02103,10.678527 -0.18676,11.294032 -0.37796,1.403635 -1.567487,2.906573 -2.938122,3.71224 -1.026305,0.603268 -1.466815,0.70419 -3.07304,0.704035 -1.70125,-1.62e-4 -2.199333,-0.131555 -5.375,-1.417925 -10.722843,-4.3435 -21.260143,-5.778372 -28.061033,-3.821092 -1.490177,0.42887 -2.343775,1.35082 -1.827087,1.97339 0.540565,0.65134 4.060595,1.632325 10.887222,3.034127 11.41325,2.343635 15.481955,3.530858 20.226733,5.902035 C 94.14826,56.942458 98.0145,60.56009 100.62701,65.75 c 1.91481,3.803883 2.75937,7.242025 3.0268,12.321883 0.17818,3.384567 -0.20894,9.03373 -0.79734,11.63523 -3.143525,13.898727 -12.97781,22.014327 -29.294365,24.174767 -2.810925,0.37219 -12.42771,0.66677 -15.312105,0.46904 z" />
	<path fill="#ffffff" d="m 58.25,108.09954 c -8.64089,-0.75307 -14.978988,-2.00855 -22.8125,-4.51881 l -4.4375,-1.422 0,-9.312945 0,-9.312945 3.5625,1.718308 c 11.355727,5.477225 22.538915,7.897792 31.10691,6.732995 3.845438,-0.522778 6.311593,-1.531361 8.176675,-3.344015 C 75.554558,86.979683 76.086475,85.62374 76.10766,82.875 76.12289,80.89847 76.04022,80.45236 75.427477,79.2046 74.56264,77.443483 73.39618,76.3993 71.130035,75.35765 68.726782,74.252975 67.012695,73.775063 58.625,71.87106 54.6375,70.9659 50.057783,69.786293 48.44785,69.249707 38.314795,65.8724 33.10466,60.91485 30.976122,52.625 c -0.76683,-2.986505 -0.83812,-9.348218 -0.141347,-12.613147 1.449157,-6.790448 4.41164,-11.294768 9.790225,-14.88559 8.479897,-5.661306 22.296067,-6.845408 40.753692,-3.492759 3.557763,0.646234 10.281285,2.19314 10.50509,2.416946 0.06744,0.06744 0.09305,4.124907 0.05692,9.016597 L 91.875,41.96103 90.125,41.212085 C 85.511707,39.237743 79.18877,37.373978 74,36.45904 69.931262,35.741595 61.423517,35.66208 58.604912,36.31515 c -4.022707,0.932063 -6.49261,2.499375 -7.578195,4.808855 -1.196492,2.54543 -0.918265,5.786493 0.65447,7.623878 2.10913,2.464045 4.333493,3.25504 15.513853,5.51681 9.366237,1.894772 13.257805,3.017989 17.589935,5.076957 6.85002,3.255662 10.629712,7.899575 12.133952,14.90835 0.345161,1.608215 0.452398,3.15857 0.440965,6.375 -0.02208,6.20741 -0.816014,9.883903 -3.067435,14.2042 -3.616389,6.93956 -10.452655,11.09038 -20.917457,12.7006 -3.129813,0.48158 -12.21133,0.82367 -15.125,0.56974 z" />
</svg>
