<?xml version="1.0" encoding="UTF-8"?>
<svg version="1.1" viewBox="0 0 49.014 16.693" xmlns="http://www.w3.org/2000/svg">
<!-- Extracted from logo_topcoder.svg -->
<path fill="#2AA7DF" d="m12.458 5.4443c-5.7535-1.031-11.174-0.9422-12.263 1.9437-0.76788 2.0345 0.80275 5.1039 3.499 8.1329 0.7952 0.894 1.7152 1.178 2.5795 1.172 0.7993-3.972 3.9875-8.2159 6.1845-11.249z"/>
<path fill="#8AC441" d="m25.742 8.5296c2.954-1.1956 6.972-2.3939 10.84-3.0865 0.198 0.1911 0.392 0.3871 0.584 0.5863-3.587-3.7297-8.239-6.0291-12.65-6.0291-4.175-0.000026-8.566 2.0599-12.066 5.4428 3.868 0.6926 7.886 1.8909 10.84 3.0865 0.373 0.1515 0.786 0.3141 1.226 0.4864 0.44-0.1723 0.853-0.3349 1.226-0.4864z"/>
<path fill="#0A72B8" d="m12.456 5.4481c-3.036 2.9683-6.1887 8.7828-6.1887 11.242 1.0475 0 2.2976-0.506 3.1992-0.972 4.4925-2.323 9.1365-6.0903 15.024-6.7034-2.989-1.304-8.761-3.1274-12.034-3.5664z"/>
<path fill="#F59022" d="m36.591 5.4382c5.74-1.0246 11.142-0.9305 12.229 1.9498 0.767 2.0345-0.803 5.1039-3.499 8.1329-0.727 0.817-1.558 1.125-2.356 1.167-2.5-5.208-3.022-6.146-6.374-11.25z"/>
<path fill="#FFF100" d="m36.586 5.4415c3.036 2.9682 6.389 11.248 6.389 11.248-1.448 0.061-2.857-0.746-3.272-0.984-6.23-3.576-10.107-6.0219-15.2-6.6899 3.034-1.4421 9.656-3.272 12.083-3.5745z"/>
</svg>
