<?xml version="1.0" encoding="UTF-8"?>
<svg version="1.1" viewBox="0 0 320 320" xmlns="http://www.w3.org/2000/svg">
<!-- Based on tumblr_logo_white_blue.eps from https://www.tumblr.com/logo -->
<rect fill="#32405a" width="320" height="320" x="0" y="0" />
<path fill="#ffffff" d="m 210.398,213.437 c -3.71,1.766 -10.808,3.309 -16.101,3.45 -15.977,0.425 -19.07,-11.223 -19.207,-19.68 l 0,-62.129 40.074,0 0,-30.215 -39.93,0 0,-50.843 c 0,0 -28.757,0 -29.238,0 -0.476,0 -1.316,0.425 -1.433,1.492 -1.711,15.562 -8.997,42.871 -39.27,53.785 l 0,25.781 20.195,0 0,65.215 c 0,22.3242 16.477,54.0429 59.95,53.3007 14.667,-0.2539 30.957,-6.3984 34.562,-11.6914 l -9.602,-28.4653" />
</svg>
