<?xml version="1.0" encoding="UTF-8"?>
<svg version="1.1" viewBox="0 0 57.213002 57.213002" xmlns="http://www.w3.org/2000/svg">
<!-- Based on Partner_Marketing_Guidelines.pdf -->
<path fill="#36B4A7" d="m57.213 55.257c0 1.076-0.88 1.956-1.956 1.956h-53.301c-1.076 0-1.956-0.88-1.956-1.956v-53.302c0-1.075 0.88-1.955 1.956-1.955h53.301c1.076 0 1.956 0.88 1.956 1.955v53.302z"/>
<g fill="#fff">
	<path d="m8.957 24.263c0-0.364 0.295-0.658 0.659-0.658h18.646c3.364 0 6.1 2.726 6.1 6.078v5.416c0 0.365-0.296 0.661-0.661 0.661-0.011 0-0.025 0-0.038 0.002l-18.629-0.002c-3.35 0-6.077-2.726-6.077-6.079v-5.418z"/>
	<path d="m42.187 23.6h5.343c0.363 0 0.658 0.296 0.658 0.659v5.419c0 3.352-2.725 6.077-6.077 6.077l-5.329-0.001c-0.379 0-0.675-0.289-0.675-0.657v-5.418c0-3.352 2.728-6.079 6.08-6.079"/>
	<path d="m33.701 37.507h-10.763c-0.363 0-0.659 0.296-0.659 0.659v10.837c0 0.37 0.298 0.658 0.677 0.658l5.327 0.001c3.351 0 6.079-2.726 6.079-6.079v-5.417c0-0.363-0.296-0.659-0.661-0.659"/>
	<circle cy="14.534" cx="28.32" r="6.9265"/>
</g>
</svg>
