<?xml version="1.0" encoding="UTF-8"?>
<svg version="1.1" viewBox="0 0 300 300" xmlns="http://www.w3.org/2000/svg">
<!-- Based on Twitch_GlitchIcon_purple.pdf from http://www.twitch.tv/p/brandassets -->
<path fill="#5d399d" d="m 26.1162,0 -19.565,52.175 0,208.675 71.705,0 0,39.15 39.148,0 39.109,-39.15 58.68,0 78.256,-78.228 0,-182.622 -267.333,0 z m 26.066,26.071 215.19,0 0,143.481 -45.656,45.659 -71.716,0 -39.098,39.096 0,-39.096 -58.72,0 0,-189.14 z" />
<path fill="#5d399d" d="m 123.916,156.526 26.084,0 0,-78.252 -26.084,0 0,78.252 z m 71.721,0 26.079,0 0,-78.252 -26.079,0 0,78.252 z" />
</svg>
