<?xml version="1.0" encoding="UTF-8"?>
<svg xmlns="http://www.w3.org/2000/svg" version="1.1" viewBox="0 0 273.39 222.18">
<!-- Based on Twitter_logo_blue.eps from https://about.twitter.com/press/brand-assets -->
<path fill="#55ACEE" d="m 85.9797,222.178 c -31.675,0 -61.1574,-9.28516 -85.9797,-25.1988 4.38789,0.5179 8.85273,0.7828 13.3801,0.7828 26.2781,0 50.4629,-8.9672 69.659,-24.0102 -24.5442,-0.4527 -45.2579,-16.6687 -52.3953,-38.9527 3.4246,0.6551 6.9382,1.0059 10.5527,1.0059 5.1148,0 10.0703,-0.6852 14.7769,-1.9668 C 30.3145,128.6858 10.9805,106.016 10.9805,78.84 c 0,-0.237 7e-4,-0.471 0.0047,-0.705 7.5628,4.201 16.2113,6.724 25.4054,7.015 -15.05,-10.058 -24.9519,-27.226 -24.9519,-46.685 0,-10.28 2.7652,-19.914 7.5933,-28.198 27.6645,33.934 68.9934,56.264 115.609,58.603 -0.956,-4.105 -1.453,-8.386 -1.453,-12.782 C 133.188,25.113 158.302,0 189.279,0 c 16.132,0 30.709,6.812 40.941,17.713 12.776,-2.516 24.78,-7.184 35.617,-13.612 -4.188,13.098 -13.081,24.09 -24.662,31.032 11.346,-1.356 22.156,-4.371 32.215,-8.832 -7.52,11.248 -17.03,21.127 -27.988,29.035 0.108,2.405 0.162,4.824 0.162,7.256 0,74.1188 -56.416,159.586 -159.5843,159.586" />
</svg>
