<?xml version="1.0" encoding="UTF-8"?>
<svg xmlns="http://www.w3.org/2000/svg" version="1.1" viewBox="0 0 262.8536 54.872">
<!-- Based on https://www.uber.com/media/ -->
<g fill="#000">
	<path d="m41.347 1.325v30.251c0 10.102-4.472 14.297-14.96 14.297-10.489 0-14.96-4.195-14.96-14.297v-31.576h-10.102c-0.883 0-1.325 0.442-1.325 1.325v30.748c0 16.892 10.765 22.799 26.387 22.799s26.387-5.907 26.387-22.799v-32.073h-10.102c-0.883 0-1.325 0.442-1.325 1.325"/>
	<path d="m187.79 8.777c0.828 0 1.214-0.275 1.49-0.882l2.927-7.232c0.16-0.441 0-0.663-0.45-0.663h-40.68c-3.809 0-5.243 1.16-5.243 3.754v46.977c0 2.208 1.103 3.202 4.029 3.202h37.924c0.828 0 1.214-0.276 1.49-0.883l2.927-7.232c0.165-0.442 0-0.662-0.443-0.662h-34.722v-9.55c0-3.312 1.822-4.803 6.735-4.803h15.07c0.828 0 1.214-0.275 1.491-0.883l2.815-6.955c0.166-0.442 0-0.663-0.442-0.663h-25.669v-13.525h30.748"/>
	<path d="m105.57 45.266h-19.934v-9.881c0-3.312 1.822-4.802 6.735-4.802h13.199c6.348 0 8.114 2.429 8.114 7.397s-1.766 7.286-8.114 7.286zm-19.933-36.599h17.836c5.962 0 7.618 2.246 7.618 6.9 0 4.655-1.656 6.901-7.618 6.901h-17.836v-13.801zm30.533 16.837c4.415-2.319 6.237-6.68 6.237-11.813 0-11.924-9.72-13.691-19.77-13.691h-22.96c-3.809 0-5.243 1.16-5.243 3.754v46.977c0 2.208 1.103 3.202 4.029 3.202h28.264c10.654 0 18.272-4.14 18.272-14.904 0-6.459-2.761-11.924-8.832-13.525"/>
	<path d="m241.64 25.007h-18.769v-16.339h18.769c7.01 0 8.556 2.704 8.556 8.169 0 5.52-1.546 8.17-8.556 8.17zm21.08 27.987-12.08-20.755c6.01-1.546 10.87-5.52 10.87-15.622 0-13.083-8.11-16.617-21.53-16.617h-23.074c-3.809 0-5.245 1.16-5.245 3.754v48.854c0 0.883 0.442 1.325 1.325 1.325h9.881v-15.732c0-3.313 1.822-4.803 6.735-4.803h9.936l10.93 19.652c0.331 0.552 0.662 0.883 1.49 0.883h10.268c0.718 0 0.718-0.608 0.497-0.939"/>
</g>
</svg>
