<?xml version="1.0" encoding="UTF-8"?>
<svg xmlns="http://www.w3.org/2000/svg" version="1.1" viewBox="0 0 10219.133 7182.5601">
<!-- Based on YouTube-icon-full_color.eps from https://www.youtube.com/yt/brand/downloads.html -->
<defs>
	<linearGradient x1="0" y1="0" x2="1" y2="0"
		id="YouTubeGradient"
		gradientUnits="userSpaceOnUse"
		gradientTransform="matrix(-3.14e-5,-718.423,-718.423,3.14e-5,510.724,718.423)"
		spreadMethod="pad">
		<stop style="stop-color: #e62426" offset="0"/>
		<stop style="stop-color: #c01e25" offset="1"/>
	</linearGradient>
</defs>
<g transform="matrix(1,0,0,-1,1.8879916,7182.5603)">
	<path style="fill:#ffffff" d="m 4052.25,2267.19 2760,1430 -2760,1440 0,-2870"/>
	<path style="fill:#eae0e1" d="m 6472.41,3521.11 -2420.16,1616.08 2760,-1440 -339.84,-176.08"/>
	<path style="fill:url(#YouTubeGradient)" d="M 5009,0 C 3872.594,19.927311 2719.5788,23.245446 1641,101 1345.2211,137.22113 1051.9008,175.90076 838,294 589.75727,419.75727 405.46752,609.46752 294,872 165.02605,1169.3594 87.929222,1518.5959 64,1921 -12.597341,2659.7924 -5.8753621,3498.2723 4,4310 c 21.049593,496.9504 46.987997,989.012 117,1437 87.23588,406.7641 212.12717,775.8728 486,996 219.4608,195.2059 515.5679,313.7655 907,337 1408.6226,93.3726 2914.3433,113.0671 4412,98 974.942,-15.7247 1949.9017,-31.4316 2864,-108 468.2395,-40.0939 779.6143,-237.0524 1002,-523 169.7104,-252.6229 267.163,-577.504 325,-942 79.966,-693.4402 110.986,-1435.8272 97,-2223.2201 3.846,-671.7726 -33.436,-1302.417 -112,-1891.7799 C 10029.624,1121.0431 9925.8016,783.53178 9718,550 9485.9068,301.09319 9171.5666,134.43335 8715,110 7529.2472,24.254117 6273.0197,6.807616 5009,0 z m -956,2269 c 677.4863,349.1803 1358.6676,703.3325 2037,1055 238.3838,124.2825 486.8371,249.1633 718,374 -816.6952,427.9715 -1636.1619,853.1714 -2453,1281 -101.3628,51.6372 -201.1609,104.8391 -302,157 0,-955.6667 0,-1911.3333 0,-2867 z"/>
</g>
</svg>
